%TF.GenerationSoftware,KiCad,Pcbnew,10.0.6*%
%TF.CreationDate,2026-09-26T14:49:12+01:00*%
%TF.ProjectId,USB_POWER,5553425f-504f-4574-9552-2e6b69636164,rev?*%
%TF.SameCoordinates,Original*%
%TF.FileFunction,Paste,Top*%
%TF.FilePolarity,Positive*%
%FSLAX46Y46*%
G04 Gerber Fmt 4.6, Leading zero omitted, Abs format (unit mm)*
G04 Created by KiCad (PCBNEW 10.0.6) date 2026-09-26 14:49:12*
%MOMM*%
%LPD*%
G01*
G04 APERTURE LIST*
G04 Aperture macros list*
%AMRoundRect*
0 Rectangle with rounded corners*
0 $1 Rounding radius*
0 $2 $3 $4 $5 $6 $7 $8 $9 X,Y pos of 4 corners*
0 Add a 4 corners polygon primitive as box body*
4,1,4,$2,$3,$4,$5,$6,$7,$8,$9,$2,$3,0*
0 Add four circle primitives for the rounded corners*
1,1,$1+$1,$2,$3*
1,1,$1+$1,$4,$5*
1,1,$1+$1,$6,$7*
1,1,$1+$1,$8,$9*
0 Add four rect primitives between the rounded corners*
20,1,$1+$1,$2,$3,$4,$5,0*
20,1,$1+$1,$4,$5,$6,$7,0*
20,1,$1+$1,$6,$7,$8,$9,0*
20,1,$1+$1,$8,$9,$2,$3,0*%
%AMFreePoly0*
4,1,9,0.700000,-0.450000,-0.700000,-0.450000,-0.700000,-0.200000,-0.375000,-0.200000,-0.375000,0.200000,-0.700000,0.200000,-0.700000,0.450000,0.700000,0.450000,0.700000,-0.450000,0.700000,-0.450000,$1*%
%AMFreePoly1*
4,1,9,0.700000,0.200000,0.375000,0.200000,0.375000,-0.200000,0.700000,-0.200000,0.700000,-0.450000,-0.700000,-0.450000,-0.700000,0.450000,0.700000,0.450000,0.700000,0.200000,0.700000,0.200000,$1*%
G04 Aperture macros list end*
%ADD10RoundRect,0.200000X-0.200000X-0.275000X0.200000X-0.275000X0.200000X0.275000X-0.200000X0.275000X0*%
%ADD11RoundRect,0.250000X-0.325000X-1.100000X0.325000X-1.100000X0.325000X1.100000X-0.325000X1.100000X0*%
%ADD12RoundRect,0.250000X-0.325000X-0.650000X0.325000X-0.650000X0.325000X0.650000X-0.325000X0.650000X0*%
%ADD13RoundRect,0.150000X-0.512500X-0.150000X0.512500X-0.150000X0.512500X0.150000X-0.512500X0.150000X0*%
%ADD14RoundRect,0.250000X0.325000X1.100000X-0.325000X1.100000X-0.325000X-1.100000X0.325000X-1.100000X0*%
%ADD15RoundRect,0.150000X-0.825000X-0.150000X0.825000X-0.150000X0.825000X0.150000X-0.825000X0.150000X0*%
%ADD16RoundRect,0.200000X0.200000X0.275000X-0.200000X0.275000X-0.200000X-0.275000X0.200000X-0.275000X0*%
%ADD17RoundRect,0.250000X-1.500000X-0.550000X1.500000X-0.550000X1.500000X0.550000X-1.500000X0.550000X0*%
%ADD18R,0.950000X0.950000*%
%ADD19FreePoly0,0.000000*%
%ADD20R,1.200000X0.250000*%
%ADD21FreePoly1,0.000000*%
%ADD22RoundRect,0.225000X-0.225000X-0.250000X0.225000X-0.250000X0.225000X0.250000X-0.225000X0.250000X0*%
%ADD23RoundRect,0.242500X-0.422500X-0.242500X0.422500X-0.242500X0.422500X0.242500X-0.422500X0.242500X0*%
%ADD24RoundRect,0.087500X-0.337500X-0.087500X0.337500X-0.087500X0.337500X0.087500X-0.337500X0.087500X0*%
%ADD25RoundRect,0.225000X-0.225000X-0.375000X0.225000X-0.375000X0.225000X0.375000X-0.225000X0.375000X0*%
G04 APERTURE END LIST*
D10*
%TO.C,R7*%
X31675000Y35000000D03*
X33325000Y35000000D03*
%TD*%
D11*
%TO.C,C14*%
X38525000Y23000000D03*
X41475000Y23000000D03*
%TD*%
D12*
%TO.C,C6*%
X19025000Y16500000D03*
X21975000Y16500000D03*
%TD*%
D13*
%TO.C,U6*%
X57362500Y17450000D03*
X57362500Y16500000D03*
X57362500Y15550000D03*
X59637500Y15550000D03*
X59637500Y16500000D03*
X59637500Y17450000D03*
%TD*%
D14*
%TO.C,C3*%
X34675000Y28500000D03*
X31725000Y28500000D03*
%TD*%
D11*
%TO.C,C10*%
X41325000Y28500000D03*
X44275000Y28500000D03*
%TD*%
%TO.C,C13*%
X32525000Y23000000D03*
X35475000Y23000000D03*
%TD*%
D15*
%TO.C,Q1*%
X19525000Y44905000D03*
X19525000Y43635000D03*
X19525000Y42365000D03*
X19525000Y41095000D03*
X24475000Y41095000D03*
X24475000Y42365000D03*
X24475000Y43635000D03*
X24475000Y44905000D03*
%TD*%
D12*
%TO.C,C7*%
X62025000Y16500000D03*
X64975000Y16500000D03*
%TD*%
D16*
%TO.C,R1*%
X33325000Y32500000D03*
X31675000Y32500000D03*
%TD*%
D17*
%TO.C,C12*%
X59300000Y43000000D03*
X64700000Y43000000D03*
%TD*%
D10*
%TO.C,R6*%
X26175000Y37000000D03*
X27825000Y37000000D03*
%TD*%
D18*
%TO.C,U1*%
X36850000Y37250000D03*
X36850000Y35750000D03*
X36850000Y34250000D03*
X36850000Y32750000D03*
X38000000Y37250000D03*
X38000000Y35750000D03*
X38000000Y34250000D03*
X38000000Y32750000D03*
X39150000Y37250000D03*
X39150000Y35750000D03*
X39150000Y34250000D03*
X39150000Y32750000D03*
D19*
X35250000Y37925000D03*
D20*
X35150000Y36950000D03*
X35150000Y36300000D03*
X35150000Y35650000D03*
X35150000Y35000000D03*
X35150000Y34350000D03*
X35150000Y33700000D03*
X35150000Y33050000D03*
D19*
X35250000Y32075000D03*
D21*
X40750000Y32075000D03*
D20*
X40850000Y33050000D03*
X40850000Y33700000D03*
X40850000Y34350000D03*
X40850000Y35000000D03*
X40850000Y35650000D03*
X40850000Y36300000D03*
X40850000Y36950000D03*
D21*
X40750000Y37925000D03*
%TD*%
D22*
%TO.C,C4*%
X17225000Y28000000D03*
X18775000Y28000000D03*
%TD*%
D10*
%TO.C,R2*%
X22175000Y24000000D03*
X23825000Y24000000D03*
%TD*%
%TO.C,R8*%
X43175000Y33500000D03*
X44825000Y33500000D03*
%TD*%
D11*
%TO.C,C9*%
X36525000Y28500000D03*
X39475000Y28500000D03*
%TD*%
D23*
%TO.C,U3*%
X61000000Y24600000D03*
X61000000Y23400000D03*
D24*
X59550000Y24975000D03*
X59550000Y24325000D03*
X59550000Y23675000D03*
X59550000Y23025000D03*
X62450000Y23025000D03*
X62450000Y23675000D03*
X62450000Y24325000D03*
X62450000Y24975000D03*
%TD*%
D10*
%TO.C,R5*%
X65175000Y28000000D03*
X66825000Y28000000D03*
%TD*%
D14*
%TO.C,C1*%
X33075000Y38250000D03*
X30125000Y38250000D03*
%TD*%
D10*
%TO.C,R3*%
X65175000Y24000000D03*
X66825000Y24000000D03*
%TD*%
D11*
%TO.C,C2*%
X42925000Y38250000D03*
X45875000Y38250000D03*
%TD*%
D25*
%TO.C,D1*%
X20350000Y37000000D03*
X23650000Y37000000D03*
%TD*%
D22*
%TO.C,C5*%
X60225000Y28000000D03*
X61775000Y28000000D03*
%TD*%
%TO.C,C8*%
X36225000Y12000000D03*
X37775000Y12000000D03*
%TD*%
D13*
%TO.C,U5*%
X14362500Y17450000D03*
X14362500Y16500000D03*
X14362500Y15550000D03*
X16637500Y15550000D03*
X16637500Y16500000D03*
X16637500Y17450000D03*
%TD*%
D10*
%TO.C,R4*%
X22175000Y28000000D03*
X23825000Y28000000D03*
%TD*%
D13*
%TO.C,U4*%
X35862500Y16950000D03*
X35862500Y16000000D03*
X35862500Y15050000D03*
X38137500Y15050000D03*
X38137500Y16000000D03*
X38137500Y16950000D03*
%TD*%
D10*
%TO.C,R9*%
X43175000Y31200000D03*
X44825000Y31200000D03*
%TD*%
D23*
%TO.C,U2*%
X18000000Y24600000D03*
X18000000Y23400000D03*
D24*
X16550000Y24975000D03*
X16550000Y24325000D03*
X16550000Y23675000D03*
X16550000Y23025000D03*
X19450000Y23025000D03*
X19450000Y23675000D03*
X19450000Y24325000D03*
X19450000Y24975000D03*
%TD*%
D22*
%TO.C,C11*%
X28425000Y29500000D03*
X29975000Y29500000D03*
%TD*%
M02*
