M48
; DRILL file KiCad 10.0.6 date 2026-09-26T14:50:12
; FORMAT={-:-/ absolute / metric / decimal}
; #@! TF.CreationDate,2026-09-26T14:50:12+01:00
; #@! TF.GenerationSoftware,Kicad,Pcbnew,10.0.6
; #@! TF.FileFunction,Plated,1,4,PTH
FMAT,2
METRIC
; #@! TA.AperFunction,Plated,PTH,ViaDrill
T1C0.254
; #@! TA.AperFunction,Plated,PTH,ViaDrill
T2C0.350
; #@! TA.AperFunction,Plated,PTH,ViaDrill
T3C0.400
; #@! TA.AperFunction,Plated,PTH,ViaDrill
T4C0.635
; #@! TA.AperFunction,Plated,PTH,ComponentDrill
T5C1.400
; #@! TA.AperFunction,Plated,PTH,ComponentDrill
T6C1.700
%
G90
G05
T1
X36.621Y69.282
X36.621Y67.25
X61.519Y35.168
X61.64Y64.71
X62.91Y64.702
X62.91Y49.089
X62.916Y35.168
X63.164Y51.502
X63.291Y52.645
X64.331Y45.898
X64.331Y44.898
X64.331Y43.898
X65.331Y45.898
X65.331Y44.898
X65.331Y43.898
X65.45Y55.82
X65.456Y49.011
X66.218Y36.438
X66.331Y45.898
X66.331Y44.898
X66.331Y43.898
X67.331Y45.898
X67.331Y44.898
X67.331Y43.898
X68.371Y52.899
X70.403Y36.389
X71.292Y64.71
X73.197Y36.389
X74.594Y54.804
X74.594Y53.407
T2
X11.0Y61.0
X11.0Y58.0
X12.25Y49.8
X12.4Y51.25
X12.825Y43.8
X17.825Y43.8
X18.5Y47.7
X24.0Y50.0
X67.609Y39.6
T3
X3.5Y40.0
X9.5Y55.5
X12.5Y40.0
X13.96Y60.5
X16.04Y60.5
X22.778Y69.06
X30.5Y60.36
X36.24Y57.0
T4
X36.24Y58.741
X39.288Y58.741
X42.59Y58.741
X67.99Y90.11
X73.07Y90.11
X78.15Y90.11
X78.912Y68.139
X78.912Y61.916
X82.214Y68.139
X82.341Y61.916
X85.389Y68.139
X85.389Y61.916
X88.564Y61.916
T5
X82.0Y21.0
X82.0Y18.5
X85.5Y21.0
X85.5Y18.5
X91.3Y21.0
X91.3Y18.5
X94.8Y21.0
X94.8Y18.5
T6
X8.0Y73.0
X11.96Y73.0
X80.0Y9.0
X83.96Y9.0
X87.92Y9.0
M30
