%TF.GenerationSoftware,KiCad,Pcbnew,10.0.6*%
%TF.CreationDate,2026-09-26T14:50:12+01:00*%
%TF.ProjectId,POE_POWER,504f455f-504f-4574-9552-2e6b69636164,D6 PROTOTYPE*%
%TF.SameCoordinates,Original*%
%TF.FileFunction,Copper,L2,Inr*%
%TF.FilePolarity,Positive*%
%FSLAX46Y46*%
G04 Gerber Fmt 4.6, Leading zero omitted, Abs format (unit mm)*
G04 Created by KiCad (PCBNEW 10.0.6) date 2026-09-26 14:50:12*
%MOMM*%
%LPD*%
G01*
G04 APERTURE LIST*
G04 Aperture macros list*
%AMRoundRect*
0 Rectangle with rounded corners*
0 $1 Rounding radius*
0 $2 $3 $4 $5 $6 $7 $8 $9 X,Y pos of 4 corners*
0 Add a 4 corners polygon primitive as box body*
4,1,4,$2,$3,$4,$5,$6,$7,$8,$9,$2,$3,0*
0 Add four circle primitives for the rounded corners*
1,1,$1+$1,$2,$3*
1,1,$1+$1,$4,$5*
1,1,$1+$1,$6,$7*
1,1,$1+$1,$8,$9*
0 Add four rect primitives between the rounded corners*
20,1,$1+$1,$2,$3,$4,$5,0*
20,1,$1+$1,$4,$5,$6,$7,0*
20,1,$1+$1,$6,$7,$8,$9,0*
20,1,$1+$1,$8,$9,$2,$3,0*%
G04 Aperture macros list end*
%TA.AperFunction,ComponentPad*%
%ADD10C,2.200000*%
%TD*%
%TA.AperFunction,ComponentPad*%
%ADD11RoundRect,0.250001X-1.099999X-1.099999X1.099999X-1.099999X1.099999X1.099999X-1.099999X1.099999X0*%
%TD*%
%TA.AperFunction,ComponentPad*%
%ADD12C,2.700000*%
%TD*%
%TA.AperFunction,ViaPad*%
%ADD13C,0.800000*%
%TD*%
%TA.AperFunction,ViaPad*%
%ADD14C,1.270000*%
%TD*%
%TA.AperFunction,ViaPad*%
%ADD15C,0.700000*%
%TD*%
%TA.AperFunction,ViaPad*%
%ADD16C,0.508000*%
%TD*%
%TA.AperFunction,Conductor*%
%ADD17C,0.254000*%
%TD*%
G04 APERTURE END LIST*
D10*
%TO.N,53V5_RAW*%
%TO.C,F6*%
X82000000Y21000000D03*
X82000000Y18500000D03*
X85500000Y21000000D03*
X85500000Y18500000D03*
%TO.N,SWITCH_53V5*%
X91300000Y21000000D03*
X91300000Y18500000D03*
X94800000Y21000000D03*
X94800000Y18500000D03*
%TD*%
D11*
%TO.N,SWITCH_53V5*%
%TO.C,J6*%
X80000000Y9000000D03*
D12*
%TO.N,unconnected-(J6-NC-Pad2)*%
X83960000Y9000000D03*
%TO.N,GND*%
X87920000Y9000000D03*
%TD*%
D11*
%TO.N,12V_IN*%
%TO.C,J1*%
X8000000Y73000000D03*
D12*
%TO.N,GND*%
X11960000Y73000000D03*
%TD*%
D13*
%TO.N,GND*%
X16040000Y60500000D03*
D14*
X85389000Y61916000D03*
D15*
X24000000Y50000000D03*
D16*
X65330999Y45897998D03*
X66330999Y44898000D03*
D13*
X13960000Y60500000D03*
D16*
X67330999Y45897998D03*
D15*
X11000000Y61000000D03*
X12250000Y49800000D03*
D14*
X88564000Y61916000D03*
D15*
X17825000Y43800000D03*
D16*
X65330999Y43897999D03*
X67330999Y43897999D03*
X74594000Y53407000D03*
X70403000Y36389000D03*
X66330999Y45897998D03*
X64330998Y45897998D03*
D14*
X42590000Y58741000D03*
D15*
X12825000Y43800000D03*
D16*
X66330999Y43897999D03*
D15*
X11000000Y58000000D03*
D14*
X82341000Y61916000D03*
X78150000Y90110000D03*
D13*
X12500000Y40000000D03*
X36240000Y57000000D03*
D16*
X73197000Y36389000D03*
X67330999Y44898000D03*
D14*
X67990000Y90110000D03*
X39288000Y58741000D03*
D13*
X30500000Y60360000D03*
D14*
X36240000Y58741000D03*
D16*
X64330998Y44898000D03*
X64330998Y43897999D03*
D14*
X73070000Y90110000D03*
D16*
X65330999Y44898000D03*
D14*
X78912000Y61916000D03*
D16*
%TO.N,SW*%
X63164000Y51502000D03*
X71292000Y64710000D03*
X61640000Y64710000D03*
D14*
%TO.N,BOOST_OUT*%
X82214000Y68139000D03*
X78912000Y68139000D03*
X85389000Y68139000D03*
D16*
%TO.N,HO*%
X62910000Y49089000D03*
X62910000Y64702329D03*
D15*
%TO.N,UVLO*%
X67609000Y39600000D03*
X18500000Y47700000D03*
%TO.N,12V_IN*%
X12400000Y51250000D03*
D13*
X9500000Y55500000D03*
X3500000Y40000000D03*
D16*
%TO.N,BOOST_IN*%
X66217512Y36438499D03*
X62915512Y35168499D03*
X36621000Y67250000D03*
D13*
X22778000Y69060000D03*
D16*
%TO.N,SENSE_LOW*%
X36621000Y69282000D03*
X61518512Y35168499D03*
%TO.N,VCC*%
X68371000Y52899000D03*
X63291000Y52645000D03*
%TO.N,LO*%
X65455512Y49011499D03*
X74594000Y54804000D03*
X65450000Y55820000D03*
%TD*%
%TO.N,SW*%
D17*
X62021000Y63186000D02*
X62021000Y64329000D01*
X61640000Y64710000D02*
X62218002Y65288002D01*
X63164000Y51502000D02*
X64053000Y52391000D01*
X62021000Y63186000D02*
X64053000Y61154000D01*
X61640000Y64710000D02*
X62021000Y64329000D01*
X64053000Y52391000D02*
X64053000Y61154000D01*
X62218002Y65288002D02*
X70713998Y65288002D01*
X70713998Y65288002D02*
X71292000Y64710000D01*
%TO.N,HO*%
X64561000Y50740000D02*
X64561000Y61364419D01*
X62529000Y64321329D02*
X62910000Y64702329D01*
X62529000Y63396419D02*
X64561000Y61364419D01*
X62529000Y63396419D02*
X62529000Y64321329D01*
X62910000Y49089000D02*
X64561000Y50740000D01*
%TO.N,LO*%
X65450000Y55820000D02*
X73578000Y55820000D01*
X65455512Y49011499D02*
X65455512Y55814488D01*
X73578000Y55820000D02*
X74594000Y54804000D01*
%TD*%
%TA.AperFunction,Conductor*%
%TO.N,GND*%
G36*
X103003736Y99499274D02*
G01*
X103293796Y99481729D01*
X103308659Y99479924D01*
X103590797Y99428220D01*
X103605334Y99424637D01*
X103879182Y99339302D01*
X103893163Y99334000D01*
X104154734Y99216276D01*
X104167987Y99209320D01*
X104413458Y99060929D01*
X104425776Y99052427D01*
X104651573Y98875526D01*
X104662781Y98865596D01*
X104865595Y98662782D01*
X104875525Y98651574D01*
X105052422Y98425783D01*
X105060928Y98413459D01*
X105209319Y98167988D01*
X105216277Y98154731D01*
X105333994Y97893177D01*
X105339304Y97879175D01*
X105424635Y97605336D01*
X105428219Y97590798D01*
X105479923Y97308660D01*
X105481728Y97293795D01*
X105499274Y97003737D01*
X105499500Y96996250D01*
X105499500Y3003751D01*
X105499274Y2996264D01*
X105481728Y2706206D01*
X105479923Y2691341D01*
X105428219Y2409203D01*
X105424635Y2394665D01*
X105339304Y2120826D01*
X105333994Y2106824D01*
X105216277Y1845270D01*
X105209319Y1832013D01*
X105060928Y1586542D01*
X105052422Y1574218D01*
X104875525Y1348427D01*
X104865595Y1337219D01*
X104662781Y1134405D01*
X104651573Y1124475D01*
X104425782Y947578D01*
X104413458Y939072D01*
X104167987Y790681D01*
X104154730Y783723D01*
X103893176Y666006D01*
X103879174Y660696D01*
X103605335Y575365D01*
X103590797Y571781D01*
X103308659Y520077D01*
X103293794Y518272D01*
X103003736Y500726D01*
X102996249Y500500D01*
X3003751Y500500D01*
X2996264Y500726D01*
X2706205Y518272D01*
X2691340Y520077D01*
X2409202Y571781D01*
X2394664Y575365D01*
X2120825Y660696D01*
X2106827Y666005D01*
X1954096Y734744D01*
X1845269Y783723D01*
X1832012Y790681D01*
X1586541Y939072D01*
X1574217Y947578D01*
X1348426Y1124475D01*
X1337218Y1134405D01*
X1134404Y1337219D01*
X1124474Y1348427D01*
X947573Y1574224D01*
X939071Y1586542D01*
X790680Y1832013D01*
X783722Y1845270D01*
X666000Y2106837D01*
X660698Y2120818D01*
X575363Y2394666D01*
X571780Y2409203D01*
X520076Y2691341D01*
X518271Y2706206D01*
X500726Y2996264D01*
X500500Y3003751D01*
X500500Y5121289D01*
X3149500Y5121289D01*
X3149500Y4878712D01*
X3181161Y4638215D01*
X3243947Y4403896D01*
X3336773Y4179795D01*
X3336776Y4179788D01*
X3458064Y3969711D01*
X3458066Y3969708D01*
X3458067Y3969707D01*
X3605733Y3777264D01*
X3605739Y3777257D01*
X3777256Y3605740D01*
X3777262Y3605735D01*
X3969711Y3458064D01*
X4179788Y3336776D01*
X4403900Y3243946D01*
X4638211Y3181162D01*
X4818586Y3157416D01*
X4878711Y3149500D01*
X4878712Y3149500D01*
X5121289Y3149500D01*
X5169388Y3155833D01*
X5361789Y3181162D01*
X5596100Y3243946D01*
X5820212Y3336776D01*
X6030289Y3458064D01*
X6222738Y3605735D01*
X6394265Y3777262D01*
X6541936Y3969711D01*
X6663224Y4179788D01*
X6756054Y4403900D01*
X6818838Y4638211D01*
X6850500Y4878712D01*
X6850500Y5121288D01*
X6850500Y5121289D01*
X99149500Y5121289D01*
X99149500Y4878712D01*
X99181161Y4638215D01*
X99243947Y4403896D01*
X99336773Y4179795D01*
X99336776Y4179788D01*
X99458064Y3969711D01*
X99458066Y3969708D01*
X99458067Y3969707D01*
X99605733Y3777264D01*
X99605739Y3777257D01*
X99777256Y3605740D01*
X99777262Y3605735D01*
X99969711Y3458064D01*
X100179788Y3336776D01*
X100403900Y3243946D01*
X100638211Y3181162D01*
X100818586Y3157416D01*
X100878711Y3149500D01*
X100878712Y3149500D01*
X101121289Y3149500D01*
X101169388Y3155833D01*
X101361789Y3181162D01*
X101596100Y3243946D01*
X101820212Y3336776D01*
X102030289Y3458064D01*
X102222738Y3605735D01*
X102394265Y3777262D01*
X102541936Y3969711D01*
X102663224Y4179788D01*
X102756054Y4403900D01*
X102818838Y4638211D01*
X102850500Y4878712D01*
X102850500Y5121288D01*
X102818838Y5361789D01*
X102756054Y5596100D01*
X102663224Y5820212D01*
X102541936Y6030289D01*
X102394265Y6222738D01*
X102394260Y6222744D01*
X102222743Y6394261D01*
X102222736Y6394267D01*
X102030293Y6541933D01*
X102030292Y6541934D01*
X102030289Y6541936D01*
X101820212Y6663224D01*
X101820205Y6663227D01*
X101596104Y6756053D01*
X101361785Y6818839D01*
X101121289Y6850500D01*
X101121288Y6850500D01*
X100878712Y6850500D01*
X100878711Y6850500D01*
X100638214Y6818839D01*
X100403895Y6756053D01*
X100179794Y6663227D01*
X100179785Y6663223D01*
X99969706Y6541933D01*
X99777263Y6394267D01*
X99777256Y6394261D01*
X99605739Y6222744D01*
X99605733Y6222737D01*
X99458067Y6030294D01*
X99336777Y5820215D01*
X99336773Y5820206D01*
X99243947Y5596105D01*
X99181161Y5361786D01*
X99149500Y5121289D01*
X6850500Y5121289D01*
X6818838Y5361789D01*
X6756054Y5596100D01*
X6663224Y5820212D01*
X6541936Y6030289D01*
X6394265Y6222738D01*
X6394260Y6222744D01*
X6222743Y6394261D01*
X6222736Y6394267D01*
X6030293Y6541933D01*
X6030292Y6541934D01*
X6030289Y6541936D01*
X5820212Y6663224D01*
X5820205Y6663227D01*
X5596104Y6756053D01*
X5361785Y6818839D01*
X5121289Y6850500D01*
X5121288Y6850500D01*
X4878712Y6850500D01*
X4878711Y6850500D01*
X4638214Y6818839D01*
X4403895Y6756053D01*
X4179794Y6663227D01*
X4179785Y6663223D01*
X3969706Y6541933D01*
X3777263Y6394267D01*
X3777256Y6394261D01*
X3605739Y6222744D01*
X3605733Y6222737D01*
X3458067Y6030294D01*
X3336777Y5820215D01*
X3336773Y5820206D01*
X3243947Y5596105D01*
X3181161Y5361786D01*
X3149500Y5121289D01*
X500500Y5121289D01*
X500500Y10143100D01*
X78349500Y10143100D01*
X78349500Y7856909D01*
X78360123Y7768438D01*
X78415639Y7627658D01*
X78415640Y7627656D01*
X78507077Y7507078D01*
X78555417Y7470421D01*
X78627658Y7415639D01*
X78768436Y7360124D01*
X78856901Y7349500D01*
X81143098Y7349501D01*
X81231564Y7360124D01*
X81372342Y7415639D01*
X81492922Y7507078D01*
X81584361Y7627658D01*
X81639876Y7768436D01*
X81650500Y7856901D01*
X81650499Y9129903D01*
X82309500Y9129903D01*
X82309500Y8870098D01*
X82350140Y8613507D01*
X82430422Y8366424D01*
X82511534Y8207236D01*
X82548366Y8134949D01*
X82701069Y7924771D01*
X82884771Y7741069D01*
X83094949Y7588366D01*
X83242445Y7513213D01*
X83326423Y7470423D01*
X83326425Y7470423D01*
X83326428Y7470421D01*
X83573507Y7390140D01*
X83705706Y7369203D01*
X83830098Y7349500D01*
X83830103Y7349500D01*
X84089902Y7349500D01*
X84203298Y7367461D01*
X84346493Y7390140D01*
X84593572Y7470421D01*
X84825051Y7588366D01*
X85035229Y7741069D01*
X85218931Y7924771D01*
X85371634Y8134949D01*
X85489579Y8366428D01*
X85569860Y8613507D01*
X85592539Y8756702D01*
X85610500Y8870098D01*
X85610500Y9129903D01*
X85588947Y9265979D01*
X85569860Y9386493D01*
X85489579Y9633572D01*
X85489577Y9633575D01*
X85489577Y9633577D01*
X85446787Y9717555D01*
X85371634Y9865051D01*
X85218931Y10075229D01*
X85035229Y10258931D01*
X84825051Y10411634D01*
X84752764Y10448466D01*
X84593576Y10529578D01*
X84346493Y10609860D01*
X84089902Y10650500D01*
X84089897Y10650500D01*
X83830103Y10650500D01*
X83830098Y10650500D01*
X83573506Y10609860D01*
X83326423Y10529578D01*
X83094945Y10411632D01*
X82884774Y10258934D01*
X82884768Y10258929D01*
X82701071Y10075232D01*
X82701066Y10075226D01*
X82548368Y9865055D01*
X82430422Y9633577D01*
X82350140Y9386494D01*
X82309500Y9129903D01*
X81650499Y9129903D01*
X81650499Y10143098D01*
X81639876Y10231564D01*
X81584361Y10372342D01*
X81584359Y10372345D01*
X81492922Y10492923D01*
X81372344Y10584360D01*
X81372342Y10584361D01*
X81231564Y10639876D01*
X81231561Y10639877D01*
X81143099Y10650500D01*
X78856908Y10650500D01*
X78768437Y10639877D01*
X78627657Y10584361D01*
X78627655Y10584360D01*
X78507077Y10492923D01*
X78415640Y10372345D01*
X78415639Y10372342D01*
X78370916Y10258929D01*
X78360124Y10231563D01*
X78360123Y10231562D01*
X78349500Y10143100D01*
X500500Y10143100D01*
X500500Y21110222D01*
X80599500Y21110222D01*
X80599500Y20889779D01*
X80633985Y20672048D01*
X80702103Y20462397D01*
X80702104Y20462394D01*
X80770122Y20328904D01*
X80781385Y20306799D01*
X80802187Y20265975D01*
X80931752Y20087642D01*
X80931756Y20087637D01*
X81087636Y19931757D01*
X81087641Y19931753D01*
X81199727Y19850318D01*
X81242393Y19794989D01*
X81248372Y19725375D01*
X81215767Y19663580D01*
X81199727Y19649682D01*
X81087641Y19568248D01*
X81087636Y19568244D01*
X80931756Y19412364D01*
X80931752Y19412359D01*
X80802187Y19234026D01*
X80702104Y19037607D01*
X80702103Y19037604D01*
X80633985Y18827953D01*
X80599500Y18610222D01*
X80599500Y18389779D01*
X80633985Y18172048D01*
X80702103Y17962397D01*
X80702104Y17962394D01*
X80802187Y17765975D01*
X80931752Y17587642D01*
X80931756Y17587637D01*
X81087636Y17431757D01*
X81087641Y17431753D01*
X81243192Y17318740D01*
X81265978Y17302185D01*
X81394375Y17236763D01*
X81462393Y17202105D01*
X81462396Y17202104D01*
X81567221Y17168045D01*
X81672049Y17133985D01*
X81889778Y17099500D01*
X81889779Y17099500D01*
X82110221Y17099500D01*
X82110222Y17099500D01*
X82327951Y17133985D01*
X82537606Y17202105D01*
X82734022Y17302185D01*
X82912365Y17431758D01*
X83068242Y17587635D01*
X83197815Y17765978D01*
X83297895Y17962394D01*
X83366015Y18172049D01*
X83400500Y18389778D01*
X83400500Y18610222D01*
X83366015Y18827951D01*
X83297895Y19037606D01*
X83297895Y19037607D01*
X83263237Y19105625D01*
X83197815Y19234022D01*
X83181260Y19256808D01*
X83068247Y19412359D01*
X83068243Y19412364D01*
X82912365Y19568242D01*
X82912357Y19568248D01*
X82800270Y19649683D01*
X82757606Y19705011D01*
X82751627Y19774624D01*
X82784232Y19836420D01*
X82800265Y19850314D01*
X82912365Y19931758D01*
X83068242Y20087635D01*
X83197815Y20265978D01*
X83297895Y20462394D01*
X83366015Y20672049D01*
X83400500Y20889778D01*
X83400500Y21110222D01*
X84099500Y21110222D01*
X84099500Y20889779D01*
X84133985Y20672048D01*
X84202103Y20462397D01*
X84202104Y20462394D01*
X84270122Y20328904D01*
X84281385Y20306799D01*
X84302187Y20265975D01*
X84431752Y20087642D01*
X84431756Y20087637D01*
X84587636Y19931757D01*
X84587641Y19931753D01*
X84699727Y19850318D01*
X84742393Y19794989D01*
X84748372Y19725375D01*
X84715767Y19663580D01*
X84699727Y19649682D01*
X84587641Y19568248D01*
X84587636Y19568244D01*
X84431756Y19412364D01*
X84431752Y19412359D01*
X84302187Y19234026D01*
X84202104Y19037607D01*
X84202103Y19037604D01*
X84133985Y18827953D01*
X84099500Y18610222D01*
X84099500Y18389779D01*
X84133985Y18172048D01*
X84202103Y17962397D01*
X84202104Y17962394D01*
X84302187Y17765975D01*
X84431752Y17587642D01*
X84431756Y17587637D01*
X84587636Y17431757D01*
X84587641Y17431753D01*
X84743192Y17318740D01*
X84765978Y17302185D01*
X84894375Y17236763D01*
X84962393Y17202105D01*
X84962396Y17202104D01*
X85067221Y17168045D01*
X85172049Y17133985D01*
X85389778Y17099500D01*
X85389779Y17099500D01*
X85610221Y17099500D01*
X85610222Y17099500D01*
X85827951Y17133985D01*
X86037606Y17202105D01*
X86234022Y17302185D01*
X86412365Y17431758D01*
X86568242Y17587635D01*
X86697815Y17765978D01*
X86797895Y17962394D01*
X86866015Y18172049D01*
X86900500Y18389778D01*
X86900500Y18610222D01*
X86866015Y18827951D01*
X86797895Y19037606D01*
X86797895Y19037607D01*
X86763237Y19105625D01*
X86697815Y19234022D01*
X86681260Y19256808D01*
X86568247Y19412359D01*
X86568243Y19412364D01*
X86412365Y19568242D01*
X86412357Y19568248D01*
X86300270Y19649683D01*
X86284425Y19670232D01*
X86265674Y19688166D01*
X86263437Y19697449D01*
X86257606Y19705011D01*
X86255385Y19730866D01*
X86249307Y19756092D01*
X86252444Y19765111D01*
X86251627Y19774624D01*
X86263735Y19797574D01*
X86272261Y19822083D01*
X86281673Y19831572D01*
X86284232Y19836420D01*
X86296656Y19847589D01*
X86298433Y19848983D01*
X86319327Y19864163D01*
X86949500Y19864163D01*
X86949500Y19635838D01*
X86985215Y19410340D01*
X87055770Y19193197D01*
X87135048Y19037607D01*
X87159421Y18989772D01*
X87293621Y18805063D01*
X87455063Y18643621D01*
X87639772Y18509421D01*
X87735884Y18460450D01*
X87843196Y18405771D01*
X87843198Y18405771D01*
X87843201Y18405769D01*
X87959592Y18367951D01*
X88060339Y18335216D01*
X88285838Y18299500D01*
X88285843Y18299500D01*
X88514162Y18299500D01*
X88739660Y18335216D01*
X88956799Y18405769D01*
X89160228Y18509421D01*
X89344937Y18643621D01*
X89506379Y18805063D01*
X89640579Y18989772D01*
X89744231Y19193201D01*
X89814784Y19410340D01*
X89815105Y19412365D01*
X89850500Y19635838D01*
X89850500Y19864163D01*
X89814784Y20089661D01*
X89782049Y20190408D01*
X89744231Y20306799D01*
X89744229Y20306802D01*
X89744229Y20306804D01*
X89689550Y20414116D01*
X89640579Y20510228D01*
X89506379Y20694937D01*
X89344937Y20856379D01*
X89283367Y20901113D01*
X89160226Y20990581D01*
X89132693Y21004609D01*
X89097617Y21022481D01*
X88956803Y21094230D01*
X88907585Y21110222D01*
X89899500Y21110222D01*
X89899500Y20889779D01*
X89933985Y20672048D01*
X90002103Y20462397D01*
X90002104Y20462394D01*
X90070122Y20328904D01*
X90081385Y20306799D01*
X90102187Y20265975D01*
X90231752Y20087642D01*
X90231756Y20087637D01*
X90387636Y19931757D01*
X90387641Y19931753D01*
X90499727Y19850318D01*
X90542393Y19794989D01*
X90548372Y19725375D01*
X90515767Y19663580D01*
X90499727Y19649682D01*
X90387641Y19568248D01*
X90387636Y19568244D01*
X90231756Y19412364D01*
X90231752Y19412359D01*
X90102187Y19234026D01*
X90002104Y19037607D01*
X90002103Y19037604D01*
X89933985Y18827953D01*
X89899500Y18610222D01*
X89899500Y18389779D01*
X89933985Y18172048D01*
X90002103Y17962397D01*
X90002104Y17962394D01*
X90102187Y17765975D01*
X90231752Y17587642D01*
X90231756Y17587637D01*
X90387636Y17431757D01*
X90387641Y17431753D01*
X90543192Y17318740D01*
X90565978Y17302185D01*
X90694375Y17236763D01*
X90762393Y17202105D01*
X90762396Y17202104D01*
X90867221Y17168045D01*
X90972049Y17133985D01*
X91189778Y17099500D01*
X91189779Y17099500D01*
X91410221Y17099500D01*
X91410222Y17099500D01*
X91627951Y17133985D01*
X91837606Y17202105D01*
X92034022Y17302185D01*
X92212365Y17431758D01*
X92368242Y17587635D01*
X92497815Y17765978D01*
X92597895Y17962394D01*
X92666015Y18172049D01*
X92700500Y18389778D01*
X92700500Y18610222D01*
X92666015Y18827951D01*
X92597895Y19037606D01*
X92597895Y19037607D01*
X92563237Y19105625D01*
X92497815Y19234022D01*
X92481260Y19256808D01*
X92368247Y19412359D01*
X92368243Y19412364D01*
X92212365Y19568242D01*
X92212357Y19568248D01*
X92100270Y19649683D01*
X92057606Y19705011D01*
X92051627Y19774624D01*
X92084232Y19836420D01*
X92100265Y19850314D01*
X92212365Y19931758D01*
X92368242Y20087635D01*
X92497815Y20265978D01*
X92597895Y20462394D01*
X92666015Y20672049D01*
X92700500Y20889778D01*
X92700500Y21110222D01*
X93399500Y21110222D01*
X93399500Y20889779D01*
X93433985Y20672048D01*
X93502103Y20462397D01*
X93502104Y20462394D01*
X93570122Y20328904D01*
X93581385Y20306799D01*
X93602187Y20265975D01*
X93731752Y20087642D01*
X93731756Y20087637D01*
X93887636Y19931757D01*
X93887641Y19931753D01*
X93999727Y19850318D01*
X94042393Y19794989D01*
X94048372Y19725375D01*
X94015767Y19663580D01*
X93999727Y19649682D01*
X93887641Y19568248D01*
X93887636Y19568244D01*
X93731756Y19412364D01*
X93731752Y19412359D01*
X93602187Y19234026D01*
X93502104Y19037607D01*
X93502103Y19037604D01*
X93433985Y18827953D01*
X93399500Y18610222D01*
X93399500Y18389779D01*
X93433985Y18172048D01*
X93502103Y17962397D01*
X93502104Y17962394D01*
X93602187Y17765975D01*
X93731752Y17587642D01*
X93731756Y17587637D01*
X93887636Y17431757D01*
X93887641Y17431753D01*
X94043192Y17318740D01*
X94065978Y17302185D01*
X94194375Y17236763D01*
X94262393Y17202105D01*
X94262396Y17202104D01*
X94367221Y17168045D01*
X94472049Y17133985D01*
X94689778Y17099500D01*
X94689779Y17099500D01*
X94910221Y17099500D01*
X94910222Y17099500D01*
X95127951Y17133985D01*
X95337606Y17202105D01*
X95534022Y17302185D01*
X95712365Y17431758D01*
X95868242Y17587635D01*
X95997815Y17765978D01*
X96097895Y17962394D01*
X96166015Y18172049D01*
X96200500Y18389778D01*
X96200500Y18610222D01*
X96166015Y18827951D01*
X96097895Y19037606D01*
X96097895Y19037607D01*
X96063237Y19105625D01*
X95997815Y19234022D01*
X95981260Y19256808D01*
X95868247Y19412359D01*
X95868243Y19412364D01*
X95712365Y19568242D01*
X95712357Y19568248D01*
X95600270Y19649683D01*
X95557606Y19705011D01*
X95551627Y19774624D01*
X95584232Y19836420D01*
X95600265Y19850314D01*
X95712365Y19931758D01*
X95868242Y20087635D01*
X95997815Y20265978D01*
X96097895Y20462394D01*
X96166015Y20672049D01*
X96200500Y20889778D01*
X96200500Y21110222D01*
X96166015Y21327951D01*
X96097895Y21537606D01*
X96097895Y21537607D01*
X96063237Y21605625D01*
X95997815Y21734022D01*
X95981260Y21756808D01*
X95868247Y21912359D01*
X95868243Y21912364D01*
X95712363Y22068244D01*
X95712358Y22068248D01*
X95534025Y22197813D01*
X95534024Y22197814D01*
X95534022Y22197815D01*
X95471096Y22229878D01*
X95337606Y22297896D01*
X95337603Y22297897D01*
X95127952Y22366015D01*
X95019086Y22383258D01*
X94910222Y22400500D01*
X94689778Y22400500D01*
X94617201Y22389005D01*
X94472047Y22366015D01*
X94262396Y22297897D01*
X94262393Y22297896D01*
X94065974Y22197813D01*
X93887641Y22068248D01*
X93887636Y22068244D01*
X93731756Y21912364D01*
X93731752Y21912359D01*
X93602187Y21734026D01*
X93502104Y21537607D01*
X93502103Y21537604D01*
X93433985Y21327953D01*
X93399500Y21110222D01*
X92700500Y21110222D01*
X92666015Y21327951D01*
X92597895Y21537606D01*
X92597895Y21537607D01*
X92563237Y21605625D01*
X92497815Y21734022D01*
X92481260Y21756808D01*
X92368247Y21912359D01*
X92368243Y21912364D01*
X92212363Y22068244D01*
X92212358Y22068248D01*
X92034025Y22197813D01*
X92034024Y22197814D01*
X92034022Y22197815D01*
X91971096Y22229878D01*
X91837606Y22297896D01*
X91837603Y22297897D01*
X91627952Y22366015D01*
X91519086Y22383258D01*
X91410222Y22400500D01*
X91189778Y22400500D01*
X91117201Y22389005D01*
X90972047Y22366015D01*
X90762396Y22297897D01*
X90762393Y22297896D01*
X90565974Y22197813D01*
X90387641Y22068248D01*
X90387636Y22068244D01*
X90231756Y21912364D01*
X90231752Y21912359D01*
X90102187Y21734026D01*
X90002104Y21537607D01*
X90002103Y21537604D01*
X89933985Y21327953D01*
X89899500Y21110222D01*
X88907585Y21110222D01*
X88739660Y21164785D01*
X88514162Y21200500D01*
X88514157Y21200500D01*
X88285843Y21200500D01*
X88285838Y21200500D01*
X88060339Y21164785D01*
X87843196Y21094230D01*
X87639771Y20990579D01*
X87455061Y20856378D01*
X87293622Y20694939D01*
X87159421Y20510229D01*
X87055770Y20306804D01*
X86985215Y20089661D01*
X86949500Y19864163D01*
X86319327Y19864163D01*
X86412365Y19931758D01*
X86568242Y20087635D01*
X86697815Y20265978D01*
X86797895Y20462394D01*
X86866015Y20672049D01*
X86900500Y20889778D01*
X86900500Y21110222D01*
X86866015Y21327951D01*
X86797895Y21537606D01*
X86797895Y21537607D01*
X86763237Y21605625D01*
X86697815Y21734022D01*
X86681260Y21756808D01*
X86568247Y21912359D01*
X86568243Y21912364D01*
X86412363Y22068244D01*
X86412358Y22068248D01*
X86234025Y22197813D01*
X86234024Y22197814D01*
X86234022Y22197815D01*
X86171096Y22229878D01*
X86037606Y22297896D01*
X86037603Y22297897D01*
X85827952Y22366015D01*
X85719086Y22383258D01*
X85610222Y22400500D01*
X85389778Y22400500D01*
X85317201Y22389005D01*
X85172047Y22366015D01*
X84962396Y22297897D01*
X84962393Y22297896D01*
X84765974Y22197813D01*
X84587641Y22068248D01*
X84587636Y22068244D01*
X84431756Y21912364D01*
X84431752Y21912359D01*
X84302187Y21734026D01*
X84202104Y21537607D01*
X84202103Y21537604D01*
X84133985Y21327953D01*
X84099500Y21110222D01*
X83400500Y21110222D01*
X83366015Y21327951D01*
X83297895Y21537606D01*
X83297895Y21537607D01*
X83263237Y21605625D01*
X83197815Y21734022D01*
X83181260Y21756808D01*
X83068247Y21912359D01*
X83068243Y21912364D01*
X82912363Y22068244D01*
X82912358Y22068248D01*
X82734025Y22197813D01*
X82734024Y22197814D01*
X82734022Y22197815D01*
X82671096Y22229878D01*
X82537606Y22297896D01*
X82537603Y22297897D01*
X82327952Y22366015D01*
X82219086Y22383258D01*
X82110222Y22400500D01*
X81889778Y22400500D01*
X81817201Y22389005D01*
X81672047Y22366015D01*
X81462396Y22297897D01*
X81462393Y22297896D01*
X81265974Y22197813D01*
X81087641Y22068248D01*
X81087636Y22068244D01*
X80931756Y21912364D01*
X80931752Y21912359D01*
X80802187Y21734026D01*
X80702104Y21537607D01*
X80702103Y21537604D01*
X80633985Y21327953D01*
X80599500Y21110222D01*
X500500Y21110222D01*
X500500Y39931005D01*
X2799499Y39931005D01*
X2826418Y39795678D01*
X2826421Y39795668D01*
X2879221Y39668196D01*
X2879228Y39668183D01*
X2955885Y39553459D01*
X2955888Y39553455D01*
X3053454Y39455889D01*
X3053458Y39455886D01*
X3168182Y39379229D01*
X3168195Y39379222D01*
X3295667Y39326422D01*
X3295672Y39326420D01*
X3295676Y39326420D01*
X3295677Y39326419D01*
X3431004Y39299500D01*
X3431007Y39299500D01*
X3568995Y39299500D01*
X3660041Y39317611D01*
X3704328Y39326420D01*
X3831811Y39379225D01*
X3946542Y39455886D01*
X4044114Y39553458D01*
X4120775Y39668189D01*
X4173580Y39795672D01*
X4182389Y39839959D01*
X4200500Y39931005D01*
X4200500Y40068996D01*
X4173581Y40204323D01*
X4173580Y40204324D01*
X4173580Y40204328D01*
X4154455Y40250500D01*
X4120778Y40331805D01*
X4120771Y40331818D01*
X4044114Y40446542D01*
X4044111Y40446546D01*
X3946545Y40544112D01*
X3946541Y40544115D01*
X3831817Y40620772D01*
X3831804Y40620779D01*
X3704332Y40673579D01*
X3704322Y40673582D01*
X3568995Y40700500D01*
X3568993Y40700500D01*
X3431007Y40700500D01*
X3431005Y40700500D01*
X3295677Y40673582D01*
X3295667Y40673579D01*
X3168195Y40620779D01*
X3168182Y40620772D01*
X3053458Y40544115D01*
X3053454Y40544112D01*
X2955888Y40446546D01*
X2955885Y40446542D01*
X2879228Y40331818D01*
X2879221Y40331805D01*
X2826421Y40204333D01*
X2826418Y40204323D01*
X2799500Y40068996D01*
X2799500Y40068993D01*
X2799500Y39931007D01*
X2799500Y39931005D01*
X2799499Y39931005D01*
X500500Y39931005D01*
X500500Y47635929D01*
X17849499Y47635929D01*
X17874497Y47510262D01*
X17874499Y47510256D01*
X17923533Y47391876D01*
X17923538Y47391867D01*
X17994723Y47285332D01*
X17994726Y47285328D01*
X18085327Y47194727D01*
X18085331Y47194724D01*
X18191866Y47123539D01*
X18191872Y47123536D01*
X18191873Y47123535D01*
X18310256Y47074499D01*
X18310260Y47074499D01*
X18310261Y47074498D01*
X18435928Y47049500D01*
X18435931Y47049500D01*
X18564071Y47049500D01*
X18648615Y47066318D01*
X18689744Y47074499D01*
X18808127Y47123535D01*
X18914669Y47194724D01*
X19005276Y47285331D01*
X19076465Y47391873D01*
X19125501Y47510256D01*
X19150500Y47635931D01*
X19150500Y47764069D01*
X19150500Y47764072D01*
X19125502Y47889739D01*
X19125501Y47889740D01*
X19125501Y47889744D01*
X19076465Y48008127D01*
X19076464Y48008128D01*
X19076461Y48008134D01*
X19005276Y48114669D01*
X19005273Y48114673D01*
X18914672Y48205274D01*
X18914668Y48205277D01*
X18808133Y48276462D01*
X18808124Y48276467D01*
X18689744Y48325501D01*
X18689738Y48325503D01*
X18564071Y48350500D01*
X18564069Y48350500D01*
X18435931Y48350500D01*
X18435929Y48350500D01*
X18310261Y48325503D01*
X18310255Y48325501D01*
X18191875Y48276467D01*
X18191866Y48276462D01*
X18085331Y48205277D01*
X18085327Y48205274D01*
X17994726Y48114673D01*
X17994723Y48114669D01*
X17923538Y48008134D01*
X17923533Y48008125D01*
X17874499Y47889745D01*
X17874497Y47889739D01*
X17849500Y47764072D01*
X17849500Y47764069D01*
X17849500Y47635931D01*
X17849500Y47635929D01*
X17849499Y47635929D01*
X500500Y47635929D01*
X500500Y51185929D01*
X11749499Y51185929D01*
X11774497Y51060262D01*
X11774499Y51060256D01*
X11823533Y50941876D01*
X11823538Y50941867D01*
X11894723Y50835332D01*
X11894726Y50835328D01*
X11985327Y50744727D01*
X11985331Y50744724D01*
X12091866Y50673539D01*
X12091872Y50673536D01*
X12091873Y50673535D01*
X12210256Y50624499D01*
X12210260Y50624499D01*
X12210261Y50624498D01*
X12335928Y50599500D01*
X12335931Y50599500D01*
X12464071Y50599500D01*
X12548615Y50616318D01*
X12589744Y50624499D01*
X12708127Y50673535D01*
X12814669Y50744724D01*
X12905276Y50835331D01*
X12976465Y50941873D01*
X13025501Y51060256D01*
X13050500Y51185931D01*
X13050500Y51314069D01*
X13050500Y51314072D01*
X13025502Y51439739D01*
X13025501Y51439740D01*
X13025501Y51439744D01*
X12976465Y51558127D01*
X12976464Y51558128D01*
X12976461Y51558134D01*
X12905276Y51664669D01*
X12905273Y51664673D01*
X12814672Y51755274D01*
X12814668Y51755277D01*
X12708133Y51826462D01*
X12708124Y51826467D01*
X12589744Y51875501D01*
X12589738Y51875503D01*
X12464071Y51900500D01*
X12464069Y51900500D01*
X12335931Y51900500D01*
X12335929Y51900500D01*
X12210261Y51875503D01*
X12210255Y51875501D01*
X12091875Y51826467D01*
X12091866Y51826462D01*
X11985331Y51755277D01*
X11985327Y51755274D01*
X11894726Y51664673D01*
X11894723Y51664669D01*
X11823538Y51558134D01*
X11823533Y51558125D01*
X11774499Y51439745D01*
X11774497Y51439739D01*
X11749500Y51314072D01*
X11749500Y51314069D01*
X11749500Y51185931D01*
X11749500Y51185929D01*
X11749499Y51185929D01*
X500500Y51185929D01*
X500500Y55431005D01*
X8799499Y55431005D01*
X8826418Y55295678D01*
X8826421Y55295668D01*
X8879221Y55168196D01*
X8879228Y55168183D01*
X8955885Y55053459D01*
X8955888Y55053455D01*
X9053454Y54955889D01*
X9053458Y54955886D01*
X9168182Y54879229D01*
X9168195Y54879222D01*
X9295667Y54826422D01*
X9295672Y54826420D01*
X9295676Y54826420D01*
X9295677Y54826419D01*
X9431004Y54799500D01*
X9431007Y54799500D01*
X9568995Y54799500D01*
X9660041Y54817611D01*
X9704328Y54826420D01*
X9831811Y54879225D01*
X9946542Y54955886D01*
X10044114Y55053458D01*
X10120775Y55168189D01*
X10173580Y55295672D01*
X10188925Y55372815D01*
X10200500Y55431005D01*
X10200500Y55568996D01*
X10173581Y55704323D01*
X10173580Y55704324D01*
X10173580Y55704328D01*
X10173578Y55704333D01*
X10120778Y55831805D01*
X10120771Y55831818D01*
X10044114Y55946542D01*
X10044111Y55946546D01*
X9946545Y56044112D01*
X9946541Y56044115D01*
X9831817Y56120772D01*
X9831804Y56120779D01*
X9704332Y56173579D01*
X9704322Y56173582D01*
X9568995Y56200500D01*
X9568993Y56200500D01*
X9431007Y56200500D01*
X9431005Y56200500D01*
X9295677Y56173582D01*
X9295667Y56173579D01*
X9168195Y56120779D01*
X9168182Y56120772D01*
X9053458Y56044115D01*
X9053454Y56044112D01*
X8955888Y55946546D01*
X8955885Y55946542D01*
X8879228Y55831818D01*
X8879221Y55831805D01*
X8826421Y55704333D01*
X8826418Y55704323D01*
X8799500Y55568996D01*
X8799500Y55568993D01*
X8799500Y55431007D01*
X8799500Y55431005D01*
X8799499Y55431005D01*
X500500Y55431005D01*
X500500Y74143100D01*
X6349500Y74143100D01*
X6349500Y71856909D01*
X6360123Y71768438D01*
X6415639Y71627658D01*
X6415640Y71627656D01*
X6507077Y71507078D01*
X6627655Y71415641D01*
X6627658Y71415639D01*
X6768436Y71360124D01*
X6856901Y71349500D01*
X9143098Y71349501D01*
X9231564Y71360124D01*
X9372342Y71415639D01*
X9492922Y71507078D01*
X9584361Y71627658D01*
X9639876Y71768436D01*
X9650500Y71856901D01*
X9650499Y74143098D01*
X9639876Y74231564D01*
X9584361Y74372342D01*
X9584359Y74372345D01*
X9492922Y74492923D01*
X9372344Y74584360D01*
X9372342Y74584361D01*
X9231564Y74639876D01*
X9231561Y74639877D01*
X9143099Y74650500D01*
X6856908Y74650500D01*
X6768437Y74639877D01*
X6627657Y74584361D01*
X6627655Y74584360D01*
X6507077Y74492923D01*
X6415640Y74372345D01*
X6360124Y74231563D01*
X6360123Y74231562D01*
X6349500Y74143100D01*
X500500Y74143100D01*
X500500Y95121289D01*
X3149500Y95121289D01*
X3149500Y94878712D01*
X3181161Y94638215D01*
X3243947Y94403896D01*
X3336773Y94179795D01*
X3336776Y94179788D01*
X3458064Y93969711D01*
X3458066Y93969708D01*
X3458067Y93969707D01*
X3605733Y93777264D01*
X3605739Y93777257D01*
X3777256Y93605740D01*
X3777262Y93605735D01*
X3969711Y93458064D01*
X4179788Y93336776D01*
X4403900Y93243946D01*
X4638211Y93181162D01*
X4818586Y93157416D01*
X4878711Y93149500D01*
X4878712Y93149500D01*
X5121289Y93149500D01*
X5169388Y93155833D01*
X5361789Y93181162D01*
X5596100Y93243946D01*
X5820212Y93336776D01*
X6030289Y93458064D01*
X6222738Y93605735D01*
X6394265Y93777262D01*
X6541936Y93969711D01*
X6663224Y94179788D01*
X6756054Y94403900D01*
X6818838Y94638211D01*
X6850500Y94878712D01*
X6850500Y95121287D01*
X21000000Y95121287D01*
X21000000Y69139060D01*
X21000000Y68221290D01*
X21000000Y67309836D01*
X21000000Y64769836D01*
X21000000Y39672478D01*
X21000000Y36498335D01*
X21000000Y35228335D01*
X21000000Y30420000D01*
X103550000Y30420000D01*
X103550000Y99000000D01*
X21000000Y99000000D01*
X21000000Y95121287D01*
X6850500Y95121287D01*
X6850500Y95121288D01*
X6818838Y95361789D01*
X6756054Y95596100D01*
X6663224Y95820212D01*
X6541936Y96030289D01*
X6394265Y96222738D01*
X6394260Y96222744D01*
X6222743Y96394261D01*
X6222736Y96394267D01*
X6030293Y96541933D01*
X6030292Y96541934D01*
X6030289Y96541936D01*
X5820212Y96663224D01*
X5820205Y96663227D01*
X5596104Y96756053D01*
X5361785Y96818839D01*
X5121289Y96850500D01*
X5121288Y96850500D01*
X4878712Y96850500D01*
X4878711Y96850500D01*
X4638214Y96818839D01*
X4403895Y96756053D01*
X4179794Y96663227D01*
X4179785Y96663223D01*
X3969706Y96541933D01*
X3777263Y96394267D01*
X3777256Y96394261D01*
X3605739Y96222744D01*
X3605733Y96222737D01*
X3458067Y96030294D01*
X3336777Y95820215D01*
X3336773Y95820206D01*
X3243947Y95596105D01*
X3181161Y95361786D01*
X3149500Y95121289D01*
X500500Y95121289D01*
X500500Y96996250D01*
X500726Y97003737D01*
X518271Y97293795D01*
X520076Y97308660D01*
X571780Y97590798D01*
X575364Y97605336D01*
X660699Y97879188D01*
X665997Y97893158D01*
X783727Y98154742D01*
X790680Y98167988D01*
X830959Y98234619D01*
X939075Y98413466D01*
X947567Y98425770D01*
X1124481Y98651583D01*
X1134396Y98662774D01*
X1337226Y98865604D01*
X1348417Y98875519D01*
X1574230Y99052433D01*
X1586534Y99060925D01*
X1832012Y99209320D01*
X1845258Y99216273D01*
X2106842Y99334003D01*
X2120812Y99339301D01*
X2394668Y99424638D01*
X2409198Y99428220D01*
X2691344Y99479925D01*
X2706201Y99481729D01*
X2996264Y99499274D01*
X3003751Y99499500D01*
X3065892Y99499500D01*
X102934108Y99499500D01*
X102996249Y99499500D01*
X103003736Y99499274D01*
G37*
%TD.AperFunction*%
%TD*%
%TA.AperFunction,Conductor*%
%TO.N,GND*%
G36*
X103550000Y30420000D02*
G01*
X21000000Y30420000D01*
X21000000Y35228335D01*
X61064012Y35228335D01*
X61064012Y35108663D01*
X61094985Y34993068D01*
X61154821Y34889429D01*
X61239442Y34804808D01*
X61343081Y34744972D01*
X61458676Y34713999D01*
X61458677Y34713999D01*
X61578347Y34713999D01*
X61578348Y34713999D01*
X61693943Y34744972D01*
X61797582Y34804808D01*
X61882203Y34889429D01*
X61942039Y34993068D01*
X61973012Y35108663D01*
X61973012Y35228335D01*
X62461012Y35228335D01*
X62461012Y35108663D01*
X62491985Y34993068D01*
X62551821Y34889429D01*
X62636442Y34804808D01*
X62740081Y34744972D01*
X62855676Y34713999D01*
X62855677Y34713999D01*
X62975347Y34713999D01*
X62975348Y34713999D01*
X63090943Y34744972D01*
X63194582Y34804808D01*
X63279203Y34889429D01*
X63339039Y34993068D01*
X63370012Y35108663D01*
X63370012Y35228335D01*
X63339039Y35343930D01*
X63279203Y35447569D01*
X63194582Y35532190D01*
X63090947Y35592024D01*
X63090943Y35592026D01*
X62975348Y35622999D01*
X62855676Y35622999D01*
X62797878Y35607513D01*
X62740080Y35592026D01*
X62740076Y35592024D01*
X62636441Y35532190D01*
X62551821Y35447570D01*
X62491987Y35343935D01*
X62491985Y35343931D01*
X62491985Y35343930D01*
X62461012Y35228335D01*
X61973012Y35228335D01*
X61942039Y35343930D01*
X61882203Y35447569D01*
X61797582Y35532190D01*
X61693947Y35592024D01*
X61693943Y35592026D01*
X61578348Y35622999D01*
X61458676Y35622999D01*
X61400878Y35607513D01*
X61343080Y35592026D01*
X61343076Y35592024D01*
X61239441Y35532190D01*
X61154821Y35447570D01*
X61094987Y35343935D01*
X61094985Y35343931D01*
X61094985Y35343930D01*
X61064012Y35228335D01*
X21000000Y35228335D01*
X21000000Y36498335D01*
X65763012Y36498335D01*
X65763012Y36378663D01*
X65793985Y36263068D01*
X65853821Y36159429D01*
X65938442Y36074808D01*
X66042081Y36014972D01*
X66157676Y35983999D01*
X66157677Y35983999D01*
X66277347Y35983999D01*
X66277348Y35983999D01*
X66392943Y36014972D01*
X66496582Y36074808D01*
X66581203Y36159429D01*
X66641039Y36263068D01*
X66672012Y36378663D01*
X66672012Y36498335D01*
X66641039Y36613930D01*
X66581203Y36717569D01*
X66496582Y36802190D01*
X66392947Y36862024D01*
X66392943Y36862026D01*
X66277348Y36892999D01*
X66157676Y36892999D01*
X66099878Y36877513D01*
X66042080Y36862026D01*
X66042076Y36862024D01*
X65938441Y36802190D01*
X65853821Y36717570D01*
X65793987Y36613935D01*
X65793985Y36613931D01*
X65793985Y36613930D01*
X65763012Y36498335D01*
X21000000Y36498335D01*
X21000000Y39672478D01*
X67058500Y39672478D01*
X67058500Y39527523D01*
X67096014Y39387519D01*
X67096016Y39387514D01*
X67168491Y39261985D01*
X67270985Y39159491D01*
X67396515Y39087016D01*
X67396516Y39087016D01*
X67396518Y39087015D01*
X67466520Y39068258D01*
X67536522Y39049501D01*
X67536523Y39049500D01*
X67536525Y39049500D01*
X67681477Y39049500D01*
X67681477Y39049501D01*
X67821485Y39087016D01*
X67947015Y39159491D01*
X68049509Y39261985D01*
X68121984Y39387515D01*
X68159499Y39527523D01*
X68159500Y39527523D01*
X68159500Y39672477D01*
X68159499Y39672478D01*
X68121985Y39812482D01*
X68121983Y39812487D01*
X68049508Y39938016D01*
X67947015Y40040509D01*
X67821486Y40112984D01*
X67821481Y40112986D01*
X67681477Y40150500D01*
X67681475Y40150500D01*
X67536525Y40150500D01*
X67536523Y40150500D01*
X67396518Y40112986D01*
X67396513Y40112984D01*
X67270984Y40040509D01*
X67168491Y39938016D01*
X67096016Y39812487D01*
X67096014Y39812482D01*
X67058500Y39672478D01*
X21000000Y39672478D01*
X21000000Y64769836D01*
X61185500Y64769836D01*
X61185500Y64650164D01*
X61203391Y64583394D01*
X61216473Y64534569D01*
X61216475Y64534565D01*
X61220902Y64526898D01*
X61276309Y64430930D01*
X61360930Y64346309D01*
X61464569Y64286473D01*
X61580164Y64255500D01*
X61600693Y64255500D01*
X61653019Y64233826D01*
X61671826Y64215019D01*
X61693500Y64162693D01*
X61693500Y63142882D01*
X61715817Y63059593D01*
X61758935Y62984910D01*
X63703826Y61040019D01*
X63725500Y60987693D01*
X63725500Y53031913D01*
X63703826Y52979587D01*
X63651500Y52957913D01*
X63599174Y52979587D01*
X63570070Y53008691D01*
X63466435Y53068525D01*
X63466431Y53068527D01*
X63350836Y53099500D01*
X63231164Y53099500D01*
X63173366Y53084014D01*
X63115568Y53068527D01*
X63115564Y53068525D01*
X63011929Y53008691D01*
X62927309Y52924071D01*
X62867475Y52820436D01*
X62867473Y52820432D01*
X62867473Y52820431D01*
X62836500Y52704836D01*
X62836500Y52585164D01*
X62865890Y52475476D01*
X62867473Y52469569D01*
X62867475Y52469565D01*
X62927309Y52365930D01*
X63011930Y52281309D01*
X63115569Y52221473D01*
X63231164Y52190500D01*
X63231167Y52190500D01*
X63232111Y52190247D01*
X63277045Y52155768D01*
X63284438Y52099616D01*
X63265285Y52066443D01*
X63177019Y51978175D01*
X63124694Y51956500D01*
X63104164Y51956500D01*
X63046366Y51941014D01*
X62988568Y51925527D01*
X62988564Y51925525D01*
X62884929Y51865691D01*
X62800309Y51781071D01*
X62740475Y51677436D01*
X62740473Y51677432D01*
X62740473Y51677431D01*
X62709500Y51561836D01*
X62709500Y51442164D01*
X62740473Y51326569D01*
X62800309Y51222930D01*
X62884930Y51138309D01*
X62988569Y51078473D01*
X63104164Y51047500D01*
X63104165Y51047500D01*
X63223835Y51047500D01*
X63223836Y51047500D01*
X63339431Y51078473D01*
X63443070Y51138309D01*
X63527691Y51222930D01*
X63587527Y51326569D01*
X63618500Y51442164D01*
X63618500Y51462693D01*
X63640174Y51515019D01*
X64107174Y51982019D01*
X64159500Y52003693D01*
X64211826Y51982019D01*
X64233500Y51929693D01*
X64233500Y50906307D01*
X64211826Y50853981D01*
X62923019Y49565174D01*
X62870693Y49543500D01*
X62850164Y49543500D01*
X62792366Y49528014D01*
X62734568Y49512527D01*
X62734564Y49512525D01*
X62630929Y49452691D01*
X62546309Y49368071D01*
X62486475Y49264436D01*
X62486473Y49264432D01*
X62486473Y49264431D01*
X62455500Y49148836D01*
X62455500Y49029164D01*
X62476266Y48951663D01*
X62486473Y48913569D01*
X62486475Y48913565D01*
X62546309Y48809930D01*
X62630930Y48725309D01*
X62734569Y48665473D01*
X62850164Y48634500D01*
X62850165Y48634500D01*
X62969835Y48634500D01*
X62969836Y48634500D01*
X63085431Y48665473D01*
X63189070Y48725309D01*
X63273691Y48809930D01*
X63333527Y48913569D01*
X63364500Y49029164D01*
X63364500Y49049693D01*
X63386174Y49102019D01*
X63849329Y49565174D01*
X64823065Y50538910D01*
X64866181Y50613590D01*
X64888499Y50696882D01*
X64888500Y50696882D01*
X64888500Y55607374D01*
X64910174Y55659700D01*
X64962500Y55681374D01*
X65014826Y55659700D01*
X65026586Y55644374D01*
X65086309Y55540930D01*
X65106338Y55520901D01*
X65128012Y55468575D01*
X65128012Y49357412D01*
X65106338Y49305086D01*
X65091821Y49290570D01*
X65031987Y49186935D01*
X65031985Y49186931D01*
X65031985Y49186930D01*
X65001012Y49071335D01*
X65001012Y48951663D01*
X65031985Y48836068D01*
X65091821Y48732429D01*
X65176442Y48647808D01*
X65280081Y48587972D01*
X65395676Y48556999D01*
X65395677Y48556999D01*
X65515347Y48556999D01*
X65515348Y48556999D01*
X65630943Y48587972D01*
X65734582Y48647808D01*
X65819203Y48732429D01*
X65879039Y48836068D01*
X65910012Y48951663D01*
X65910012Y49071335D01*
X65879039Y49186930D01*
X65819203Y49290569D01*
X65804686Y49305086D01*
X65783012Y49357412D01*
X65783012Y52958836D01*
X67916500Y52958836D01*
X67916500Y52839164D01*
X67947473Y52723569D01*
X67947475Y52723565D01*
X67958289Y52704835D01*
X68007309Y52619930D01*
X68091930Y52535309D01*
X68195569Y52475473D01*
X68311164Y52444500D01*
X68311165Y52444500D01*
X68430835Y52444500D01*
X68430836Y52444500D01*
X68546431Y52475473D01*
X68650070Y52535309D01*
X68734691Y52619930D01*
X68794527Y52723569D01*
X68825500Y52839164D01*
X68825500Y52958836D01*
X68794527Y53074431D01*
X68734691Y53178070D01*
X68650070Y53262691D01*
X68546435Y53322525D01*
X68546431Y53322527D01*
X68430836Y53353500D01*
X68311164Y53353500D01*
X68253366Y53338014D01*
X68195568Y53322527D01*
X68195564Y53322525D01*
X68091929Y53262691D01*
X68007309Y53178071D01*
X67947475Y53074436D01*
X67947473Y53074432D01*
X67931986Y53016634D01*
X67916500Y52958836D01*
X65783012Y52958836D01*
X65783012Y55418500D01*
X65804686Y55470826D01*
X65857012Y55492500D01*
X73411693Y55492500D01*
X73464019Y55470826D01*
X74117826Y54817019D01*
X74139500Y54764693D01*
X74139500Y54744164D01*
X74170473Y54628569D01*
X74230309Y54524930D01*
X74314930Y54440309D01*
X74418569Y54380473D01*
X74534164Y54349500D01*
X74534165Y54349500D01*
X74653835Y54349500D01*
X74653836Y54349500D01*
X74769431Y54380473D01*
X74873070Y54440309D01*
X74957691Y54524930D01*
X75017527Y54628569D01*
X75048500Y54744164D01*
X75048500Y54863836D01*
X75017527Y54979431D01*
X74957691Y55083070D01*
X74873070Y55167691D01*
X74769435Y55227525D01*
X74769431Y55227527D01*
X74653836Y55258500D01*
X74653835Y55258500D01*
X74633307Y55258500D01*
X74580981Y55280174D01*
X73779090Y56082065D01*
X73704407Y56125183D01*
X73621118Y56147500D01*
X73621116Y56147500D01*
X65795913Y56147500D01*
X65743587Y56169174D01*
X65729070Y56183691D01*
X65625435Y56243525D01*
X65625431Y56243527D01*
X65509836Y56274500D01*
X65390164Y56274500D01*
X65332366Y56259014D01*
X65274568Y56243527D01*
X65274564Y56243525D01*
X65170929Y56183691D01*
X65086309Y56099071D01*
X65026586Y55995627D01*
X64981652Y55961148D01*
X64925500Y55968541D01*
X64891021Y56013475D01*
X64888500Y56032627D01*
X64888500Y61407537D01*
X64888499Y61407538D01*
X64866182Y61490827D01*
X64823064Y61565510D01*
X62878174Y63510400D01*
X62856500Y63562726D01*
X62856500Y64155022D01*
X62878174Y64207348D01*
X62896981Y64226155D01*
X62949307Y64247829D01*
X62969835Y64247829D01*
X62969836Y64247829D01*
X63085431Y64278802D01*
X63189070Y64338638D01*
X63273691Y64423259D01*
X63333527Y64526898D01*
X63364500Y64642493D01*
X63364500Y64762165D01*
X63336316Y64867351D01*
X63343709Y64923502D01*
X63388643Y64957981D01*
X63407795Y64960502D01*
X70547691Y64960502D01*
X70600017Y64938828D01*
X70815826Y64723019D01*
X70837500Y64670693D01*
X70837500Y64650164D01*
X70855391Y64583394D01*
X70868473Y64534569D01*
X70868475Y64534565D01*
X70872902Y64526898D01*
X70928309Y64430930D01*
X71012930Y64346309D01*
X71116569Y64286473D01*
X71232164Y64255500D01*
X71232165Y64255500D01*
X71351835Y64255500D01*
X71351836Y64255500D01*
X71467431Y64286473D01*
X71571070Y64346309D01*
X71655691Y64430930D01*
X71715527Y64534569D01*
X71746500Y64650164D01*
X71746500Y64769836D01*
X71715527Y64885431D01*
X71655691Y64989070D01*
X71571070Y65073691D01*
X71467435Y65133525D01*
X71467431Y65133527D01*
X71351836Y65164500D01*
X71351835Y65164500D01*
X71331307Y65164500D01*
X71278981Y65186174D01*
X70915088Y65550067D01*
X70840405Y65593185D01*
X70757116Y65615502D01*
X70757114Y65615502D01*
X62261118Y65615502D01*
X62174886Y65615502D01*
X62174884Y65615502D01*
X62091594Y65593185D01*
X62016911Y65550067D01*
X61653019Y65186174D01*
X61600693Y65164500D01*
X61580164Y65164500D01*
X61522366Y65149014D01*
X61464568Y65133527D01*
X61464564Y65133525D01*
X61360929Y65073691D01*
X61276309Y64989071D01*
X61216475Y64885436D01*
X61216473Y64885432D01*
X61211628Y64867350D01*
X61185500Y64769836D01*
X21000000Y64769836D01*
X21000000Y67309836D01*
X36166500Y67309836D01*
X36166500Y67190164D01*
X36197473Y67074569D01*
X36257309Y66970930D01*
X36341930Y66886309D01*
X36445569Y66826473D01*
X36561164Y66795500D01*
X36561165Y66795500D01*
X36680835Y66795500D01*
X36680836Y66795500D01*
X36796431Y66826473D01*
X36900070Y66886309D01*
X36984691Y66970930D01*
X37044527Y67074569D01*
X37075500Y67190164D01*
X37075500Y67309836D01*
X37044527Y67425431D01*
X36984691Y67529070D01*
X36900070Y67613691D01*
X36796435Y67673525D01*
X36796431Y67673527D01*
X36680836Y67704500D01*
X36561164Y67704500D01*
X36503366Y67689014D01*
X36445568Y67673527D01*
X36445564Y67673525D01*
X36341929Y67613691D01*
X36257309Y67529071D01*
X36197475Y67425436D01*
X36197473Y67425432D01*
X36181986Y67367634D01*
X36166500Y67309836D01*
X21000000Y67309836D01*
X21000000Y68221290D01*
X78076500Y68221290D01*
X78076500Y68056711D01*
X78108605Y67895301D01*
X78108608Y67895290D01*
X78171587Y67743245D01*
X78171588Y67743243D01*
X78171589Y67743242D01*
X78263024Y67606400D01*
X78379400Y67490024D01*
X78516242Y67398589D01*
X78668294Y67335607D01*
X78829710Y67303500D01*
X78829711Y67303500D01*
X78994289Y67303500D01*
X78994290Y67303500D01*
X79155706Y67335607D01*
X79307758Y67398589D01*
X79444600Y67490024D01*
X79560976Y67606400D01*
X79652411Y67743242D01*
X79715393Y67895294D01*
X79747500Y68056710D01*
X79747500Y68221290D01*
X81378500Y68221290D01*
X81378500Y68056711D01*
X81410605Y67895301D01*
X81410608Y67895290D01*
X81473587Y67743245D01*
X81473588Y67743243D01*
X81473589Y67743242D01*
X81565024Y67606400D01*
X81681400Y67490024D01*
X81818242Y67398589D01*
X81970294Y67335607D01*
X82131710Y67303500D01*
X82131711Y67303500D01*
X82296289Y67303500D01*
X82296290Y67303500D01*
X82457706Y67335607D01*
X82609758Y67398589D01*
X82746600Y67490024D01*
X82862976Y67606400D01*
X82954411Y67743242D01*
X83017393Y67895294D01*
X83049500Y68056710D01*
X83049500Y68221290D01*
X84553500Y68221290D01*
X84553500Y68056711D01*
X84585605Y67895301D01*
X84585608Y67895290D01*
X84648587Y67743245D01*
X84648588Y67743243D01*
X84648589Y67743242D01*
X84740024Y67606400D01*
X84856400Y67490024D01*
X84993242Y67398589D01*
X85145294Y67335607D01*
X85306710Y67303500D01*
X85306711Y67303500D01*
X85471289Y67303500D01*
X85471290Y67303500D01*
X85632706Y67335607D01*
X85784758Y67398589D01*
X85921600Y67490024D01*
X86037976Y67606400D01*
X86129411Y67743242D01*
X86192393Y67895294D01*
X86224500Y68056710D01*
X86224500Y68221290D01*
X86192393Y68382706D01*
X86160584Y68459500D01*
X86129412Y68534756D01*
X86099528Y68579480D01*
X86037976Y68671600D01*
X85921600Y68787976D01*
X85816092Y68858474D01*
X85784755Y68879413D01*
X85632710Y68942392D01*
X85632699Y68942395D01*
X85511095Y68966583D01*
X85471290Y68974500D01*
X85306710Y68974500D01*
X85274779Y68968149D01*
X85145300Y68942395D01*
X85145289Y68942392D01*
X84993244Y68879413D01*
X84856400Y68787977D01*
X84856399Y68787975D01*
X84740025Y68671601D01*
X84740023Y68671600D01*
X84648587Y68534756D01*
X84585608Y68382711D01*
X84585605Y68382700D01*
X84553500Y68221290D01*
X83049500Y68221290D01*
X83017393Y68382706D01*
X82985584Y68459500D01*
X82954412Y68534756D01*
X82924528Y68579480D01*
X82862976Y68671600D01*
X82746600Y68787976D01*
X82641092Y68858474D01*
X82609755Y68879413D01*
X82457710Y68942392D01*
X82457699Y68942395D01*
X82336095Y68966583D01*
X82296290Y68974500D01*
X82131710Y68974500D01*
X82099779Y68968149D01*
X81970300Y68942395D01*
X81970289Y68942392D01*
X81818244Y68879413D01*
X81681400Y68787977D01*
X81681399Y68787975D01*
X81565025Y68671601D01*
X81565023Y68671600D01*
X81473587Y68534756D01*
X81410608Y68382711D01*
X81410605Y68382700D01*
X81378500Y68221290D01*
X79747500Y68221290D01*
X79715393Y68382706D01*
X79683584Y68459500D01*
X79652412Y68534756D01*
X79622528Y68579480D01*
X79560976Y68671600D01*
X79444600Y68787976D01*
X79339092Y68858474D01*
X79307755Y68879413D01*
X79155710Y68942392D01*
X79155699Y68942395D01*
X79034095Y68966583D01*
X78994290Y68974500D01*
X78829710Y68974500D01*
X78797779Y68968149D01*
X78668300Y68942395D01*
X78668289Y68942392D01*
X78516244Y68879413D01*
X78379400Y68787977D01*
X78379399Y68787975D01*
X78263025Y68671601D01*
X78263023Y68671600D01*
X78171587Y68534756D01*
X78108608Y68382711D01*
X78108605Y68382700D01*
X78076500Y68221290D01*
X21000000Y68221290D01*
X21000000Y69139060D01*
X22177500Y69139060D01*
X22177500Y68980941D01*
X22218421Y68828221D01*
X22218422Y68828219D01*
X22218423Y68828216D01*
X22297480Y68691284D01*
X22409284Y68579480D01*
X22546216Y68500423D01*
X22698940Y68459501D01*
X22698941Y68459500D01*
X22698943Y68459500D01*
X22857059Y68459500D01*
X22857059Y68459501D01*
X23009784Y68500423D01*
X23146716Y68579480D01*
X23258520Y68691284D01*
X23337577Y68828216D01*
X23378499Y68980941D01*
X23378500Y68980941D01*
X23378500Y69139059D01*
X23378499Y69139060D01*
X23356231Y69222164D01*
X23337577Y69291784D01*
X23308680Y69341836D01*
X36166500Y69341836D01*
X36166500Y69222164D01*
X36197473Y69106569D01*
X36257309Y69002930D01*
X36341930Y68918309D01*
X36445569Y68858473D01*
X36561164Y68827500D01*
X36561165Y68827500D01*
X36680835Y68827500D01*
X36680836Y68827500D01*
X36796431Y68858473D01*
X36900070Y68918309D01*
X36984691Y69002930D01*
X37044527Y69106569D01*
X37075500Y69222164D01*
X37075500Y69341836D01*
X37044527Y69457431D01*
X36984691Y69561070D01*
X36900070Y69645691D01*
X36874420Y69660500D01*
X36796435Y69705525D01*
X36796431Y69705527D01*
X36680836Y69736500D01*
X36561164Y69736500D01*
X36503366Y69721014D01*
X36445568Y69705527D01*
X36445564Y69705525D01*
X36341929Y69645691D01*
X36257309Y69561071D01*
X36197475Y69457436D01*
X36197473Y69457432D01*
X36197473Y69457431D01*
X36166500Y69341836D01*
X23308680Y69341836D01*
X23258520Y69428716D01*
X23146716Y69540520D01*
X23009784Y69619577D01*
X23009781Y69619578D01*
X23009779Y69619579D01*
X22857059Y69660500D01*
X22857057Y69660500D01*
X22698943Y69660500D01*
X22698941Y69660500D01*
X22546220Y69619579D01*
X22546214Y69619576D01*
X22409283Y69540520D01*
X22297480Y69428717D01*
X22218424Y69291786D01*
X22218421Y69291780D01*
X22177500Y69139060D01*
X21000000Y69139060D01*
X21000000Y95121287D01*
X99149500Y95121287D01*
X99149500Y94878714D01*
X99181160Y94638218D01*
X99181162Y94638209D01*
X99243945Y94403901D01*
X99336772Y94179797D01*
X99336775Y94179789D01*
X99458061Y93969715D01*
X99458065Y93969709D01*
X99605735Y93777262D01*
X99777262Y93605735D01*
X99969711Y93458064D01*
X100179788Y93336776D01*
X100403900Y93243946D01*
X100638211Y93181162D01*
X100638214Y93181162D01*
X100638217Y93181161D01*
X100744951Y93167110D01*
X100878712Y93149500D01*
X100878714Y93149500D01*
X101121286Y93149500D01*
X101121288Y93149500D01*
X101306575Y93173894D01*
X101361782Y93181161D01*
X101361782Y93181162D01*
X101361789Y93181162D01*
X101596100Y93243946D01*
X101820212Y93336776D01*
X102030289Y93458064D01*
X102222738Y93605735D01*
X102394265Y93777262D01*
X102541936Y93969711D01*
X102663224Y94179788D01*
X102756054Y94403900D01*
X102818838Y94638211D01*
X102850500Y94878712D01*
X102850500Y95121288D01*
X102818838Y95361789D01*
X102756054Y95596100D01*
X102663224Y95820212D01*
X102541936Y96030289D01*
X102394265Y96222738D01*
X102222738Y96394265D01*
X102085593Y96499500D01*
X102030291Y96541935D01*
X102030285Y96541939D01*
X101820211Y96663225D01*
X101820203Y96663228D01*
X101596099Y96756055D01*
X101361791Y96818838D01*
X101361782Y96818840D01*
X101168480Y96844288D01*
X101121288Y96850500D01*
X100878712Y96850500D01*
X100835736Y96844843D01*
X100638217Y96818840D01*
X100638208Y96818838D01*
X100403900Y96756055D01*
X100179796Y96663228D01*
X100179788Y96663225D01*
X99969714Y96541939D01*
X99969708Y96541935D01*
X99777261Y96394265D01*
X99605735Y96222739D01*
X99458065Y96030292D01*
X99458061Y96030286D01*
X99336775Y95820212D01*
X99336772Y95820204D01*
X99243945Y95596100D01*
X99181162Y95361792D01*
X99181160Y95361783D01*
X99149500Y95121287D01*
X21000000Y95121287D01*
X21000000Y99000000D01*
X103550000Y99000000D01*
X103550000Y30420000D01*
G37*
%TD.AperFunction*%
%TD*%
M02*
