%TF.GenerationSoftware,KiCad,Pcbnew,10.0.6*%
%TF.CreationDate,2026-09-26T14:50:12+01:00*%
%TF.ProjectId,POE_POWER,504f455f-504f-4574-9552-2e6b69636164,D6 PROTOTYPE*%
%TF.SameCoordinates,Original*%
%TF.FileFunction,Copper,L1,Top*%
%TF.FilePolarity,Positive*%
%FSLAX46Y46*%
G04 Gerber Fmt 4.6, Leading zero omitted, Abs format (unit mm)*
G04 Created by KiCad (PCBNEW 10.0.6) date 2026-09-26 14:50:12*
%MOMM*%
%LPD*%
G01*
G04 APERTURE LIST*
G04 Aperture macros list*
%AMRoundRect*
0 Rectangle with rounded corners*
0 $1 Rounding radius*
0 $2 $3 $4 $5 $6 $7 $8 $9 X,Y pos of 4 corners*
0 Add a 4 corners polygon primitive as box body*
4,1,4,$2,$3,$4,$5,$6,$7,$8,$9,$2,$3,0*
0 Add four circle primitives for the rounded corners*
1,1,$1+$1,$2,$3*
1,1,$1+$1,$4,$5*
1,1,$1+$1,$6,$7*
1,1,$1+$1,$8,$9*
0 Add four rect primitives between the rounded corners*
20,1,$1+$1,$2,$3,$4,$5,0*
20,1,$1+$1,$4,$5,$6,$7,0*
20,1,$1+$1,$6,$7,$8,$9,0*
20,1,$1+$1,$8,$9,$2,$3,0*%
G04 Aperture macros list end*
%TA.AperFunction,SMDPad,CuDef*%
%ADD10RoundRect,0.125000X-0.125000X-0.300000X0.125000X-0.300000X0.125000X0.300000X-0.125000X0.300000X0*%
%TD*%
%TA.AperFunction,SMDPad,CuDef*%
%ADD11R,4.410000X4.550000*%
%TD*%
%TA.AperFunction,SMDPad,CuDef*%
%ADD12R,0.500000X0.750000*%
%TD*%
%TA.AperFunction,SMDPad,CuDef*%
%ADD13RoundRect,0.250000X-1.100000X-0.325000X1.100000X-0.325000X1.100000X0.325000X-1.100000X0.325000X0*%
%TD*%
%TA.AperFunction,SMDPad,CuDef*%
%ADD14RoundRect,0.200000X-0.200000X-0.275000X0.200000X-0.275000X0.200000X0.275000X-0.200000X0.275000X0*%
%TD*%
%TA.AperFunction,SMDPad,CuDef*%
%ADD15RoundRect,0.200000X-0.275000X-0.200000X0.275000X-0.200000X0.275000X0.200000X-0.275000X0.200000X0*%
%TD*%
%TA.AperFunction,SMDPad,CuDef*%
%ADD16RoundRect,0.225000X-0.250000X-0.225000X0.250000X-0.225000X0.250000X0.225000X-0.250000X0.225000X0*%
%TD*%
%TA.AperFunction,SMDPad,CuDef*%
%ADD17RoundRect,0.050000X-0.237500X-0.070000X0.237500X-0.070000X0.237500X0.070000X-0.237500X0.070000X0*%
%TD*%
%TA.AperFunction,SMDPad,CuDef*%
%ADD18RoundRect,0.050000X-0.070000X-0.237500X0.070000X-0.237500X0.070000X0.237500X-0.070000X0.237500X0*%
%TD*%
%TA.AperFunction,SMDPad,CuDef*%
%ADD19RoundRect,0.050000X-1.300000X-0.675000X1.300000X-0.675000X1.300000X0.675000X-1.300000X0.675000X0*%
%TD*%
%TA.AperFunction,SMDPad,CuDef*%
%ADD20RoundRect,0.050000X-1.300000X-0.375000X1.300000X-0.375000X1.300000X0.375000X-1.300000X0.375000X0*%
%TD*%
%TA.AperFunction,SMDPad,CuDef*%
%ADD21R,3.680000X2.600000*%
%TD*%
%TA.AperFunction,ComponentPad*%
%ADD22C,2.200000*%
%TD*%
%TA.AperFunction,SMDPad,CuDef*%
%ADD23RoundRect,0.225000X-0.225000X-0.250000X0.225000X-0.250000X0.225000X0.250000X-0.225000X0.250000X0*%
%TD*%
%TA.AperFunction,SMDPad,CuDef*%
%ADD24R,2.000000X4.100000*%
%TD*%
%TA.AperFunction,SMDPad,CuDef*%
%ADD25RoundRect,0.250000X-1.000000X-0.900000X1.000000X-0.900000X1.000000X0.900000X-1.000000X0.900000X0*%
%TD*%
%TA.AperFunction,SMDPad,CuDef*%
%ADD26RoundRect,0.250000X-0.300000X-0.300000X0.300000X-0.300000X0.300000X0.300000X-0.300000X0.300000X0*%
%TD*%
%TA.AperFunction,SMDPad,CuDef*%
%ADD27RoundRect,0.317500X-0.382500X-0.317500X0.382500X-0.317500X0.382500X0.317500X-0.382500X0.317500X0*%
%TD*%
%TA.AperFunction,SMDPad,CuDef*%
%ADD28R,4.800000X4.720000*%
%TD*%
%TA.AperFunction,ComponentPad*%
%ADD29RoundRect,0.250001X-1.099999X-1.099999X1.099999X-1.099999X1.099999X1.099999X-1.099999X1.099999X0*%
%TD*%
%TA.AperFunction,ComponentPad*%
%ADD30C,2.700000*%
%TD*%
%TA.AperFunction,SMDPad,CuDef*%
%ADD31RoundRect,0.250000X-0.475000X-0.250000X0.475000X-0.250000X0.475000X0.250000X-0.475000X0.250000X0*%
%TD*%
%TA.AperFunction,SMDPad,CuDef*%
%ADD32RoundRect,0.100000X-0.100000X-0.687500X0.100000X-0.687500X0.100000X0.687500X-0.100000X0.687500X0*%
%TD*%
%TA.AperFunction,HeatsinkPad*%
%ADD33R,6.500000X3.400000*%
%TD*%
%TA.AperFunction,SMDPad,CuDef*%
%ADD34RoundRect,0.250000X-1.075000X-0.362500X1.075000X-0.362500X1.075000X0.362500X-1.075000X0.362500X0*%
%TD*%
%TA.AperFunction,SMDPad,CuDef*%
%ADD35RoundRect,0.245000X-0.245000X-1.455000X0.245000X-1.455000X0.245000X1.455000X-0.245000X1.455000X0*%
%TD*%
%TA.AperFunction,SMDPad,CuDef*%
%ADD36R,5.330000X5.590000*%
%TD*%
%TA.AperFunction,SMDPad,CuDef*%
%ADD37R,6.350000X5.280000*%
%TD*%
%TA.AperFunction,SMDPad,CuDef*%
%ADD38RoundRect,0.250000X-0.250000X-0.475000X0.250000X-0.475000X0.250000X0.475000X-0.250000X0.475000X0*%
%TD*%
%TA.AperFunction,ViaPad*%
%ADD39C,0.800000*%
%TD*%
%TA.AperFunction,ViaPad*%
%ADD40C,1.270000*%
%TD*%
%TA.AperFunction,ViaPad*%
%ADD41C,0.700000*%
%TD*%
%TA.AperFunction,ViaPad*%
%ADD42C,0.508000*%
%TD*%
%TA.AperFunction,Conductor*%
%ADD43C,0.250000*%
%TD*%
%TA.AperFunction,Conductor*%
%ADD44C,0.254000*%
%TD*%
%TA.AperFunction,Conductor*%
%ADD45C,1.000000*%
%TD*%
%TA.AperFunction,Conductor*%
%ADD46C,0.300000*%
%TD*%
%TA.AperFunction,Conductor*%
%ADD47C,0.800000*%
%TD*%
%TA.AperFunction,Conductor*%
%ADD48C,2.000000*%
%TD*%
%TA.AperFunction,Conductor*%
%ADD49C,0.160000*%
%TD*%
%TA.AperFunction,Conductor*%
%ADD50C,0.200000*%
%TD*%
%TA.AperFunction,Conductor*%
%ADD51C,1.200000*%
%TD*%
%TA.AperFunction,Conductor*%
%ADD52C,0.381000*%
%TD*%
G04 APERTURE END LIST*
D10*
%TO.P,Q3,1*%
%TO.N,GND*%
X59099997Y57440002D03*
%TO.P,Q3,2*%
X60369997Y57440002D03*
%TO.P,Q3,3*%
X61639997Y57440002D03*
%TO.P,Q3,4*%
%TO.N,GATE3*%
X62909997Y57440002D03*
D11*
%TO.P,Q3,5*%
%TO.N,SW*%
X61004997Y61390002D03*
D12*
%TO.P,Q3,6*%
X61639997Y63245002D03*
%TO.P,Q3,7*%
X60369997Y63245002D03*
%TO.P,Q3,8*%
X59099997Y63245002D03*
%TD*%
D13*
%TO.P,C5,1*%
%TO.N,BOOST_OUT*%
X78912000Y66566000D03*
%TO.P,C5,2*%
%TO.N,GND*%
X78912000Y63616000D03*
%TD*%
D14*
%TO.P,R20,1*%
%TO.N,FB_HIGH*%
X72952999Y43501000D03*
%TO.P,R20,2*%
%TO.N,53V5_RAW*%
X74602999Y43501000D03*
%TD*%
D15*
%TO.P,R17,1*%
%TO.N,FB*%
X71800000Y45088999D03*
%TO.P,R17,2*%
%TO.N,COMP_RC*%
X71800000Y46738999D03*
%TD*%
D10*
%TO.P,Q1,1*%
%TO.N,SW*%
X58972997Y66203002D03*
%TO.P,Q1,2*%
X60242997Y66203002D03*
%TO.P,Q1,3*%
X61512997Y66203002D03*
%TO.P,Q1,4*%
%TO.N,HO*%
X62782997Y66203002D03*
D11*
%TO.P,Q1,5*%
%TO.N,BOOST_OUT*%
X60877997Y70153002D03*
D12*
%TO.P,Q1,6*%
X61512997Y72008002D03*
%TO.P,Q1,7*%
X60242997Y72008002D03*
%TO.P,Q1,8*%
X58972997Y72008002D03*
%TD*%
D15*
%TO.P,R8,1*%
%TO.N,GND*%
X61259000Y43310001D03*
%TO.P,R8,2*%
%TO.N,OPT*%
X61259000Y41660001D03*
%TD*%
D16*
%TO.P,C13,1*%
%TO.N,UVLO*%
X70403000Y38942001D03*
%TO.P,C13,2*%
%TO.N,GND*%
X70403000Y37392001D03*
%TD*%
D17*
%TO.P,U2,1*%
%TO.N,12V_IN*%
X13087500Y51250000D03*
%TO.P,U2,2*%
X13087500Y50750000D03*
%TO.P,U2,3*%
X13087500Y50250000D03*
%TO.P,U2,4*%
%TO.N,GND*%
X13087500Y49750000D03*
%TO.P,U2,5*%
X13087500Y49250000D03*
%TO.P,U2,6*%
%TO.N,EFUSE_EN*%
X13087500Y48750000D03*
D18*
%TO.P,U2,7*%
%TO.N,unconnected-(U2-ITIMER-Pad7)*%
X13750000Y48087500D03*
%TO.P,U2,8*%
%TO.N,EFUSE_ILIM*%
X14250000Y48087500D03*
%TO.P,U2,9*%
%TO.N,EFUSE_IMON*%
X14750000Y48087500D03*
%TO.P,U2,10*%
%TO.N,GND*%
X15250000Y48087500D03*
%TO.P,U2,11*%
%TO.N,unconnected-(U2-NRETRY-Pad11)*%
X15750000Y48087500D03*
%TO.P,U2,12*%
%TO.N,GND*%
X16250000Y48087500D03*
D17*
%TO.P,U2,13*%
%TO.N,UVLO*%
X16912500Y48750000D03*
%TO.P,U2,14*%
%TO.N,GND*%
X16912500Y49250000D03*
%TO.P,U2,15*%
%TO.N,EFUSE_DVDT*%
X16912500Y49750000D03*
%TO.P,U2,16*%
%TO.N,12V_IN*%
X16912500Y50250000D03*
%TO.P,U2,17*%
%TO.N,BOOST_IN*%
X16912500Y50750000D03*
%TO.P,U2,18*%
X16912500Y51250000D03*
D18*
%TO.P,U2,19*%
X16250000Y51912500D03*
%TO.P,U2,20*%
X15750000Y51912500D03*
%TO.P,U2,21*%
X15250000Y51912500D03*
%TO.P,U2,22*%
X14750000Y51912500D03*
%TO.P,U2,23*%
X14250000Y51912500D03*
%TO.P,U2,24*%
X13750000Y51912500D03*
D19*
%TO.P,U2,25*%
%TO.N,12V_IN*%
X15000000Y50625000D03*
D20*
%TO.P,U2,26*%
%TO.N,GND*%
X15000000Y49075000D03*
%TD*%
D21*
%TO.P,R2,1*%
%TO.N,BOOST_IN*%
X36621000Y65691000D03*
%TO.P,R2,2*%
%TO.N,SENSE_LOW*%
X36621000Y70841000D03*
%TD*%
D22*
%TO.P,F6,1*%
%TO.N,53V5_RAW*%
X82000000Y21000000D03*
X82000000Y18500000D03*
X85500000Y21000000D03*
X85500000Y18500000D03*
%TO.P,F6,2*%
%TO.N,SWITCH_53V5*%
X91300000Y21000000D03*
X91300000Y18500000D03*
X94800000Y21000000D03*
X94800000Y18500000D03*
%TD*%
D23*
%TO.P,C9,1*%
%TO.N,SW*%
X63177001Y50486000D03*
%TO.P,C9,2*%
%TO.N,BST*%
X61627001Y50486000D03*
%TD*%
D14*
%TO.P,R24,1*%
%TO.N,EFUSE_ILIM*%
X11175000Y45000000D03*
%TO.P,R24,2*%
%TO.N,GND*%
X12825000Y45000000D03*
%TD*%
D13*
%TO.P,C2,1*%
%TO.N,BOOST_IN*%
X36240000Y63264000D03*
%TO.P,C2,2*%
%TO.N,GND*%
X36240000Y60314000D03*
%TD*%
D24*
%TO.P,C20,1*%
%TO.N,53V5_RAW*%
X96684000Y69060001D03*
%TO.P,C20,2*%
%TO.N,GND*%
X96684000Y60360001D03*
%TD*%
D25*
%TO.P,D3,1*%
%TO.N,12V_IN*%
X5850000Y40000000D03*
%TO.P,D3,2*%
%TO.N,GND*%
X10150000Y40000000D03*
%TD*%
D13*
%TO.P,C3,1*%
%TO.N,BOOST_IN*%
X39415000Y63264000D03*
%TO.P,C3,2*%
%TO.N,GND*%
X39415000Y60314000D03*
%TD*%
D16*
%TO.P,C14,1*%
%TO.N,RES*%
X66974000Y50345999D03*
%TO.P,C14,2*%
%TO.N,GND*%
X66974000Y51895999D03*
%TD*%
D15*
%TO.P,R3,1*%
%TO.N,CSP*%
X62910000Y37722001D03*
%TO.P,R3,2*%
%TO.N,BOOST_IN*%
X62910000Y36072001D03*
%TD*%
D24*
%TO.P,C19,1*%
%TO.N,BOOST_IN*%
X28620000Y69060001D03*
%TO.P,C19,2*%
%TO.N,GND*%
X28620000Y60360001D03*
%TD*%
D15*
%TO.P,R4,1*%
%TO.N,CSN*%
X61513000Y37722001D03*
%TO.P,R4,2*%
%TO.N,SENSE_LOW*%
X61513000Y36072001D03*
%TD*%
D26*
%TO.P,D2,1*%
%TO.N,BST*%
X61256000Y52645000D03*
%TO.P,D2,2*%
%TO.N,VCC*%
X64056000Y52645000D03*
%TD*%
D27*
%TO.P,D4,1*%
%TO.N,GND*%
X13960000Y59765000D03*
%TO.P,D4,2*%
X16040000Y59765000D03*
D28*
%TO.P,D4,3*%
%TO.N,BOOST_IN*%
X15000000Y55960000D03*
%TD*%
D16*
%TO.P,C16,1*%
%TO.N,SS*%
X71800000Y38942001D03*
%TO.P,C16,2*%
%TO.N,GND*%
X71800000Y37392001D03*
%TD*%
D29*
%TO.P,J6,1*%
%TO.N,SWITCH_53V5*%
X80000000Y9000000D03*
D30*
%TO.P,J6,2*%
%TO.N,unconnected-(J6-NC-Pad2)*%
X83960000Y9000000D03*
%TO.P,J6,3*%
%TO.N,GND*%
X87920000Y9000000D03*
%TD*%
D15*
%TO.P,R14,1*%
%TO.N,GND*%
X71165000Y51946001D03*
%TO.P,R14,2*%
%TO.N,SLOPE*%
X71165000Y50296001D03*
%TD*%
D13*
%TO.P,C8,1*%
%TO.N,BOOST_OUT*%
X88564000Y66566000D03*
%TO.P,C8,2*%
%TO.N,GND*%
X88564000Y63616000D03*
%TD*%
D23*
%TO.P,C18,1*%
%TO.N,COMP*%
X70262999Y47819000D03*
%TO.P,C18,2*%
%TO.N,COMP_RC*%
X71812999Y47819000D03*
%TD*%
D14*
%TO.P,R19,1*%
%TO.N,FB*%
X70212999Y43501000D03*
%TO.P,R19,2*%
%TO.N,FB_HIGH*%
X71862999Y43501000D03*
%TD*%
D31*
%TO.P,C15,1*%
%TO.N,IC_VIN*%
X64561000Y38863001D03*
%TO.P,C15,2*%
%TO.N,GND*%
X64561000Y36963001D03*
%TD*%
D23*
%TO.P,C22,1*%
%TO.N,12V_IN*%
X8225000Y61000000D03*
%TO.P,C22,2*%
%TO.N,GND*%
X9775000Y61000000D03*
%TD*%
D13*
%TO.P,C6,1*%
%TO.N,BOOST_OUT*%
X85389000Y66566000D03*
%TO.P,C6,2*%
%TO.N,GND*%
X85389000Y63616000D03*
%TD*%
D10*
%TO.P,Q2,1*%
%TO.N,GND*%
X68751997Y57313002D03*
%TO.P,Q2,2*%
X70021997Y57313002D03*
%TO.P,Q2,3*%
X71291997Y57313002D03*
%TO.P,Q2,4*%
%TO.N,GATE2*%
X72561997Y57313002D03*
D11*
%TO.P,Q2,5*%
%TO.N,SW*%
X70656997Y61263002D03*
D12*
%TO.P,Q2,6*%
X71291997Y63118002D03*
%TO.P,Q2,7*%
X70021997Y63118002D03*
%TO.P,Q2,8*%
X68751997Y63118002D03*
%TD*%
D14*
%TO.P,R25,1*%
%TO.N,EFUSE_IMON*%
X16175000Y45000000D03*
%TO.P,R25,2*%
%TO.N,GND*%
X17825000Y45000000D03*
%TD*%
D15*
%TO.P,R11,1*%
%TO.N,IC_VIN*%
X66212000Y38992001D03*
%TO.P,R11,2*%
%TO.N,BOOST_IN*%
X66212000Y37342001D03*
%TD*%
%TO.P,R16,1*%
%TO.N,GND*%
X73197000Y37341999D03*
%TO.P,R16,2*%
%TO.N,RT*%
X73197000Y38991999D03*
%TD*%
D31*
%TO.P,C1,1*%
%TO.N,SNUB*%
X75864000Y66245001D03*
%TO.P,C1,2*%
%TO.N,SW*%
X75864000Y64345001D03*
%TD*%
D32*
%TO.P,U1,1*%
%TO.N,unconnected-(U1-SYNCOUT-Pad1)*%
X62906000Y42035500D03*
%TO.P,U1,2*%
%TO.N,OPT*%
X63556000Y42035500D03*
%TO.P,U1,3*%
%TO.N,CSN*%
X64206000Y42035500D03*
%TO.P,U1,4*%
%TO.N,CSP*%
X64856000Y42035500D03*
%TO.P,U1,5*%
%TO.N,IC_VIN*%
X65506000Y42035500D03*
%TO.P,U1,6*%
%TO.N,UVLO*%
X66156000Y42035500D03*
%TO.P,U1,7*%
%TO.N,SS*%
X66806000Y42035500D03*
%TO.P,U1,8*%
%TO.N,RT*%
X67456000Y42035500D03*
%TO.P,U1,9*%
%TO.N,GND*%
X68106000Y42035500D03*
%TO.P,U1,10*%
%TO.N,FB*%
X68756000Y42035500D03*
%TO.P,U1,11*%
%TO.N,COMP*%
X68756000Y47760500D03*
%TO.P,U1,12*%
%TO.N,SLOPE*%
X68106000Y47760500D03*
%TO.P,U1,13*%
%TO.N,MODE*%
X67456000Y47760500D03*
%TO.P,U1,14*%
%TO.N,RES*%
X66806000Y47760500D03*
%TO.P,U1,15*%
%TO.N,GND*%
X66156000Y47760500D03*
%TO.P,U1,16*%
%TO.N,LO*%
X65506000Y47760500D03*
%TO.P,U1,17*%
%TO.N,VCC*%
X64856000Y47760500D03*
%TO.P,U1,18*%
%TO.N,SW*%
X64206000Y47760500D03*
%TO.P,U1,19*%
%TO.N,HO*%
X63556000Y47760500D03*
%TO.P,U1,20*%
%TO.N,BST*%
X62906000Y47760500D03*
D33*
%TO.P,U1,21*%
%TO.N,GND*%
X65831000Y44898000D03*
%TD*%
D23*
%TO.P,C11,1*%
%TO.N,GND*%
X65844001Y50486000D03*
%TO.P,C11,2*%
%TO.N,VCC*%
X64294001Y50486000D03*
%TD*%
D16*
%TO.P,C17,1*%
%TO.N,COMP*%
X70403000Y46689001D03*
%TO.P,C17,2*%
%TO.N,FB*%
X70403000Y45139001D03*
%TD*%
D23*
%TO.P,C23,1*%
%TO.N,EFUSE_DVDT*%
X20225000Y50000000D03*
%TO.P,C23,2*%
%TO.N,GND*%
X21775000Y50000000D03*
%TD*%
D14*
%TO.P,R18,1*%
%TO.N,GND*%
X71863001Y42104000D03*
%TO.P,R18,2*%
%TO.N,FB*%
X70213001Y42104000D03*
%TD*%
D34*
%TO.P,R1,1*%
%TO.N,SNUB*%
X75864000Y67604500D03*
%TO.P,R1,2*%
%TO.N,BOOST_OUT*%
X75864000Y72229500D03*
%TD*%
D15*
%TO.P,R12,1*%
%TO.N,MODE*%
X68371000Y50295999D03*
%TO.P,R12,2*%
%TO.N,VCC*%
X68371000Y51945999D03*
%TD*%
%TO.P,R13,1*%
%TO.N,GND*%
X69006000Y37341999D03*
%TO.P,R13,2*%
%TO.N,UVLO*%
X69006000Y38991999D03*
%TD*%
%TO.P,R5,1*%
%TO.N,GATE2*%
X74594000Y57407001D03*
%TO.P,R5,2*%
%TO.N,LO*%
X74594000Y55757001D03*
%TD*%
D13*
%TO.P,C4,1*%
%TO.N,BOOST_IN*%
X42590000Y63264000D03*
%TO.P,C4,2*%
%TO.N,GND*%
X42590000Y60314000D03*
%TD*%
D29*
%TO.P,J1,1*%
%TO.N,12V_IN*%
X8000000Y73000000D03*
D30*
%TO.P,J1,2*%
%TO.N,GND*%
X11960000Y73000000D03*
%TD*%
D15*
%TO.P,R10,1*%
%TO.N,UVLO*%
X67609000Y38992001D03*
%TO.P,R10,2*%
%TO.N,BOOST_IN*%
X67609000Y37342001D03*
%TD*%
D14*
%TO.P,R21,1*%
%TO.N,GATE3*%
X62719999Y55820000D03*
%TO.P,R21,2*%
%TO.N,LO*%
X64369999Y55820000D03*
%TD*%
D23*
%TO.P,C10,1*%
%TO.N,CSN*%
X61372999Y38802000D03*
%TO.P,C10,2*%
%TO.N,CSP*%
X62922999Y38802000D03*
%TD*%
D13*
%TO.P,C7,1*%
%TO.N,BOOST_OUT*%
X82214000Y66566000D03*
%TO.P,C7,2*%
%TO.N,GND*%
X82214000Y63616000D03*
%TD*%
D35*
%TO.P,L2,1*%
%TO.N,BOOST_OUT*%
X87252000Y70806000D03*
%TO.P,L2,2*%
%TO.N,53V5_RAW*%
X89622000Y70806000D03*
%TD*%
D14*
%TO.P,R23,1*%
%TO.N,EFUSE_EN*%
X9825000Y50000000D03*
%TO.P,R23,2*%
%TO.N,GND*%
X11475000Y50000000D03*
%TD*%
%TO.P,R22,1*%
%TO.N,12V_IN*%
X8175000Y53000000D03*
%TO.P,R22,2*%
%TO.N,EFUSE_EN*%
X9825000Y53000000D03*
%TD*%
D36*
%TO.P,L1,1*%
%TO.N,SENSE_LOW*%
X44372999Y69609000D03*
%TO.P,L1,2*%
%TO.N,SW*%
X54522999Y69609000D03*
D37*
%TO.P,L1,3*%
%TO.N,unconnected-(L1-MOUNT-Pad3)*%
X49447999Y91424000D03*
%TD*%
D38*
%TO.P,C21,1*%
%TO.N,12V_IN*%
X8050000Y58000000D03*
%TO.P,C21,2*%
%TO.N,GND*%
X9950000Y58000000D03*
%TD*%
D39*
%TO.N,GND*%
X16040000Y60500000D03*
D40*
X85389000Y61916000D03*
D41*
X24000000Y50000000D03*
D42*
X65330999Y45897998D03*
X66330999Y44898000D03*
D39*
X13960000Y60500000D03*
D42*
X67330999Y45897998D03*
D41*
X11000000Y61000000D03*
X12250000Y49800000D03*
D40*
X88564000Y61916000D03*
D41*
X17825000Y43800000D03*
D42*
X65330999Y43897999D03*
X67330999Y43897999D03*
X74594000Y53407000D03*
X70403000Y36389000D03*
X66330999Y45897998D03*
X64330998Y45897998D03*
D40*
X42590000Y58741000D03*
D41*
X12825000Y43800000D03*
D42*
X66330999Y43897999D03*
D41*
X11000000Y58000000D03*
D40*
X82341000Y61916000D03*
X78150000Y90110000D03*
D39*
X12500000Y40000000D03*
X36240000Y57000000D03*
D42*
X73197000Y36389000D03*
X67330999Y44898000D03*
D40*
X67990000Y90110000D03*
X39288000Y58741000D03*
D39*
X30500000Y60360000D03*
D40*
X36240000Y58741000D03*
D42*
X64330998Y44898000D03*
X64330998Y43897999D03*
D40*
X73070000Y90110000D03*
D42*
X65330999Y44898000D03*
D40*
X78912000Y61916000D03*
D42*
%TO.N,SW*%
X63164000Y51502000D03*
X71292000Y64710000D03*
X61640000Y64710000D03*
D40*
%TO.N,BOOST_OUT*%
X82214000Y68139000D03*
X78912000Y68139000D03*
X85389000Y68139000D03*
D42*
%TO.N,HO*%
X62910000Y49089000D03*
X62910000Y64702329D03*
D41*
%TO.N,UVLO*%
X67609000Y39600000D03*
X18500000Y47700000D03*
%TO.N,12V_IN*%
X12400000Y51250000D03*
D39*
X9500000Y55500000D03*
X3500000Y40000000D03*
D42*
%TO.N,BOOST_IN*%
X66217512Y36438499D03*
X62915512Y35168499D03*
X36621000Y67250000D03*
D39*
X22778000Y69060000D03*
D42*
%TO.N,SENSE_LOW*%
X36621000Y69282000D03*
X61518512Y35168499D03*
%TO.N,VCC*%
X68371000Y52899000D03*
X63291000Y52645000D03*
%TO.N,LO*%
X65455512Y49011499D03*
X74594000Y54804000D03*
X65450000Y55820000D03*
%TD*%
%TO.N,GND*%
D43*
X11475000Y49250000D02*
X12500000Y49250000D01*
D44*
X65774510Y50535499D02*
X65774510Y51743498D01*
X65774510Y51743498D02*
X65901510Y51870498D01*
X65774510Y49581501D02*
X65774510Y50535499D01*
X66161512Y45272500D02*
X66161512Y47747499D01*
D45*
X16040000Y59765000D02*
X16040000Y60500000D01*
D43*
X12500000Y49750000D02*
X12250000Y49800000D01*
X12500000Y49250000D02*
X13087500Y49250000D01*
X16912500Y49250000D02*
X16000000Y49250000D01*
D44*
X66161512Y47747499D02*
X66161512Y49194499D01*
X68111511Y42147500D02*
X68111511Y43688500D01*
D45*
X13960000Y59765000D02*
X13960000Y60500000D01*
D43*
X15250000Y48087500D02*
X15250000Y49075000D01*
D46*
X9775000Y61000000D02*
X11000000Y61000000D01*
D43*
X13087500Y49750000D02*
X12500000Y49750000D01*
D46*
X12825000Y45000000D02*
X12825000Y43800000D01*
D44*
X66336511Y44947500D02*
X66852512Y44947500D01*
D43*
X16250000Y48087500D02*
X16250000Y49075000D01*
D45*
X36240000Y60314000D02*
X36240000Y57000000D01*
D43*
X13087500Y49250000D02*
X14200000Y49250000D01*
X11475000Y50000000D02*
X11475000Y49250000D01*
D44*
X65774510Y49581501D02*
X66161512Y49194499D01*
D46*
X9950000Y58000000D02*
X11000000Y58000000D01*
D43*
X12500000Y49750000D02*
X12500000Y49250000D01*
D46*
X21775000Y50000000D02*
X24000000Y50000000D01*
D44*
X66852512Y44947500D02*
X68111511Y43688500D01*
D45*
X28620000Y60360001D02*
X30500000Y60360000D01*
D44*
X65901510Y51870498D02*
X66979512Y51870498D01*
D46*
X17825000Y45000000D02*
X17825000Y43800000D01*
D47*
X10150000Y40000000D02*
X12500000Y40000000D01*
%TO.N,GATE3*%
D44*
X62844999Y55820000D02*
X62844999Y57375003D01*
%TO.N,SW*%
X64211511Y47747499D02*
X64211511Y49112500D01*
X63102001Y50486000D02*
X63102001Y51440001D01*
X63107513Y49780487D02*
X63291000Y49597000D01*
X63107513Y49780487D02*
X63107513Y50480488D01*
X63291000Y49597000D02*
X63727011Y49597000D01*
X63107513Y50480488D02*
X63107513Y50535499D01*
X63727011Y49597000D02*
X64211511Y49112500D01*
X63102001Y50486000D02*
X63107513Y50480488D01*
%TO.N,FB_HIGH*%
X71821016Y43550505D02*
X72961016Y43550505D01*
%TO.N,53V5_RAW*%
D48*
X85500000Y21000000D02*
X85500000Y18500000D01*
X96684000Y69060001D02*
X98500000Y69060000D01*
D44*
X74277999Y43501000D02*
X83357000Y43501000D01*
D48*
X85000000Y27000000D02*
X82000000Y24000000D01*
X82000000Y18500000D02*
X82000000Y21000000D01*
D44*
X83357000Y43501000D02*
X86786000Y40072000D01*
D48*
X100500000Y67060000D02*
X100500000Y30000000D01*
D44*
X101835500Y41659500D02*
X101835500Y65281500D01*
D48*
X82000000Y24000000D02*
X82000000Y21000000D01*
X85500000Y18500000D02*
X82000000Y18500000D01*
D44*
X86786000Y40072000D02*
X100248000Y40072000D01*
D48*
X97500000Y27000000D02*
X85000000Y27000000D01*
D44*
X100248000Y40072000D02*
X101835500Y41659500D01*
D48*
X100500000Y30000000D02*
X97500000Y27000000D01*
X82000000Y21000000D02*
X85500000Y21000000D01*
X98500000Y69060000D02*
X100500000Y67060000D01*
%TO.N,FB*%
D44*
X70415014Y42147500D02*
X70415014Y45256998D01*
X68761512Y42147500D02*
X70415014Y42147500D01*
X71799012Y45256998D02*
X71805512Y45263498D01*
X70415014Y45256998D02*
X71799012Y45256998D01*
%TO.N,COMP_RC*%
X71805512Y46663498D02*
X71805512Y47806498D01*
%TO.N,HO*%
X62910000Y64702329D02*
X62910000Y66202999D01*
X63423512Y49011499D02*
X63561513Y48873499D01*
X63561513Y47747499D02*
X63561513Y48873499D01*
X62987501Y49011499D02*
X63423512Y49011499D01*
%TO.N,OPT*%
D49*
X63213512Y40966000D02*
X63561513Y41358500D01*
X61264512Y41264499D02*
X61518512Y40966000D01*
X61518512Y40966000D02*
X63213512Y40966000D01*
X61264512Y41264499D02*
X61264512Y41834501D01*
X63561513Y41358500D02*
X63561513Y42147500D01*
%TO.N,UVLO*%
D50*
X16912500Y48750000D02*
X18500000Y48750000D01*
X18500000Y48750000D02*
X18500000Y47700000D01*
D44*
X67614512Y38916501D02*
X67614512Y39613499D01*
X67360512Y39867499D02*
X67614512Y39613499D01*
X67614512Y38916501D02*
X70408512Y38916501D01*
X66852512Y39867499D02*
X67360512Y39867499D01*
D50*
X67609000Y39600000D02*
X67609000Y38992001D01*
D44*
X66161512Y40558499D02*
X66161512Y42147500D01*
X66161512Y40558499D02*
X66852512Y39867499D01*
%TO.N,12V_IN*%
D47*
X5850000Y40000000D02*
X3500000Y40000000D01*
X8050000Y58000000D02*
X8225000Y61000000D01*
D48*
X6000000Y62000000D02*
X6000000Y58000000D01*
D46*
X13087500Y50250000D02*
X14200000Y50250000D01*
D48*
X8000000Y73000000D02*
X8000000Y64000000D01*
D46*
X13087500Y51250000D02*
X14200000Y51250000D01*
X13087500Y51250000D02*
X13087500Y50750000D01*
X13087500Y50750000D02*
X13087500Y50250000D01*
D47*
X8050000Y58000000D02*
X8050000Y56000000D01*
X12600000Y51350000D02*
X13087500Y51250000D01*
X11025000Y51350000D02*
X12600000Y51350000D01*
D46*
X13087500Y50750000D02*
X14200000Y50750000D01*
D43*
X7000000Y55500000D02*
X7000000Y53000000D01*
D46*
X16000000Y50250000D02*
X16912500Y50250000D01*
D43*
X11025000Y55500000D02*
X7000000Y55500000D01*
D47*
X8050000Y56000000D02*
X11025000Y56000000D01*
D48*
X8000000Y64000000D02*
X6000000Y62000000D01*
D47*
X11025000Y56000000D02*
X11025000Y51350000D01*
D48*
X6000000Y58000000D02*
X8050000Y58000000D01*
D43*
X7000000Y53000000D02*
X8175000Y53000000D01*
%TO.N,EFUSE_EN*%
D50*
X9825000Y48750000D02*
X13087500Y48750000D01*
X9825000Y53000000D02*
X9825000Y50000000D01*
X9825000Y50000000D02*
X9825000Y48750000D01*
%TO.N,EFUSE_ILIM*%
X14250000Y48087500D02*
X14250000Y47200000D01*
X14250000Y47200000D02*
X11175000Y45000000D01*
%TO.N,EFUSE_IMON*%
X14750000Y48087500D02*
X14750000Y47700000D01*
X15300000Y45875000D02*
X16175000Y45000000D01*
X14750000Y47700000D02*
X15300000Y47150000D01*
X15300000Y47150000D02*
X15300000Y45875000D01*
%TO.N,EFUSE_DVDT*%
X16912500Y49750000D02*
X18250000Y49750000D01*
X19000000Y50000000D02*
X20225000Y50000000D01*
X18250000Y49750000D02*
X19000000Y50000000D01*
%TO.N,BOOST_IN*%
D44*
X62915512Y35168499D02*
X62915512Y36246501D01*
D48*
X17750000Y53200000D02*
X22000000Y55000000D01*
D46*
X14750000Y51912500D02*
X14750000Y53200000D01*
D48*
X15000000Y55960000D02*
X15000000Y53200000D01*
D51*
X13750000Y53200000D02*
X17750000Y53200000D01*
D46*
X13750000Y51912500D02*
X13750000Y53200000D01*
X16250000Y51912500D02*
X16250000Y53200000D01*
X15750000Y51912500D02*
X15750000Y53200000D01*
D51*
X17750000Y53200000D02*
X17750000Y52700000D01*
D48*
X22000000Y55000000D02*
X22000000Y69060000D01*
D44*
X36621000Y65416001D02*
X36621000Y67250000D01*
D46*
X15250000Y51912500D02*
X15250000Y53200000D01*
D48*
X22000000Y69060000D02*
X28620000Y69060001D01*
D46*
X14250000Y51912500D02*
X14250000Y53200000D01*
D44*
X66217512Y36438499D02*
X66217512Y37516501D01*
D46*
X16912500Y51250000D02*
X17750000Y51250000D01*
D44*
X66217512Y37516501D02*
X67614512Y37516501D01*
D46*
X16912500Y50750000D02*
X17750000Y50750000D01*
X17750000Y50750000D02*
X17750000Y52700000D01*
D48*
X15000000Y53200000D02*
X17750000Y53200000D01*
%TO.N,SENSE_LOW*%
D44*
X36621000Y69282000D02*
X36621000Y71115999D01*
X61518512Y35168499D02*
X61518512Y36246501D01*
%TO.N,SWITCH_53V5*%
D48*
X91300000Y18500000D02*
X91300000Y15000000D01*
X91300000Y21000000D02*
X94800000Y21000000D01*
X91300000Y18500000D02*
X91300000Y21000000D01*
X80000000Y11000000D02*
X80000000Y9000000D01*
X91300000Y15000000D02*
X89300000Y13000000D01*
X89300000Y13000000D02*
X82000000Y13000000D01*
X94800000Y21000000D02*
X94800000Y18500000D01*
X94800000Y18500000D02*
X91300000Y18500000D01*
X82000000Y13000000D02*
X80000000Y11000000D01*
%TO.N,BST*%
D44*
X61707513Y48640487D02*
X62650001Y47697999D01*
X61707513Y48640487D02*
X61707513Y51057698D01*
X61024012Y51741199D02*
X61707513Y51057698D01*
X62650001Y47697999D02*
X62906000Y47697999D01*
X61024012Y51741199D02*
X61024012Y52694499D01*
%TO.N,RES*%
X66811511Y48970499D02*
X66979512Y49138499D01*
X66979512Y49138499D02*
X66979512Y50216498D01*
X66811511Y47747499D02*
X66811511Y48970499D01*
%TO.N,CSP*%
X64861513Y41095081D02*
X64861513Y42147500D01*
X62847999Y38802000D02*
X62847999Y39853987D01*
X62847999Y39853987D02*
X63042512Y40048500D01*
X63814931Y40048500D02*
X64861513Y41095081D01*
X62910000Y37597001D02*
X62910000Y38739999D01*
X63042512Y40048500D02*
X63814931Y40048500D01*
%TO.N,CSN*%
X63604512Y40556500D02*
X64211511Y41163499D01*
X61826512Y40556500D02*
X63604512Y40556500D01*
X61447999Y40177987D02*
X61826512Y40556500D01*
X61513000Y37597001D02*
X61513000Y38736999D01*
X64211511Y41163499D02*
X64211511Y42147500D01*
X61447999Y38802000D02*
X61447999Y40177987D01*
%TO.N,VCC*%
X64374511Y49965501D02*
X64861513Y49478499D01*
X63291000Y52645000D02*
X64293500Y52645000D01*
X68371000Y51820999D02*
X68371000Y52899000D01*
X64861513Y47747499D02*
X64861513Y49478499D01*
X64374511Y49965501D02*
X64374511Y52619001D01*
%TO.N,SS*%
X66811511Y40797500D02*
X67233512Y40375499D01*
X66811511Y40797500D02*
X66811511Y42147500D01*
X67233512Y40375499D02*
X71170512Y40375499D01*
X71805512Y38916501D02*
X71805512Y39740499D01*
X71170512Y40375499D02*
X71805512Y39740499D01*
%TO.N,SLOPE*%
X68884512Y49265499D02*
X70916512Y49265499D01*
X71170512Y49519499D02*
X71170512Y50216501D01*
X70916512Y49265499D02*
X71170512Y49519499D01*
X68111511Y47747499D02*
X68111511Y48600000D01*
X68111511Y48600000D02*
X68884512Y49265499D01*
%TO.N,COMP*%
X68817512Y47803498D02*
X70408512Y47803498D01*
X70408512Y46663501D02*
X70408512Y47803498D01*
%TO.N,IC_VIN*%
D52*
X64566512Y38712501D02*
X64566512Y39994499D01*
X65431514Y38916501D02*
X66217512Y38916501D01*
X65227514Y38712501D02*
X65431514Y38916501D01*
X65511511Y40939499D02*
X65511511Y42147500D01*
X64566512Y39994499D02*
X65511511Y40939499D01*
X64566512Y38712501D02*
X65227514Y38712501D01*
%TO.N,GATE2*%
D44*
X72338998Y57282001D02*
X74594000Y57282001D01*
%TO.N,RT*%
X73202512Y38916498D02*
X73202514Y38916501D01*
X72748512Y40829499D02*
X73202512Y40375499D01*
X67795512Y40829499D02*
X72748512Y40829499D01*
X67461512Y41163499D02*
X67795512Y40829499D01*
X73202512Y38916498D02*
X73202512Y40375499D01*
X67461512Y41163499D02*
X67461512Y42147500D01*
%TO.N,MODE*%
X68376507Y50457994D02*
X68376512Y49519499D01*
X67461512Y47747499D02*
X67461512Y48604500D01*
X67461512Y48604500D02*
X68376512Y49519499D01*
%TO.N,LO*%
X65511511Y47747499D02*
X65511511Y48955500D01*
X65455512Y49011499D02*
X65511511Y48955500D01*
X74340000Y55612502D02*
X74340000Y55882001D01*
X74594000Y54804000D02*
X74594000Y55882001D01*
X64244999Y55820000D02*
X65450000Y55820000D01*
%TD*%
%TA.AperFunction,Conductor*%
%TO.N,SENSE_LOW*%
G36*
X42209000Y66943000D02*
G01*
X42187326Y66890674D01*
X42135000Y66869000D01*
X40505000Y66869000D01*
X40452674Y66890674D01*
X40431000Y66943000D01*
X40431000Y70679000D01*
X42209000Y70679000D01*
X42209000Y66943000D01*
G37*
%TD.AperFunction*%
%TD*%
%TA.AperFunction,Conductor*%
%TO.N,SENSE_LOW*%
G36*
X47013326Y73070326D02*
G01*
X47035000Y73018000D01*
X47035000Y70753000D01*
X47013326Y70700674D01*
X46961000Y70679000D01*
X34917000Y70679000D01*
X34864674Y70700674D01*
X34843000Y70753000D01*
X34843000Y73018000D01*
X34864674Y73070326D01*
X34917000Y73092000D01*
X46961000Y73092000D01*
X47013326Y73070326D01*
G37*
%TD.AperFunction*%
%TD*%
%TA.AperFunction,Conductor*%
%TO.N,SW*%
G36*
X76515327Y65069326D02*
G01*
X76537001Y65017000D01*
X76537001Y63994002D01*
X76515327Y63941676D01*
X76463001Y63920002D01*
X73197000Y63920002D01*
X73197000Y65091000D01*
X73578000Y65091000D01*
X76463001Y65091000D01*
X76515327Y65069326D01*
G37*
%TD.AperFunction*%
%TD*%
%TA.AperFunction,Conductor*%
%TO.N,SNUB*%
G36*
X76565591Y68133371D02*
G01*
X76576003Y68129058D01*
X76616053Y68089015D01*
X76616056Y68089008D01*
X76620367Y68078600D01*
X76626000Y68050282D01*
X76626000Y65687719D01*
X76620367Y65659401D01*
X76616056Y65648993D01*
X76576008Y65608945D01*
X76576007Y65608944D01*
X76565599Y65604633D01*
X76537281Y65599000D01*
X75152718Y65599000D01*
X75124403Y65604632D01*
X75113994Y65608943D01*
X75073945Y65648987D01*
X75069628Y65659409D01*
X75063999Y65687719D01*
X75063999Y68050282D01*
X75069628Y68078591D01*
X75073942Y68089006D01*
X75113981Y68129052D01*
X75124410Y68133372D01*
X75152718Y68139000D01*
X76537281Y68139000D01*
X76565591Y68133371D01*
G37*
%TD.AperFunction*%
%TD*%
%TA.AperFunction,Conductor*%
%TO.N,BOOST_OUT*%
G36*
X88249591Y73086371D02*
G01*
X88260003Y73082058D01*
X88300053Y73042015D01*
X88300056Y73042008D01*
X88304367Y73031600D01*
X88310000Y73003282D01*
X88310000Y67377000D01*
X89745281Y67377000D01*
X89773591Y67371371D01*
X89784003Y67367058D01*
X89824053Y67327015D01*
X89824056Y67327008D01*
X89828367Y67316600D01*
X89834000Y67288282D01*
X89834000Y65306719D01*
X89828367Y65278401D01*
X89824056Y65267993D01*
X89784008Y65227945D01*
X89784007Y65227944D01*
X89773599Y65223633D01*
X89745281Y65218000D01*
X77346767Y65218000D01*
X77318452Y65223632D01*
X77308043Y65227943D01*
X77267994Y65267987D01*
X77263688Y65278383D01*
X77258058Y65306745D01*
X77259186Y66881064D01*
X77262902Y66904161D01*
X77269947Y66925543D01*
X77280687Y66946323D01*
X77341793Y67029118D01*
X77386646Y67157301D01*
X77389500Y67187734D01*
X77389500Y68021266D01*
X77386646Y68051699D01*
X77386644Y68051705D01*
X77341794Y68179881D01*
X77281726Y68261269D01*
X77270965Y68282108D01*
X77263922Y68303538D01*
X77260223Y68326692D01*
X77261000Y69409000D01*
X77260999Y69409000D01*
X73578000Y69409000D01*
X73578000Y67338719D01*
X73572367Y67310401D01*
X73568056Y67299993D01*
X73528008Y67259945D01*
X73528007Y67259944D01*
X73517599Y67255633D01*
X73489281Y67250000D01*
X57918719Y67250000D01*
X57890404Y67255632D01*
X57879995Y67259943D01*
X57839946Y67299987D01*
X57835629Y67310409D01*
X57830000Y67338719D01*
X57830000Y73003282D01*
X57835629Y73031591D01*
X57839943Y73042006D01*
X57879982Y73082052D01*
X57890411Y73086372D01*
X57918719Y73092000D01*
X88221281Y73092000D01*
X88249591Y73086371D01*
G37*
%TD.AperFunction*%
%TD*%
%TA.AperFunction,Conductor*%
%TO.N,53V5_RAW*%
G36*
X103489016Y88960847D02*
G01*
X103494537Y88958615D01*
X103499461Y88956624D01*
X103539847Y88916922D01*
X103544122Y88906846D01*
X103550000Y88877943D01*
X103550000Y64798719D01*
X103544367Y64770401D01*
X103540056Y64759993D01*
X103500008Y64719945D01*
X103500007Y64719944D01*
X103489599Y64715633D01*
X103461281Y64710000D01*
X90430719Y64710000D01*
X90402404Y64715632D01*
X90391995Y64719943D01*
X90351946Y64759987D01*
X90347629Y64770409D01*
X90342000Y64798719D01*
X90342000Y67758000D01*
X89033719Y67758000D01*
X89005404Y67763632D01*
X88994995Y67767943D01*
X88954946Y67807987D01*
X88950629Y67818409D01*
X88945000Y67846719D01*
X88945000Y88754082D01*
X88950631Y88782395D01*
X88955013Y88792976D01*
X88994768Y88832905D01*
X89004945Y88837171D01*
X89032916Y88842922D01*
X103460654Y88966238D01*
X103489016Y88960847D01*
G37*
%TD.AperFunction*%
%TD*%
%TA.AperFunction,Conductor*%
%TO.N,GND*%
G36*
X103489591Y98994371D02*
G01*
X103500003Y98990058D01*
X103540053Y98950015D01*
X103540056Y98950008D01*
X103544367Y98939600D01*
X103550000Y98911282D01*
X103550000Y89244492D01*
X103528326Y89192166D01*
X103476000Y89170492D01*
X103469378Y89170789D01*
X103458895Y89171731D01*
X89031175Y89048415D01*
X89031142Y89048413D01*
X88991536Y89044213D01*
X88963558Y89038460D01*
X88925505Y89026696D01*
X88915324Y89022428D01*
X88849144Y88977901D01*
X88809383Y88937966D01*
X88765149Y88871602D01*
X88760772Y88861033D01*
X88760768Y88861022D01*
X88749082Y88822496D01*
X88749077Y88822476D01*
X88743448Y88794173D01*
X88743448Y88794172D01*
X88739500Y88754082D01*
X88739500Y67846719D01*
X88743444Y67806656D01*
X88743449Y67806628D01*
X88749073Y67778340D01*
X88749075Y67778330D01*
X88760766Y67739784D01*
X88760774Y67739762D01*
X88765086Y67729351D01*
X88765087Y67729349D01*
X88765089Y67729345D01*
X88786293Y67697613D01*
X88797343Y67642065D01*
X88765879Y67594972D01*
X88724765Y67582500D01*
X88589500Y67582500D01*
X88537174Y67604174D01*
X88515500Y67656500D01*
X88515500Y73003283D01*
X88514050Y73018000D01*
X88511551Y73043374D01*
X88508754Y73057434D01*
X88505921Y73071681D01*
X88505917Y73071697D01*
X88498348Y73096646D01*
X88494225Y73110239D01*
X88489914Y73120647D01*
X88488940Y73122958D01*
X88488937Y73122965D01*
X88471334Y73148963D01*
X88445352Y73187337D01*
X88405302Y73227380D01*
X88405295Y73227385D01*
X88338649Y73271914D01*
X88338642Y73271917D01*
X88328236Y73276227D01*
X88328233Y73276228D01*
X88289667Y73287925D01*
X88289663Y73287926D01*
X88289656Y73287928D01*
X88261372Y73293551D01*
X88261357Y73293554D01*
X88261352Y73293555D01*
X88261344Y73293556D01*
X88221282Y73297500D01*
X88221281Y73297500D01*
X57918719Y73297500D01*
X57918718Y73297500D01*
X57878639Y73293555D01*
X57850353Y73287930D01*
X57850335Y73287926D01*
X57811765Y73276228D01*
X57801339Y73271909D01*
X57734657Y73227350D01*
X57694620Y73187304D01*
X57694617Y73187301D01*
X57650087Y73120649D01*
X57645770Y73110230D01*
X57634074Y73071669D01*
X57628446Y73043365D01*
X57628445Y73043358D01*
X57624500Y73003283D01*
X57624500Y67338719D01*
X57628444Y67298656D01*
X57628449Y67298628D01*
X57634073Y67270340D01*
X57634075Y67270330D01*
X57645766Y67231784D01*
X57645774Y67231762D01*
X57650086Y67221351D01*
X57650087Y67221349D01*
X57650089Y67221345D01*
X57671293Y67189613D01*
X57682343Y67134065D01*
X57650879Y67086972D01*
X57609765Y67074500D01*
X57474500Y67074500D01*
X57422174Y67096174D01*
X57400500Y67148500D01*
X57400500Y73017999D01*
X57389824Y73071668D01*
X57384857Y73096641D01*
X57379228Y73110230D01*
X57363185Y73148963D01*
X57363183Y73148965D01*
X57363183Y73148967D01*
X57326555Y73207261D01*
X57251967Y73260183D01*
X57251966Y73260184D01*
X57199645Y73281856D01*
X57199635Y73281859D01*
X57146974Y73292334D01*
X57121000Y73297500D01*
X57120998Y73297500D01*
X51554002Y73297500D01*
X51554000Y73297500D01*
X51531707Y73293066D01*
X51475364Y73281859D01*
X51475354Y73281856D01*
X51423037Y73260186D01*
X51364739Y73223555D01*
X51364737Y73223553D01*
X51311816Y73148967D01*
X51290144Y73096646D01*
X51290141Y73096636D01*
X51274500Y73017999D01*
X51274500Y58688002D01*
X51290141Y58609365D01*
X51290144Y58609355D01*
X51311814Y58557038D01*
X51311816Y58557034D01*
X51311817Y58557033D01*
X51348445Y58498739D01*
X51423033Y58445817D01*
X51475359Y58424143D01*
X51554000Y58408500D01*
X73503998Y58408500D01*
X73504000Y58408500D01*
X73582641Y58424143D01*
X73634967Y58445817D01*
X73693261Y58482445D01*
X73746183Y58557033D01*
X73767857Y58609359D01*
X73783500Y58688000D01*
X73783500Y63640502D01*
X73805174Y63692828D01*
X73857500Y63714502D01*
X75121559Y63714502D01*
X75165502Y63700042D01*
X75175277Y63692828D01*
X75176116Y63692209D01*
X75176118Y63692208D01*
X75304295Y63647357D01*
X75304298Y63647356D01*
X75304301Y63647355D01*
X75334734Y63644501D01*
X75334741Y63644501D01*
X76393258Y63644501D01*
X76393266Y63644501D01*
X76423699Y63647355D01*
X76551882Y63692208D01*
X76661150Y63772851D01*
X76741793Y63882119D01*
X76786646Y64010302D01*
X76789500Y64040735D01*
X76789500Y64649267D01*
X76786646Y64679700D01*
X76786070Y64681345D01*
X76746654Y64793992D01*
X76742501Y64818433D01*
X76742501Y65016999D01*
X76741490Y65022080D01*
X76726858Y65095641D01*
X76717669Y65117826D01*
X76705186Y65147963D01*
X76705184Y65147965D01*
X76705184Y65147967D01*
X76668556Y65206261D01*
X76623388Y65238309D01*
X76593969Y65259183D01*
X76588449Y65261469D01*
X76548401Y65301519D01*
X76548402Y65358156D01*
X76588452Y65398204D01*
X76602337Y65402415D01*
X76605691Y65403082D01*
X76605694Y65403083D01*
X76605695Y65403083D01*
X76612005Y65404998D01*
X76644238Y65414775D01*
X76644248Y65414780D01*
X76644254Y65414781D01*
X76654636Y65419082D01*
X76654646Y65419086D01*
X76721317Y65463634D01*
X76761366Y65503683D01*
X76805914Y65570354D01*
X76807115Y65573255D01*
X76810219Y65580746D01*
X76810220Y65580752D01*
X76810225Y65580762D01*
X76821918Y65619309D01*
X76821921Y65619321D01*
X76824060Y65630078D01*
X76827551Y65647627D01*
X76831500Y65687719D01*
X76831500Y66717500D01*
X76853174Y66769826D01*
X76905500Y66791500D01*
X76979568Y66791500D01*
X77031894Y66769826D01*
X77053568Y66717500D01*
X77053568Y66717447D01*
X77052558Y65306893D01*
X77056491Y65266731D01*
X77062122Y65238366D01*
X77073828Y65199750D01*
X77073833Y65199734D01*
X77078135Y65189350D01*
X77122681Y65122684D01*
X77122693Y65122667D01*
X77162742Y65082623D01*
X77229410Y65038082D01*
X77239819Y65033771D01*
X77278362Y65022080D01*
X77306677Y65016448D01*
X77340251Y65013142D01*
X77346766Y65012500D01*
X77346767Y65012500D01*
X89745281Y65012500D01*
X89785373Y65016449D01*
X89802922Y65019940D01*
X89813679Y65022079D01*
X89813695Y65022083D01*
X89820005Y65023998D01*
X89852238Y65033775D01*
X89852248Y65033780D01*
X89852254Y65033781D01*
X89862636Y65038082D01*
X89862646Y65038086D01*
X89929317Y65082634D01*
X89969366Y65122683D01*
X90000971Y65169985D01*
X90048063Y65201450D01*
X90103612Y65190401D01*
X90135078Y65143309D01*
X90136500Y65128872D01*
X90136500Y64798719D01*
X90140444Y64758656D01*
X90140449Y64758628D01*
X90146073Y64730340D01*
X90146075Y64730330D01*
X90157766Y64691784D01*
X90157774Y64691762D01*
X90162086Y64681349D01*
X90162089Y64681345D01*
X90206642Y64614671D01*
X90206650Y64614661D01*
X90246658Y64574659D01*
X90246694Y64574623D01*
X90313362Y64530082D01*
X90323771Y64525771D01*
X90362314Y64514080D01*
X90390629Y64508448D01*
X90424203Y64505142D01*
X90430718Y64504500D01*
X90430719Y64504500D01*
X99225500Y64504500D01*
X99277826Y64482826D01*
X99299500Y64430500D01*
X99299500Y40488219D01*
X99293867Y40459901D01*
X99289556Y40449493D01*
X99249508Y40409445D01*
X99249507Y40409444D01*
X99239099Y40405133D01*
X99210781Y40399500D01*
X86967026Y40399500D01*
X86938708Y40405133D01*
X86913579Y40415542D01*
X86889573Y40431582D01*
X83558090Y43763065D01*
X83483407Y43806183D01*
X83483404Y43806184D01*
X83483402Y43806185D01*
X83400120Y43828500D01*
X83400118Y43828500D01*
X83400116Y43828500D01*
X75278097Y43828500D01*
X75249776Y43834134D01*
X75236272Y43839728D01*
X75198663Y43874491D01*
X75195872Y43879967D01*
X75189846Y43896298D01*
X75189322Y43898481D01*
X75188834Y43900935D01*
X75140580Y43995636D01*
X75140579Y43995638D01*
X75131049Y44014342D01*
X75041339Y44104052D01*
X74928420Y44161587D01*
X74928355Y44161620D01*
X74928303Y44161646D01*
X74928301Y44161647D01*
X74928300Y44161647D01*
X74925386Y44162335D01*
X74922548Y44162558D01*
X74834519Y44176500D01*
X74834518Y44176500D01*
X74371479Y44176500D01*
X74371478Y44176500D01*
X74277694Y44161647D01*
X74277628Y44161614D01*
X74164655Y44104050D01*
X74074950Y44014345D01*
X74017352Y43901305D01*
X74017352Y43901303D01*
X74002499Y43807521D01*
X74002499Y43708389D01*
X73999977Y43689239D01*
X73995984Y43674338D01*
X73995106Y43671058D01*
X73987715Y43653215D01*
X73972817Y43627410D01*
X73972815Y43627407D01*
X73950499Y43544122D01*
X73950499Y43457880D01*
X73972815Y43374593D01*
X73973056Y43374060D01*
X73974008Y43372528D01*
X73987715Y43348785D01*
X73995106Y43330943D01*
X73999977Y43312764D01*
X74002499Y43293612D01*
X74002499Y43194481D01*
X74017352Y43100696D01*
X74017353Y43100694D01*
X74065417Y43006365D01*
X74074949Y42987658D01*
X74164657Y42897950D01*
X74277695Y42840354D01*
X74371480Y42825500D01*
X74834517Y42825501D01*
X74834518Y42825501D01*
X74834519Y42825501D01*
X74845798Y42827288D01*
X74928303Y42840354D01*
X74928305Y42840355D01*
X74928360Y42840383D01*
X74930415Y42841430D01*
X74930418Y42841432D01*
X75041341Y42897950D01*
X75131049Y42987658D01*
X75188645Y43100696D01*
X75188645Y43100701D01*
X75190443Y43106232D01*
X75191444Y43105907D01*
X75197980Y43123627D01*
X75205618Y43136091D01*
X75245853Y43167806D01*
X75250323Y43169259D01*
X75252241Y43169881D01*
X75275099Y43173500D01*
X83175974Y43173500D01*
X83204288Y43167869D01*
X83229420Y43157459D01*
X83253426Y43141419D01*
X86523935Y39870910D01*
X86584910Y39809935D01*
X86598845Y39801890D01*
X86658789Y39767281D01*
X86659439Y39766906D01*
X86659592Y39766818D01*
X86718137Y39751131D01*
X86718136Y39751131D01*
X86738190Y39745758D01*
X86741897Y39744500D01*
X86742882Y39744500D01*
X86742884Y39744500D01*
X99210781Y39744500D01*
X99239091Y39738871D01*
X99249503Y39734558D01*
X99289553Y39694515D01*
X99289556Y39694508D01*
X99293867Y39684100D01*
X99299500Y39655782D01*
X99299500Y30542635D01*
X99293867Y30514319D01*
X99285452Y30494000D01*
X99283459Y30489189D01*
X99267418Y30465183D01*
X99254317Y30452082D01*
X99230311Y30436042D01*
X99205181Y30425633D01*
X99176865Y30420000D01*
X21088719Y30420000D01*
X21060404Y30425632D01*
X21049995Y30429943D01*
X21009946Y30469987D01*
X21005629Y30480409D01*
X21000000Y30508719D01*
X21000000Y36303521D01*
X60837500Y36303521D01*
X60837500Y35840482D01*
X60852353Y35746697D01*
X60852354Y35746697D01*
X60852386Y35746632D01*
X60880433Y35691588D01*
X60909950Y35633659D01*
X60999659Y35543950D01*
X61079954Y35503038D01*
X61102629Y35485161D01*
X61109945Y35476594D01*
X61127444Y35422736D01*
X61126701Y35413289D01*
X61117015Y35382092D01*
X61094988Y35343941D01*
X61094986Y35343936D01*
X61094665Y35343081D01*
X61094196Y35340986D01*
X61064012Y35228335D01*
X61064012Y35108663D01*
X61094985Y34993068D01*
X61154821Y34889429D01*
X61239442Y34804808D01*
X61343081Y34744972D01*
X61458676Y34713999D01*
X61458677Y34713999D01*
X61578347Y34713999D01*
X61578348Y34713999D01*
X61693943Y34744972D01*
X61797582Y34804808D01*
X61882203Y34889429D01*
X61942039Y34993068D01*
X61973012Y35108663D01*
X61973012Y35228335D01*
X61942039Y35343930D01*
X61918317Y35385016D01*
X61909036Y35412357D01*
X61907566Y35423528D01*
X61922221Y35478226D01*
X61927996Y35485753D01*
X61953104Y35506635D01*
X62026342Y35543951D01*
X62116050Y35633659D01*
X62138884Y35678474D01*
X62156758Y35701148D01*
X62160055Y35703964D01*
X62164671Y35707907D01*
X62218534Y35725410D01*
X62265057Y35703964D01*
X62269146Y35699875D01*
X62282754Y35681145D01*
X62306950Y35633659D01*
X62396659Y35543950D01*
X62476954Y35503038D01*
X62499629Y35485161D01*
X62506945Y35476594D01*
X62524444Y35422736D01*
X62523701Y35413289D01*
X62514015Y35382092D01*
X62491988Y35343941D01*
X62491986Y35343936D01*
X62491665Y35343081D01*
X62491196Y35340986D01*
X62461012Y35228335D01*
X62461012Y35108663D01*
X62491985Y34993068D01*
X62551821Y34889429D01*
X62636442Y34804808D01*
X62740081Y34744972D01*
X62855676Y34713999D01*
X62855677Y34713999D01*
X62975347Y34713999D01*
X62975348Y34713999D01*
X63090943Y34744972D01*
X63194582Y34804808D01*
X63279203Y34889429D01*
X63339039Y34993068D01*
X63370012Y35108663D01*
X63370012Y35228335D01*
X63339039Y35343930D01*
X63315317Y35385016D01*
X63306036Y35412357D01*
X63304566Y35423528D01*
X63319221Y35478226D01*
X63324996Y35485753D01*
X63350104Y35506635D01*
X63423342Y35543951D01*
X63513050Y35633659D01*
X63570646Y35746697D01*
X63585500Y35840482D01*
X63585499Y36303519D01*
X63573598Y36378663D01*
X63570646Y36397306D01*
X63570645Y36397308D01*
X63513049Y36510344D01*
X63423343Y36600050D01*
X63423342Y36600051D01*
X63423340Y36600053D01*
X63310421Y36657588D01*
X63310356Y36657621D01*
X63310304Y36657647D01*
X63310302Y36657648D01*
X63310301Y36657648D01*
X63307387Y36658336D01*
X63304549Y36658559D01*
X63216520Y36672501D01*
X63216519Y36672501D01*
X62603480Y36672501D01*
X62603479Y36672501D01*
X62509695Y36657648D01*
X62509629Y36657615D01*
X62396656Y36600051D01*
X62306949Y36510344D01*
X62284115Y36465529D01*
X62266239Y36442854D01*
X62258325Y36436095D01*
X62204460Y36418594D01*
X62157941Y36440040D01*
X62153852Y36444129D01*
X62140244Y36462859D01*
X62138884Y36465529D01*
X62116049Y36510344D01*
X62026343Y36600050D01*
X62026342Y36600051D01*
X62026340Y36600053D01*
X61913421Y36657588D01*
X61913356Y36657621D01*
X61913304Y36657647D01*
X61913302Y36657648D01*
X61913301Y36657648D01*
X61910387Y36658336D01*
X61907549Y36658559D01*
X61819520Y36672501D01*
X61819519Y36672501D01*
X61206480Y36672501D01*
X61206479Y36672501D01*
X61112695Y36657648D01*
X61112629Y36657615D01*
X60999656Y36600051D01*
X60909951Y36510346D01*
X60852353Y36397306D01*
X60852353Y36397304D01*
X60852353Y36397303D01*
X60837500Y36303521D01*
X21000000Y36303521D01*
X21000000Y41891521D01*
X60583500Y41891521D01*
X60583500Y41428482D01*
X60598353Y41334697D01*
X60598354Y41334695D01*
X60642588Y41247883D01*
X60655950Y41221659D01*
X60745658Y41131951D01*
X60858696Y41074355D01*
X60952481Y41059501D01*
X61021723Y41059502D01*
X61050040Y41053870D01*
X61072772Y41044455D01*
X61100814Y41024043D01*
X61278971Y40814674D01*
X61278974Y40814672D01*
X61283987Y40808780D01*
X61291715Y40797824D01*
X61294056Y40793769D01*
X61310092Y40777733D01*
X61314123Y40773364D01*
X61328816Y40756097D01*
X61328823Y40756092D01*
X61332663Y40753442D01*
X61342968Y40744857D01*
X61346281Y40741544D01*
X61365925Y40730203D01*
X61370945Y40727029D01*
X61381091Y40720028D01*
X61384990Y40716415D01*
X61385655Y40714966D01*
X61391061Y40710080D01*
X61402884Y40696177D01*
X61420270Y40642274D01*
X61420270Y40642270D01*
X61419924Y40637994D01*
X61398491Y40591636D01*
X61246909Y40440052D01*
X61246908Y40440052D01*
X61185939Y40379085D01*
X61185932Y40379076D01*
X61142817Y40304397D01*
X61142814Y40304391D01*
X61120499Y40221109D01*
X61120499Y39556370D01*
X61114865Y39528050D01*
X61114332Y39526762D01*
X61109271Y39514545D01*
X61074500Y39476932D01*
X61068518Y39473884D01*
X61046500Y39466729D01*
X61014872Y39461720D01*
X60894778Y39400529D01*
X60799469Y39305220D01*
X60743599Y39195569D01*
X60738278Y39185128D01*
X60722499Y39085491D01*
X60722499Y38518511D01*
X60738278Y38418874D01*
X60743599Y38408432D01*
X60799468Y38298783D01*
X60870961Y38227290D01*
X60887001Y38203284D01*
X60893841Y38186772D01*
X60897432Y38141184D01*
X60897025Y38139488D01*
X60891003Y38123161D01*
X60852353Y38047306D01*
X60851892Y38044392D01*
X60837500Y37953521D01*
X60837500Y37490482D01*
X60852353Y37396697D01*
X60852354Y37396697D01*
X60852386Y37396632D01*
X60880433Y37341588D01*
X60909950Y37283659D01*
X60999658Y37193951D01*
X61112696Y37136355D01*
X61206481Y37121501D01*
X61819518Y37121502D01*
X61819519Y37121502D01*
X61819520Y37121502D01*
X61830799Y37123289D01*
X61913304Y37136355D01*
X61913306Y37136356D01*
X61913361Y37136384D01*
X61915416Y37137431D01*
X61915419Y37137433D01*
X62026342Y37193951D01*
X62116050Y37283659D01*
X62138884Y37328474D01*
X62156758Y37351148D01*
X62160055Y37353964D01*
X62164671Y37357907D01*
X62218534Y37375410D01*
X62265057Y37353964D01*
X62269146Y37349875D01*
X62282754Y37331145D01*
X62306950Y37283659D01*
X62396658Y37193951D01*
X62509696Y37136355D01*
X62603481Y37121501D01*
X63216518Y37121502D01*
X63216519Y37121502D01*
X63216520Y37121502D01*
X63227799Y37123289D01*
X63310304Y37136355D01*
X63310306Y37136356D01*
X63310361Y37136384D01*
X63312416Y37137431D01*
X63312419Y37137433D01*
X63423342Y37193951D01*
X63513050Y37283659D01*
X63570646Y37396697D01*
X63585500Y37490482D01*
X63585500Y37573521D01*
X65536500Y37573521D01*
X65536500Y37110482D01*
X65551353Y37016697D01*
X65551354Y37016697D01*
X65551386Y37016632D01*
X65579433Y36961588D01*
X65608950Y36903659D01*
X65698659Y36813950D01*
X65778954Y36773038D01*
X65801629Y36755161D01*
X65808945Y36746594D01*
X65826444Y36692736D01*
X65825701Y36683289D01*
X65816015Y36652092D01*
X65793988Y36613941D01*
X65793986Y36613936D01*
X65793665Y36613081D01*
X65793196Y36610986D01*
X65763012Y36498335D01*
X65763012Y36378663D01*
X65793985Y36263068D01*
X65853821Y36159429D01*
X65938442Y36074808D01*
X66042081Y36014972D01*
X66157676Y35983999D01*
X66157677Y35983999D01*
X66277347Y35983999D01*
X66277348Y35983999D01*
X66392943Y36014972D01*
X66496582Y36074808D01*
X66581203Y36159429D01*
X66641039Y36263068D01*
X66672012Y36378663D01*
X66672012Y36498335D01*
X66641039Y36613930D01*
X66617317Y36655016D01*
X66608036Y36682357D01*
X66606566Y36693528D01*
X66621221Y36748226D01*
X66626996Y36755753D01*
X66652104Y36776635D01*
X66725342Y36813951D01*
X66815050Y36903659D01*
X66837884Y36948474D01*
X66855758Y36971148D01*
X66859055Y36973964D01*
X66863671Y36977907D01*
X66917534Y36995410D01*
X66964057Y36973964D01*
X66968146Y36969875D01*
X66981754Y36951145D01*
X67005950Y36903659D01*
X67095658Y36813951D01*
X67208696Y36756355D01*
X67302481Y36741501D01*
X67915518Y36741502D01*
X67915519Y36741502D01*
X67915520Y36741502D01*
X67926799Y36743289D01*
X68009304Y36756355D01*
X68009306Y36756356D01*
X68028932Y36766356D01*
X68122342Y36813951D01*
X68212050Y36903659D01*
X68269646Y37016697D01*
X68284500Y37110482D01*
X68284499Y37573519D01*
X68284038Y37576427D01*
X68269646Y37667306D01*
X68269645Y37667308D01*
X68212049Y37780344D01*
X68122343Y37870050D01*
X68122342Y37870051D01*
X68122340Y37870053D01*
X68009421Y37927588D01*
X68009356Y37927621D01*
X68009304Y37927647D01*
X68009302Y37927648D01*
X68009301Y37927648D01*
X68006387Y37928336D01*
X68003549Y37928559D01*
X67915520Y37942501D01*
X67915519Y37942501D01*
X67302480Y37942501D01*
X67302479Y37942501D01*
X67208695Y37927648D01*
X67208629Y37927615D01*
X67095657Y37870052D01*
X67094534Y37869235D01*
X67079356Y37860736D01*
X67052554Y37849634D01*
X67024237Y37844001D01*
X66796763Y37844001D01*
X66768445Y37849634D01*
X66741642Y37860736D01*
X66726463Y37869236D01*
X66725343Y37870050D01*
X66725342Y37870051D01*
X66725339Y37870053D01*
X66725337Y37870054D01*
X66612421Y37927588D01*
X66612356Y37927621D01*
X66612304Y37927647D01*
X66612302Y37927648D01*
X66612301Y37927648D01*
X66609387Y37928336D01*
X66606549Y37928559D01*
X66518520Y37942501D01*
X66518519Y37942501D01*
X65905480Y37942501D01*
X65905479Y37942501D01*
X65811695Y37927648D01*
X65811629Y37927615D01*
X65698656Y37870051D01*
X65608951Y37780346D01*
X65551353Y37667306D01*
X65551353Y37667304D01*
X65536961Y37576429D01*
X65536500Y37573521D01*
X63585500Y37573521D01*
X63585499Y37953519D01*
X63571557Y38041553D01*
X63571333Y38044392D01*
X63570647Y38047296D01*
X63570646Y38047305D01*
X63570646Y38047306D01*
X63570645Y38047308D01*
X63513049Y38160344D01*
X63498303Y38175090D01*
X63493560Y38186540D01*
X63482263Y38199096D01*
X63480528Y38203284D01*
X63477951Y38209505D01*
X63477951Y38224224D01*
X63476629Y38227416D01*
X63477951Y38232614D01*
X63477950Y38266138D01*
X63482263Y38276552D01*
X63493686Y38293645D01*
X63493104Y38294068D01*
X63496525Y38298778D01*
X63496527Y38298780D01*
X63543035Y38390061D01*
X63560908Y38412731D01*
X63568985Y38419629D01*
X63622848Y38437130D01*
X63651218Y38424180D01*
X63657301Y38423536D01*
X63660034Y38420156D01*
X63668974Y38416075D01*
X63673875Y38411247D01*
X63681248Y38402107D01*
X63681566Y38402341D01*
X63763844Y38290857D01*
X63763846Y38290855D01*
X63763853Y38290848D01*
X63873115Y38210210D01*
X63873116Y38210209D01*
X63873118Y38210208D01*
X64001295Y38165357D01*
X64001298Y38165356D01*
X64001301Y38165355D01*
X64031734Y38162501D01*
X64031741Y38162501D01*
X65090258Y38162501D01*
X65090266Y38162501D01*
X65120699Y38165355D01*
X65248882Y38210208D01*
X65358150Y38290851D01*
X65403075Y38351724D01*
X65413286Y38362939D01*
X65424449Y38372915D01*
X65436749Y38381817D01*
X65467594Y38399623D01*
X65552559Y38484589D01*
X65576561Y38500626D01*
X65586974Y38504938D01*
X65643606Y38504938D01*
X65654017Y38500626D01*
X65678023Y38484586D01*
X65698658Y38463951D01*
X65811696Y38406355D01*
X65905481Y38391501D01*
X66518518Y38391502D01*
X66518519Y38391502D01*
X66518520Y38391502D01*
X66529799Y38393289D01*
X66612304Y38406355D01*
X66612306Y38406356D01*
X66612361Y38406384D01*
X66614416Y38407431D01*
X66614419Y38407433D01*
X66725342Y38463951D01*
X66815050Y38553659D01*
X66837884Y38598474D01*
X66855758Y38621148D01*
X66859055Y38623964D01*
X66863671Y38627907D01*
X66917534Y38645410D01*
X66964057Y38623964D01*
X66968146Y38619875D01*
X66981752Y38601148D01*
X66987942Y38589001D01*
X67005950Y38553659D01*
X67095658Y38463951D01*
X67208696Y38406355D01*
X67302481Y38391501D01*
X67915518Y38391502D01*
X67915519Y38391502D01*
X67915520Y38391502D01*
X67926799Y38393289D01*
X68009304Y38406355D01*
X68009306Y38406356D01*
X68009361Y38406384D01*
X68011416Y38407431D01*
X68011419Y38407433D01*
X68122342Y38463951D01*
X68193987Y38535597D01*
X68200063Y38538246D01*
X68198872Y38539646D01*
X68236139Y38571358D01*
X68284096Y38589001D01*
X68324875Y38589001D01*
X68353190Y38583370D01*
X68372666Y38575302D01*
X68404183Y38550477D01*
X68408486Y38544564D01*
X68415740Y38540867D01*
X68492658Y38463949D01*
X68605696Y38406353D01*
X68699481Y38391499D01*
X69312518Y38391500D01*
X69312519Y38391500D01*
X69312520Y38391500D01*
X69323799Y38393287D01*
X69406304Y38406353D01*
X69406306Y38406354D01*
X69406365Y38406384D01*
X69408416Y38407429D01*
X69408419Y38407431D01*
X69519342Y38463949D01*
X69590989Y38535597D01*
X69597060Y38538248D01*
X69595875Y38539640D01*
X69615388Y38556249D01*
X69632969Y38571215D01*
X69686863Y38588626D01*
X69709249Y38583233D01*
X69727577Y38575641D01*
X69765192Y38540872D01*
X69804472Y38463781D01*
X69899780Y38368473D01*
X70019874Y38307282D01*
X70119509Y38291501D01*
X70686489Y38291501D01*
X70686490Y38291501D01*
X70719165Y38296677D01*
X70751842Y38301852D01*
X70786126Y38307282D01*
X70906220Y38368473D01*
X71001528Y38463781D01*
X71028884Y38517473D01*
X71046758Y38540147D01*
X71054675Y38546908D01*
X71108540Y38564408D01*
X71155058Y38542962D01*
X71159145Y38538875D01*
X71172753Y38520144D01*
X71201470Y38463783D01*
X71201471Y38463782D01*
X71201472Y38463781D01*
X71296780Y38368473D01*
X71416874Y38307282D01*
X71516509Y38291501D01*
X72083489Y38291501D01*
X72083490Y38291501D01*
X72116165Y38296677D01*
X72148842Y38301852D01*
X72183126Y38307282D01*
X72303220Y38368473D01*
X72398528Y38463781D01*
X72446520Y38557974D01*
X72464394Y38580647D01*
X72472307Y38587406D01*
X72526170Y38604909D01*
X72572693Y38583463D01*
X72576781Y38579375D01*
X72590388Y38560646D01*
X72593948Y38553660D01*
X72593950Y38553657D01*
X72683658Y38463949D01*
X72796696Y38406353D01*
X72890481Y38391499D01*
X73503518Y38391500D01*
X73503519Y38391500D01*
X73503520Y38391500D01*
X73514799Y38393287D01*
X73597304Y38406353D01*
X73597306Y38406354D01*
X73597365Y38406384D01*
X73599416Y38407429D01*
X73599419Y38407431D01*
X73710342Y38463949D01*
X73800050Y38553657D01*
X73857646Y38666695D01*
X73872500Y38760480D01*
X73872499Y39223517D01*
X73866180Y39263413D01*
X73859198Y39307501D01*
X73859197Y39307506D01*
X73857646Y39317304D01*
X73857645Y39317306D01*
X73850882Y39330578D01*
X73827770Y39375938D01*
X73827722Y39376033D01*
X73800050Y39430341D01*
X73710342Y39520049D01*
X73600008Y39576268D01*
X73597925Y39577439D01*
X73597421Y39577607D01*
X73582153Y39584717D01*
X73567414Y39593751D01*
X73535705Y39633982D01*
X73533632Y39640364D01*
X73530012Y39663225D01*
X73530012Y40419603D01*
X73528752Y40423315D01*
X73527496Y40428003D01*
X73523381Y40443362D01*
X73523381Y40443363D01*
X73507695Y40501903D01*
X73507694Y40501907D01*
X73499914Y40515383D01*
X73464577Y40576589D01*
X73403602Y40637564D01*
X72949602Y41091564D01*
X72879649Y41131951D01*
X72879650Y41131954D01*
X72879640Y41131956D01*
X72874922Y41134681D01*
X72874915Y41134684D01*
X72791632Y41156999D01*
X72791630Y41156999D01*
X72791628Y41156999D01*
X69228440Y41156999D01*
X69200125Y41162631D01*
X69189716Y41166942D01*
X69149667Y41206986D01*
X69148494Y41209819D01*
X69148504Y41266455D01*
X69149140Y41267943D01*
X69153585Y41278010D01*
X69153586Y41278014D01*
X69156500Y41303135D01*
X69156500Y41731282D01*
X69162129Y41759591D01*
X69166443Y41770006D01*
X69206482Y41810052D01*
X69216911Y41814372D01*
X69245219Y41820000D01*
X69531014Y41820000D01*
X69559332Y41814367D01*
X69572835Y41808774D01*
X69610449Y41774007D01*
X69613498Y41768024D01*
X69620655Y41745999D01*
X69627353Y41703700D01*
X69627355Y41703694D01*
X69627387Y41703631D01*
X69671842Y41616386D01*
X69671842Y41616384D01*
X69684949Y41590660D01*
X69684951Y41590658D01*
X69774659Y41500950D01*
X69887697Y41443354D01*
X69981482Y41428500D01*
X70444519Y41428501D01*
X70444520Y41428501D01*
X70444521Y41428501D01*
X70455800Y41430288D01*
X70538305Y41443354D01*
X70538307Y41443355D01*
X70538362Y41443383D01*
X70540417Y41444430D01*
X70540420Y41444432D01*
X70651343Y41500950D01*
X70741051Y41590658D01*
X70798647Y41703696D01*
X70813501Y41797481D01*
X70813500Y42410518D01*
X70799855Y42496674D01*
X70798647Y42504305D01*
X70798646Y42504306D01*
X70798646Y42504307D01*
X70793328Y42514745D01*
X70793324Y42514751D01*
X70754556Y42590837D01*
X70748535Y42607154D01*
X70744557Y42623723D01*
X70742514Y42640995D01*
X70742514Y42964011D01*
X70744557Y42981281D01*
X70748536Y42997855D01*
X70754556Y43014169D01*
X70798645Y43100696D01*
X70813499Y43194481D01*
X70813498Y43807518D01*
X70813498Y43807520D01*
X71262499Y43807520D01*
X71262499Y43194481D01*
X71277352Y43100696D01*
X71277353Y43100694D01*
X71325417Y43006365D01*
X71334949Y42987658D01*
X71424657Y42897950D01*
X71537695Y42840354D01*
X71631480Y42825500D01*
X72094517Y42825501D01*
X72094518Y42825501D01*
X72094519Y42825501D01*
X72105798Y42827288D01*
X72188303Y42840354D01*
X72188305Y42840355D01*
X72188360Y42840383D01*
X72190415Y42841430D01*
X72190418Y42841432D01*
X72301341Y42897950D01*
X72345266Y42941875D01*
X72369270Y42957915D01*
X72379683Y42962227D01*
X72436315Y42962227D01*
X72446726Y42957915D01*
X72470732Y42941875D01*
X72514657Y42897950D01*
X72627695Y42840354D01*
X72721480Y42825500D01*
X73184517Y42825501D01*
X73184518Y42825501D01*
X73184519Y42825501D01*
X73195798Y42827288D01*
X73278303Y42840354D01*
X73278305Y42840355D01*
X73278360Y42840383D01*
X73280415Y42841430D01*
X73280418Y42841432D01*
X73391341Y42897950D01*
X73481049Y42987658D01*
X73538645Y43100696D01*
X73553499Y43194481D01*
X73553498Y43807518D01*
X73542891Y43874491D01*
X73539556Y43895552D01*
X73539332Y43898391D01*
X73538645Y43901302D01*
X73538645Y43901304D01*
X73538645Y43901305D01*
X73538644Y43901307D01*
X73490580Y43995636D01*
X73481049Y44014342D01*
X73391341Y44104050D01*
X73391339Y44104052D01*
X73278420Y44161587D01*
X73278355Y44161620D01*
X73278303Y44161646D01*
X73278301Y44161647D01*
X73278300Y44161647D01*
X73275386Y44162335D01*
X73272548Y44162558D01*
X73184519Y44176500D01*
X73184518Y44176500D01*
X72721479Y44176500D01*
X72721478Y44176500D01*
X72627694Y44161647D01*
X72627628Y44161614D01*
X72514655Y44104050D01*
X72514652Y44104048D01*
X72470733Y44060127D01*
X72446725Y44044085D01*
X72436317Y44039774D01*
X72379681Y44039774D01*
X72369273Y44044085D01*
X72345265Y44060126D01*
X72301339Y44104052D01*
X72188420Y44161587D01*
X72188355Y44161620D01*
X72188303Y44161646D01*
X72188301Y44161647D01*
X72188300Y44161647D01*
X72185386Y44162335D01*
X72182548Y44162558D01*
X72094519Y44176500D01*
X72094518Y44176500D01*
X71631479Y44176500D01*
X71631478Y44176500D01*
X71537694Y44161647D01*
X71537628Y44161614D01*
X71424655Y44104050D01*
X71334950Y44014345D01*
X71277352Y43901305D01*
X71277352Y43901303D01*
X71277352Y43901302D01*
X71262499Y43807520D01*
X70813498Y43807520D01*
X70799556Y43895552D01*
X70799210Y43899940D01*
X70795639Y43908562D01*
X70793322Y43911751D01*
X70754556Y43987833D01*
X70748535Y44004150D01*
X70744557Y44020719D01*
X70742514Y44037991D01*
X70742514Y44421995D01*
X70748145Y44450309D01*
X70755875Y44468971D01*
X70790640Y44506582D01*
X70811071Y44516993D01*
X70906220Y44565473D01*
X71001528Y44660781D01*
X71024043Y44704972D01*
X71041917Y44727646D01*
X71049834Y44734407D01*
X71103699Y44751907D01*
X71150217Y44730461D01*
X71154306Y44726372D01*
X71167914Y44707642D01*
X71196950Y44650657D01*
X71286658Y44560949D01*
X71399696Y44503353D01*
X71493481Y44488499D01*
X72106518Y44488500D01*
X72106519Y44488500D01*
X72106520Y44488500D01*
X72117799Y44490287D01*
X72200304Y44503353D01*
X72200306Y44503354D01*
X72200308Y44503355D01*
X72200369Y44503385D01*
X72202416Y44504429D01*
X72202419Y44504431D01*
X72313342Y44560949D01*
X72403050Y44650657D01*
X72460646Y44763695D01*
X72475500Y44857480D01*
X72475499Y45320517D01*
X72461557Y45408551D01*
X72461333Y45411390D01*
X72460647Y45414294D01*
X72460646Y45414303D01*
X72460646Y45414304D01*
X72460645Y45414306D01*
X72403049Y45527342D01*
X72313343Y45617048D01*
X72313342Y45617049D01*
X72313340Y45617051D01*
X72200421Y45674586D01*
X72200356Y45674619D01*
X72200304Y45674645D01*
X72200302Y45674646D01*
X72200301Y45674646D01*
X72197387Y45675334D01*
X72194549Y45675557D01*
X72106520Y45689499D01*
X72106519Y45689499D01*
X71493480Y45689499D01*
X71493479Y45689499D01*
X71399695Y45674646D01*
X71399629Y45674613D01*
X71286660Y45617052D01*
X71286653Y45617046D01*
X71286181Y45616574D01*
X71283978Y45615103D01*
X71281948Y45613627D01*
X71281889Y45613708D01*
X71262182Y45600540D01*
X71237057Y45590132D01*
X71208736Y45584498D01*
X71077727Y45584498D01*
X71049409Y45590131D01*
X71027513Y45599201D01*
X71003507Y45615241D01*
X71001530Y45617218D01*
X71001528Y45617221D01*
X70906219Y45712530D01*
X70906218Y45712531D01*
X70906217Y45712532D01*
X70796568Y45768401D01*
X70786126Y45773722D01*
X70686491Y45789501D01*
X70686489Y45789501D01*
X70686488Y45789501D01*
X70119512Y45789501D01*
X70119511Y45789501D01*
X70119509Y45789501D01*
X70019872Y45773722D01*
X70009431Y45768401D01*
X69899780Y45712531D01*
X69804470Y45617221D01*
X69748600Y45507570D01*
X69743279Y45497129D01*
X69727500Y45397492D01*
X69727500Y44880512D01*
X69743279Y44780875D01*
X69748597Y44770438D01*
X69748601Y44770433D01*
X69775274Y44718084D01*
X69804470Y44660783D01*
X69899780Y44565473D01*
X70020125Y44504154D01*
X70035574Y44497031D01*
X70050104Y44488127D01*
X70081815Y44447906D01*
X70083890Y44441522D01*
X70087514Y44418648D01*
X70087514Y44265219D01*
X70081881Y44236901D01*
X70077570Y44226493D01*
X70037523Y44186445D01*
X70027116Y44182134D01*
X69998796Y44176500D01*
X69981478Y44176500D01*
X69887694Y44161647D01*
X69887628Y44161614D01*
X69774655Y44104050D01*
X69684950Y44014345D01*
X69627352Y43901305D01*
X69627352Y43901303D01*
X69627352Y43901302D01*
X69612499Y43807520D01*
X69612499Y43194481D01*
X69627352Y43100696D01*
X69627353Y43100694D01*
X69627379Y43100642D01*
X69627385Y43100631D01*
X69675417Y43006365D01*
X69684948Y42987659D01*
X69774657Y42897950D01*
X69819470Y42875117D01*
X69842145Y42857242D01*
X69848906Y42849325D01*
X69866407Y42795461D01*
X69844961Y42748942D01*
X69840872Y42744853D01*
X69822142Y42731245D01*
X69774658Y42707051D01*
X69684951Y42617344D01*
X69639692Y42528519D01*
X69621818Y42505846D01*
X69606463Y42492731D01*
X69558403Y42475000D01*
X69245218Y42475000D01*
X69216903Y42480632D01*
X69206494Y42484943D01*
X69166445Y42524987D01*
X69162128Y42535409D01*
X69156499Y42563719D01*
X69156499Y42767858D01*
X69156499Y42767864D01*
X69156378Y42768905D01*
X69153585Y42792991D01*
X69108206Y42895765D01*
X69028765Y42975206D01*
X68977488Y42997847D01*
X68938645Y43014998D01*
X68937367Y43015874D01*
X68925296Y43020874D01*
X68921738Y43021079D01*
X68904663Y43023060D01*
X68904659Y43023060D01*
X68900865Y43023500D01*
X68900864Y43023500D01*
X68900859Y43023500D01*
X68611138Y43023500D01*
X68611136Y43023500D01*
X68603550Y43022621D01*
X68586017Y43020587D01*
X68586007Y43020586D01*
X68483233Y42975206D01*
X68403794Y42895767D01*
X68358413Y42792988D01*
X68355500Y42767865D01*
X68355500Y41303138D01*
X68358413Y41278020D01*
X68358413Y41278016D01*
X68358417Y41278002D01*
X68360029Y41274350D01*
X68366313Y41246171D01*
X68366573Y41234910D01*
X68346120Y41182105D01*
X68344017Y41179902D01*
X68292208Y41157019D01*
X68290490Y41156999D01*
X67976538Y41156999D01*
X67948220Y41162632D01*
X67923091Y41173041D01*
X67899085Y41189081D01*
X67884783Y41203383D01*
X67868742Y41227391D01*
X67859668Y41249298D01*
X67854528Y41286143D01*
X67856500Y41303135D01*
X67856499Y42767864D01*
X67853585Y42792991D01*
X67808206Y42895765D01*
X67728765Y42975206D01*
X67677488Y42997847D01*
X67638645Y43014998D01*
X67637367Y43015874D01*
X67625296Y43020874D01*
X67621738Y43021079D01*
X67604663Y43023060D01*
X67604659Y43023060D01*
X67600865Y43023500D01*
X67600864Y43023500D01*
X67600859Y43023500D01*
X67311138Y43023500D01*
X67311136Y43023500D01*
X67303550Y43022621D01*
X67286017Y43020587D01*
X67286015Y43020587D01*
X67286003Y43020584D01*
X67185984Y42976422D01*
X67184416Y42975751D01*
X67159320Y42965355D01*
X67102683Y42965353D01*
X67102680Y42965354D01*
X67077599Y42975743D01*
X67076028Y42976415D01*
X67008196Y43006365D01*
X67008195Y43006366D01*
X66988644Y43014999D01*
X66987368Y43015873D01*
X66975296Y43020874D01*
X66971738Y43021079D01*
X66954663Y43023060D01*
X66954659Y43023060D01*
X66950865Y43023500D01*
X66950864Y43023500D01*
X66950859Y43023500D01*
X66661138Y43023500D01*
X66661136Y43023500D01*
X66653550Y43022621D01*
X66636017Y43020587D01*
X66636015Y43020587D01*
X66636003Y43020584D01*
X66535984Y42976422D01*
X66534416Y42975751D01*
X66509320Y42965355D01*
X66452683Y42965353D01*
X66452680Y42965354D01*
X66427599Y42975743D01*
X66426028Y42976415D01*
X66358196Y43006365D01*
X66358195Y43006366D01*
X66338644Y43014999D01*
X66337368Y43015873D01*
X66325296Y43020874D01*
X66321738Y43021079D01*
X66304663Y43023060D01*
X66304659Y43023060D01*
X66300865Y43023500D01*
X66300864Y43023500D01*
X66300859Y43023500D01*
X66011138Y43023500D01*
X66011136Y43023500D01*
X66003550Y43022621D01*
X65986017Y43020587D01*
X65986015Y43020587D01*
X65986003Y43020584D01*
X65885984Y42976422D01*
X65884416Y42975751D01*
X65859320Y42965355D01*
X65802683Y42965353D01*
X65802680Y42965354D01*
X65777599Y42975743D01*
X65776028Y42976415D01*
X65708196Y43006365D01*
X65708195Y43006366D01*
X65688644Y43014999D01*
X65687368Y43015873D01*
X65675296Y43020874D01*
X65671738Y43021079D01*
X65654663Y43023060D01*
X65654659Y43023060D01*
X65650865Y43023500D01*
X65650864Y43023500D01*
X65650859Y43023500D01*
X65361138Y43023500D01*
X65361136Y43023500D01*
X65353550Y43022621D01*
X65336017Y43020587D01*
X65336015Y43020587D01*
X65336003Y43020584D01*
X65235984Y42976422D01*
X65234416Y42975751D01*
X65209320Y42965355D01*
X65152683Y42965353D01*
X65152680Y42965354D01*
X65127599Y42975743D01*
X65126028Y42976415D01*
X65058196Y43006365D01*
X65058195Y43006366D01*
X65038644Y43014999D01*
X65037368Y43015873D01*
X65025296Y43020874D01*
X65021738Y43021079D01*
X65004663Y43023060D01*
X65004659Y43023060D01*
X65000865Y43023500D01*
X65000864Y43023500D01*
X65000859Y43023500D01*
X64711138Y43023500D01*
X64711136Y43023500D01*
X64703550Y43022621D01*
X64686017Y43020587D01*
X64686015Y43020587D01*
X64686003Y43020584D01*
X64585984Y42976422D01*
X64584416Y42975751D01*
X64559320Y42965355D01*
X64502683Y42965353D01*
X64502680Y42965354D01*
X64477599Y42975743D01*
X64476028Y42976415D01*
X64408196Y43006365D01*
X64408195Y43006366D01*
X64388644Y43014999D01*
X64387368Y43015873D01*
X64375296Y43020874D01*
X64371738Y43021079D01*
X64354663Y43023060D01*
X64354659Y43023060D01*
X64350865Y43023500D01*
X64350864Y43023500D01*
X64350859Y43023500D01*
X64061138Y43023500D01*
X64061136Y43023500D01*
X64053550Y43022621D01*
X64036017Y43020587D01*
X64036015Y43020587D01*
X64036003Y43020584D01*
X63935984Y42976422D01*
X63934416Y42975751D01*
X63909320Y42965355D01*
X63852683Y42965353D01*
X63852680Y42965354D01*
X63827599Y42975743D01*
X63826028Y42976415D01*
X63758196Y43006365D01*
X63758195Y43006366D01*
X63738644Y43014999D01*
X63737368Y43015873D01*
X63725296Y43020874D01*
X63721738Y43021079D01*
X63704663Y43023060D01*
X63704659Y43023060D01*
X63700865Y43023500D01*
X63700864Y43023500D01*
X63700859Y43023500D01*
X63411138Y43023500D01*
X63411136Y43023500D01*
X63403550Y43022621D01*
X63386017Y43020587D01*
X63386015Y43020587D01*
X63386003Y43020584D01*
X63285984Y42976422D01*
X63284416Y42975751D01*
X63259320Y42965355D01*
X63202683Y42965353D01*
X63202680Y42965354D01*
X63177599Y42975743D01*
X63176028Y42976415D01*
X63108196Y43006365D01*
X63108195Y43006366D01*
X63088644Y43014999D01*
X63087368Y43015873D01*
X63075296Y43020874D01*
X63071738Y43021079D01*
X63054663Y43023060D01*
X63054659Y43023060D01*
X63050865Y43023500D01*
X63050864Y43023500D01*
X63050859Y43023500D01*
X62761138Y43023500D01*
X62761136Y43023500D01*
X62753550Y43022621D01*
X62736017Y43020587D01*
X62736007Y43020586D01*
X62633233Y42975206D01*
X62553794Y42895767D01*
X62508413Y42792988D01*
X62505500Y42767865D01*
X62505500Y41335219D01*
X62499870Y41306907D01*
X62495560Y41296499D01*
X62455515Y41256447D01*
X62455508Y41256444D01*
X62445100Y41252133D01*
X62416782Y41246500D01*
X62007039Y41246500D01*
X61978724Y41252132D01*
X61968315Y41256443D01*
X61928266Y41296487D01*
X61925636Y41302836D01*
X61920916Y41342722D01*
X61934500Y41428482D01*
X61934499Y41891519D01*
X61920557Y41979553D01*
X61920333Y41982392D01*
X61919646Y41985303D01*
X61919646Y41985305D01*
X61919646Y41985306D01*
X61919645Y41985308D01*
X61862049Y42098344D01*
X61772343Y42188050D01*
X61772342Y42188051D01*
X61772340Y42188053D01*
X61659421Y42245588D01*
X61659356Y42245621D01*
X61659304Y42245647D01*
X61659302Y42245648D01*
X61659301Y42245648D01*
X61656387Y42246336D01*
X61653549Y42246559D01*
X61565520Y42260501D01*
X61565519Y42260501D01*
X60952480Y42260501D01*
X60952479Y42260501D01*
X60858695Y42245648D01*
X60858629Y42245615D01*
X60745656Y42188051D01*
X60655951Y42098346D01*
X60598353Y41985306D01*
X60598353Y41985304D01*
X60598353Y41985303D01*
X60583500Y41891521D01*
X21000000Y41891521D01*
X21000000Y52999266D01*
X60505500Y52999266D01*
X60505500Y52997725D01*
X60505500Y52290737D01*
X60508031Y52263745D01*
X60508126Y52261705D01*
X60508354Y52260299D01*
X60508369Y52260253D01*
X60553201Y52132132D01*
X60553206Y52132119D01*
X60553207Y52132117D01*
X60621076Y52040157D01*
X60633849Y52022851D01*
X60654611Y52007528D01*
X60674051Y51986180D01*
X60685894Y51966526D01*
X60696512Y51928333D01*
X60696512Y51698079D01*
X60718827Y51614797D01*
X60718828Y51614795D01*
X60718829Y51614792D01*
X60718830Y51614791D01*
X60761947Y51540109D01*
X61120420Y51181636D01*
X61136461Y51157628D01*
X61140772Y51147220D01*
X61140772Y51090583D01*
X61140771Y51090582D01*
X61136460Y51080175D01*
X61120420Y51056169D01*
X61053471Y50989220D01*
X60997601Y50879569D01*
X60992280Y50869128D01*
X60976501Y50769491D01*
X60976501Y50202511D01*
X60992280Y50102874D01*
X60997599Y50092436D01*
X60997603Y50092430D01*
X61053473Y49982780D01*
X61148781Y49887472D01*
X61268875Y49826281D01*
X61303050Y49820869D01*
X61330139Y49810875D01*
X61342603Y49803237D01*
X61374314Y49763016D01*
X61376389Y49756632D01*
X61380013Y49733758D01*
X61380013Y48597367D01*
X61402328Y48514085D01*
X61402331Y48514078D01*
X61422744Y48478720D01*
X61422745Y48478720D01*
X61445448Y48439397D01*
X62387936Y47496909D01*
X62448911Y47435934D01*
X62448912Y47435933D01*
X62448914Y47435932D01*
X62455748Y47431987D01*
X62477459Y47412948D01*
X62490207Y47396335D01*
X62505500Y47351286D01*
X62505500Y47028137D01*
X62506819Y47016759D01*
X62508413Y47003019D01*
X62508414Y47003009D01*
X62511018Y46997112D01*
X62532929Y46947490D01*
X62553794Y46900235D01*
X62633235Y46820794D01*
X62736009Y46775415D01*
X62761135Y46772500D01*
X63050864Y46772501D01*
X63075991Y46775415D01*
X63174874Y46819077D01*
X63182787Y46822036D01*
X63185694Y46823612D01*
X63202682Y46830649D01*
X63259314Y46830649D01*
X63276731Y46823435D01*
X63276731Y46823436D01*
X63281525Y46821450D01*
X63284006Y46820321D01*
X63286403Y46819396D01*
X63386009Y46775415D01*
X63411135Y46772500D01*
X63700864Y46772501D01*
X63725991Y46775415D01*
X63824874Y46819077D01*
X63832787Y46822036D01*
X63835694Y46823612D01*
X63852682Y46830649D01*
X63909314Y46830649D01*
X63926731Y46823435D01*
X63926731Y46823436D01*
X63931525Y46821450D01*
X63934006Y46820321D01*
X63936403Y46819396D01*
X64036009Y46775415D01*
X64061135Y46772500D01*
X64350864Y46772501D01*
X64375991Y46775415D01*
X64474874Y46819077D01*
X64482787Y46822036D01*
X64485694Y46823612D01*
X64502682Y46830649D01*
X64559314Y46830649D01*
X64576731Y46823435D01*
X64576731Y46823436D01*
X64581525Y46821450D01*
X64584006Y46820321D01*
X64586403Y46819396D01*
X64686009Y46775415D01*
X64711135Y46772500D01*
X65000864Y46772501D01*
X65025991Y46775415D01*
X65124874Y46819077D01*
X65132787Y46822036D01*
X65135694Y46823612D01*
X65152682Y46830649D01*
X65209314Y46830649D01*
X65226731Y46823435D01*
X65226731Y46823436D01*
X65231525Y46821450D01*
X65234006Y46820321D01*
X65236403Y46819396D01*
X65336009Y46775415D01*
X65361135Y46772500D01*
X65650864Y46772501D01*
X65675991Y46775415D01*
X65778765Y46820794D01*
X65858206Y46900235D01*
X65903585Y47003009D01*
X65906500Y47028135D01*
X65906499Y48492864D01*
X65903585Y48517991D01*
X65866975Y48600903D01*
X65866790Y48603823D01*
X65866693Y48603782D01*
X65844644Y48657013D01*
X65839011Y48685332D01*
X65839011Y48737169D01*
X65841530Y48756314D01*
X65846404Y48774506D01*
X65853792Y48792341D01*
X65879039Y48836068D01*
X65910012Y48951663D01*
X65910012Y49071335D01*
X65879039Y49186930D01*
X65819203Y49290569D01*
X65734582Y49375190D01*
X65689060Y49401472D01*
X65630947Y49435024D01*
X65630943Y49435026D01*
X65628857Y49435585D01*
X65565015Y49452692D01*
X65565015Y49452691D01*
X65515348Y49465999D01*
X65515347Y49465999D01*
X65395676Y49465999D01*
X65296379Y49439395D01*
X65267571Y49437507D01*
X65256403Y49438977D01*
X65207354Y49467294D01*
X65204298Y49471276D01*
X65189013Y49516316D01*
X65189013Y49522603D01*
X65187755Y49526308D01*
X65186859Y49529652D01*
X65172028Y49585003D01*
X65172028Y49585004D01*
X65166696Y49604903D01*
X65166695Y49604907D01*
X65166694Y49604909D01*
X65166659Y49604969D01*
X65138376Y49653957D01*
X65123578Y49679589D01*
X65062603Y49740564D01*
X64900040Y49903127D01*
X64884000Y49927133D01*
X64880887Y49934649D01*
X64877159Y49943648D01*
X64873574Y49989250D01*
X64873985Y49990961D01*
X64879996Y50007250D01*
X64928720Y50102874D01*
X64944501Y50202512D01*
X64944501Y50604491D01*
X66298500Y50604491D01*
X66298500Y50087510D01*
X66314279Y49987873D01*
X66319599Y49977432D01*
X66319600Y49977432D01*
X66373173Y49872289D01*
X66373174Y49872288D01*
X66375471Y49867780D01*
X66375472Y49867779D01*
X66470780Y49772471D01*
X66582605Y49715493D01*
X66587671Y49712657D01*
X66614597Y49696159D01*
X66646310Y49655940D01*
X66648387Y49649548D01*
X66652012Y49626675D01*
X66652012Y49319527D01*
X66646378Y49291207D01*
X66635971Y49266084D01*
X66619932Y49242079D01*
X66549446Y49171591D01*
X66549149Y49171179D01*
X66548333Y49169662D01*
X66540226Y49155619D01*
X66540224Y49155616D01*
X66506343Y49096936D01*
X66506316Y49096886D01*
X66506304Y49096860D01*
X66506295Y49096844D01*
X66506043Y49095842D01*
X66493775Y49050054D01*
X66490943Y49039482D01*
X66490895Y49039304D01*
X66490894Y49039301D01*
X66484011Y49013616D01*
X66484011Y48696353D01*
X66478377Y48668033D01*
X66467970Y48642910D01*
X66457181Y48626760D01*
X66457670Y48626425D01*
X66453794Y48620769D01*
X66408413Y48517988D01*
X66407960Y48514078D01*
X66405500Y48492865D01*
X66405500Y47028137D01*
X66406819Y47016759D01*
X66408413Y47003019D01*
X66408414Y47003009D01*
X66411018Y46997112D01*
X66432929Y46947490D01*
X66453794Y46900235D01*
X66533235Y46820794D01*
X66636009Y46775415D01*
X66661135Y46772500D01*
X66950864Y46772501D01*
X66975991Y46775415D01*
X67074874Y46819077D01*
X67082787Y46822036D01*
X67085694Y46823612D01*
X67102682Y46830649D01*
X67159314Y46830649D01*
X67176731Y46823435D01*
X67176731Y46823436D01*
X67181525Y46821450D01*
X67184006Y46820321D01*
X67186403Y46819396D01*
X67286009Y46775415D01*
X67311135Y46772500D01*
X67600864Y46772501D01*
X67625991Y46775415D01*
X67724874Y46819077D01*
X67732787Y46822036D01*
X67735694Y46823612D01*
X67752682Y46830649D01*
X67809314Y46830649D01*
X67826731Y46823435D01*
X67826731Y46823436D01*
X67831525Y46821450D01*
X67834006Y46820321D01*
X67836403Y46819396D01*
X67936009Y46775415D01*
X67961135Y46772500D01*
X68250864Y46772501D01*
X68275991Y46775415D01*
X68374874Y46819077D01*
X68382787Y46822036D01*
X68385694Y46823612D01*
X68402682Y46830649D01*
X68459314Y46830649D01*
X68476731Y46823435D01*
X68476731Y46823436D01*
X68481525Y46821450D01*
X68484006Y46820321D01*
X68486403Y46819396D01*
X68586009Y46775415D01*
X68611135Y46772500D01*
X68900864Y46772501D01*
X68925991Y46775415D01*
X69028765Y46820794D01*
X69108206Y46900235D01*
X69153585Y47003009D01*
X69156500Y47028135D01*
X69156500Y47387280D01*
X69162129Y47415589D01*
X69166443Y47426004D01*
X69206482Y47466050D01*
X69216911Y47470370D01*
X69245219Y47475998D01*
X69547770Y47475998D01*
X69576082Y47470368D01*
X69594743Y47462638D01*
X69632359Y47427868D01*
X69689470Y47315781D01*
X69767374Y47237877D01*
X69783416Y47213868D01*
X69790255Y47197356D01*
X69793841Y47151758D01*
X69793432Y47150055D01*
X69787412Y47133741D01*
X69743281Y47047130D01*
X69743280Y47047126D01*
X69727500Y46947491D01*
X69727500Y46430512D01*
X69743279Y46330878D01*
X69743279Y46330877D01*
X69743280Y46330876D01*
X69743281Y46330875D01*
X69804385Y46210950D01*
X69804472Y46210781D01*
X69899780Y46115473D01*
X70019874Y46054282D01*
X70119509Y46038501D01*
X70686489Y46038501D01*
X70686490Y46038501D01*
X70736307Y46046392D01*
X70786126Y46054282D01*
X70906220Y46115473D01*
X71001528Y46210781D01*
X71049520Y46304974D01*
X71067394Y46327647D01*
X71075307Y46334406D01*
X71129170Y46351909D01*
X71175693Y46330463D01*
X71179781Y46326375D01*
X71193388Y46307646D01*
X71196948Y46300660D01*
X71196950Y46300657D01*
X71286658Y46210949D01*
X71399696Y46153353D01*
X71493481Y46138499D01*
X72106518Y46138500D01*
X72106519Y46138500D01*
X72106520Y46138500D01*
X72117799Y46140287D01*
X72200304Y46153353D01*
X72200306Y46153354D01*
X72200361Y46153382D01*
X72202416Y46154429D01*
X72202419Y46154431D01*
X72313342Y46210949D01*
X72403050Y46300657D01*
X72460646Y46413695D01*
X72475500Y46507480D01*
X72475499Y46970517D01*
X72470353Y47003008D01*
X72460646Y47064304D01*
X72460645Y47064306D01*
X72430770Y47122938D01*
X72403050Y47177341D01*
X72388302Y47192089D01*
X72372262Y47216095D01*
X72367950Y47226504D01*
X72367949Y47283137D01*
X72372262Y47293551D01*
X72383683Y47310641D01*
X72383101Y47311064D01*
X72386524Y47315778D01*
X72386527Y47315780D01*
X72447718Y47435874D01*
X72463499Y47535512D01*
X72463499Y48102488D01*
X72458983Y48130998D01*
X72458410Y48134621D01*
X72447718Y48202128D01*
X72442401Y48212562D01*
X72442395Y48212571D01*
X72386526Y48322221D01*
X72291216Y48417531D01*
X72181567Y48473400D01*
X72171125Y48478721D01*
X72071490Y48494500D01*
X72071488Y48494500D01*
X72071487Y48494500D01*
X71554511Y48494500D01*
X71554510Y48494500D01*
X71554508Y48494500D01*
X71454871Y48478721D01*
X71444430Y48473400D01*
X71334779Y48417530D01*
X71239469Y48322220D01*
X71183599Y48212569D01*
X71178278Y48202128D01*
X71162499Y48102491D01*
X71162499Y47535511D01*
X71178278Y47435874D01*
X71183595Y47425440D01*
X71183600Y47425433D01*
X71239471Y47315780D01*
X71239564Y47315598D01*
X71240159Y47308025D01*
X71244859Y47302058D01*
X71245585Y47299274D01*
X71249533Y47282825D01*
X71243511Y47231958D01*
X71240465Y47225980D01*
X71226858Y47207251D01*
X71203415Y47183808D01*
X71203413Y47183806D01*
X71196950Y47177342D01*
X71168608Y47121720D01*
X71167892Y47120441D01*
X71166159Y47119077D01*
X71151403Y47100358D01*
X71148105Y47097540D01*
X71143487Y47093596D01*
X71127010Y47088243D01*
X71123398Y47085397D01*
X71119630Y47085845D01*
X71089622Y47076094D01*
X71043101Y47097540D01*
X71039015Y47101626D01*
X71025406Y47120357D01*
X71021512Y47127999D01*
X71001528Y47167221D01*
X70906220Y47262529D01*
X70906219Y47262530D01*
X70901508Y47265953D01*
X70901922Y47266523D01*
X70885726Y47279293D01*
X70878410Y47287858D01*
X70860905Y47341720D01*
X70861790Y47352961D01*
X70869625Y47380742D01*
X70897718Y47435874D01*
X70913499Y47535512D01*
X70913499Y48102488D01*
X70908983Y48130998D01*
X70908410Y48134621D01*
X70897718Y48202128D01*
X70892401Y48212562D01*
X70892395Y48212571D01*
X70836526Y48322221D01*
X70741216Y48417531D01*
X70631567Y48473400D01*
X70621125Y48478721D01*
X70521490Y48494500D01*
X70521488Y48494500D01*
X70521487Y48494500D01*
X70004511Y48494500D01*
X70004510Y48494500D01*
X70004508Y48494500D01*
X69904871Y48478721D01*
X69894430Y48473400D01*
X69784779Y48417530D01*
X69689472Y48322223D01*
X69628312Y48202192D01*
X69628277Y48202122D01*
X69626654Y48197060D01*
X69619285Y48180995D01*
X69611574Y48168411D01*
X69571349Y48136697D01*
X69564961Y48134621D01*
X69542090Y48130998D01*
X69245218Y48130998D01*
X69216903Y48136630D01*
X69206494Y48140941D01*
X69166445Y48180985D01*
X69162128Y48191407D01*
X69156499Y48219717D01*
X69156499Y48492864D01*
X69154039Y48514078D01*
X69154038Y48514079D01*
X69153585Y48517991D01*
X69108206Y48620765D01*
X69028765Y48700206D01*
X68959227Y48730910D01*
X68959227Y48730911D01*
X68959222Y48730912D01*
X68951840Y48734172D01*
X68928217Y48750758D01*
X68924674Y48754468D01*
X68920434Y48758909D01*
X68899972Y48811717D01*
X68900030Y48814231D01*
X68914573Y48856588D01*
X68915084Y48857277D01*
X68926235Y48869271D01*
X68975186Y48911414D01*
X68997714Y48924706D01*
X69016100Y48931529D01*
X69021078Y48933376D01*
X69046822Y48937999D01*
X70969891Y48937999D01*
X70978779Y48943132D01*
X71018175Y48953688D01*
X71018176Y48953689D01*
X71018176Y48953688D01*
X71018177Y48953689D01*
X71042919Y48960317D01*
X71042919Y48960318D01*
X71042920Y48960318D01*
X71042922Y48960318D01*
X71042923Y48960319D01*
X71049191Y48961998D01*
X71055665Y48967675D01*
X71063700Y48972315D01*
X71117602Y49003434D01*
X71432577Y49318409D01*
X71475693Y49393089D01*
X71492879Y49457232D01*
X71498012Y49466120D01*
X71498012Y49621778D01*
X71503644Y49650093D01*
X71509237Y49663597D01*
X71544007Y49701213D01*
X71550864Y49704707D01*
X71561596Y49709151D01*
X71565299Y49710355D01*
X71565304Y49710355D01*
X71598708Y49727375D01*
X71678340Y49767950D01*
X71678339Y49767950D01*
X71678342Y49767951D01*
X71768050Y49857659D01*
X71825646Y49970697D01*
X71840500Y50064482D01*
X71840499Y50527519D01*
X71828309Y50604487D01*
X71825646Y50621306D01*
X71825645Y50621308D01*
X71825613Y50621370D01*
X71768210Y50734029D01*
X71768056Y50734334D01*
X71768051Y50734341D01*
X71768050Y50734343D01*
X71678342Y50824051D01*
X71678340Y50824053D01*
X71565421Y50881588D01*
X71565356Y50881621D01*
X71565304Y50881647D01*
X71565302Y50881648D01*
X71565301Y50881648D01*
X71562387Y50882336D01*
X71559549Y50882559D01*
X71471520Y50896501D01*
X71471519Y50896501D01*
X70858480Y50896501D01*
X70858479Y50896501D01*
X70764695Y50881648D01*
X70764629Y50881615D01*
X70651656Y50824051D01*
X70561951Y50734346D01*
X70504353Y50621306D01*
X70504353Y50621304D01*
X70504353Y50621303D01*
X70489500Y50527521D01*
X70489500Y50064482D01*
X70504353Y49970697D01*
X70504354Y49970697D01*
X70504386Y49970632D01*
X70554495Y49872289D01*
X70556795Y49867777D01*
X70561950Y49857659D01*
X70651658Y49767951D01*
X70695766Y49745477D01*
X70695767Y49745477D01*
X70704605Y49740973D01*
X70707272Y49739614D01*
X70729938Y49721746D01*
X70735112Y49715689D01*
X70752618Y49661825D01*
X70726979Y49611418D01*
X70726463Y49610977D01*
X70726246Y49610792D01*
X70678115Y49592999D01*
X68900866Y49592999D01*
X68898117Y49593051D01*
X68895372Y49593154D01*
X68892633Y49593307D01*
X68866240Y49595280D01*
X68856654Y49596631D01*
X68848275Y49598378D01*
X68843644Y49599344D01*
X68796844Y49631240D01*
X68786304Y49686888D01*
X68809710Y49727206D01*
X68809905Y49727378D01*
X68825342Y49737889D01*
X68884342Y49767949D01*
X68974050Y49857657D01*
X69031646Y49970695D01*
X69046500Y50064480D01*
X69046499Y50527517D01*
X69046499Y50527519D01*
X69046499Y50527520D01*
X69046277Y50529320D01*
X69045988Y50530739D01*
X69034308Y50604491D01*
X69031646Y50621304D01*
X69031645Y50621306D01*
X69001770Y50679938D01*
X68974050Y50734341D01*
X68884342Y50824049D01*
X68884340Y50824051D01*
X68771421Y50881586D01*
X68771356Y50881619D01*
X68771304Y50881645D01*
X68771302Y50881646D01*
X68771301Y50881646D01*
X68768387Y50882334D01*
X68765549Y50882557D01*
X68677520Y50896499D01*
X68677519Y50896499D01*
X68064480Y50896499D01*
X68064479Y50896499D01*
X67970695Y50881646D01*
X67970629Y50881613D01*
X67857657Y50824050D01*
X67812803Y50779196D01*
X67767950Y50734342D01*
X67767949Y50734341D01*
X67767948Y50734340D01*
X67765752Y50730029D01*
X67747873Y50707350D01*
X67739958Y50700591D01*
X67686091Y50683094D01*
X67639577Y50704539D01*
X67635488Y50708628D01*
X67621878Y50727363D01*
X67618321Y50734345D01*
X67618320Y50734348D01*
X67572529Y50824218D01*
X67477217Y50919530D01*
X67367568Y50975399D01*
X67357126Y50980720D01*
X67257491Y50996499D01*
X67257489Y50996499D01*
X67257488Y50996499D01*
X66690512Y50996499D01*
X66690511Y50996499D01*
X66690509Y50996499D01*
X66590872Y50980720D01*
X66580431Y50975399D01*
X66470780Y50919529D01*
X66375470Y50824219D01*
X66319600Y50714568D01*
X66314279Y50704127D01*
X66298500Y50604491D01*
X64944501Y50604491D01*
X64944501Y50769488D01*
X64935859Y50824049D01*
X64935859Y50824053D01*
X64928720Y50869128D01*
X64923400Y50879569D01*
X64923395Y50879576D01*
X64922340Y50881646D01*
X64867529Y50989220D01*
X64772221Y51084528D01*
X64755527Y51093034D01*
X64732854Y51110910D01*
X64719739Y51126267D01*
X64702011Y51174324D01*
X64702011Y52018969D01*
X64705719Y52042099D01*
X64712763Y52063506D01*
X64723513Y52084317D01*
X64758793Y52132118D01*
X64771638Y52168826D01*
X64774680Y52177519D01*
X67695500Y52177519D01*
X67695500Y51714480D01*
X67710353Y51620695D01*
X67710354Y51620695D01*
X67710386Y51620630D01*
X67751414Y51540111D01*
X67751414Y51540109D01*
X67751415Y51540109D01*
X67767950Y51507657D01*
X67857658Y51417949D01*
X67970696Y51360353D01*
X68064481Y51345499D01*
X68677518Y51345500D01*
X68677519Y51345500D01*
X68677520Y51345500D01*
X68688799Y51347287D01*
X68771304Y51360353D01*
X68771306Y51360354D01*
X68771361Y51360382D01*
X68773416Y51361429D01*
X68773419Y51361431D01*
X68884342Y51417949D01*
X68974050Y51507657D01*
X69031646Y51620695D01*
X69046500Y51714480D01*
X69046499Y52177517D01*
X69039740Y52220193D01*
X69031646Y52271304D01*
X69031645Y52271306D01*
X68974049Y52384342D01*
X68884340Y52474051D01*
X68786221Y52524045D01*
X68763544Y52541924D01*
X68756229Y52550490D01*
X68738730Y52604347D01*
X68739473Y52613794D01*
X68749159Y52644991D01*
X68794527Y52723569D01*
X68825500Y52839164D01*
X68825500Y52958836D01*
X68794527Y53074431D01*
X68734691Y53178070D01*
X68650070Y53262691D01*
X68642340Y53267154D01*
X68546435Y53322525D01*
X68546431Y53322527D01*
X68430836Y53353500D01*
X68430835Y53353500D01*
X68311164Y53353500D01*
X68289869Y53347794D01*
X68195567Y53322527D01*
X68195564Y53322525D01*
X68091932Y53262694D01*
X68007306Y53178068D01*
X67947475Y53074436D01*
X67947471Y53074426D01*
X67935488Y53029706D01*
X67935489Y53029705D01*
X67916500Y52958835D01*
X67916500Y52839165D01*
X67921953Y52818813D01*
X67921952Y52818813D01*
X67947471Y52723576D01*
X67947473Y52723569D01*
X67947475Y52723565D01*
X67958289Y52704835D01*
X67992022Y52646408D01*
X68001303Y52619064D01*
X68002773Y52607895D01*
X67988119Y52553197D01*
X67982350Y52545677D01*
X67957232Y52524785D01*
X67857657Y52474049D01*
X67857656Y52474049D01*
X67767951Y52384344D01*
X67710353Y52271304D01*
X67710353Y52271302D01*
X67702259Y52220193D01*
X67695500Y52177519D01*
X64774680Y52177519D01*
X64784250Y52204867D01*
X64784250Y52204868D01*
X64803644Y52260293D01*
X64803644Y52260295D01*
X64803644Y52260296D01*
X64803646Y52260301D01*
X64806500Y52290734D01*
X64806500Y52999266D01*
X64803646Y53029699D01*
X64776657Y53106828D01*
X64776657Y53106830D01*
X64758794Y53157879D01*
X64758793Y53157882D01*
X64758791Y53157885D01*
X64678153Y53267147D01*
X64678146Y53267154D01*
X64568883Y53347793D01*
X64568884Y53347793D01*
X64568863Y53347801D01*
X64495639Y53373423D01*
X64483766Y53384033D01*
X64440698Y53392647D01*
X64437605Y53392953D01*
X64437255Y53392969D01*
X64435260Y53393156D01*
X64410266Y53395500D01*
X64410263Y53395500D01*
X63701736Y53395500D01*
X63701734Y53395500D01*
X63677629Y53393240D01*
X63674745Y53392969D01*
X63673414Y53392907D01*
X63671305Y53392648D01*
X63671272Y53392638D01*
X63543135Y53347801D01*
X63543115Y53347793D01*
X63433851Y53267153D01*
X63433847Y53267149D01*
X63353206Y53157884D01*
X63350615Y53152980D01*
X63349496Y53153572D01*
X63340306Y53138079D01*
X63328093Y53124414D01*
X63289451Y53101596D01*
X63288465Y53101370D01*
X63271932Y53099500D01*
X63231164Y53099500D01*
X63173365Y53084014D01*
X63173364Y53084015D01*
X63115569Y53068528D01*
X63115565Y53068526D01*
X63011932Y53008694D01*
X62927306Y52924068D01*
X62867470Y52820428D01*
X62867437Y52820363D01*
X62867186Y52819362D01*
X62867039Y52818813D01*
X62836500Y52704836D01*
X62836500Y52585164D01*
X62867473Y52469569D01*
X62927309Y52365930D01*
X63011930Y52281309D01*
X63115569Y52221473D01*
X63231164Y52190500D01*
X63265553Y52190500D01*
X63271283Y52188127D01*
X63277320Y52189559D01*
X63293871Y52184867D01*
X63310807Y52177852D01*
X63345137Y52148870D01*
X63345672Y52148019D01*
X63352872Y52133072D01*
X63353204Y52132121D01*
X63353205Y52132120D01*
X63412336Y52052001D01*
X63424621Y52025866D01*
X63426538Y52018134D01*
X63422470Y51991160D01*
X63423348Y51987462D01*
X63421448Y51984380D01*
X63418093Y51962130D01*
X63399087Y51948105D01*
X63393629Y51939249D01*
X63383986Y51936961D01*
X63372523Y51928501D01*
X63368099Y51927404D01*
X63344646Y51927624D01*
X63338522Y51926170D01*
X63336033Y51927705D01*
X63331137Y51927750D01*
X63254438Y51948301D01*
X63223836Y51956500D01*
X63223835Y51956500D01*
X63104164Y51956500D01*
X63050825Y51942209D01*
X63050825Y51942208D01*
X62988568Y51925527D01*
X62988567Y51925527D01*
X62988565Y51925526D01*
X62988564Y51925525D01*
X62884932Y51865694D01*
X62800306Y51781068D01*
X62740470Y51677428D01*
X62740437Y51677363D01*
X62740186Y51676362D01*
X62723689Y51614792D01*
X62709500Y51561836D01*
X62709500Y51442164D01*
X62740473Y51326569D01*
X62757157Y51297672D01*
X62759717Y51293237D01*
X62767107Y51275395D01*
X62771980Y51257212D01*
X62774501Y51238063D01*
X62774501Y51183176D01*
X62768867Y51154855D01*
X62761139Y51136200D01*
X62726370Y51098587D01*
X62698781Y51084530D01*
X62603471Y50989220D01*
X62547601Y50879569D01*
X62542280Y50869128D01*
X62526501Y50769491D01*
X62526501Y50202511D01*
X62542280Y50102874D01*
X62547599Y50092436D01*
X62547603Y50092430D01*
X62603473Y49982780D01*
X62698781Y49887472D01*
X62726490Y49873354D01*
X62749163Y49855482D01*
X62762280Y49840126D01*
X62780013Y49792063D01*
X62780013Y49737367D01*
X62802329Y49654081D01*
X62802331Y49654078D01*
X62808449Y49643480D01*
X62817730Y49616138D01*
X62819200Y49604969D01*
X62804545Y49550270D01*
X62801497Y49546297D01*
X62761938Y49519862D01*
X62734575Y49512530D01*
X62734573Y49512530D01*
X62734567Y49512527D01*
X62734562Y49512525D01*
X62630932Y49452694D01*
X62546306Y49368068D01*
X62486470Y49264428D01*
X62486437Y49264363D01*
X62486186Y49263362D01*
X62465708Y49186935D01*
X62455500Y49148836D01*
X62455500Y49029164D01*
X62476266Y48951663D01*
X62476265Y48951663D01*
X62483488Y48924708D01*
X62486473Y48913569D01*
X62486475Y48913565D01*
X62487719Y48911411D01*
X62546306Y48809934D01*
X62546307Y48809933D01*
X62546309Y48809930D01*
X62572330Y48783909D01*
X62581901Y48774338D01*
X62597941Y48750331D01*
X62602252Y48739923D01*
X62602252Y48683286D01*
X62602251Y48683285D01*
X62597940Y48672878D01*
X62581900Y48648872D01*
X62553794Y48620767D01*
X62508413Y48517988D01*
X62505311Y48491235D01*
X62500169Y48471436D01*
X62496816Y48463343D01*
X62456764Y48423298D01*
X62400134Y48423299D01*
X62392773Y48426348D01*
X62368766Y48442389D01*
X62067094Y48744061D01*
X62051054Y48768067D01*
X62040644Y48793199D01*
X62035013Y48821513D01*
X62035013Y49791635D01*
X62040645Y49819951D01*
X62048373Y49838608D01*
X62083145Y49876224D01*
X62100285Y49884957D01*
X62103105Y49886138D01*
X62107934Y49888854D01*
X62122683Y49896369D01*
X62123751Y49903111D01*
X62134515Y49916767D01*
X62200529Y49982780D01*
X62261720Y50102874D01*
X62277501Y50202512D01*
X62277501Y50769488D01*
X62268859Y50824049D01*
X62268859Y50824053D01*
X62261720Y50869128D01*
X62256400Y50879569D01*
X62256395Y50879576D01*
X62255340Y50881646D01*
X62200529Y50989220D01*
X62105221Y51084528D01*
X62105220Y51084529D01*
X62071433Y51101745D01*
X62048760Y51119619D01*
X62044922Y51124113D01*
X62032257Y51138942D01*
X62017051Y51167846D01*
X62012694Y51184108D01*
X61969578Y51258788D01*
X61908603Y51319763D01*
X61470599Y51757767D01*
X61454559Y51781773D01*
X61451509Y51789137D01*
X61451511Y51845772D01*
X61491558Y51885819D01*
X61498923Y51888870D01*
X61527237Y51894500D01*
X61610258Y51894500D01*
X61610266Y51894500D01*
X61640699Y51897354D01*
X61768882Y51942207D01*
X61878150Y52022850D01*
X61958793Y52132118D01*
X62003646Y52260301D01*
X62006500Y52290734D01*
X62006500Y52999266D01*
X62003646Y53029699D01*
X61976657Y53106828D01*
X61976657Y53106830D01*
X61958794Y53157879D01*
X61958793Y53157882D01*
X61958791Y53157885D01*
X61878153Y53267147D01*
X61878146Y53267154D01*
X61768883Y53347793D01*
X61768884Y53347793D01*
X61768863Y53347801D01*
X61695639Y53373423D01*
X61683766Y53384033D01*
X61640698Y53392647D01*
X61637605Y53392953D01*
X61637255Y53392969D01*
X61635260Y53393156D01*
X61610266Y53395500D01*
X61610263Y53395500D01*
X60901736Y53395500D01*
X60901734Y53395500D01*
X60877629Y53393240D01*
X60874745Y53392969D01*
X60873414Y53392907D01*
X60871305Y53392648D01*
X60871272Y53392638D01*
X60743135Y53347801D01*
X60743115Y53347793D01*
X60633851Y53267153D01*
X60633847Y53267149D01*
X60553207Y53157885D01*
X60553199Y53157865D01*
X60508362Y53029728D01*
X60508352Y53029695D01*
X60508093Y53027585D01*
X60508050Y53026668D01*
X60508064Y53026624D01*
X60508035Y53026303D01*
X60505500Y52999266D01*
X21000000Y52999266D01*
X21000000Y53208998D01*
X21005630Y53237309D01*
X21013027Y53255168D01*
X21052531Y53294988D01*
X22416004Y53872459D01*
X22418904Y53873614D01*
X22421966Y53874756D01*
X22424879Y53875772D01*
X22460832Y53887453D01*
X22503814Y53909355D01*
X22506074Y53910456D01*
X22508493Y53911582D01*
X22510817Y53912614D01*
X22555187Y53931405D01*
X22587262Y53951415D01*
X22589963Y53953018D01*
X22592739Y53954587D01*
X22595523Y53956083D01*
X22629199Y53973240D01*
X22668236Y54001604D01*
X22670292Y54003042D01*
X22672469Y54004509D01*
X22674612Y54005899D01*
X22715517Y54031412D01*
X22734938Y54048269D01*
X22744047Y54056174D01*
X22746494Y54058207D01*
X22747023Y54058629D01*
X22748986Y54060189D01*
X22751476Y54062083D01*
X22782073Y54084310D01*
X22816183Y54118423D01*
X22817979Y54120156D01*
X22819915Y54121960D01*
X22821794Y54123650D01*
X22858228Y54155268D01*
X22882545Y54184204D01*
X22884616Y54186562D01*
X22886804Y54188949D01*
X22888965Y54191205D01*
X22915690Y54217927D01*
X22944021Y54256926D01*
X22945575Y54258985D01*
X22947155Y54261007D01*
X22948790Y54263023D01*
X22979805Y54299923D01*
X22979807Y54299925D01*
X22999296Y54332303D01*
X23000964Y54334944D01*
X23002746Y54337635D01*
X23004543Y54340225D01*
X23026760Y54370801D01*
X23048655Y54413775D01*
X23049822Y54415970D01*
X23051121Y54418314D01*
X23052387Y54420505D01*
X23077260Y54461820D01*
X23091439Y54496838D01*
X23092692Y54499748D01*
X23094007Y54502631D01*
X23095379Y54505478D01*
X23112547Y54539168D01*
X23127454Y54585053D01*
X23128275Y54587434D01*
X23129178Y54589913D01*
X23130066Y54592223D01*
X23148187Y54636966D01*
X23156720Y54673799D01*
X23157494Y54676839D01*
X23158351Y54679924D01*
X23159255Y54682927D01*
X23170940Y54718882D01*
X23178483Y54766514D01*
X23178909Y54768933D01*
X23179439Y54771655D01*
X23179950Y54774050D01*
X23190842Y54821052D01*
X23193505Y54858719D01*
X23193795Y54861857D01*
X23194165Y54865099D01*
X23194594Y54868234D01*
X23200499Y54905514D01*
X23200500Y54905514D01*
X23200500Y54953681D01*
X23200545Y54956272D01*
X23200639Y54958926D01*
X23200776Y54961501D01*
X23202044Y54979436D01*
X23204174Y55009544D01*
X23200911Y55047179D01*
X23200706Y55050367D01*
X23200569Y55053547D01*
X23200500Y55056732D01*
X23200500Y56126520D01*
X62119499Y56126520D01*
X62119499Y55513481D01*
X62134352Y55419696D01*
X62134353Y55419694D01*
X62134379Y55419642D01*
X62134385Y55419631D01*
X62146185Y55396473D01*
X62161967Y55365500D01*
X62191949Y55306658D01*
X62281657Y55216950D01*
X62394695Y55159354D01*
X62488480Y55144500D01*
X62951517Y55144501D01*
X62951518Y55144501D01*
X62951519Y55144501D01*
X62962798Y55146288D01*
X63045303Y55159354D01*
X63045305Y55159355D01*
X63068856Y55171355D01*
X63158341Y55216950D01*
X63248049Y55306658D01*
X63305645Y55419696D01*
X63320499Y55513481D01*
X63320498Y56126518D01*
X63320498Y56126520D01*
X63769499Y56126520D01*
X63769499Y55513481D01*
X63784352Y55419696D01*
X63784353Y55419694D01*
X63784379Y55419642D01*
X63784385Y55419631D01*
X63796185Y55396473D01*
X63811967Y55365500D01*
X63841949Y55306658D01*
X63931657Y55216950D01*
X64044695Y55159354D01*
X64138480Y55144500D01*
X64601517Y55144501D01*
X64601518Y55144501D01*
X64601519Y55144501D01*
X64612798Y55146288D01*
X64695303Y55159354D01*
X64695305Y55159355D01*
X64718856Y55171355D01*
X64808341Y55216950D01*
X64898049Y55306658D01*
X64955645Y55419696D01*
X64955645Y55419701D01*
X64957443Y55425232D01*
X64958444Y55424907D01*
X64964980Y55442627D01*
X64972618Y55455091D01*
X65012853Y55486806D01*
X65017323Y55488259D01*
X65019241Y55488881D01*
X65042099Y55492500D01*
X65089368Y55492500D01*
X65117682Y55486869D01*
X65142814Y55476459D01*
X65166820Y55460419D01*
X65170930Y55456309D01*
X65274569Y55396473D01*
X65390164Y55365500D01*
X65390165Y55365500D01*
X65509835Y55365500D01*
X65509836Y55365500D01*
X65625431Y55396473D01*
X65729070Y55456309D01*
X65813691Y55540930D01*
X65873527Y55644569D01*
X65904500Y55760164D01*
X65904500Y55879836D01*
X65875378Y55988521D01*
X73918500Y55988521D01*
X73918500Y55525482D01*
X73933353Y55431697D01*
X73933354Y55431697D01*
X73933386Y55431632D01*
X73951301Y55396473D01*
X73967083Y55365500D01*
X73990950Y55318659D01*
X74080658Y55228951D01*
X74126576Y55205555D01*
X74178776Y55178957D01*
X74182871Y55174162D01*
X74201446Y55161086D01*
X74203302Y55158913D01*
X74208763Y55152519D01*
X74213314Y55138516D01*
X74215558Y55135888D01*
X74215461Y55131910D01*
X74226268Y55098656D01*
X74226268Y55098648D01*
X74225524Y55089199D01*
X74215838Y55058009D01*
X74179636Y54995305D01*
X74179634Y54995301D01*
X74170475Y54979436D01*
X74170473Y54979432D01*
X74163922Y54954981D01*
X74162955Y54951373D01*
X74162953Y54951367D01*
X74150669Y54905519D01*
X74139500Y54863836D01*
X74139500Y54744164D01*
X74157956Y54675283D01*
X74157955Y54675283D01*
X74170472Y54628571D01*
X74170474Y54628567D01*
X74194925Y54586216D01*
X74194928Y54586212D01*
X74230309Y54524930D01*
X74314930Y54440309D01*
X74418569Y54380473D01*
X74534164Y54349500D01*
X74534165Y54349500D01*
X74653835Y54349500D01*
X74653836Y54349500D01*
X74769431Y54380473D01*
X74873070Y54440309D01*
X74957691Y54524930D01*
X75017527Y54628569D01*
X75048500Y54744164D01*
X75048500Y54863836D01*
X75017527Y54979431D01*
X74972974Y55056598D01*
X74963695Y55083935D01*
X74962225Y55095106D01*
X74976884Y55149810D01*
X74982657Y55157333D01*
X74994956Y55167562D01*
X74994990Y55167642D01*
X74995494Y55168009D01*
X75007769Y55178216D01*
X75013712Y55181245D01*
X75013711Y55181245D01*
X75013718Y55181248D01*
X75107342Y55228951D01*
X75197050Y55318659D01*
X75254646Y55431697D01*
X75269500Y55525482D01*
X75269499Y55988519D01*
X75268404Y55995431D01*
X75254646Y56082306D01*
X75254645Y56082308D01*
X75197049Y56195344D01*
X75107343Y56285050D01*
X75107342Y56285051D01*
X75107340Y56285053D01*
X74994421Y56342588D01*
X74994356Y56342621D01*
X74994304Y56342647D01*
X74994302Y56342648D01*
X74994301Y56342648D01*
X74991387Y56343336D01*
X74988549Y56343559D01*
X74900520Y56357501D01*
X74900519Y56357501D01*
X74287480Y56357501D01*
X74287479Y56357501D01*
X74193695Y56342648D01*
X74193629Y56342615D01*
X74080656Y56285051D01*
X73990951Y56195346D01*
X73933353Y56082306D01*
X73933353Y56082304D01*
X73919595Y55995432D01*
X73918500Y55988521D01*
X65875378Y55988521D01*
X65873528Y55995427D01*
X65873527Y55995431D01*
X65813691Y56099070D01*
X65729070Y56183691D01*
X65708888Y56195343D01*
X65625435Y56243525D01*
X65625431Y56243527D01*
X65509836Y56274500D01*
X65509835Y56274500D01*
X65390164Y56274500D01*
X65332365Y56259014D01*
X65332364Y56259015D01*
X65274569Y56243528D01*
X65274565Y56243526D01*
X65170930Y56183692D01*
X65170919Y56183683D01*
X65166815Y56179579D01*
X65142814Y56163542D01*
X65117689Y56153134D01*
X65089368Y56147500D01*
X65045097Y56147500D01*
X65016776Y56153134D01*
X65003272Y56158728D01*
X64965663Y56193491D01*
X64962872Y56198967D01*
X64956846Y56215298D01*
X64956322Y56217481D01*
X64955834Y56219935D01*
X64898048Y56333343D01*
X64808339Y56423052D01*
X64695420Y56480587D01*
X64695355Y56480620D01*
X64695303Y56480646D01*
X64695301Y56480647D01*
X64695300Y56480647D01*
X64692386Y56481335D01*
X64689548Y56481558D01*
X64601519Y56495500D01*
X64601518Y56495500D01*
X64138479Y56495500D01*
X64138478Y56495500D01*
X64044694Y56480647D01*
X64044628Y56480614D01*
X63931655Y56423050D01*
X63841950Y56333345D01*
X63784352Y56220305D01*
X63784352Y56220303D01*
X63778554Y56183691D01*
X63769499Y56126520D01*
X63320498Y56126520D01*
X63311443Y56183691D01*
X63305645Y56220305D01*
X63305644Y56220307D01*
X63248048Y56333343D01*
X63204580Y56376811D01*
X63188540Y56400817D01*
X63178130Y56425949D01*
X63172499Y56454263D01*
X63172499Y56783111D01*
X63178131Y56811427D01*
X63185687Y56829670D01*
X63219591Y56865082D01*
X63219270Y56865541D01*
X63221577Y56867157D01*
X63222789Y56868423D01*
X63224576Y56869255D01*
X63305744Y56950423D01*
X63354256Y57054457D01*
X63360497Y57101863D01*
X63360496Y57325123D01*
X72011498Y57325123D01*
X72011498Y57238881D01*
X72033813Y57155599D01*
X72033814Y57155597D01*
X72033815Y57155594D01*
X72076477Y57081700D01*
X72076933Y57080911D01*
X72079415Y57078429D01*
X72095455Y57054425D01*
X72095821Y57053540D01*
X72105864Y57029297D01*
X72111497Y57000977D01*
X72111497Y56974866D01*
X72117736Y56927460D01*
X72117764Y56927369D01*
X72118165Y56926540D01*
X72140356Y56878953D01*
X72166250Y56823423D01*
X72247418Y56742255D01*
X72351452Y56693743D01*
X72398858Y56687502D01*
X72725135Y56687503D01*
X72772542Y56693743D01*
X72876576Y56742255D01*
X72957744Y56823423D01*
X72992722Y56898437D01*
X73009794Y56921720D01*
X73024357Y56935064D01*
X73074347Y56954501D01*
X73959737Y56954501D01*
X73988051Y56948870D01*
X74013183Y56938460D01*
X74037189Y56922420D01*
X74080658Y56878951D01*
X74193696Y56821355D01*
X74287481Y56806501D01*
X74900518Y56806502D01*
X74900519Y56806502D01*
X74900520Y56806502D01*
X74931780Y56811453D01*
X74994304Y56821355D01*
X74994306Y56821356D01*
X74998363Y56823423D01*
X75107342Y56878951D01*
X75197050Y56968659D01*
X75254646Y57081697D01*
X75269500Y57175482D01*
X75269499Y57638519D01*
X75264208Y57671925D01*
X75254646Y57732306D01*
X75254645Y57732308D01*
X75207137Y57825546D01*
X75207136Y57825548D01*
X75197050Y57845343D01*
X75107340Y57935053D01*
X74994421Y57992588D01*
X74994356Y57992621D01*
X74994304Y57992647D01*
X74994302Y57992648D01*
X74994301Y57992648D01*
X74991387Y57993336D01*
X74988549Y57993559D01*
X74900520Y58007501D01*
X74900519Y58007501D01*
X74287480Y58007501D01*
X74287479Y58007501D01*
X74193695Y57992648D01*
X74193629Y57992615D01*
X74080656Y57935051D01*
X73990951Y57845346D01*
X73933353Y57732306D01*
X73933353Y57732304D01*
X73926093Y57686463D01*
X73916099Y57659373D01*
X73908462Y57646911D01*
X73868245Y57615202D01*
X73863137Y57613542D01*
X73861857Y57613126D01*
X73838981Y57609501D01*
X73097594Y57609501D01*
X73069277Y57615134D01*
X73056278Y57620518D01*
X73018229Y57656158D01*
X73014910Y57662889D01*
X73007913Y57685960D01*
X73006889Y57693741D01*
X73006707Y57696513D01*
X73006256Y57698546D01*
X72990515Y57732303D01*
X72957744Y57802581D01*
X72876576Y57883749D01*
X72876570Y57883752D01*
X72773459Y57931834D01*
X72772633Y57932234D01*
X72772540Y57932262D01*
X72772538Y57932263D01*
X72772536Y57932263D01*
X72750096Y57935217D01*
X72737616Y57936860D01*
X72737614Y57936861D01*
X72725140Y57938502D01*
X72725136Y57938502D01*
X72725134Y57938502D01*
X72398859Y57938502D01*
X72351453Y57932263D01*
X72351358Y57932234D01*
X72350533Y57931835D01*
X72247421Y57883752D01*
X72247416Y57883749D01*
X72166250Y57802583D01*
X72117737Y57698547D01*
X72117736Y57698545D01*
X72111497Y57651140D01*
X72111497Y57563028D01*
X72105864Y57534709D01*
X72095456Y57509582D01*
X72079419Y57485580D01*
X72076934Y57483095D01*
X72033816Y57408411D01*
X72033813Y57408405D01*
X72011498Y57325123D01*
X63360496Y57325123D01*
X63360496Y57483091D01*
X63360496Y57778140D01*
X63354888Y57820738D01*
X63354706Y57823515D01*
X63354256Y57825546D01*
X63354256Y57825547D01*
X63305744Y57929581D01*
X63224576Y58010749D01*
X63224570Y58010752D01*
X63121459Y58058834D01*
X63120633Y58059234D01*
X63120540Y58059262D01*
X63120538Y58059263D01*
X63120536Y58059263D01*
X63098096Y58062217D01*
X63085616Y58063860D01*
X63085614Y58063861D01*
X63073140Y58065502D01*
X63073136Y58065502D01*
X63073134Y58065502D01*
X62746859Y58065502D01*
X62699453Y58059263D01*
X62699358Y58059234D01*
X62698533Y58058835D01*
X62595421Y58010752D01*
X62595416Y58010749D01*
X62514250Y57929583D01*
X62465738Y57825548D01*
X62465737Y57825546D01*
X62459497Y57778140D01*
X62459497Y57101866D01*
X62465736Y57054460D01*
X62465764Y57054369D01*
X62466165Y57053540D01*
X62477470Y57029297D01*
X62505746Y56968659D01*
X62505747Y56968657D01*
X62505749Y56968652D01*
X62507143Y56965662D01*
X62512319Y56950413D01*
X62515744Y56934967D01*
X62517499Y56918947D01*
X62517499Y56578017D01*
X62511865Y56549698D01*
X62508724Y56542114D01*
X62506271Y56536192D01*
X62471505Y56498582D01*
X62465522Y56495533D01*
X62443499Y56488376D01*
X62412439Y56483457D01*
X62400445Y56481557D01*
X62397531Y56481328D01*
X62394689Y56480646D01*
X62281656Y56423051D01*
X62191950Y56333345D01*
X62134352Y56220305D01*
X62134352Y56220303D01*
X62128554Y56183691D01*
X62119499Y56126520D01*
X23200500Y56126520D01*
X23200500Y65065500D01*
X23222174Y65117826D01*
X23274500Y65139500D01*
X34182500Y65139500D01*
X34234826Y65117826D01*
X34256500Y65065500D01*
X34256500Y62131719D01*
X34260444Y62091656D01*
X34260449Y62091628D01*
X34266073Y62063340D01*
X34266075Y62063330D01*
X34277766Y62024784D01*
X34277774Y62024762D01*
X34282086Y62014349D01*
X34282089Y62014345D01*
X34326642Y61947671D01*
X34326650Y61947661D01*
X34366658Y61907659D01*
X34366694Y61907623D01*
X34433362Y61863082D01*
X34443771Y61858771D01*
X34482314Y61847080D01*
X34510629Y61841448D01*
X34544203Y61838142D01*
X34550718Y61837500D01*
X34550719Y61837500D01*
X44152281Y61837500D01*
X44192373Y61841449D01*
X44209922Y61844940D01*
X44220679Y61847079D01*
X44220695Y61847083D01*
X44227005Y61848998D01*
X44259238Y61858775D01*
X44259248Y61858780D01*
X44259254Y61858781D01*
X44269636Y61863082D01*
X44269646Y61863086D01*
X44336317Y61907634D01*
X44376366Y61947683D01*
X44420914Y62014354D01*
X44422115Y62017255D01*
X44425219Y62024746D01*
X44425220Y62024752D01*
X44425225Y62024762D01*
X44436918Y62063309D01*
X44436921Y62063321D01*
X44439060Y62074078D01*
X44442551Y62091627D01*
X44446500Y62131719D01*
X44446500Y65891282D01*
X44442551Y65931374D01*
X44439754Y65945434D01*
X44436921Y65959681D01*
X44436917Y65959697D01*
X44432280Y65974979D01*
X44425225Y65998239D01*
X44420914Y66008647D01*
X44419940Y66010958D01*
X44419937Y66010965D01*
X44376351Y66075338D01*
X44336301Y66115381D01*
X44335429Y66115964D01*
X44269649Y66159914D01*
X44269642Y66159917D01*
X44259236Y66164227D01*
X44220667Y66175925D01*
X44220663Y66175926D01*
X44220656Y66175928D01*
X44192372Y66181551D01*
X44192357Y66181554D01*
X44192352Y66181555D01*
X44192344Y66181556D01*
X44152282Y66185500D01*
X44152281Y66185500D01*
X39440500Y66185500D01*
X39388174Y66207174D01*
X39366500Y66259500D01*
X39366500Y67542283D01*
X39362551Y67582370D01*
X39362551Y67582374D01*
X39358215Y67604174D01*
X39356921Y67610681D01*
X39356917Y67610697D01*
X39347401Y67642065D01*
X39345225Y67649239D01*
X39340914Y67659647D01*
X39339940Y67661958D01*
X39339937Y67661965D01*
X39296351Y67726338D01*
X39256301Y67766381D01*
X39238417Y67778330D01*
X39189649Y67810914D01*
X39189642Y67810917D01*
X39179236Y67815227D01*
X39179233Y67815228D01*
X39140667Y67826925D01*
X39140663Y67826926D01*
X39140656Y67826928D01*
X39112372Y67832551D01*
X39112357Y67832554D01*
X39112352Y67832555D01*
X39112344Y67832556D01*
X39072282Y67836500D01*
X39072281Y67836500D01*
X37217719Y67836500D01*
X37217718Y67836500D01*
X37177639Y67832555D01*
X37149353Y67826930D01*
X37149335Y67826926D01*
X37110765Y67815228D01*
X37100341Y67810910D01*
X37100338Y67810909D01*
X37100338Y67810908D01*
X37051800Y67778473D01*
X37010688Y67766001D01*
X36231315Y67766001D01*
X36190207Y67778471D01*
X36141648Y67810914D01*
X36141642Y67810917D01*
X36131236Y67815227D01*
X36131233Y67815228D01*
X36092667Y67826925D01*
X36092663Y67826926D01*
X36092656Y67826928D01*
X36064372Y67832551D01*
X36064357Y67832554D01*
X36064352Y67832555D01*
X36064344Y67832556D01*
X36024282Y67836500D01*
X36024281Y67836500D01*
X34487500Y67836500D01*
X34435174Y67858174D01*
X34413500Y67910500D01*
X34413500Y72160747D01*
X34580500Y72160747D01*
X34580500Y69521254D01*
X34592133Y69462768D01*
X34621608Y69418657D01*
X34636448Y69396448D01*
X34680560Y69366973D01*
X34702767Y69352134D01*
X34702768Y69352134D01*
X34702769Y69352133D01*
X34708746Y69350944D01*
X34708908Y69350811D01*
X34709910Y69350712D01*
X34761252Y69340500D01*
X36077781Y69340500D01*
X36106091Y69334871D01*
X36116503Y69330558D01*
X36156553Y69290515D01*
X36156556Y69290508D01*
X36160867Y69280100D01*
X36166500Y69251782D01*
X36166500Y69222164D01*
X36197473Y69106569D01*
X36257309Y69002930D01*
X36341930Y68918309D01*
X36445569Y68858473D01*
X36561164Y68827500D01*
X36561165Y68827500D01*
X36680835Y68827500D01*
X36680836Y68827500D01*
X36796431Y68858473D01*
X36900070Y68918309D01*
X36984691Y69002930D01*
X37044527Y69106569D01*
X37075500Y69222164D01*
X37075500Y69251782D01*
X37081129Y69280091D01*
X37085443Y69290506D01*
X37125482Y69330552D01*
X37135911Y69334872D01*
X37164219Y69340500D01*
X38480746Y69340500D01*
X38480748Y69340500D01*
X38539231Y69352133D01*
X38539232Y69352134D01*
X38605552Y69396448D01*
X38649867Y69462769D01*
X38661500Y69521252D01*
X38661500Y70399500D01*
X38683174Y70451826D01*
X38735500Y70473500D01*
X40151500Y70473500D01*
X40203826Y70451826D01*
X40225500Y70399500D01*
X40225500Y66943000D01*
X40228319Y66928828D01*
X40241141Y66864365D01*
X40241144Y66864355D01*
X40262814Y66812038D01*
X40262816Y66812034D01*
X40262817Y66812033D01*
X40299445Y66753739D01*
X40374033Y66700817D01*
X40426359Y66679143D01*
X40505000Y66663500D01*
X41549901Y66663500D01*
X41591012Y66651029D01*
X41607556Y66639975D01*
X41607557Y66639973D01*
X41607558Y66639973D01*
X41623709Y66629181D01*
X41626538Y66626860D01*
X41626561Y66626847D01*
X41629697Y66624967D01*
X41633257Y66624075D01*
X41633272Y66624071D01*
X41636909Y66623712D01*
X41688251Y66613500D01*
X41688253Y66613500D01*
X47057745Y66613500D01*
X47057747Y66613500D01*
X47116230Y66625133D01*
X47116231Y66625134D01*
X47182551Y66669448D01*
X47226866Y66735769D01*
X47238499Y66794252D01*
X47238499Y70735653D01*
X47239921Y70750090D01*
X47240500Y70753001D01*
X47240500Y73017999D01*
X47229824Y73071668D01*
X47224857Y73096641D01*
X47219228Y73110230D01*
X47203185Y73148963D01*
X47203183Y73148965D01*
X47203183Y73148967D01*
X47166555Y73207261D01*
X47091967Y73260183D01*
X47091966Y73260184D01*
X47039645Y73281856D01*
X47039635Y73281859D01*
X46986974Y73292334D01*
X46961000Y73297500D01*
X46960998Y73297500D01*
X34917002Y73297500D01*
X34917000Y73297500D01*
X34894707Y73293066D01*
X34838364Y73281859D01*
X34838354Y73281856D01*
X34786037Y73260186D01*
X34727739Y73223555D01*
X34727737Y73223553D01*
X34674816Y73148967D01*
X34653144Y73096646D01*
X34653141Y73096636D01*
X34637500Y73017999D01*
X34637500Y72309576D01*
X34625028Y72268463D01*
X34592133Y72219235D01*
X34592133Y72219233D01*
X34580500Y72160747D01*
X34413500Y72160747D01*
X34413500Y88751283D01*
X34409551Y88791370D01*
X34409551Y88791374D01*
X34406754Y88805434D01*
X34403921Y88819681D01*
X34403917Y88819697D01*
X34399280Y88834979D01*
X34392225Y88858239D01*
X34387914Y88868647D01*
X34386940Y88870958D01*
X34386937Y88870965D01*
X34343351Y88935338D01*
X34303301Y88975381D01*
X34299529Y88977901D01*
X34236649Y89019914D01*
X34236642Y89019917D01*
X34226236Y89024227D01*
X34218102Y89026694D01*
X34187667Y89035925D01*
X34187663Y89035926D01*
X34187656Y89035928D01*
X34159372Y89041551D01*
X34159357Y89041554D01*
X34159352Y89041555D01*
X34159344Y89041556D01*
X34119282Y89045500D01*
X34119281Y89045500D01*
X21088719Y89045500D01*
X21088717Y89045500D01*
X21081249Y89044765D01*
X21027051Y89061209D01*
X21000356Y89111160D01*
X21000000Y89118409D01*
X21000000Y94083748D01*
X46072499Y94083748D01*
X46072499Y94083747D01*
X46072499Y88764254D01*
X46084132Y88705768D01*
X46113607Y88661657D01*
X46128447Y88639448D01*
X46172559Y88609973D01*
X46194766Y88595134D01*
X46194767Y88595134D01*
X46194768Y88595133D01*
X46200745Y88593944D01*
X46200907Y88593811D01*
X46201909Y88593712D01*
X46253251Y88583500D01*
X46253253Y88583500D01*
X52642745Y88583500D01*
X52642747Y88583500D01*
X52701230Y88595133D01*
X52701231Y88595134D01*
X52767551Y88639448D01*
X52811866Y88705769D01*
X52823499Y88764252D01*
X52823499Y94083748D01*
X52811866Y94142231D01*
X52767551Y94208552D01*
X52745342Y94223392D01*
X52738105Y94228228D01*
X52724773Y94248185D01*
X52685105Y94256075D01*
X52671988Y94258684D01*
X52671987Y94258685D01*
X52642747Y94264500D01*
X46253251Y94264500D01*
X46224009Y94258685D01*
X46224009Y94258684D01*
X46216748Y94257240D01*
X46194768Y94252868D01*
X46194765Y94252867D01*
X46128450Y94208555D01*
X46128447Y94208553D01*
X46084132Y94142234D01*
X46072499Y94083748D01*
X21000000Y94083748D01*
X21000000Y95121287D01*
X99149500Y95121287D01*
X99149500Y94878715D01*
X99181160Y94638217D01*
X99181164Y94638197D01*
X99243943Y94403908D01*
X99243947Y94403895D01*
X99336295Y94180949D01*
X99336637Y94180080D01*
X99336773Y94179793D01*
X99336775Y94179789D01*
X99458061Y93969715D01*
X99458065Y93969709D01*
X99458072Y93969700D01*
X99458081Y93969687D01*
X99605735Y93777262D01*
X99777262Y93605735D01*
X99969711Y93458064D01*
X100179788Y93336776D01*
X100403900Y93243946D01*
X100636082Y93181732D01*
X100637331Y93181358D01*
X100638009Y93181189D01*
X100638208Y93181163D01*
X100638211Y93181162D01*
X100638214Y93181162D01*
X100638217Y93181161D01*
X100744951Y93167110D01*
X100878712Y93149500D01*
X100878714Y93149500D01*
X101121286Y93149500D01*
X101121288Y93149500D01*
X101306575Y93173894D01*
X101361782Y93181161D01*
X101361782Y93181162D01*
X101361787Y93181162D01*
X101361789Y93181162D01*
X101361790Y93181163D01*
X101366600Y93181795D01*
X101366603Y93181796D01*
X101377436Y93183222D01*
X101383462Y93186969D01*
X101498251Y93217728D01*
X101596100Y93243946D01*
X101820212Y93336776D01*
X102030289Y93458064D01*
X102222738Y93605735D01*
X102394265Y93777262D01*
X102541936Y93969711D01*
X102663224Y94179788D01*
X102756054Y94403900D01*
X102818838Y94638211D01*
X102850500Y94878712D01*
X102850500Y95121288D01*
X102818838Y95361789D01*
X102756054Y95596100D01*
X102663224Y95820212D01*
X102541936Y96030289D01*
X102394265Y96222738D01*
X102222738Y96394265D01*
X102085593Y96499500D01*
X102085592Y96499502D01*
X102030295Y96541932D01*
X102030283Y96541940D01*
X102030280Y96541942D01*
X101820211Y96663225D01*
X101820209Y96663226D01*
X101820207Y96663227D01*
X101819920Y96663363D01*
X101819051Y96663705D01*
X101596105Y96756053D01*
X101596092Y96756057D01*
X101361803Y96818836D01*
X101361784Y96818840D01*
X101232914Y96835806D01*
X101168480Y96844288D01*
X101168479Y96844289D01*
X101121288Y96850500D01*
X100878712Y96850500D01*
X100835736Y96844844D01*
X100835736Y96844843D01*
X100786356Y96838343D01*
X100638214Y96818840D01*
X100638195Y96818836D01*
X100403906Y96756057D01*
X100403893Y96756053D01*
X100180947Y96663705D01*
X100180082Y96663365D01*
X100179791Y96663227D01*
X99969718Y96541942D01*
X99969685Y96541919D01*
X99777260Y96394265D01*
X99605735Y96222740D01*
X99458081Y96030315D01*
X99458058Y96030282D01*
X99336773Y95820209D01*
X99336635Y95819918D01*
X99336295Y95819053D01*
X99243947Y95596107D01*
X99243943Y95596094D01*
X99181164Y95361805D01*
X99181160Y95361785D01*
X99149500Y95121287D01*
X21000000Y95121287D01*
X21000000Y98911282D01*
X21005629Y98939591D01*
X21009943Y98950006D01*
X21049982Y98990052D01*
X21060411Y98994372D01*
X21088719Y99000000D01*
X103461281Y99000000D01*
X103489591Y98994371D01*
G37*
%TD.AperFunction*%
%TD*%
%TA.AperFunction,Conductor*%
%TO.N,BOOST_IN*%
G36*
X34147591Y88834371D02*
G01*
X34158003Y88830058D01*
X34198053Y88790015D01*
X34198056Y88790008D01*
X34202367Y88779600D01*
X34208000Y88751282D01*
X34208000Y67631000D01*
X36024281Y67631000D01*
X36052591Y67625371D01*
X36063003Y67621058D01*
X36103053Y67581015D01*
X36103056Y67581008D01*
X36107367Y67570600D01*
X36113000Y67542282D01*
X36113000Y65041508D01*
X37129000Y65041508D01*
X37129000Y67542282D01*
X37134629Y67570591D01*
X37138943Y67581006D01*
X37178982Y67621052D01*
X37189411Y67625372D01*
X37217719Y67631000D01*
X39072281Y67631000D01*
X39100591Y67625371D01*
X39111003Y67621058D01*
X39151053Y67581015D01*
X39151056Y67581008D01*
X39155367Y67570600D01*
X39161000Y67542282D01*
X39161000Y65980000D01*
X44152281Y65980000D01*
X44180591Y65974371D01*
X44191003Y65970058D01*
X44231053Y65930015D01*
X44231056Y65930008D01*
X44235367Y65919600D01*
X44241000Y65891282D01*
X44241000Y62131719D01*
X44235367Y62103401D01*
X44231056Y62092993D01*
X44191008Y62052945D01*
X44191007Y62052944D01*
X44180599Y62048633D01*
X44152281Y62043000D01*
X34550719Y62043000D01*
X34522404Y62048632D01*
X34511995Y62052943D01*
X34471946Y62092987D01*
X34467629Y62103409D01*
X34462000Y62131719D01*
X34462000Y65345000D01*
X21088719Y65345000D01*
X21060404Y65350632D01*
X21049995Y65354943D01*
X21009946Y65394987D01*
X21005629Y65405409D01*
X21000000Y65433719D01*
X21000000Y88751282D01*
X21005629Y88779591D01*
X21009943Y88790006D01*
X21049982Y88830052D01*
X21060411Y88834372D01*
X21088719Y88840000D01*
X34119281Y88840000D01*
X34147591Y88834371D01*
G37*
%TD.AperFunction*%
%TD*%
%TA.AperFunction,Conductor*%
%TO.N,SW*%
G36*
X57173326Y73070326D02*
G01*
X57195000Y73018000D01*
X57195000Y66869000D01*
X62385017Y66869000D01*
X62437343Y66847326D01*
X62459017Y66795000D01*
X62437343Y66742674D01*
X62387250Y66692582D01*
X62338737Y66588546D01*
X62332497Y66541140D01*
X62332497Y65864865D01*
X62338737Y65817459D01*
X62338738Y65817457D01*
X62387250Y65713423D01*
X62468419Y65632254D01*
X62505793Y65614827D01*
X62539773Y65598982D01*
X62578037Y65557225D01*
X62582500Y65531915D01*
X62582500Y65048242D01*
X62560826Y64995916D01*
X62546309Y64981400D01*
X62486475Y64877765D01*
X62486473Y64877761D01*
X62486473Y64877760D01*
X62455500Y64762165D01*
X62455500Y64642493D01*
X62486473Y64526898D01*
X62546309Y64423259D01*
X62630930Y64338638D01*
X62734569Y64278802D01*
X62850164Y64247829D01*
X62850165Y64247829D01*
X62969835Y64247829D01*
X62969836Y64247829D01*
X63085431Y64278802D01*
X63189070Y64338638D01*
X63273691Y64423259D01*
X63333527Y64526898D01*
X63364500Y64642493D01*
X63364500Y64762165D01*
X63333527Y64877760D01*
X63273691Y64981399D01*
X63259174Y64995916D01*
X63237500Y65048242D01*
X63237500Y66246116D01*
X63236018Y66251646D01*
X63233496Y66270801D01*
X63233496Y66541140D01*
X63227256Y66588546D01*
X63227256Y66588547D01*
X63178744Y66692581D01*
X63128651Y66742674D01*
X63106977Y66795000D01*
X63128651Y66847326D01*
X63180977Y66869000D01*
X73504000Y66869000D01*
X73556326Y66847326D01*
X73578000Y66795000D01*
X73578000Y65091000D01*
X73197000Y65091000D01*
X73197000Y63920002D01*
X73578000Y63920002D01*
X73578000Y58688000D01*
X73556326Y58635674D01*
X73504000Y58614000D01*
X51554000Y58614000D01*
X51501674Y58635674D01*
X51480000Y58688000D01*
X51480000Y73018000D01*
X51501674Y73070326D01*
X51554000Y73092000D01*
X57121000Y73092000D01*
X57173326Y73070326D01*
G37*
%TD.AperFunction*%
%TD*%
M02*
