%TF.GenerationSoftware,KiCad,Pcbnew,10.0.6*%
%TF.CreationDate,2026-09-26T14:49:10+01:00*%
%TF.ProjectId,MAIN_POWER,4d41494e-5f50-44f5-9745-522e6b696361,rev?*%
%TF.SameCoordinates,Original*%
%TF.FileFunction,Legend,Bot*%
%TF.FilePolarity,Positive*%
%FSLAX46Y46*%
G04 Gerber Fmt 4.6, Leading zero omitted, Abs format (unit mm)*
G04 Created by KiCad (PCBNEW 10.0.6) date 2026-09-26 14:49:10*
%MOMM*%
%LPD*%
G01*
G04 APERTURE LIST*
%ADD10C,0.150000*%
G04 APERTURE END LIST*
D10*
X50452382Y84009143D02*
X50452382Y83294858D01*
X50452382Y83294858D02*
X50500001Y83152001D01*
X50500001Y83152001D02*
X50595239Y83056762D01*
X50595239Y83056762D02*
X50738096Y83009143D01*
X50738096Y83009143D02*
X50833334Y83009143D01*
X49976191Y83532953D02*
X49642858Y83532953D01*
X49500001Y83009143D02*
X49976191Y83009143D01*
X49976191Y83009143D02*
X49976191Y84009143D01*
X49976191Y84009143D02*
X49500001Y84009143D01*
X49214286Y84009143D02*
X48642858Y84009143D01*
X48928572Y83009143D02*
X48928572Y84009143D01*
X48357143Y83056762D02*
X48214286Y83009143D01*
X48214286Y83009143D02*
X47976191Y83009143D01*
X47976191Y83009143D02*
X47880953Y83056762D01*
X47880953Y83056762D02*
X47833334Y83104382D01*
X47833334Y83104382D02*
X47785715Y83199620D01*
X47785715Y83199620D02*
X47785715Y83294858D01*
X47785715Y83294858D02*
X47833334Y83390096D01*
X47833334Y83390096D02*
X47880953Y83437715D01*
X47880953Y83437715D02*
X47976191Y83485334D01*
X47976191Y83485334D02*
X48166667Y83532953D01*
X48166667Y83532953D02*
X48261905Y83580572D01*
X48261905Y83580572D02*
X48309524Y83628191D01*
X48309524Y83628191D02*
X48357143Y83723429D01*
X48357143Y83723429D02*
X48357143Y83818667D01*
X48357143Y83818667D02*
X48309524Y83913905D01*
X48309524Y83913905D02*
X48261905Y83961524D01*
X48261905Y83961524D02*
X48166667Y84009143D01*
X48166667Y84009143D02*
X47928572Y84009143D01*
X47928572Y84009143D02*
X47785715Y83961524D01*
X47166667Y84009143D02*
X46976191Y84009143D01*
X46976191Y84009143D02*
X46880953Y83961524D01*
X46880953Y83961524D02*
X46785715Y83866286D01*
X46785715Y83866286D02*
X46738096Y83675810D01*
X46738096Y83675810D02*
X46738096Y83342477D01*
X46738096Y83342477D02*
X46785715Y83152001D01*
X46785715Y83152001D02*
X46880953Y83056762D01*
X46880953Y83056762D02*
X46976191Y83009143D01*
X46976191Y83009143D02*
X47166667Y83009143D01*
X47166667Y83009143D02*
X47261905Y83056762D01*
X47261905Y83056762D02*
X47357143Y83152001D01*
X47357143Y83152001D02*
X47404762Y83342477D01*
X47404762Y83342477D02*
X47404762Y83675810D01*
X47404762Y83675810D02*
X47357143Y83866286D01*
X47357143Y83866286D02*
X47261905Y83961524D01*
X47261905Y83961524D02*
X47166667Y84009143D01*
X46309524Y83009143D02*
X46309524Y84009143D01*
X46309524Y84009143D02*
X45738096Y83009143D01*
X45738096Y83009143D02*
X45738096Y84009143D01*
X44023810Y84009143D02*
X44500000Y84009143D01*
X44500000Y84009143D02*
X44547619Y83532953D01*
X44547619Y83532953D02*
X44500000Y83580572D01*
X44500000Y83580572D02*
X44404762Y83628191D01*
X44404762Y83628191D02*
X44166667Y83628191D01*
X44166667Y83628191D02*
X44071429Y83580572D01*
X44071429Y83580572D02*
X44023810Y83532953D01*
X44023810Y83532953D02*
X43976191Y83437715D01*
X43976191Y83437715D02*
X43976191Y83199620D01*
X43976191Y83199620D02*
X44023810Y83104382D01*
X44023810Y83104382D02*
X44071429Y83056762D01*
X44071429Y83056762D02*
X44166667Y83009143D01*
X44166667Y83009143D02*
X44404762Y83009143D01*
X44404762Y83009143D02*
X44500000Y83056762D01*
X44500000Y83056762D02*
X44547619Y83104382D01*
X43595238Y83294858D02*
X43119048Y83294858D01*
X43690476Y83009143D02*
X43357143Y84009143D01*
X43357143Y84009143D02*
X43023810Y83009143D01*
X40452381Y84056762D02*
X41309523Y82771048D01*
X38261904Y83532953D02*
X38595237Y83532953D01*
X38595237Y83009143D02*
X38595237Y84009143D01*
X38595237Y84009143D02*
X38119047Y84009143D01*
X37785713Y83294858D02*
X37309523Y83294858D01*
X37880951Y83009143D02*
X37547618Y84009143D01*
X37547618Y84009143D02*
X37214285Y83009143D01*
X36880951Y83009143D02*
X36880951Y84009143D01*
X36880951Y84009143D02*
X36309523Y83009143D01*
X36309523Y83009143D02*
X36309523Y84009143D01*
X34880951Y84009143D02*
X34785713Y84009143D01*
X34785713Y84009143D02*
X34690475Y83961524D01*
X34690475Y83961524D02*
X34642856Y83913905D01*
X34642856Y83913905D02*
X34595237Y83818667D01*
X34595237Y83818667D02*
X34547618Y83628191D01*
X34547618Y83628191D02*
X34547618Y83390096D01*
X34547618Y83390096D02*
X34595237Y83199620D01*
X34595237Y83199620D02*
X34642856Y83104382D01*
X34642856Y83104382D02*
X34690475Y83056762D01*
X34690475Y83056762D02*
X34785713Y83009143D01*
X34785713Y83009143D02*
X34880951Y83009143D01*
X34880951Y83009143D02*
X34976189Y83056762D01*
X34976189Y83056762D02*
X35023808Y83104382D01*
X35023808Y83104382D02*
X35071427Y83199620D01*
X35071427Y83199620D02*
X35119046Y83390096D01*
X35119046Y83390096D02*
X35119046Y83628191D01*
X35119046Y83628191D02*
X35071427Y83818667D01*
X35071427Y83818667D02*
X35023808Y83913905D01*
X35023808Y83913905D02*
X34976189Y83961524D01*
X34976189Y83961524D02*
X34880951Y84009143D01*
X34119046Y83104382D02*
X34071427Y83056762D01*
X34071427Y83056762D02*
X34119046Y83009143D01*
X34119046Y83009143D02*
X34166665Y83056762D01*
X34166665Y83056762D02*
X34119046Y83104382D01*
X34119046Y83104382D02*
X34119046Y83009143D01*
X33119047Y83009143D02*
X33690475Y83009143D01*
X33404761Y83009143D02*
X33404761Y84009143D01*
X33404761Y84009143D02*
X33499999Y83866286D01*
X33499999Y83866286D02*
X33595237Y83771048D01*
X33595237Y83771048D02*
X33690475Y83723429D01*
X32261904Y83675810D02*
X32261904Y83009143D01*
X32499999Y84056762D02*
X32738094Y83342477D01*
X32738094Y83342477D02*
X32119047Y83342477D01*
X31785713Y83294858D02*
X31309523Y83294858D01*
X31880951Y83009143D02*
X31547618Y84009143D01*
X31547618Y84009143D02*
X31214285Y83009143D01*
X28642856Y84056762D02*
X29499998Y82771048D01*
X26785712Y84009143D02*
X26785712Y83199620D01*
X26785712Y83199620D02*
X26738093Y83104382D01*
X26738093Y83104382D02*
X26690474Y83056762D01*
X26690474Y83056762D02*
X26595236Y83009143D01*
X26595236Y83009143D02*
X26404760Y83009143D01*
X26404760Y83009143D02*
X26309522Y83056762D01*
X26309522Y83056762D02*
X26261903Y83104382D01*
X26261903Y83104382D02*
X26214284Y83199620D01*
X26214284Y83199620D02*
X26214284Y84009143D01*
X25785712Y83056762D02*
X25642855Y83009143D01*
X25642855Y83009143D02*
X25404760Y83009143D01*
X25404760Y83009143D02*
X25309522Y83056762D01*
X25309522Y83056762D02*
X25261903Y83104382D01*
X25261903Y83104382D02*
X25214284Y83199620D01*
X25214284Y83199620D02*
X25214284Y83294858D01*
X25214284Y83294858D02*
X25261903Y83390096D01*
X25261903Y83390096D02*
X25309522Y83437715D01*
X25309522Y83437715D02*
X25404760Y83485334D01*
X25404760Y83485334D02*
X25595236Y83532953D01*
X25595236Y83532953D02*
X25690474Y83580572D01*
X25690474Y83580572D02*
X25738093Y83628191D01*
X25738093Y83628191D02*
X25785712Y83723429D01*
X25785712Y83723429D02*
X25785712Y83818667D01*
X25785712Y83818667D02*
X25738093Y83913905D01*
X25738093Y83913905D02*
X25690474Y83961524D01*
X25690474Y83961524D02*
X25595236Y84009143D01*
X25595236Y84009143D02*
X25357141Y84009143D01*
X25357141Y84009143D02*
X25214284Y83961524D01*
X24452379Y83532953D02*
X24309522Y83485334D01*
X24309522Y83485334D02*
X24261903Y83437715D01*
X24261903Y83437715D02*
X24214284Y83342477D01*
X24214284Y83342477D02*
X24214284Y83199620D01*
X24214284Y83199620D02*
X24261903Y83104382D01*
X24261903Y83104382D02*
X24309522Y83056762D01*
X24309522Y83056762D02*
X24404760Y83009143D01*
X24404760Y83009143D02*
X24785712Y83009143D01*
X24785712Y83009143D02*
X24785712Y84009143D01*
X24785712Y84009143D02*
X24452379Y84009143D01*
X24452379Y84009143D02*
X24357141Y83961524D01*
X24357141Y83961524D02*
X24309522Y83913905D01*
X24309522Y83913905D02*
X24261903Y83818667D01*
X24261903Y83818667D02*
X24261903Y83723429D01*
X24261903Y83723429D02*
X24309522Y83628191D01*
X24309522Y83628191D02*
X24357141Y83580572D01*
X24357141Y83580572D02*
X24452379Y83532953D01*
X24452379Y83532953D02*
X24785712Y83532953D01*
X22690474Y83532953D02*
X23023807Y83532953D01*
X23023807Y83009143D02*
X23023807Y84009143D01*
X23023807Y84009143D02*
X22547617Y84009143D01*
X22166664Y83532953D02*
X21833331Y83532953D01*
X21690474Y83009143D02*
X22166664Y83009143D01*
X22166664Y83009143D02*
X22166664Y84009143D01*
X22166664Y84009143D02*
X21690474Y84009143D01*
X21261902Y83532953D02*
X20928569Y83532953D01*
X20785712Y83009143D02*
X21261902Y83009143D01*
X21261902Y83009143D02*
X21261902Y84009143D01*
X21261902Y84009143D02*
X20785712Y84009143D01*
X20357140Y83009143D02*
X20357140Y84009143D01*
X20357140Y84009143D02*
X20119045Y84009143D01*
X20119045Y84009143D02*
X19976188Y83961524D01*
X19976188Y83961524D02*
X19880950Y83866286D01*
X19880950Y83866286D02*
X19833331Y83771048D01*
X19833331Y83771048D02*
X19785712Y83580572D01*
X19785712Y83580572D02*
X19785712Y83437715D01*
X19785712Y83437715D02*
X19833331Y83247239D01*
X19833331Y83247239D02*
X19880950Y83152001D01*
X19880950Y83152001D02*
X19976188Y83056762D01*
X19976188Y83056762D02*
X20119045Y83009143D01*
X20119045Y83009143D02*
X20357140Y83009143D01*
X18690473Y84009143D02*
X18071426Y84009143D01*
X18071426Y84009143D02*
X18404759Y83628191D01*
X18404759Y83628191D02*
X18261902Y83628191D01*
X18261902Y83628191D02*
X18166664Y83580572D01*
X18166664Y83580572D02*
X18119045Y83532953D01*
X18119045Y83532953D02*
X18071426Y83437715D01*
X18071426Y83437715D02*
X18071426Y83199620D01*
X18071426Y83199620D02*
X18119045Y83104382D01*
X18119045Y83104382D02*
X18166664Y83056762D01*
X18166664Y83056762D02*
X18261902Y83009143D01*
X18261902Y83009143D02*
X18547616Y83009143D01*
X18547616Y83009143D02*
X18642854Y83056762D01*
X18642854Y83056762D02*
X18690473Y83104382D01*
X17690473Y83294858D02*
X17214283Y83294858D01*
X17785711Y83009143D02*
X17452378Y84009143D01*
X17452378Y84009143D02*
X17119045Y83009143D01*
X46071429Y71404382D02*
X46119048Y71356762D01*
X46119048Y71356762D02*
X46261905Y71309143D01*
X46261905Y71309143D02*
X46357143Y71309143D01*
X46357143Y71309143D02*
X46500000Y71356762D01*
X46500000Y71356762D02*
X46595238Y71452001D01*
X46595238Y71452001D02*
X46642857Y71547239D01*
X46642857Y71547239D02*
X46690476Y71737715D01*
X46690476Y71737715D02*
X46690476Y71880572D01*
X46690476Y71880572D02*
X46642857Y72071048D01*
X46642857Y72071048D02*
X46595238Y72166286D01*
X46595238Y72166286D02*
X46500000Y72261524D01*
X46500000Y72261524D02*
X46357143Y72309143D01*
X46357143Y72309143D02*
X46261905Y72309143D01*
X46261905Y72309143D02*
X46119048Y72261524D01*
X46119048Y72261524D02*
X46071429Y72213905D01*
X45452381Y72309143D02*
X45261905Y72309143D01*
X45261905Y72309143D02*
X45166667Y72261524D01*
X45166667Y72261524D02*
X45071429Y72166286D01*
X45071429Y72166286D02*
X45023810Y71975810D01*
X45023810Y71975810D02*
X45023810Y71642477D01*
X45023810Y71642477D02*
X45071429Y71452001D01*
X45071429Y71452001D02*
X45166667Y71356762D01*
X45166667Y71356762D02*
X45261905Y71309143D01*
X45261905Y71309143D02*
X45452381Y71309143D01*
X45452381Y71309143D02*
X45547619Y71356762D01*
X45547619Y71356762D02*
X45642857Y71452001D01*
X45642857Y71452001D02*
X45690476Y71642477D01*
X45690476Y71642477D02*
X45690476Y71975810D01*
X45690476Y71975810D02*
X45642857Y72166286D01*
X45642857Y72166286D02*
X45547619Y72261524D01*
X45547619Y72261524D02*
X45452381Y72309143D01*
X44595238Y71309143D02*
X44595238Y72309143D01*
X44595238Y72309143D02*
X44023810Y71309143D01*
X44023810Y71309143D02*
X44023810Y72309143D01*
X43547619Y71309143D02*
X43547619Y72309143D01*
X43547619Y72309143D02*
X42976191Y71309143D01*
X42976191Y71309143D02*
X42976191Y72309143D01*
X42500000Y71832953D02*
X42166667Y71832953D01*
X42023810Y71309143D02*
X42500000Y71309143D01*
X42500000Y71309143D02*
X42500000Y72309143D01*
X42500000Y72309143D02*
X42023810Y72309143D01*
X41023810Y71404382D02*
X41071429Y71356762D01*
X41071429Y71356762D02*
X41214286Y71309143D01*
X41214286Y71309143D02*
X41309524Y71309143D01*
X41309524Y71309143D02*
X41452381Y71356762D01*
X41452381Y71356762D02*
X41547619Y71452001D01*
X41547619Y71452001D02*
X41595238Y71547239D01*
X41595238Y71547239D02*
X41642857Y71737715D01*
X41642857Y71737715D02*
X41642857Y71880572D01*
X41642857Y71880572D02*
X41595238Y72071048D01*
X41595238Y72071048D02*
X41547619Y72166286D01*
X41547619Y72166286D02*
X41452381Y72261524D01*
X41452381Y72261524D02*
X41309524Y72309143D01*
X41309524Y72309143D02*
X41214286Y72309143D01*
X41214286Y72309143D02*
X41071429Y72261524D01*
X41071429Y72261524D02*
X41023810Y72213905D01*
X40738095Y72309143D02*
X40166667Y72309143D01*
X40452381Y71309143D02*
X40452381Y72309143D01*
X39071428Y71309143D02*
X39071428Y72309143D01*
X39071428Y72309143D02*
X38690476Y72309143D01*
X38690476Y72309143D02*
X38595238Y72261524D01*
X38595238Y72261524D02*
X38547619Y72213905D01*
X38547619Y72213905D02*
X38500000Y72118667D01*
X38500000Y72118667D02*
X38500000Y71975810D01*
X38500000Y71975810D02*
X38547619Y71880572D01*
X38547619Y71880572D02*
X38595238Y71832953D01*
X38595238Y71832953D02*
X38690476Y71785334D01*
X38690476Y71785334D02*
X39071428Y71785334D01*
X37880952Y72309143D02*
X37690476Y72309143D01*
X37690476Y72309143D02*
X37595238Y72261524D01*
X37595238Y72261524D02*
X37500000Y72166286D01*
X37500000Y72166286D02*
X37452381Y71975810D01*
X37452381Y71975810D02*
X37452381Y71642477D01*
X37452381Y71642477D02*
X37500000Y71452001D01*
X37500000Y71452001D02*
X37595238Y71356762D01*
X37595238Y71356762D02*
X37690476Y71309143D01*
X37690476Y71309143D02*
X37880952Y71309143D01*
X37880952Y71309143D02*
X37976190Y71356762D01*
X37976190Y71356762D02*
X38071428Y71452001D01*
X38071428Y71452001D02*
X38119047Y71642477D01*
X38119047Y71642477D02*
X38119047Y71975810D01*
X38119047Y71975810D02*
X38071428Y72166286D01*
X38071428Y72166286D02*
X37976190Y72261524D01*
X37976190Y72261524D02*
X37880952Y72309143D01*
X37023809Y71832953D02*
X36690476Y71832953D01*
X36547619Y71309143D02*
X37023809Y71309143D01*
X37023809Y71309143D02*
X37023809Y72309143D01*
X37023809Y72309143D02*
X36547619Y72309143D01*
X35023809Y71832953D02*
X34880952Y71785334D01*
X34880952Y71785334D02*
X34833333Y71737715D01*
X34833333Y71737715D02*
X34785714Y71642477D01*
X34785714Y71642477D02*
X34785714Y71499620D01*
X34785714Y71499620D02*
X34833333Y71404382D01*
X34833333Y71404382D02*
X34880952Y71356762D01*
X34880952Y71356762D02*
X34976190Y71309143D01*
X34976190Y71309143D02*
X35357142Y71309143D01*
X35357142Y71309143D02*
X35357142Y72309143D01*
X35357142Y72309143D02*
X35023809Y72309143D01*
X35023809Y72309143D02*
X34928571Y72261524D01*
X34928571Y72261524D02*
X34880952Y72213905D01*
X34880952Y72213905D02*
X34833333Y72118667D01*
X34833333Y72118667D02*
X34833333Y72023429D01*
X34833333Y72023429D02*
X34880952Y71928191D01*
X34880952Y71928191D02*
X34928571Y71880572D01*
X34928571Y71880572D02*
X35023809Y71832953D01*
X35023809Y71832953D02*
X35357142Y71832953D01*
X34166666Y72309143D02*
X33976190Y72309143D01*
X33976190Y72309143D02*
X33880952Y72261524D01*
X33880952Y72261524D02*
X33785714Y72166286D01*
X33785714Y72166286D02*
X33738095Y71975810D01*
X33738095Y71975810D02*
X33738095Y71642477D01*
X33738095Y71642477D02*
X33785714Y71452001D01*
X33785714Y71452001D02*
X33880952Y71356762D01*
X33880952Y71356762D02*
X33976190Y71309143D01*
X33976190Y71309143D02*
X34166666Y71309143D01*
X34166666Y71309143D02*
X34261904Y71356762D01*
X34261904Y71356762D02*
X34357142Y71452001D01*
X34357142Y71452001D02*
X34404761Y71642477D01*
X34404761Y71642477D02*
X34404761Y71975810D01*
X34404761Y71975810D02*
X34357142Y72166286D01*
X34357142Y72166286D02*
X34261904Y72261524D01*
X34261904Y72261524D02*
X34166666Y72309143D01*
X33357142Y71594858D02*
X32880952Y71594858D01*
X33452380Y71309143D02*
X33119047Y72309143D01*
X33119047Y72309143D02*
X32785714Y71309143D01*
X31880952Y71309143D02*
X32214285Y71785334D01*
X32452380Y71309143D02*
X32452380Y72309143D01*
X32452380Y72309143D02*
X32071428Y72309143D01*
X32071428Y72309143D02*
X31976190Y72261524D01*
X31976190Y72261524D02*
X31928571Y72213905D01*
X31928571Y72213905D02*
X31880952Y72118667D01*
X31880952Y72118667D02*
X31880952Y71975810D01*
X31880952Y71975810D02*
X31928571Y71880572D01*
X31928571Y71880572D02*
X31976190Y71832953D01*
X31976190Y71832953D02*
X32071428Y71785334D01*
X32071428Y71785334D02*
X32452380Y71785334D01*
X31452380Y71309143D02*
X31452380Y72309143D01*
X31452380Y72309143D02*
X31214285Y72309143D01*
X31214285Y72309143D02*
X31071428Y72261524D01*
X31071428Y72261524D02*
X30976190Y72166286D01*
X30976190Y72166286D02*
X30928571Y72071048D01*
X30928571Y72071048D02*
X30880952Y71880572D01*
X30880952Y71880572D02*
X30880952Y71737715D01*
X30880952Y71737715D02*
X30928571Y71547239D01*
X30928571Y71547239D02*
X30976190Y71452001D01*
X30976190Y71452001D02*
X31071428Y71356762D01*
X31071428Y71356762D02*
X31214285Y71309143D01*
X31214285Y71309143D02*
X31452380Y71309143D01*
X29833332Y72309143D02*
X29261904Y72309143D01*
X29547618Y71309143D02*
X29547618Y72309143D01*
X28738094Y72309143D02*
X28547618Y72309143D01*
X28547618Y72309143D02*
X28452380Y72261524D01*
X28452380Y72261524D02*
X28357142Y72166286D01*
X28357142Y72166286D02*
X28309523Y71975810D01*
X28309523Y71975810D02*
X28309523Y71642477D01*
X28309523Y71642477D02*
X28357142Y71452001D01*
X28357142Y71452001D02*
X28452380Y71356762D01*
X28452380Y71356762D02*
X28547618Y71309143D01*
X28547618Y71309143D02*
X28738094Y71309143D01*
X28738094Y71309143D02*
X28833332Y71356762D01*
X28833332Y71356762D02*
X28928570Y71452001D01*
X28928570Y71452001D02*
X28976189Y71642477D01*
X28976189Y71642477D02*
X28976189Y71975810D01*
X28976189Y71975810D02*
X28928570Y72166286D01*
X28928570Y72166286D02*
X28833332Y72261524D01*
X28833332Y72261524D02*
X28738094Y72309143D01*
X26833332Y72309143D02*
X26833332Y71594858D01*
X26833332Y71594858D02*
X26880951Y71452001D01*
X26880951Y71452001D02*
X26976189Y71356762D01*
X26976189Y71356762D02*
X27119046Y71309143D01*
X27119046Y71309143D02*
X27214284Y71309143D01*
X25928570Y72309143D02*
X26119046Y72309143D01*
X26119046Y72309143D02*
X26214284Y72261524D01*
X26214284Y72261524D02*
X26261903Y72213905D01*
X26261903Y72213905D02*
X26357141Y72071048D01*
X26357141Y72071048D02*
X26404760Y71880572D01*
X26404760Y71880572D02*
X26404760Y71499620D01*
X26404760Y71499620D02*
X26357141Y71404382D01*
X26357141Y71404382D02*
X26309522Y71356762D01*
X26309522Y71356762D02*
X26214284Y71309143D01*
X26214284Y71309143D02*
X26023808Y71309143D01*
X26023808Y71309143D02*
X25928570Y71356762D01*
X25928570Y71356762D02*
X25880951Y71404382D01*
X25880951Y71404382D02*
X25833332Y71499620D01*
X25833332Y71499620D02*
X25833332Y71737715D01*
X25833332Y71737715D02*
X25880951Y71832953D01*
X25880951Y71832953D02*
X25928570Y71880572D01*
X25928570Y71880572D02*
X26023808Y71928191D01*
X26023808Y71928191D02*
X26214284Y71928191D01*
X26214284Y71928191D02*
X26309522Y71880572D01*
X26309522Y71880572D02*
X26357141Y71832953D01*
X26357141Y71832953D02*
X26404760Y71737715D01*
X24452379Y72309143D02*
X24261903Y72309143D01*
X24261903Y72309143D02*
X24166665Y72261524D01*
X24166665Y72261524D02*
X24071427Y72166286D01*
X24071427Y72166286D02*
X24023808Y71975810D01*
X24023808Y71975810D02*
X24023808Y71642477D01*
X24023808Y71642477D02*
X24071427Y71452001D01*
X24071427Y71452001D02*
X24166665Y71356762D01*
X24166665Y71356762D02*
X24261903Y71309143D01*
X24261903Y71309143D02*
X24452379Y71309143D01*
X24452379Y71309143D02*
X24547617Y71356762D01*
X24547617Y71356762D02*
X24642855Y71452001D01*
X24642855Y71452001D02*
X24690474Y71642477D01*
X24690474Y71642477D02*
X24690474Y71975810D01*
X24690474Y71975810D02*
X24642855Y72166286D01*
X24642855Y72166286D02*
X24547617Y72261524D01*
X24547617Y72261524D02*
X24452379Y72309143D01*
X23595236Y71309143D02*
X23595236Y72309143D01*
X23595236Y72309143D02*
X23023808Y71309143D01*
X23023808Y71309143D02*
X23023808Y72309143D01*
X22071427Y71309143D02*
X22547617Y71309143D01*
X22547617Y71309143D02*
X22547617Y72309143D01*
X21547617Y71785334D02*
X21547617Y71309143D01*
X21880950Y72309143D02*
X21547617Y71785334D01*
X21547617Y71785334D02*
X21214284Y72309143D01*
X44500000Y68761524D02*
X44595238Y68809143D01*
X44595238Y68809143D02*
X44738095Y68809143D01*
X44738095Y68809143D02*
X44880952Y68761524D01*
X44880952Y68761524D02*
X44976190Y68666286D01*
X44976190Y68666286D02*
X45023809Y68571048D01*
X45023809Y68571048D02*
X45071428Y68380572D01*
X45071428Y68380572D02*
X45071428Y68237715D01*
X45071428Y68237715D02*
X45023809Y68047239D01*
X45023809Y68047239D02*
X44976190Y67952001D01*
X44976190Y67952001D02*
X44880952Y67856762D01*
X44880952Y67856762D02*
X44738095Y67809143D01*
X44738095Y67809143D02*
X44642857Y67809143D01*
X44642857Y67809143D02*
X44500000Y67856762D01*
X44500000Y67856762D02*
X44452381Y67904382D01*
X44452381Y67904382D02*
X44452381Y68237715D01*
X44452381Y68237715D02*
X44642857Y68237715D01*
X44023809Y67809143D02*
X44023809Y68809143D01*
X44023809Y68809143D02*
X43690476Y68094858D01*
X43690476Y68094858D02*
X43357143Y68809143D01*
X43357143Y68809143D02*
X43357143Y67809143D01*
X42928571Y67856762D02*
X42785714Y67809143D01*
X42785714Y67809143D02*
X42547619Y67809143D01*
X42547619Y67809143D02*
X42452381Y67856762D01*
X42452381Y67856762D02*
X42404762Y67904382D01*
X42404762Y67904382D02*
X42357143Y67999620D01*
X42357143Y67999620D02*
X42357143Y68094858D01*
X42357143Y68094858D02*
X42404762Y68190096D01*
X42404762Y68190096D02*
X42452381Y68237715D01*
X42452381Y68237715D02*
X42547619Y68285334D01*
X42547619Y68285334D02*
X42738095Y68332953D01*
X42738095Y68332953D02*
X42833333Y68380572D01*
X42833333Y68380572D02*
X42880952Y68428191D01*
X42880952Y68428191D02*
X42928571Y68523429D01*
X42928571Y68523429D02*
X42928571Y68618667D01*
X42928571Y68618667D02*
X42880952Y68713905D01*
X42880952Y68713905D02*
X42833333Y68761524D01*
X42833333Y68761524D02*
X42738095Y68809143D01*
X42738095Y68809143D02*
X42500000Y68809143D01*
X42500000Y68809143D02*
X42357143Y68761524D01*
X41452381Y67809143D02*
X41928571Y67809143D01*
X41928571Y67809143D02*
X41928571Y68809143D01*
X40166666Y68809143D02*
X39976190Y68809143D01*
X39976190Y68809143D02*
X39880952Y68761524D01*
X39880952Y68761524D02*
X39785714Y68666286D01*
X39785714Y68666286D02*
X39738095Y68475810D01*
X39738095Y68475810D02*
X39738095Y68142477D01*
X39738095Y68142477D02*
X39785714Y67952001D01*
X39785714Y67952001D02*
X39880952Y67856762D01*
X39880952Y67856762D02*
X39976190Y67809143D01*
X39976190Y67809143D02*
X40166666Y67809143D01*
X40166666Y67809143D02*
X40261904Y67856762D01*
X40261904Y67856762D02*
X40357142Y67952001D01*
X40357142Y67952001D02*
X40404761Y68142477D01*
X40404761Y68142477D02*
X40404761Y68475810D01*
X40404761Y68475810D02*
X40357142Y68666286D01*
X40357142Y68666286D02*
X40261904Y68761524D01*
X40261904Y68761524D02*
X40166666Y68809143D01*
X38738095Y67809143D02*
X39071428Y68285334D01*
X39309523Y67809143D02*
X39309523Y68809143D01*
X39309523Y68809143D02*
X38928571Y68809143D01*
X38928571Y68809143D02*
X38833333Y68761524D01*
X38833333Y68761524D02*
X38785714Y68713905D01*
X38785714Y68713905D02*
X38738095Y68618667D01*
X38738095Y68618667D02*
X38738095Y68475810D01*
X38738095Y68475810D02*
X38785714Y68380572D01*
X38785714Y68380572D02*
X38833333Y68332953D01*
X38833333Y68332953D02*
X38928571Y68285334D01*
X38928571Y68285334D02*
X39309523Y68285334D01*
X37547618Y67809143D02*
X37547618Y68809143D01*
X37547618Y68809143D02*
X37166666Y68809143D01*
X37166666Y68809143D02*
X37071428Y68761524D01*
X37071428Y68761524D02*
X37023809Y68713905D01*
X37023809Y68713905D02*
X36976190Y68618667D01*
X36976190Y68618667D02*
X36976190Y68475810D01*
X36976190Y68475810D02*
X37023809Y68380572D01*
X37023809Y68380572D02*
X37071428Y68332953D01*
X37071428Y68332953D02*
X37166666Y68285334D01*
X37166666Y68285334D02*
X37547618Y68285334D01*
X36357142Y68809143D02*
X36166666Y68809143D01*
X36166666Y68809143D02*
X36071428Y68761524D01*
X36071428Y68761524D02*
X35976190Y68666286D01*
X35976190Y68666286D02*
X35928571Y68475810D01*
X35928571Y68475810D02*
X35928571Y68142477D01*
X35928571Y68142477D02*
X35976190Y67952001D01*
X35976190Y67952001D02*
X36071428Y67856762D01*
X36071428Y67856762D02*
X36166666Y67809143D01*
X36166666Y67809143D02*
X36357142Y67809143D01*
X36357142Y67809143D02*
X36452380Y67856762D01*
X36452380Y67856762D02*
X36547618Y67952001D01*
X36547618Y67952001D02*
X36595237Y68142477D01*
X36595237Y68142477D02*
X36595237Y68475810D01*
X36595237Y68475810D02*
X36547618Y68666286D01*
X36547618Y68666286D02*
X36452380Y68761524D01*
X36452380Y68761524D02*
X36357142Y68809143D01*
X35499999Y68332953D02*
X35166666Y68332953D01*
X35023809Y67809143D02*
X35499999Y67809143D01*
X35499999Y67809143D02*
X35499999Y68809143D01*
X35499999Y68809143D02*
X35023809Y68809143D01*
X33833332Y68190096D02*
X33071428Y68190096D01*
X31833332Y67809143D02*
X31833332Y68809143D01*
X31833332Y68809143D02*
X31261904Y67809143D01*
X31261904Y67809143D02*
X31261904Y68809143D01*
X30785713Y68332953D02*
X30452380Y68332953D01*
X30309523Y67809143D02*
X30785713Y67809143D01*
X30785713Y67809143D02*
X30785713Y68809143D01*
X30785713Y68809143D02*
X30309523Y68809143D01*
X30023808Y68809143D02*
X29690475Y67809143D01*
X29690475Y67809143D02*
X29357142Y68809143D01*
X29023808Y68332953D02*
X28690475Y68332953D01*
X28547618Y67809143D02*
X29023808Y67809143D01*
X29023808Y67809143D02*
X29023808Y68809143D01*
X29023808Y68809143D02*
X28547618Y68809143D01*
X27547618Y67809143D02*
X27880951Y68285334D01*
X28119046Y67809143D02*
X28119046Y68809143D01*
X28119046Y68809143D02*
X27738094Y68809143D01*
X27738094Y68809143D02*
X27642856Y68761524D01*
X27642856Y68761524D02*
X27595237Y68713905D01*
X27595237Y68713905D02*
X27547618Y68618667D01*
X27547618Y68618667D02*
X27547618Y68475810D01*
X27547618Y68475810D02*
X27595237Y68380572D01*
X27595237Y68380572D02*
X27642856Y68332953D01*
X27642856Y68332953D02*
X27738094Y68285334D01*
X27738094Y68285334D02*
X28119046Y68285334D01*
X26023808Y68332953D02*
X25880951Y68285334D01*
X25880951Y68285334D02*
X25833332Y68237715D01*
X25833332Y68237715D02*
X25785713Y68142477D01*
X25785713Y68142477D02*
X25785713Y67999620D01*
X25785713Y67999620D02*
X25833332Y67904382D01*
X25833332Y67904382D02*
X25880951Y67856762D01*
X25880951Y67856762D02*
X25976189Y67809143D01*
X25976189Y67809143D02*
X26357141Y67809143D01*
X26357141Y67809143D02*
X26357141Y68809143D01*
X26357141Y68809143D02*
X26023808Y68809143D01*
X26023808Y68809143D02*
X25928570Y68761524D01*
X25928570Y68761524D02*
X25880951Y68713905D01*
X25880951Y68713905D02*
X25833332Y68618667D01*
X25833332Y68618667D02*
X25833332Y68523429D01*
X25833332Y68523429D02*
X25880951Y68428191D01*
X25880951Y68428191D02*
X25928570Y68380572D01*
X25928570Y68380572D02*
X26023808Y68332953D01*
X26023808Y68332953D02*
X26357141Y68332953D01*
X25166665Y68809143D02*
X24976189Y68809143D01*
X24976189Y68809143D02*
X24880951Y68761524D01*
X24880951Y68761524D02*
X24785713Y68666286D01*
X24785713Y68666286D02*
X24738094Y68475810D01*
X24738094Y68475810D02*
X24738094Y68142477D01*
X24738094Y68142477D02*
X24785713Y67952001D01*
X24785713Y67952001D02*
X24880951Y67856762D01*
X24880951Y67856762D02*
X24976189Y67809143D01*
X24976189Y67809143D02*
X25166665Y67809143D01*
X25166665Y67809143D02*
X25261903Y67856762D01*
X25261903Y67856762D02*
X25357141Y67952001D01*
X25357141Y67952001D02*
X25404760Y68142477D01*
X25404760Y68142477D02*
X25404760Y68475810D01*
X25404760Y68475810D02*
X25357141Y68666286D01*
X25357141Y68666286D02*
X25261903Y68761524D01*
X25261903Y68761524D02*
X25166665Y68809143D01*
X24452379Y68809143D02*
X23880951Y68809143D01*
X24166665Y67809143D02*
X24166665Y68809143D01*
X23547617Y67809143D02*
X23547617Y68809143D01*
X23547617Y68332953D02*
X22976189Y68332953D01*
X22976189Y67809143D02*
X22976189Y68809143D01*
X51119047Y6809143D02*
X51119047Y5999620D01*
X51119047Y5999620D02*
X51071428Y5904382D01*
X51071428Y5904382D02*
X51023809Y5856762D01*
X51023809Y5856762D02*
X50928571Y5809143D01*
X50928571Y5809143D02*
X50738095Y5809143D01*
X50738095Y5809143D02*
X50642857Y5856762D01*
X50642857Y5856762D02*
X50595238Y5904382D01*
X50595238Y5904382D02*
X50547619Y5999620D01*
X50547619Y5999620D02*
X50547619Y6809143D01*
X50071428Y5809143D02*
X50071428Y6809143D01*
X50071428Y6809143D02*
X49690476Y6809143D01*
X49690476Y6809143D02*
X49595238Y6761524D01*
X49595238Y6761524D02*
X49547619Y6713905D01*
X49547619Y6713905D02*
X49500000Y6618667D01*
X49500000Y6618667D02*
X49500000Y6475810D01*
X49500000Y6475810D02*
X49547619Y6380572D01*
X49547619Y6380572D02*
X49595238Y6332953D01*
X49595238Y6332953D02*
X49690476Y6285334D01*
X49690476Y6285334D02*
X50071428Y6285334D01*
X49119047Y5856762D02*
X48976190Y5809143D01*
X48976190Y5809143D02*
X48738095Y5809143D01*
X48738095Y5809143D02*
X48642857Y5856762D01*
X48642857Y5856762D02*
X48595238Y5904382D01*
X48595238Y5904382D02*
X48547619Y5999620D01*
X48547619Y5999620D02*
X48547619Y6094858D01*
X48547619Y6094858D02*
X48595238Y6190096D01*
X48595238Y6190096D02*
X48642857Y6237715D01*
X48642857Y6237715D02*
X48738095Y6285334D01*
X48738095Y6285334D02*
X48928571Y6332953D01*
X48928571Y6332953D02*
X49023809Y6380572D01*
X49023809Y6380572D02*
X49071428Y6428191D01*
X49071428Y6428191D02*
X49119047Y6523429D01*
X49119047Y6523429D02*
X49119047Y6618667D01*
X49119047Y6618667D02*
X49071428Y6713905D01*
X49071428Y6713905D02*
X49023809Y6761524D01*
X49023809Y6761524D02*
X48928571Y6809143D01*
X48928571Y6809143D02*
X48690476Y6809143D01*
X48690476Y6809143D02*
X48547619Y6761524D01*
X48261904Y6809143D02*
X47690476Y6809143D01*
X47976190Y5809143D02*
X47976190Y6809143D01*
X46785714Y5809143D02*
X47119047Y6285334D01*
X47357142Y5809143D02*
X47357142Y6809143D01*
X47357142Y6809143D02*
X46976190Y6809143D01*
X46976190Y6809143D02*
X46880952Y6761524D01*
X46880952Y6761524D02*
X46833333Y6713905D01*
X46833333Y6713905D02*
X46785714Y6618667D01*
X46785714Y6618667D02*
X46785714Y6475810D01*
X46785714Y6475810D02*
X46833333Y6380572D01*
X46833333Y6380572D02*
X46880952Y6332953D01*
X46880952Y6332953D02*
X46976190Y6285334D01*
X46976190Y6285334D02*
X47357142Y6285334D01*
X46357142Y6332953D02*
X46023809Y6332953D01*
X45880952Y5809143D02*
X46357142Y5809143D01*
X46357142Y5809143D02*
X46357142Y6809143D01*
X46357142Y6809143D02*
X45880952Y6809143D01*
X45499999Y6094858D02*
X45023809Y6094858D01*
X45595237Y5809143D02*
X45261904Y6809143D01*
X45261904Y6809143D02*
X44928571Y5809143D01*
X44595237Y5809143D02*
X44595237Y6809143D01*
X44595237Y6809143D02*
X44261904Y6094858D01*
X44261904Y6094858D02*
X43928571Y6809143D01*
X43928571Y6809143D02*
X43928571Y5809143D01*
X42690475Y5809143D02*
X42690475Y6809143D01*
X42690475Y6809143D02*
X42309523Y6809143D01*
X42309523Y6809143D02*
X42214285Y6761524D01*
X42214285Y6761524D02*
X42166666Y6713905D01*
X42166666Y6713905D02*
X42119047Y6618667D01*
X42119047Y6618667D02*
X42119047Y6475810D01*
X42119047Y6475810D02*
X42166666Y6380572D01*
X42166666Y6380572D02*
X42214285Y6332953D01*
X42214285Y6332953D02*
X42309523Y6285334D01*
X42309523Y6285334D02*
X42690475Y6285334D01*
X41738094Y5856762D02*
X41595237Y5809143D01*
X41595237Y5809143D02*
X41357142Y5809143D01*
X41357142Y5809143D02*
X41261904Y5856762D01*
X41261904Y5856762D02*
X41214285Y5904382D01*
X41214285Y5904382D02*
X41166666Y5999620D01*
X41166666Y5999620D02*
X41166666Y6094858D01*
X41166666Y6094858D02*
X41214285Y6190096D01*
X41214285Y6190096D02*
X41261904Y6237715D01*
X41261904Y6237715D02*
X41357142Y6285334D01*
X41357142Y6285334D02*
X41547618Y6332953D01*
X41547618Y6332953D02*
X41642856Y6380572D01*
X41642856Y6380572D02*
X41690475Y6428191D01*
X41690475Y6428191D02*
X41738094Y6523429D01*
X41738094Y6523429D02*
X41738094Y6618667D01*
X41738094Y6618667D02*
X41690475Y6713905D01*
X41690475Y6713905D02*
X41642856Y6761524D01*
X41642856Y6761524D02*
X41547618Y6809143D01*
X41547618Y6809143D02*
X41309523Y6809143D01*
X41309523Y6809143D02*
X41166666Y6761524D01*
X40738094Y6809143D02*
X40738094Y5999620D01*
X40738094Y5999620D02*
X40690475Y5904382D01*
X40690475Y5904382D02*
X40642856Y5856762D01*
X40642856Y5856762D02*
X40547618Y5809143D01*
X40547618Y5809143D02*
X40357142Y5809143D01*
X40357142Y5809143D02*
X40261904Y5856762D01*
X40261904Y5856762D02*
X40214285Y5904382D01*
X40214285Y5904382D02*
X40166666Y5999620D01*
X40166666Y5999620D02*
X40166666Y6809143D01*
X38357142Y5904382D02*
X38404761Y5856762D01*
X38404761Y5856762D02*
X38547618Y5809143D01*
X38547618Y5809143D02*
X38642856Y5809143D01*
X38642856Y5809143D02*
X38785713Y5856762D01*
X38785713Y5856762D02*
X38880951Y5952001D01*
X38880951Y5952001D02*
X38928570Y6047239D01*
X38928570Y6047239D02*
X38976189Y6237715D01*
X38976189Y6237715D02*
X38976189Y6380572D01*
X38976189Y6380572D02*
X38928570Y6571048D01*
X38928570Y6571048D02*
X38880951Y6666286D01*
X38880951Y6666286D02*
X38785713Y6761524D01*
X38785713Y6761524D02*
X38642856Y6809143D01*
X38642856Y6809143D02*
X38547618Y6809143D01*
X38547618Y6809143D02*
X38404761Y6761524D01*
X38404761Y6761524D02*
X38357142Y6713905D01*
X37976189Y6094858D02*
X37499999Y6094858D01*
X38071427Y5809143D02*
X37738094Y6809143D01*
X37738094Y6809143D02*
X37404761Y5809143D01*
X36738094Y6332953D02*
X36595237Y6285334D01*
X36595237Y6285334D02*
X36547618Y6237715D01*
X36547618Y6237715D02*
X36499999Y6142477D01*
X36499999Y6142477D02*
X36499999Y5999620D01*
X36499999Y5999620D02*
X36547618Y5904382D01*
X36547618Y5904382D02*
X36595237Y5856762D01*
X36595237Y5856762D02*
X36690475Y5809143D01*
X36690475Y5809143D02*
X37071427Y5809143D01*
X37071427Y5809143D02*
X37071427Y6809143D01*
X37071427Y6809143D02*
X36738094Y6809143D01*
X36738094Y6809143D02*
X36642856Y6761524D01*
X36642856Y6761524D02*
X36595237Y6713905D01*
X36595237Y6713905D02*
X36547618Y6618667D01*
X36547618Y6618667D02*
X36547618Y6523429D01*
X36547618Y6523429D02*
X36595237Y6428191D01*
X36595237Y6428191D02*
X36642856Y6380572D01*
X36642856Y6380572D02*
X36738094Y6332953D01*
X36738094Y6332953D02*
X37071427Y6332953D01*
X35595237Y5809143D02*
X36071427Y5809143D01*
X36071427Y5809143D02*
X36071427Y6809143D01*
X35261903Y6332953D02*
X34928570Y6332953D01*
X34785713Y5809143D02*
X35261903Y5809143D01*
X35261903Y5809143D02*
X35261903Y6809143D01*
X35261903Y6809143D02*
X34785713Y6809143D01*
X33595236Y5809143D02*
X33595236Y6809143D01*
X33595236Y6809143D02*
X33214284Y6809143D01*
X33214284Y6809143D02*
X33119046Y6761524D01*
X33119046Y6761524D02*
X33071427Y6713905D01*
X33071427Y6713905D02*
X33023808Y6618667D01*
X33023808Y6618667D02*
X33023808Y6475810D01*
X33023808Y6475810D02*
X33071427Y6380572D01*
X33071427Y6380572D02*
X33119046Y6332953D01*
X33119046Y6332953D02*
X33214284Y6285334D01*
X33214284Y6285334D02*
X33595236Y6285334D01*
X32023808Y5809143D02*
X32357141Y6285334D01*
X32595236Y5809143D02*
X32595236Y6809143D01*
X32595236Y6809143D02*
X32214284Y6809143D01*
X32214284Y6809143D02*
X32119046Y6761524D01*
X32119046Y6761524D02*
X32071427Y6713905D01*
X32071427Y6713905D02*
X32023808Y6618667D01*
X32023808Y6618667D02*
X32023808Y6475810D01*
X32023808Y6475810D02*
X32071427Y6380572D01*
X32071427Y6380572D02*
X32119046Y6332953D01*
X32119046Y6332953D02*
X32214284Y6285334D01*
X32214284Y6285334D02*
X32595236Y6285334D01*
X31404760Y6809143D02*
X31214284Y6809143D01*
X31214284Y6809143D02*
X31119046Y6761524D01*
X31119046Y6761524D02*
X31023808Y6666286D01*
X31023808Y6666286D02*
X30976189Y6475810D01*
X30976189Y6475810D02*
X30976189Y6142477D01*
X30976189Y6142477D02*
X31023808Y5952001D01*
X31023808Y5952001D02*
X31119046Y5856762D01*
X31119046Y5856762D02*
X31214284Y5809143D01*
X31214284Y5809143D02*
X31404760Y5809143D01*
X31404760Y5809143D02*
X31499998Y5856762D01*
X31499998Y5856762D02*
X31595236Y5952001D01*
X31595236Y5952001D02*
X31642855Y6142477D01*
X31642855Y6142477D02*
X31642855Y6475810D01*
X31642855Y6475810D02*
X31595236Y6666286D01*
X31595236Y6666286D02*
X31499998Y6761524D01*
X31499998Y6761524D02*
X31404760Y6809143D01*
X30690474Y6809143D02*
X30119046Y6809143D01*
X30404760Y5809143D02*
X30404760Y6809143D01*
X29785712Y6332953D02*
X29452379Y6332953D01*
X29309522Y5809143D02*
X29785712Y5809143D01*
X29785712Y5809143D02*
X29785712Y6809143D01*
X29785712Y6809143D02*
X29309522Y6809143D01*
X28309522Y5904382D02*
X28357141Y5856762D01*
X28357141Y5856762D02*
X28499998Y5809143D01*
X28499998Y5809143D02*
X28595236Y5809143D01*
X28595236Y5809143D02*
X28738093Y5856762D01*
X28738093Y5856762D02*
X28833331Y5952001D01*
X28833331Y5952001D02*
X28880950Y6047239D01*
X28880950Y6047239D02*
X28928569Y6237715D01*
X28928569Y6237715D02*
X28928569Y6380572D01*
X28928569Y6380572D02*
X28880950Y6571048D01*
X28880950Y6571048D02*
X28833331Y6666286D01*
X28833331Y6666286D02*
X28738093Y6761524D01*
X28738093Y6761524D02*
X28595236Y6809143D01*
X28595236Y6809143D02*
X28499998Y6809143D01*
X28499998Y6809143D02*
X28357141Y6761524D01*
X28357141Y6761524D02*
X28309522Y6713905D01*
X28023807Y6809143D02*
X27452379Y6809143D01*
X27738093Y5809143D02*
X27738093Y6809143D01*
X27119045Y5809143D02*
X27119045Y6809143D01*
X26452379Y6809143D02*
X26261903Y6809143D01*
X26261903Y6809143D02*
X26166665Y6761524D01*
X26166665Y6761524D02*
X26071427Y6666286D01*
X26071427Y6666286D02*
X26023808Y6475810D01*
X26023808Y6475810D02*
X26023808Y6142477D01*
X26023808Y6142477D02*
X26071427Y5952001D01*
X26071427Y5952001D02*
X26166665Y5856762D01*
X26166665Y5856762D02*
X26261903Y5809143D01*
X26261903Y5809143D02*
X26452379Y5809143D01*
X26452379Y5809143D02*
X26547617Y5856762D01*
X26547617Y5856762D02*
X26642855Y5952001D01*
X26642855Y5952001D02*
X26690474Y6142477D01*
X26690474Y6142477D02*
X26690474Y6475810D01*
X26690474Y6475810D02*
X26642855Y6666286D01*
X26642855Y6666286D02*
X26547617Y6761524D01*
X26547617Y6761524D02*
X26452379Y6809143D01*
X25595236Y5809143D02*
X25595236Y6809143D01*
X25595236Y6809143D02*
X25023808Y5809143D01*
X25023808Y5809143D02*
X25023808Y6809143D01*
X23214284Y5809143D02*
X23547617Y6285334D01*
X23785712Y5809143D02*
X23785712Y6809143D01*
X23785712Y6809143D02*
X23404760Y6809143D01*
X23404760Y6809143D02*
X23309522Y6761524D01*
X23309522Y6761524D02*
X23261903Y6713905D01*
X23261903Y6713905D02*
X23214284Y6618667D01*
X23214284Y6618667D02*
X23214284Y6475810D01*
X23214284Y6475810D02*
X23261903Y6380572D01*
X23261903Y6380572D02*
X23309522Y6332953D01*
X23309522Y6332953D02*
X23404760Y6285334D01*
X23404760Y6285334D02*
X23785712Y6285334D01*
X22785712Y6332953D02*
X22452379Y6332953D01*
X22309522Y5809143D02*
X22785712Y5809143D01*
X22785712Y5809143D02*
X22785712Y6809143D01*
X22785712Y6809143D02*
X22309522Y6809143D01*
X21214284Y5713905D02*
X21309522Y5761524D01*
X21309522Y5761524D02*
X21404760Y5856762D01*
X21404760Y5856762D02*
X21547617Y5999620D01*
X21547617Y5999620D02*
X21642855Y6047239D01*
X21642855Y6047239D02*
X21738093Y6047239D01*
X21690474Y5809143D02*
X21785712Y5856762D01*
X21785712Y5856762D02*
X21880950Y5952001D01*
X21880950Y5952001D02*
X21928569Y6142477D01*
X21928569Y6142477D02*
X21928569Y6475810D01*
X21928569Y6475810D02*
X21880950Y6666286D01*
X21880950Y6666286D02*
X21785712Y6761524D01*
X21785712Y6761524D02*
X21690474Y6809143D01*
X21690474Y6809143D02*
X21499998Y6809143D01*
X21499998Y6809143D02*
X21404760Y6761524D01*
X21404760Y6761524D02*
X21309522Y6666286D01*
X21309522Y6666286D02*
X21261903Y6475810D01*
X21261903Y6475810D02*
X21261903Y6142477D01*
X21261903Y6142477D02*
X21309522Y5952001D01*
X21309522Y5952001D02*
X21404760Y5856762D01*
X21404760Y5856762D02*
X21499998Y5809143D01*
X21499998Y5809143D02*
X21690474Y5809143D01*
X20833331Y6809143D02*
X20833331Y5999620D01*
X20833331Y5999620D02*
X20785712Y5904382D01*
X20785712Y5904382D02*
X20738093Y5856762D01*
X20738093Y5856762D02*
X20642855Y5809143D01*
X20642855Y5809143D02*
X20452379Y5809143D01*
X20452379Y5809143D02*
X20357141Y5856762D01*
X20357141Y5856762D02*
X20309522Y5904382D01*
X20309522Y5904382D02*
X20261903Y5999620D01*
X20261903Y5999620D02*
X20261903Y6809143D01*
X19785712Y5809143D02*
X19785712Y6809143D01*
X18738094Y5809143D02*
X19071427Y6285334D01*
X19309522Y5809143D02*
X19309522Y6809143D01*
X19309522Y6809143D02*
X18928570Y6809143D01*
X18928570Y6809143D02*
X18833332Y6761524D01*
X18833332Y6761524D02*
X18785713Y6713905D01*
X18785713Y6713905D02*
X18738094Y6618667D01*
X18738094Y6618667D02*
X18738094Y6475810D01*
X18738094Y6475810D02*
X18785713Y6380572D01*
X18785713Y6380572D02*
X18833332Y6332953D01*
X18833332Y6332953D02*
X18928570Y6285334D01*
X18928570Y6285334D02*
X19309522Y6285334D01*
X18309522Y6332953D02*
X17976189Y6332953D01*
X17833332Y5809143D02*
X18309522Y5809143D01*
X18309522Y5809143D02*
X18309522Y6809143D01*
X18309522Y6809143D02*
X17833332Y6809143D01*
X17404760Y5809143D02*
X17404760Y6809143D01*
X17404760Y6809143D02*
X17166665Y6809143D01*
X17166665Y6809143D02*
X17023808Y6761524D01*
X17023808Y6761524D02*
X16928570Y6666286D01*
X16928570Y6666286D02*
X16880951Y6571048D01*
X16880951Y6571048D02*
X16833332Y6380572D01*
X16833332Y6380572D02*
X16833332Y6237715D01*
X16833332Y6237715D02*
X16880951Y6047239D01*
X16880951Y6047239D02*
X16928570Y5952001D01*
X16928570Y5952001D02*
X17023808Y5856762D01*
X17023808Y5856762D02*
X17166665Y5809143D01*
X17166665Y5809143D02*
X17404760Y5809143D01*
X48614285Y94762882D02*
X48614285Y95862882D01*
X48614285Y95862882D02*
X48352380Y95862882D01*
X48352380Y95862882D02*
X48195237Y95810501D01*
X48195237Y95810501D02*
X48090475Y95705739D01*
X48090475Y95705739D02*
X48038094Y95600977D01*
X48038094Y95600977D02*
X47985713Y95391453D01*
X47985713Y95391453D02*
X47985713Y95234310D01*
X47985713Y95234310D02*
X48038094Y95024786D01*
X48038094Y95024786D02*
X48090475Y94920024D01*
X48090475Y94920024D02*
X48195237Y94815262D01*
X48195237Y94815262D02*
X48352380Y94762882D01*
X48352380Y94762882D02*
X48614285Y94762882D01*
X47042856Y95862882D02*
X47252380Y95862882D01*
X47252380Y95862882D02*
X47357142Y95810501D01*
X47357142Y95810501D02*
X47409523Y95758120D01*
X47409523Y95758120D02*
X47514285Y95600977D01*
X47514285Y95600977D02*
X47566666Y95391453D01*
X47566666Y95391453D02*
X47566666Y94972405D01*
X47566666Y94972405D02*
X47514285Y94867643D01*
X47514285Y94867643D02*
X47461904Y94815262D01*
X47461904Y94815262D02*
X47357142Y94762882D01*
X47357142Y94762882D02*
X47147618Y94762882D01*
X47147618Y94762882D02*
X47042856Y94815262D01*
X47042856Y94815262D02*
X46990475Y94867643D01*
X46990475Y94867643D02*
X46938094Y94972405D01*
X46938094Y94972405D02*
X46938094Y95234310D01*
X46938094Y95234310D02*
X46990475Y95339072D01*
X46990475Y95339072D02*
X47042856Y95391453D01*
X47042856Y95391453D02*
X47147618Y95443834D01*
X47147618Y95443834D02*
X47357142Y95443834D01*
X47357142Y95443834D02*
X47461904Y95391453D01*
X47461904Y95391453D02*
X47514285Y95339072D01*
X47514285Y95339072D02*
X47566666Y95234310D01*
X44004761Y95915262D02*
X44947619Y94500977D01*
X41490476Y95496215D02*
X41490476Y94762882D01*
X41752381Y95915262D02*
X42014286Y95129548D01*
X42014286Y95129548D02*
X41333333Y95129548D01*
X40704762Y95862882D02*
X40600000Y95862882D01*
X40600000Y95862882D02*
X40495238Y95810501D01*
X40495238Y95810501D02*
X40442857Y95758120D01*
X40442857Y95758120D02*
X40390476Y95653358D01*
X40390476Y95653358D02*
X40338095Y95443834D01*
X40338095Y95443834D02*
X40338095Y95181929D01*
X40338095Y95181929D02*
X40390476Y94972405D01*
X40390476Y94972405D02*
X40442857Y94867643D01*
X40442857Y94867643D02*
X40495238Y94815262D01*
X40495238Y94815262D02*
X40600000Y94762882D01*
X40600000Y94762882D02*
X40704762Y94762882D01*
X40704762Y94762882D02*
X40809524Y94815262D01*
X40809524Y94815262D02*
X40861905Y94867643D01*
X40861905Y94867643D02*
X40914286Y94972405D01*
X40914286Y94972405D02*
X40966667Y95181929D01*
X40966667Y95181929D02*
X40966667Y95443834D01*
X40966667Y95443834D02*
X40914286Y95653358D01*
X40914286Y95653358D02*
X40861905Y95758120D01*
X40861905Y95758120D02*
X40809524Y95810501D01*
X40809524Y95810501D02*
X40704762Y95862882D01*
X39238095Y94867643D02*
X39290476Y94815262D01*
X39290476Y94815262D02*
X39447619Y94762882D01*
X39447619Y94762882D02*
X39552381Y94762882D01*
X39552381Y94762882D02*
X39709524Y94815262D01*
X39709524Y94815262D02*
X39814286Y94920024D01*
X39814286Y94920024D02*
X39866667Y95024786D01*
X39866667Y95024786D02*
X39919048Y95234310D01*
X39919048Y95234310D02*
X39919048Y95391453D01*
X39919048Y95391453D02*
X39866667Y95600977D01*
X39866667Y95600977D02*
X39814286Y95705739D01*
X39814286Y95705739D02*
X39709524Y95810501D01*
X39709524Y95810501D02*
X39552381Y95862882D01*
X39552381Y95862882D02*
X39447619Y95862882D01*
X39447619Y95862882D02*
X39290476Y95810501D01*
X39290476Y95810501D02*
X39238095Y95758120D01*
X37980953Y95077167D02*
X37457143Y95077167D01*
X38085715Y94762882D02*
X37719048Y95862882D01*
X37719048Y95862882D02*
X37352381Y94762882D01*
X36985715Y94762882D02*
X36985715Y95862882D01*
X36985715Y95862882D02*
X36619048Y95077167D01*
X36619048Y95077167D02*
X36252381Y95862882D01*
X36252381Y95862882D02*
X36252381Y94762882D01*
X35361905Y95339072D02*
X35204762Y95286691D01*
X35204762Y95286691D02*
X35152381Y95234310D01*
X35152381Y95234310D02*
X35100000Y95129548D01*
X35100000Y95129548D02*
X35100000Y94972405D01*
X35100000Y94972405D02*
X35152381Y94867643D01*
X35152381Y94867643D02*
X35204762Y94815262D01*
X35204762Y94815262D02*
X35309524Y94762882D01*
X35309524Y94762882D02*
X35728572Y94762882D01*
X35728572Y94762882D02*
X35728572Y95862882D01*
X35728572Y95862882D02*
X35361905Y95862882D01*
X35361905Y95862882D02*
X35257143Y95810501D01*
X35257143Y95810501D02*
X35204762Y95758120D01*
X35204762Y95758120D02*
X35152381Y95653358D01*
X35152381Y95653358D02*
X35152381Y95548596D01*
X35152381Y95548596D02*
X35204762Y95443834D01*
X35204762Y95443834D02*
X35257143Y95391453D01*
X35257143Y95391453D02*
X35361905Y95339072D01*
X35361905Y95339072D02*
X35728572Y95339072D01*
X34628572Y94762882D02*
X34628572Y95862882D01*
X34104762Y95339072D02*
X33738095Y95339072D01*
X33580952Y94762882D02*
X34104762Y94762882D01*
X34104762Y94762882D02*
X34104762Y95862882D01*
X34104762Y95862882D02*
X33580952Y95862882D01*
X33109524Y94762882D02*
X33109524Y95862882D01*
X33109524Y95862882D02*
X32480952Y94762882D01*
X32480952Y94762882D02*
X32480952Y95862882D01*
X32114286Y95862882D02*
X31485714Y95862882D01*
X31800000Y94762882D02*
X31800000Y95862882D01*
X30280953Y94762882D02*
X30280953Y95862882D01*
X30280953Y95862882D02*
X30019048Y95862882D01*
X30019048Y95862882D02*
X29861905Y95810501D01*
X29861905Y95810501D02*
X29757143Y95705739D01*
X29757143Y95705739D02*
X29704762Y95600977D01*
X29704762Y95600977D02*
X29652381Y95391453D01*
X29652381Y95391453D02*
X29652381Y95234310D01*
X29652381Y95234310D02*
X29704762Y95024786D01*
X29704762Y95024786D02*
X29757143Y94920024D01*
X29757143Y94920024D02*
X29861905Y94815262D01*
X29861905Y94815262D02*
X30019048Y94762882D01*
X30019048Y94762882D02*
X30280953Y94762882D01*
X29180953Y95339072D02*
X28814286Y95339072D01*
X28657143Y94762882D02*
X29180953Y94762882D01*
X29180953Y94762882D02*
X29180953Y95862882D01*
X29180953Y95862882D02*
X28657143Y95862882D01*
X28238096Y94815262D02*
X28080953Y94762882D01*
X28080953Y94762882D02*
X27819048Y94762882D01*
X27819048Y94762882D02*
X27714286Y94815262D01*
X27714286Y94815262D02*
X27661905Y94867643D01*
X27661905Y94867643D02*
X27609524Y94972405D01*
X27609524Y94972405D02*
X27609524Y95077167D01*
X27609524Y95077167D02*
X27661905Y95181929D01*
X27661905Y95181929D02*
X27714286Y95234310D01*
X27714286Y95234310D02*
X27819048Y95286691D01*
X27819048Y95286691D02*
X28028572Y95339072D01*
X28028572Y95339072D02*
X28133334Y95391453D01*
X28133334Y95391453D02*
X28185715Y95443834D01*
X28185715Y95443834D02*
X28238096Y95548596D01*
X28238096Y95548596D02*
X28238096Y95653358D01*
X28238096Y95653358D02*
X28185715Y95758120D01*
X28185715Y95758120D02*
X28133334Y95810501D01*
X28133334Y95810501D02*
X28028572Y95862882D01*
X28028572Y95862882D02*
X27766667Y95862882D01*
X27766667Y95862882D02*
X27609524Y95810501D01*
X27138096Y94762882D02*
X27138096Y95862882D01*
X26038095Y95810501D02*
X26142857Y95862882D01*
X26142857Y95862882D02*
X26300000Y95862882D01*
X26300000Y95862882D02*
X26457143Y95810501D01*
X26457143Y95810501D02*
X26561905Y95705739D01*
X26561905Y95705739D02*
X26614286Y95600977D01*
X26614286Y95600977D02*
X26666667Y95391453D01*
X26666667Y95391453D02*
X26666667Y95234310D01*
X26666667Y95234310D02*
X26614286Y95024786D01*
X26614286Y95024786D02*
X26561905Y94920024D01*
X26561905Y94920024D02*
X26457143Y94815262D01*
X26457143Y94815262D02*
X26300000Y94762882D01*
X26300000Y94762882D02*
X26195238Y94762882D01*
X26195238Y94762882D02*
X26038095Y94815262D01*
X26038095Y94815262D02*
X25985714Y94867643D01*
X25985714Y94867643D02*
X25985714Y95234310D01*
X25985714Y95234310D02*
X26195238Y95234310D01*
X25514286Y94762882D02*
X25514286Y95862882D01*
X25514286Y95862882D02*
X24885714Y94762882D01*
X24885714Y94762882D02*
X24885714Y95862882D01*
X23157143Y95339072D02*
X23000000Y95286691D01*
X23000000Y95286691D02*
X22947619Y95234310D01*
X22947619Y95234310D02*
X22895238Y95129548D01*
X22895238Y95129548D02*
X22895238Y94972405D01*
X22895238Y94972405D02*
X22947619Y94867643D01*
X22947619Y94867643D02*
X23000000Y94815262D01*
X23000000Y94815262D02*
X23104762Y94762882D01*
X23104762Y94762882D02*
X23523810Y94762882D01*
X23523810Y94762882D02*
X23523810Y95862882D01*
X23523810Y95862882D02*
X23157143Y95862882D01*
X23157143Y95862882D02*
X23052381Y95810501D01*
X23052381Y95810501D02*
X23000000Y95758120D01*
X23000000Y95758120D02*
X22947619Y95653358D01*
X22947619Y95653358D02*
X22947619Y95548596D01*
X22947619Y95548596D02*
X23000000Y95443834D01*
X23000000Y95443834D02*
X23052381Y95391453D01*
X23052381Y95391453D02*
X23157143Y95339072D01*
X23157143Y95339072D02*
X23523810Y95339072D01*
X22476191Y95077167D02*
X21952381Y95077167D01*
X22580953Y94762882D02*
X22214286Y95862882D01*
X22214286Y95862882D02*
X21847619Y94762882D01*
X21533334Y94815262D02*
X21376191Y94762882D01*
X21376191Y94762882D02*
X21114286Y94762882D01*
X21114286Y94762882D02*
X21009524Y94815262D01*
X21009524Y94815262D02*
X20957143Y94867643D01*
X20957143Y94867643D02*
X20904762Y94972405D01*
X20904762Y94972405D02*
X20904762Y95077167D01*
X20904762Y95077167D02*
X20957143Y95181929D01*
X20957143Y95181929D02*
X21009524Y95234310D01*
X21009524Y95234310D02*
X21114286Y95286691D01*
X21114286Y95286691D02*
X21323810Y95339072D01*
X21323810Y95339072D02*
X21428572Y95391453D01*
X21428572Y95391453D02*
X21480953Y95443834D01*
X21480953Y95443834D02*
X21533334Y95548596D01*
X21533334Y95548596D02*
X21533334Y95653358D01*
X21533334Y95653358D02*
X21480953Y95758120D01*
X21480953Y95758120D02*
X21428572Y95810501D01*
X21428572Y95810501D02*
X21323810Y95862882D01*
X21323810Y95862882D02*
X21061905Y95862882D01*
X21061905Y95862882D02*
X20904762Y95810501D01*
X20433334Y94762882D02*
X20433334Y95862882D01*
X19961905Y94815262D02*
X19804762Y94762882D01*
X19804762Y94762882D02*
X19542857Y94762882D01*
X19542857Y94762882D02*
X19438095Y94815262D01*
X19438095Y94815262D02*
X19385714Y94867643D01*
X19385714Y94867643D02*
X19333333Y94972405D01*
X19333333Y94972405D02*
X19333333Y95077167D01*
X19333333Y95077167D02*
X19385714Y95181929D01*
X19385714Y95181929D02*
X19438095Y95234310D01*
X19438095Y95234310D02*
X19542857Y95286691D01*
X19542857Y95286691D02*
X19752381Y95339072D01*
X19752381Y95339072D02*
X19857143Y95391453D01*
X19857143Y95391453D02*
X19909524Y95443834D01*
X19909524Y95443834D02*
X19961905Y95548596D01*
X19961905Y95548596D02*
X19961905Y95653358D01*
X19961905Y95653358D02*
X19909524Y95758120D01*
X19909524Y95758120D02*
X19857143Y95810501D01*
X19857143Y95810501D02*
X19752381Y95862882D01*
X19752381Y95862882D02*
X19490476Y95862882D01*
X19490476Y95862882D02*
X19333333Y95810501D01*
X46204761Y80862882D02*
X45942856Y79762882D01*
X45942856Y79762882D02*
X45733332Y80548596D01*
X45733332Y80548596D02*
X45523808Y79762882D01*
X45523808Y79762882D02*
X45261904Y80862882D01*
X44633332Y80862882D02*
X44423808Y80862882D01*
X44423808Y80862882D02*
X44319046Y80810501D01*
X44319046Y80810501D02*
X44214284Y80705739D01*
X44214284Y80705739D02*
X44161903Y80496215D01*
X44161903Y80496215D02*
X44161903Y80129548D01*
X44161903Y80129548D02*
X44214284Y79920024D01*
X44214284Y79920024D02*
X44319046Y79815262D01*
X44319046Y79815262D02*
X44423808Y79762882D01*
X44423808Y79762882D02*
X44633332Y79762882D01*
X44633332Y79762882D02*
X44738094Y79815262D01*
X44738094Y79815262D02*
X44842856Y79920024D01*
X44842856Y79920024D02*
X44895237Y80129548D01*
X44895237Y80129548D02*
X44895237Y80496215D01*
X44895237Y80496215D02*
X44842856Y80705739D01*
X44842856Y80705739D02*
X44738094Y80810501D01*
X44738094Y80810501D02*
X44633332Y80862882D01*
X43061903Y79762882D02*
X43428570Y80286691D01*
X43690475Y79762882D02*
X43690475Y80862882D01*
X43690475Y80862882D02*
X43271427Y80862882D01*
X43271427Y80862882D02*
X43166665Y80810501D01*
X43166665Y80810501D02*
X43114284Y80758120D01*
X43114284Y80758120D02*
X43061903Y80653358D01*
X43061903Y80653358D02*
X43061903Y80496215D01*
X43061903Y80496215D02*
X43114284Y80391453D01*
X43114284Y80391453D02*
X43166665Y80339072D01*
X43166665Y80339072D02*
X43271427Y80286691D01*
X43271427Y80286691D02*
X43690475Y80286691D01*
X42642856Y79815262D02*
X42485713Y79762882D01*
X42485713Y79762882D02*
X42223808Y79762882D01*
X42223808Y79762882D02*
X42119046Y79815262D01*
X42119046Y79815262D02*
X42066665Y79867643D01*
X42066665Y79867643D02*
X42014284Y79972405D01*
X42014284Y79972405D02*
X42014284Y80077167D01*
X42014284Y80077167D02*
X42066665Y80181929D01*
X42066665Y80181929D02*
X42119046Y80234310D01*
X42119046Y80234310D02*
X42223808Y80286691D01*
X42223808Y80286691D02*
X42433332Y80339072D01*
X42433332Y80339072D02*
X42538094Y80391453D01*
X42538094Y80391453D02*
X42590475Y80443834D01*
X42590475Y80443834D02*
X42642856Y80548596D01*
X42642856Y80548596D02*
X42642856Y80653358D01*
X42642856Y80653358D02*
X42590475Y80758120D01*
X42590475Y80758120D02*
X42538094Y80810501D01*
X42538094Y80810501D02*
X42433332Y80862882D01*
X42433332Y80862882D02*
X42171427Y80862882D01*
X42171427Y80862882D02*
X42014284Y80810501D01*
X41699999Y80862882D02*
X41071427Y80862882D01*
X41385713Y79762882D02*
X41385713Y80862882D01*
X39238094Y79867643D02*
X39290475Y79815262D01*
X39290475Y79815262D02*
X39447618Y79762882D01*
X39447618Y79762882D02*
X39552380Y79762882D01*
X39552380Y79762882D02*
X39709523Y79815262D01*
X39709523Y79815262D02*
X39814285Y79920024D01*
X39814285Y79920024D02*
X39866666Y80024786D01*
X39866666Y80024786D02*
X39919047Y80234310D01*
X39919047Y80234310D02*
X39919047Y80391453D01*
X39919047Y80391453D02*
X39866666Y80600977D01*
X39866666Y80600977D02*
X39814285Y80705739D01*
X39814285Y80705739D02*
X39709523Y80810501D01*
X39709523Y80810501D02*
X39552380Y80862882D01*
X39552380Y80862882D02*
X39447618Y80862882D01*
X39447618Y80862882D02*
X39290475Y80810501D01*
X39290475Y80810501D02*
X39238094Y80758120D01*
X38557142Y80862882D02*
X38347618Y80862882D01*
X38347618Y80862882D02*
X38242856Y80810501D01*
X38242856Y80810501D02*
X38138094Y80705739D01*
X38138094Y80705739D02*
X38085713Y80496215D01*
X38085713Y80496215D02*
X38085713Y80129548D01*
X38085713Y80129548D02*
X38138094Y79920024D01*
X38138094Y79920024D02*
X38242856Y79815262D01*
X38242856Y79815262D02*
X38347618Y79762882D01*
X38347618Y79762882D02*
X38557142Y79762882D01*
X38557142Y79762882D02*
X38661904Y79815262D01*
X38661904Y79815262D02*
X38766666Y79920024D01*
X38766666Y79920024D02*
X38819047Y80129548D01*
X38819047Y80129548D02*
X38819047Y80496215D01*
X38819047Y80496215D02*
X38766666Y80705739D01*
X38766666Y80705739D02*
X38661904Y80810501D01*
X38661904Y80810501D02*
X38557142Y80862882D01*
X37614285Y79762882D02*
X37614285Y80862882D01*
X37614285Y80862882D02*
X36985713Y79762882D01*
X36985713Y79762882D02*
X36985713Y80862882D01*
X36095237Y80339072D02*
X36461904Y80339072D01*
X36461904Y79762882D02*
X36461904Y80862882D01*
X36461904Y80862882D02*
X35938094Y80862882D01*
X35519047Y79762882D02*
X35519047Y80862882D01*
X34419046Y80810501D02*
X34523808Y80862882D01*
X34523808Y80862882D02*
X34680951Y80862882D01*
X34680951Y80862882D02*
X34838094Y80810501D01*
X34838094Y80810501D02*
X34942856Y80705739D01*
X34942856Y80705739D02*
X34995237Y80600977D01*
X34995237Y80600977D02*
X35047618Y80391453D01*
X35047618Y80391453D02*
X35047618Y80234310D01*
X35047618Y80234310D02*
X34995237Y80024786D01*
X34995237Y80024786D02*
X34942856Y79920024D01*
X34942856Y79920024D02*
X34838094Y79815262D01*
X34838094Y79815262D02*
X34680951Y79762882D01*
X34680951Y79762882D02*
X34576189Y79762882D01*
X34576189Y79762882D02*
X34419046Y79815262D01*
X34419046Y79815262D02*
X34366665Y79867643D01*
X34366665Y79867643D02*
X34366665Y80234310D01*
X34366665Y80234310D02*
X34576189Y80234310D01*
X33214285Y80181929D02*
X33161904Y80234310D01*
X33161904Y80234310D02*
X33057142Y80286691D01*
X33057142Y80286691D02*
X32847618Y80181929D01*
X32847618Y80181929D02*
X32742856Y80234310D01*
X32742856Y80234310D02*
X32690475Y80286691D01*
X31695237Y79762882D02*
X32323809Y79762882D01*
X32009523Y79762882D02*
X32009523Y80862882D01*
X32009523Y80862882D02*
X32114285Y80705739D01*
X32114285Y80705739D02*
X32219047Y80600977D01*
X32219047Y80600977D02*
X32323809Y80548596D01*
X31328571Y80862882D02*
X30595237Y80862882D01*
X30595237Y80862882D02*
X31066666Y79762882D01*
X29704761Y80496215D02*
X29704761Y79762882D01*
X29966666Y80915262D02*
X30228571Y80129548D01*
X30228571Y80129548D02*
X29547618Y80129548D01*
X29233333Y80862882D02*
X28971428Y79762882D01*
X28971428Y79762882D02*
X28761904Y80548596D01*
X28761904Y80548596D02*
X28552380Y79762882D01*
X28552380Y79762882D02*
X28290476Y80862882D01*
X27085714Y80077167D02*
X26561904Y80077167D01*
X27190476Y79762882D02*
X26823809Y80862882D01*
X26823809Y80862882D02*
X26457142Y79762882D01*
X26247619Y80862882D02*
X25619047Y80862882D01*
X25933333Y79762882D02*
X25933333Y80862882D01*
X23838095Y79762882D02*
X24466667Y79762882D01*
X24152381Y79762882D02*
X24152381Y80862882D01*
X24152381Y80862882D02*
X24257143Y80705739D01*
X24257143Y80705739D02*
X24361905Y80600977D01*
X24361905Y80600977D02*
X24466667Y80548596D01*
X23419048Y80758120D02*
X23366667Y80810501D01*
X23366667Y80810501D02*
X23261905Y80862882D01*
X23261905Y80862882D02*
X23000000Y80862882D01*
X23000000Y80862882D02*
X22895238Y80810501D01*
X22895238Y80810501D02*
X22842857Y80758120D01*
X22842857Y80758120D02*
X22790476Y80653358D01*
X22790476Y80653358D02*
X22790476Y80548596D01*
X22790476Y80548596D02*
X22842857Y80391453D01*
X22842857Y80391453D02*
X23471429Y79762882D01*
X23471429Y79762882D02*
X22790476Y79762882D01*
X22476191Y80862882D02*
X22109524Y79762882D01*
X22109524Y79762882D02*
X21742857Y80862882D01*
M02*
