%TF.GenerationSoftware,KiCad,Pcbnew,10.0.6*%
%TF.CreationDate,2026-09-26T14:49:10+01:00*%
%TF.ProjectId,MAIN_POWER,4d41494e-5f50-44f5-9745-522e6b696361,rev?*%
%TF.SameCoordinates,Original*%
%TF.FileFunction,Copper,L2,Inr*%
%TF.FilePolarity,Positive*%
%FSLAX46Y46*%
G04 Gerber Fmt 4.6, Leading zero omitted, Abs format (unit mm)*
G04 Created by KiCad (PCBNEW 10.0.6) date 2026-09-26 14:49:10*
%MOMM*%
%LPD*%
G01*
G04 APERTURE LIST*
G04 Aperture macros list*
%AMRoundRect*
0 Rectangle with rounded corners*
0 $1 Rounding radius*
0 $2 $3 $4 $5 $6 $7 $8 $9 X,Y pos of 4 corners*
0 Add a 4 corners polygon primitive as box body*
4,1,4,$2,$3,$4,$5,$6,$7,$8,$9,$2,$3,0*
0 Add four circle primitives for the rounded corners*
1,1,$1+$1,$2,$3*
1,1,$1+$1,$4,$5*
1,1,$1+$1,$6,$7*
1,1,$1+$1,$8,$9*
0 Add four rect primitives between the rounded corners*
20,1,$1+$1,$2,$3,$4,$5,0*
20,1,$1+$1,$4,$5,$6,$7,0*
20,1,$1+$1,$6,$7,$8,$9,0*
20,1,$1+$1,$8,$9,$2,$3,0*%
G04 Aperture macros list end*
%TA.AperFunction,ComponentPad*%
%ADD10C,2.200000*%
%TD*%
%TA.AperFunction,ComponentPad*%
%ADD11R,3.200000X3.200000*%
%TD*%
%TA.AperFunction,ComponentPad*%
%ADD12C,3.200000*%
%TD*%
%TA.AperFunction,ComponentPad*%
%ADD13RoundRect,0.250001X-1.099999X-1.099999X1.099999X-1.099999X1.099999X1.099999X-1.099999X1.099999X0*%
%TD*%
%TA.AperFunction,ComponentPad*%
%ADD14C,2.700000*%
%TD*%
G04 APERTURE END LIST*
D10*
%TO.N,12V_IN*%
%TO.C,F4*%
X40000000Y43263962D03*
X40000000Y40763962D03*
X43500000Y43263962D03*
X43500000Y40763962D03*
%TO.N,USB_12V*%
X49300000Y43263962D03*
X49300000Y40763962D03*
X52800000Y43263962D03*
X52800000Y40763962D03*
%TD*%
D11*
%TO.N,12V_IN*%
%TO.C,J1*%
X26820000Y87303962D03*
X30820000Y87303962D03*
D12*
%TO.N,GND*%
X36980000Y77143962D03*
X40980000Y77143962D03*
%TD*%
D13*
%TO.N,FAN_12V*%
%TO.C,J4*%
X11000000Y33263962D03*
D14*
%TO.N,GND*%
X14960000Y33263962D03*
%TD*%
D13*
%TO.N,SG4A_12V*%
%TO.C,J3*%
X44000000Y54263962D03*
D14*
%TO.N,GND*%
X47960000Y54263962D03*
%TD*%
D13*
%TO.N,JETSON_12V*%
%TO.C,J2*%
X11000000Y54263962D03*
D14*
%TO.N,GND*%
X14960000Y54263962D03*
%TD*%
D10*
%TO.N,12V_IN*%
%TO.C,F2*%
X40000000Y64263962D03*
X40000000Y61763962D03*
X43500000Y64263962D03*
X43500000Y61763962D03*
%TO.N,SG4A_12V*%
X49300000Y64263962D03*
X49300000Y61763962D03*
X52800000Y64263962D03*
X52800000Y61763962D03*
%TD*%
%TO.N,12V_IN*%
%TO.C,F3*%
X7000000Y43263962D03*
X7000000Y40763962D03*
X10500000Y43263962D03*
X10500000Y40763962D03*
%TO.N,FAN_12V*%
X16300000Y43263962D03*
X16300000Y40763962D03*
X19800000Y43263962D03*
X19800000Y40763962D03*
%TD*%
%TO.N,12V_IN*%
%TO.C,F5*%
X27600000Y22263962D03*
X27600000Y19763962D03*
X31100000Y22263962D03*
X31100000Y19763962D03*
%TO.N,FUSED_BOOST_12V*%
X36900000Y22263962D03*
X36900000Y19763962D03*
X40400000Y22263962D03*
X40400000Y19763962D03*
%TD*%
%TO.N,12V_IN*%
%TO.C,F1*%
X7000000Y64263962D03*
X7000000Y61763962D03*
X10500000Y64263962D03*
X10500000Y61763962D03*
%TO.N,JETSON_12V*%
X16300000Y64263962D03*
X16300000Y61763962D03*
X19800000Y64263962D03*
X19800000Y61763962D03*
%TD*%
D13*
%TO.N,USB_12V*%
%TO.C,J5*%
X44000000Y33263962D03*
D14*
%TO.N,GND*%
X47960000Y33263962D03*
%TD*%
D13*
%TO.N,FUSED_BOOST_12V*%
%TO.C,J6*%
X32020000Y12263962D03*
D14*
%TO.N,GND*%
X35980000Y12263962D03*
%TD*%
%TA.AperFunction,Conductor*%
%TO.N,12V_IN*%
G36*
X65003736Y99763236D02*
G01*
X65293796Y99745691D01*
X65308659Y99743886D01*
X65590797Y99692182D01*
X65605334Y99688599D01*
X65879182Y99603264D01*
X65893163Y99597962D01*
X66154734Y99480238D01*
X66167987Y99473282D01*
X66413458Y99324891D01*
X66425776Y99316389D01*
X66651573Y99139488D01*
X66662781Y99129558D01*
X66865595Y98926744D01*
X66875525Y98915536D01*
X67052422Y98689745D01*
X67060928Y98677421D01*
X67209319Y98431950D01*
X67216277Y98418693D01*
X67333994Y98157139D01*
X67339304Y98143137D01*
X67424635Y97869298D01*
X67428219Y97854760D01*
X67479923Y97572622D01*
X67481728Y97557757D01*
X67499274Y97267699D01*
X67499500Y97260212D01*
X67499500Y3003751D01*
X67499274Y2996264D01*
X67481728Y2706206D01*
X67479923Y2691341D01*
X67428219Y2409203D01*
X67424635Y2394665D01*
X67339304Y2120826D01*
X67333994Y2106824D01*
X67216277Y1845270D01*
X67209319Y1832013D01*
X67060928Y1586542D01*
X67052422Y1574218D01*
X66875525Y1348427D01*
X66865595Y1337219D01*
X66662781Y1134405D01*
X66651573Y1124475D01*
X66425782Y947578D01*
X66413458Y939072D01*
X66167987Y790681D01*
X66154730Y783723D01*
X65893176Y666006D01*
X65879174Y660696D01*
X65605335Y575365D01*
X65590797Y571781D01*
X65308659Y520077D01*
X65293794Y518272D01*
X65003736Y500726D01*
X64996249Y500500D01*
X3003751Y500500D01*
X2996264Y500726D01*
X2706205Y518272D01*
X2691340Y520077D01*
X2409202Y571781D01*
X2394664Y575365D01*
X2120825Y660696D01*
X2106827Y666005D01*
X1954096Y734744D01*
X1845269Y783723D01*
X1832012Y790681D01*
X1586541Y939072D01*
X1574217Y947578D01*
X1348426Y1124475D01*
X1337218Y1134405D01*
X1134404Y1337219D01*
X1124474Y1348427D01*
X947573Y1574224D01*
X939071Y1586542D01*
X790680Y1832013D01*
X783722Y1845270D01*
X666000Y2106837D01*
X660698Y2120818D01*
X575363Y2394666D01*
X571780Y2409203D01*
X520076Y2691341D01*
X518271Y2706206D01*
X500726Y2996264D01*
X500500Y3003751D01*
X500500Y8140432D01*
X5499500Y8140432D01*
X5499500Y7859569D01*
X5530942Y7580506D01*
X5530945Y7580488D01*
X5593439Y7306683D01*
X5593443Y7306671D01*
X5686200Y7041589D01*
X5808053Y6788558D01*
X5808055Y6788555D01*
X5957477Y6550752D01*
X6132584Y6331175D01*
X6331175Y6132584D01*
X6550752Y5957477D01*
X6788555Y5808055D01*
X7041592Y5686199D01*
X7240680Y5616535D01*
X7306670Y5593444D01*
X7306682Y5593440D01*
X7580491Y5530945D01*
X7580497Y5530945D01*
X7580505Y5530943D01*
X7766547Y5509982D01*
X7859569Y5499501D01*
X7859572Y5499500D01*
X7859575Y5499500D01*
X8140428Y5499500D01*
X8140429Y5499501D01*
X8283055Y5515571D01*
X8419494Y5530943D01*
X8419499Y5530944D01*
X8419509Y5530945D01*
X8693318Y5593440D01*
X8958408Y5686199D01*
X9211445Y5808055D01*
X9449248Y5957477D01*
X9668825Y6132584D01*
X9867416Y6331175D01*
X10042523Y6550752D01*
X10191945Y6788555D01*
X10313801Y7041592D01*
X10406560Y7306682D01*
X10469055Y7580491D01*
X10500500Y7859575D01*
X10500500Y8140425D01*
X10500499Y8140432D01*
X57499500Y8140432D01*
X57499500Y7859569D01*
X57530942Y7580506D01*
X57530945Y7580488D01*
X57593439Y7306683D01*
X57593443Y7306671D01*
X57686200Y7041589D01*
X57808053Y6788558D01*
X57808055Y6788555D01*
X57957477Y6550752D01*
X58132584Y6331175D01*
X58331175Y6132584D01*
X58550752Y5957477D01*
X58788555Y5808055D01*
X59041592Y5686199D01*
X59240680Y5616535D01*
X59306670Y5593444D01*
X59306682Y5593440D01*
X59580491Y5530945D01*
X59580497Y5530945D01*
X59580505Y5530943D01*
X59766547Y5509982D01*
X59859569Y5499501D01*
X59859572Y5499500D01*
X59859575Y5499500D01*
X60140428Y5499500D01*
X60140429Y5499501D01*
X60283055Y5515571D01*
X60419494Y5530943D01*
X60419499Y5530944D01*
X60419509Y5530945D01*
X60693318Y5593440D01*
X60958408Y5686199D01*
X61211445Y5808055D01*
X61449248Y5957477D01*
X61668825Y6132584D01*
X61867416Y6331175D01*
X62042523Y6550752D01*
X62191945Y6788555D01*
X62313801Y7041592D01*
X62406560Y7306682D01*
X62469055Y7580491D01*
X62500500Y7859575D01*
X62500500Y8140425D01*
X62469055Y8419509D01*
X62406560Y8693318D01*
X62313801Y8958408D01*
X62191945Y9211445D01*
X62042523Y9449248D01*
X61867416Y9668825D01*
X61668825Y9867416D01*
X61449248Y10042523D01*
X61211445Y10191945D01*
X61211442Y10191947D01*
X60958411Y10313800D01*
X60693329Y10406557D01*
X60693317Y10406561D01*
X60419512Y10469055D01*
X60419494Y10469058D01*
X60140431Y10500500D01*
X60140425Y10500500D01*
X59859575Y10500500D01*
X59859568Y10500500D01*
X59580505Y10469058D01*
X59580487Y10469055D01*
X59306682Y10406561D01*
X59306670Y10406557D01*
X59041588Y10313800D01*
X58788557Y10191947D01*
X58550753Y10042524D01*
X58331175Y9867417D01*
X58132583Y9668825D01*
X57957476Y9449247D01*
X57808053Y9211443D01*
X57686200Y8958412D01*
X57593443Y8693330D01*
X57593439Y8693318D01*
X57530945Y8419513D01*
X57530942Y8419495D01*
X57499500Y8140432D01*
X10500499Y8140432D01*
X10469055Y8419509D01*
X10406560Y8693318D01*
X10313801Y8958408D01*
X10191945Y9211445D01*
X10042523Y9449248D01*
X9867416Y9668825D01*
X9668825Y9867416D01*
X9449248Y10042523D01*
X9211445Y10191945D01*
X9211442Y10191947D01*
X8958411Y10313800D01*
X8693329Y10406557D01*
X8693317Y10406561D01*
X8419512Y10469055D01*
X8419494Y10469058D01*
X8140431Y10500500D01*
X8140425Y10500500D01*
X7859575Y10500500D01*
X7859568Y10500500D01*
X7580505Y10469058D01*
X7580487Y10469055D01*
X7306682Y10406561D01*
X7306670Y10406557D01*
X7041588Y10313800D01*
X6788557Y10191947D01*
X6550753Y10042524D01*
X6331175Y9867417D01*
X6132583Y9668825D01*
X5957476Y9449247D01*
X5808053Y9211443D01*
X5686200Y8958412D01*
X5593443Y8693330D01*
X5593439Y8693318D01*
X5530945Y8419513D01*
X5530942Y8419495D01*
X5499500Y8140432D01*
X500500Y8140432D01*
X500500Y13429664D01*
X30269500Y13429664D01*
X30269500Y11098261D01*
X30272401Y11061395D01*
X30272402Y11061389D01*
X30318253Y10903570D01*
X30318255Y10903567D01*
X30401917Y10762101D01*
X30401923Y10762093D01*
X30518130Y10645886D01*
X30518134Y10645883D01*
X30518136Y10645881D01*
X30659603Y10562218D01*
X30659604Y10562218D01*
X30659607Y10562216D01*
X30817426Y10516365D01*
X30817429Y10516365D01*
X30817431Y10516364D01*
X30854306Y10513462D01*
X30854314Y10513462D01*
X33185686Y10513462D01*
X33185694Y10513462D01*
X33222569Y10516364D01*
X33222571Y10516365D01*
X33222573Y10516365D01*
X33380392Y10562216D01*
X33380393Y10562217D01*
X33380397Y10562218D01*
X33521864Y10645881D01*
X33638081Y10762098D01*
X33721744Y10903565D01*
X33721745Y10903569D01*
X33721746Y10903570D01*
X33767597Y11061389D01*
X33767598Y11061395D01*
X33770499Y11098261D01*
X33770500Y11098268D01*
X33770500Y12378704D01*
X34229500Y12378704D01*
X34229500Y12149221D01*
X34254446Y11959747D01*
X34259452Y11921724D01*
X34259453Y11921722D01*
X34318842Y11700075D01*
X34406650Y11488086D01*
X34406657Y11488072D01*
X34521392Y11289345D01*
X34661081Y11107301D01*
X34661089Y11107292D01*
X34823330Y10945051D01*
X34823338Y10945044D01*
X35005382Y10805355D01*
X35005385Y10805354D01*
X35005388Y10805351D01*
X35204112Y10690618D01*
X35204117Y10690616D01*
X35204123Y10690613D01*
X35295480Y10652772D01*
X35416113Y10602804D01*
X35637762Y10543414D01*
X35865266Y10513462D01*
X35865273Y10513462D01*
X36094727Y10513462D01*
X36094734Y10513462D01*
X36322238Y10543414D01*
X36543887Y10602804D01*
X36755888Y10690618D01*
X36954612Y10805351D01*
X37136661Y10945043D01*
X37136665Y10945048D01*
X37136670Y10945051D01*
X37298911Y11107292D01*
X37298914Y11107297D01*
X37298919Y11107301D01*
X37438611Y11289350D01*
X37553344Y11488074D01*
X37641158Y11700075D01*
X37700548Y11921724D01*
X37730500Y12149228D01*
X37730500Y12378696D01*
X37700548Y12606200D01*
X37641158Y12827849D01*
X37553344Y13039850D01*
X37438611Y13238574D01*
X37438608Y13238577D01*
X37438607Y13238580D01*
X37298918Y13420624D01*
X37298911Y13420632D01*
X37136670Y13582873D01*
X37136661Y13582881D01*
X36954617Y13722570D01*
X36755890Y13837305D01*
X36755876Y13837312D01*
X36543887Y13925120D01*
X36322238Y13984510D01*
X36284215Y13989516D01*
X36094741Y14014462D01*
X36094734Y14014462D01*
X35865266Y14014462D01*
X35865258Y14014462D01*
X35648715Y13985953D01*
X35637762Y13984510D01*
X35567584Y13965706D01*
X35416112Y13925120D01*
X35204123Y13837312D01*
X35204109Y13837305D01*
X35005382Y13722570D01*
X34823338Y13582881D01*
X34661081Y13420624D01*
X34521392Y13238580D01*
X34406657Y13039853D01*
X34406650Y13039839D01*
X34318842Y12827850D01*
X34259453Y12606203D01*
X34259451Y12606192D01*
X34229500Y12378704D01*
X33770500Y12378704D01*
X33770500Y13429656D01*
X33767598Y13466531D01*
X33767597Y13466536D01*
X33721746Y13624355D01*
X33721744Y13624358D01*
X33721744Y13624359D01*
X33638081Y13765826D01*
X33638079Y13765828D01*
X33638076Y13765832D01*
X33521869Y13882039D01*
X33521861Y13882045D01*
X33380395Y13965707D01*
X33380392Y13965709D01*
X33222573Y14011560D01*
X33222567Y14011561D01*
X33185701Y14014462D01*
X33185694Y14014462D01*
X30854306Y14014462D01*
X30854298Y14014462D01*
X30817432Y14011561D01*
X30817426Y14011560D01*
X30659607Y13965709D01*
X30659604Y13965707D01*
X30518138Y13882045D01*
X30518130Y13882039D01*
X30401923Y13765832D01*
X30401917Y13765824D01*
X30318255Y13624358D01*
X30318253Y13624355D01*
X30272402Y13466536D01*
X30272401Y13466530D01*
X30269500Y13429664D01*
X500500Y13429664D01*
X500500Y21128125D01*
X32549500Y21128125D01*
X32549500Y20899800D01*
X32585215Y20674302D01*
X32655770Y20457159D01*
X32751650Y20268986D01*
X32759421Y20253734D01*
X32893621Y20069025D01*
X33055063Y19907583D01*
X33239772Y19773383D01*
X33335884Y19724412D01*
X33443196Y19669733D01*
X33443198Y19669733D01*
X33443201Y19669731D01*
X33516653Y19645865D01*
X33660339Y19599178D01*
X33885838Y19563462D01*
X33885843Y19563462D01*
X34114162Y19563462D01*
X34339660Y19599178D01*
X34556799Y19669731D01*
X34760228Y19773383D01*
X34944937Y19907583D01*
X35106379Y20069025D01*
X35216319Y20220344D01*
X35271647Y20263007D01*
X35341260Y20268986D01*
X35403055Y20236380D01*
X35437413Y20175541D01*
X35437214Y20118530D01*
X35436447Y20115337D01*
X35399500Y19882060D01*
X35399500Y19645865D01*
X35436446Y19412594D01*
X35509433Y19187966D01*
X35616657Y18977529D01*
X35755483Y18786452D01*
X35922490Y18619445D01*
X36113567Y18480619D01*
X36212991Y18429960D01*
X36324003Y18373396D01*
X36324005Y18373396D01*
X36324008Y18373394D01*
X36444412Y18334273D01*
X36548631Y18300409D01*
X36781903Y18263462D01*
X36781908Y18263462D01*
X37018097Y18263462D01*
X37251368Y18300409D01*
X37475992Y18373394D01*
X37686433Y18480619D01*
X37877510Y18619445D01*
X38044517Y18786452D01*
X38183343Y18977529D01*
X38290568Y19187970D01*
X38363553Y19412594D01*
X38393105Y19599178D01*
X38400500Y19645865D01*
X38400500Y19882060D01*
X38363553Y20115331D01*
X38290566Y20339959D01*
X38230847Y20457163D01*
X38183343Y20550395D01*
X38044517Y20741472D01*
X37877510Y20908479D01*
X37870401Y20913644D01*
X37827735Y20968974D01*
X37821756Y21038587D01*
X37854362Y21100382D01*
X37870401Y21114280D01*
X37870500Y21114353D01*
X37877510Y21119445D01*
X38044517Y21286452D01*
X38183343Y21477529D01*
X38290568Y21687970D01*
X38363553Y21912594D01*
X38370887Y21958901D01*
X38400500Y22145865D01*
X38400500Y22382060D01*
X38899500Y22382060D01*
X38899500Y22145865D01*
X38936446Y21912594D01*
X39009433Y21687966D01*
X39104887Y21500629D01*
X39116657Y21477529D01*
X39255483Y21286452D01*
X39255485Y21286450D01*
X39422490Y21119445D01*
X39429603Y21114277D01*
X39472266Y21058945D01*
X39478242Y20989332D01*
X39445634Y20927538D01*
X39429603Y20913647D01*
X39422490Y20908480D01*
X39255485Y20741475D01*
X39255485Y20741474D01*
X39255483Y20741472D01*
X39206681Y20674302D01*
X39116657Y20550396D01*
X39009433Y20339959D01*
X38936446Y20115331D01*
X38899500Y19882060D01*
X38899500Y19645865D01*
X38936446Y19412594D01*
X39009433Y19187966D01*
X39116657Y18977529D01*
X39255483Y18786452D01*
X39422490Y18619445D01*
X39613567Y18480619D01*
X39712991Y18429960D01*
X39824003Y18373396D01*
X39824005Y18373396D01*
X39824008Y18373394D01*
X39944412Y18334273D01*
X40048631Y18300409D01*
X40281903Y18263462D01*
X40281908Y18263462D01*
X40518097Y18263462D01*
X40751368Y18300409D01*
X40975992Y18373394D01*
X41186433Y18480619D01*
X41377510Y18619445D01*
X41544517Y18786452D01*
X41683343Y18977529D01*
X41790568Y19187970D01*
X41863553Y19412594D01*
X41893105Y19599178D01*
X41900500Y19645865D01*
X41900500Y19882060D01*
X41863553Y20115331D01*
X41790566Y20339959D01*
X41730847Y20457163D01*
X41683343Y20550395D01*
X41544517Y20741472D01*
X41377510Y20908479D01*
X41370401Y20913644D01*
X41327735Y20968974D01*
X41321756Y21038587D01*
X41354362Y21100382D01*
X41370401Y21114280D01*
X41370500Y21114353D01*
X41377510Y21119445D01*
X41544517Y21286452D01*
X41683343Y21477529D01*
X41790568Y21687970D01*
X41863553Y21912594D01*
X41870887Y21958901D01*
X41900500Y22145865D01*
X41900500Y22382060D01*
X41863553Y22615331D01*
X41790566Y22839959D01*
X41683342Y23050396D01*
X41544517Y23241472D01*
X41377510Y23408479D01*
X41186433Y23547305D01*
X40975996Y23654529D01*
X40751368Y23727516D01*
X40518097Y23764462D01*
X40518092Y23764462D01*
X40281908Y23764462D01*
X40281903Y23764462D01*
X40048631Y23727516D01*
X39824003Y23654529D01*
X39613566Y23547305D01*
X39504550Y23468100D01*
X39422490Y23408479D01*
X39422488Y23408477D01*
X39422487Y23408477D01*
X39255485Y23241475D01*
X39255485Y23241474D01*
X39255483Y23241472D01*
X39195862Y23159412D01*
X39116657Y23050396D01*
X39009433Y22839959D01*
X38936446Y22615331D01*
X38899500Y22382060D01*
X38400500Y22382060D01*
X38363553Y22615331D01*
X38290566Y22839959D01*
X38183342Y23050396D01*
X38044517Y23241472D01*
X37877510Y23408479D01*
X37686433Y23547305D01*
X37475996Y23654529D01*
X37251368Y23727516D01*
X37018097Y23764462D01*
X37018092Y23764462D01*
X36781908Y23764462D01*
X36781903Y23764462D01*
X36548631Y23727516D01*
X36324003Y23654529D01*
X36113566Y23547305D01*
X36004550Y23468100D01*
X35922490Y23408479D01*
X35922488Y23408477D01*
X35922487Y23408477D01*
X35755485Y23241475D01*
X35755485Y23241474D01*
X35755483Y23241472D01*
X35695862Y23159412D01*
X35616657Y23050396D01*
X35509433Y22839959D01*
X35436446Y22615331D01*
X35399500Y22382060D01*
X35399500Y22145865D01*
X35436447Y21912590D01*
X35437213Y21909399D01*
X35437150Y21908152D01*
X35437209Y21907782D01*
X35437131Y21907770D01*
X35433712Y21839617D01*
X35393040Y21782805D01*
X35328110Y21757001D01*
X35259537Y21770397D01*
X35216317Y21807583D01*
X35193043Y21839617D01*
X35106379Y21958899D01*
X34944937Y22120341D01*
X34760228Y22254541D01*
X34556803Y22358192D01*
X34339660Y22428747D01*
X34114162Y22464462D01*
X34114157Y22464462D01*
X33885843Y22464462D01*
X33885838Y22464462D01*
X33660339Y22428747D01*
X33443196Y22358192D01*
X33239771Y22254541D01*
X33055061Y22120340D01*
X32893622Y21958901D01*
X32759421Y21774191D01*
X32655770Y21570766D01*
X32585215Y21353623D01*
X32549500Y21128125D01*
X500500Y21128125D01*
X500500Y34429664D01*
X9249500Y34429664D01*
X9249500Y32098261D01*
X9252401Y32061395D01*
X9252402Y32061389D01*
X9298253Y31903570D01*
X9298255Y31903567D01*
X9381917Y31762101D01*
X9381923Y31762093D01*
X9498130Y31645886D01*
X9498134Y31645883D01*
X9498136Y31645881D01*
X9639603Y31562218D01*
X9639604Y31562218D01*
X9639607Y31562216D01*
X9797426Y31516365D01*
X9797429Y31516365D01*
X9797431Y31516364D01*
X9834306Y31513462D01*
X9834314Y31513462D01*
X12165686Y31513462D01*
X12165694Y31513462D01*
X12202569Y31516364D01*
X12202571Y31516365D01*
X12202573Y31516365D01*
X12360392Y31562216D01*
X12360393Y31562217D01*
X12360397Y31562218D01*
X12501864Y31645881D01*
X12618081Y31762098D01*
X12701744Y31903565D01*
X12701745Y31903569D01*
X12701746Y31903570D01*
X12747597Y32061389D01*
X12747598Y32061395D01*
X12750499Y32098261D01*
X12750500Y32098268D01*
X12750500Y33378704D01*
X13209500Y33378704D01*
X13209500Y33149221D01*
X13234446Y32959747D01*
X13239452Y32921724D01*
X13239453Y32921722D01*
X13298842Y32700075D01*
X13386650Y32488086D01*
X13386657Y32488072D01*
X13501392Y32289345D01*
X13641081Y32107301D01*
X13641089Y32107292D01*
X13803330Y31945051D01*
X13803338Y31945044D01*
X13985382Y31805355D01*
X13985385Y31805354D01*
X13985388Y31805351D01*
X14184112Y31690618D01*
X14184117Y31690616D01*
X14184123Y31690613D01*
X14275480Y31652772D01*
X14396113Y31602804D01*
X14617762Y31543414D01*
X14845266Y31513462D01*
X14845273Y31513462D01*
X15074727Y31513462D01*
X15074734Y31513462D01*
X15302238Y31543414D01*
X15523887Y31602804D01*
X15735888Y31690618D01*
X15934612Y31805351D01*
X16116661Y31945043D01*
X16116665Y31945048D01*
X16116670Y31945051D01*
X16278911Y32107292D01*
X16278914Y32107297D01*
X16278919Y32107301D01*
X16418611Y32289350D01*
X16533344Y32488074D01*
X16621158Y32700075D01*
X16680548Y32921724D01*
X16710500Y33149228D01*
X16710500Y33378696D01*
X16680548Y33606200D01*
X16621158Y33827849D01*
X16533344Y34039850D01*
X16418611Y34238574D01*
X16418608Y34238577D01*
X16418607Y34238580D01*
X16328043Y34356604D01*
X16278918Y34420624D01*
X16278911Y34420632D01*
X16269879Y34429664D01*
X42249500Y34429664D01*
X42249500Y32098261D01*
X42252401Y32061395D01*
X42252402Y32061389D01*
X42298253Y31903570D01*
X42298255Y31903567D01*
X42381917Y31762101D01*
X42381923Y31762093D01*
X42498130Y31645886D01*
X42498134Y31645883D01*
X42498136Y31645881D01*
X42639603Y31562218D01*
X42639604Y31562218D01*
X42639607Y31562216D01*
X42797426Y31516365D01*
X42797429Y31516365D01*
X42797431Y31516364D01*
X42834306Y31513462D01*
X42834314Y31513462D01*
X45165686Y31513462D01*
X45165694Y31513462D01*
X45202569Y31516364D01*
X45202571Y31516365D01*
X45202573Y31516365D01*
X45360392Y31562216D01*
X45360393Y31562217D01*
X45360397Y31562218D01*
X45501864Y31645881D01*
X45618081Y31762098D01*
X45701744Y31903565D01*
X45701745Y31903569D01*
X45701746Y31903570D01*
X45747597Y32061389D01*
X45747598Y32061395D01*
X45750499Y32098261D01*
X45750500Y32098268D01*
X45750500Y33378704D01*
X46209500Y33378704D01*
X46209500Y33149221D01*
X46234446Y32959747D01*
X46239452Y32921724D01*
X46239453Y32921722D01*
X46298842Y32700075D01*
X46386650Y32488086D01*
X46386657Y32488072D01*
X46501392Y32289345D01*
X46641081Y32107301D01*
X46641089Y32107292D01*
X46803330Y31945051D01*
X46803338Y31945044D01*
X46985382Y31805355D01*
X46985385Y31805354D01*
X46985388Y31805351D01*
X47184112Y31690618D01*
X47184117Y31690616D01*
X47184123Y31690613D01*
X47275480Y31652772D01*
X47396113Y31602804D01*
X47617762Y31543414D01*
X47845266Y31513462D01*
X47845273Y31513462D01*
X48074727Y31513462D01*
X48074734Y31513462D01*
X48302238Y31543414D01*
X48523887Y31602804D01*
X48735888Y31690618D01*
X48934612Y31805351D01*
X49116661Y31945043D01*
X49116665Y31945048D01*
X49116670Y31945051D01*
X49278911Y32107292D01*
X49278914Y32107297D01*
X49278919Y32107301D01*
X49418611Y32289350D01*
X49533344Y32488074D01*
X49621158Y32700075D01*
X49680548Y32921724D01*
X49710500Y33149228D01*
X49710500Y33378696D01*
X49680548Y33606200D01*
X49621158Y33827849D01*
X49533344Y34039850D01*
X49418611Y34238574D01*
X49418608Y34238577D01*
X49418607Y34238580D01*
X49278918Y34420624D01*
X49278911Y34420632D01*
X49116670Y34582873D01*
X49116661Y34582881D01*
X48934617Y34722570D01*
X48735890Y34837305D01*
X48735876Y34837312D01*
X48523887Y34925120D01*
X48302238Y34984510D01*
X48264215Y34989516D01*
X48074741Y35014462D01*
X48074734Y35014462D01*
X47845266Y35014462D01*
X47845258Y35014462D01*
X47628715Y34985953D01*
X47617762Y34984510D01*
X47547584Y34965706D01*
X47396112Y34925120D01*
X47184123Y34837312D01*
X47184109Y34837305D01*
X46985382Y34722570D01*
X46803338Y34582881D01*
X46641081Y34420624D01*
X46501392Y34238580D01*
X46386657Y34039853D01*
X46386650Y34039839D01*
X46298842Y33827850D01*
X46239453Y33606203D01*
X46239451Y33606192D01*
X46209500Y33378704D01*
X45750500Y33378704D01*
X45750500Y34429656D01*
X45747598Y34466531D01*
X45747597Y34466536D01*
X45701746Y34624355D01*
X45701744Y34624358D01*
X45701744Y34624359D01*
X45618081Y34765826D01*
X45618079Y34765828D01*
X45618076Y34765832D01*
X45501869Y34882039D01*
X45501861Y34882045D01*
X45360395Y34965707D01*
X45360392Y34965709D01*
X45202573Y35011560D01*
X45202567Y35011561D01*
X45165701Y35014462D01*
X45165694Y35014462D01*
X42834306Y35014462D01*
X42834298Y35014462D01*
X42797432Y35011561D01*
X42797426Y35011560D01*
X42639607Y34965709D01*
X42639604Y34965707D01*
X42498138Y34882045D01*
X42498130Y34882039D01*
X42381923Y34765832D01*
X42381917Y34765824D01*
X42298255Y34624358D01*
X42298253Y34624355D01*
X42252402Y34466536D01*
X42252401Y34466530D01*
X42249500Y34429664D01*
X16269879Y34429664D01*
X16116670Y34582873D01*
X16116661Y34582881D01*
X15934617Y34722570D01*
X15735890Y34837305D01*
X15735876Y34837312D01*
X15523887Y34925120D01*
X15302238Y34984510D01*
X15264215Y34989516D01*
X15074741Y35014462D01*
X15074734Y35014462D01*
X14845266Y35014462D01*
X14845258Y35014462D01*
X14628715Y34985953D01*
X14617762Y34984510D01*
X14547584Y34965706D01*
X14396112Y34925120D01*
X14184123Y34837312D01*
X14184109Y34837305D01*
X13985382Y34722570D01*
X13803338Y34582881D01*
X13641081Y34420624D01*
X13501392Y34238580D01*
X13386657Y34039853D01*
X13386650Y34039839D01*
X13298842Y33827850D01*
X13239453Y33606203D01*
X13239451Y33606192D01*
X13209500Y33378704D01*
X12750500Y33378704D01*
X12750500Y34429656D01*
X12747598Y34466531D01*
X12747597Y34466536D01*
X12701746Y34624355D01*
X12701744Y34624358D01*
X12701744Y34624359D01*
X12618081Y34765826D01*
X12618079Y34765828D01*
X12618076Y34765832D01*
X12501869Y34882039D01*
X12501861Y34882045D01*
X12360395Y34965707D01*
X12360392Y34965709D01*
X12202573Y35011560D01*
X12202567Y35011561D01*
X12165701Y35014462D01*
X12165694Y35014462D01*
X9834306Y35014462D01*
X9834298Y35014462D01*
X9797432Y35011561D01*
X9797426Y35011560D01*
X9639607Y34965709D01*
X9639604Y34965707D01*
X9498138Y34882045D01*
X9498130Y34882039D01*
X9381923Y34765832D01*
X9381917Y34765824D01*
X9298255Y34624358D01*
X9298253Y34624355D01*
X9252402Y34466536D01*
X9252401Y34466530D01*
X9249500Y34429664D01*
X500500Y34429664D01*
X500500Y42128125D01*
X11949500Y42128125D01*
X11949500Y41899800D01*
X11985215Y41674302D01*
X12055770Y41457159D01*
X12151650Y41268986D01*
X12159421Y41253734D01*
X12293621Y41069025D01*
X12455063Y40907583D01*
X12639772Y40773383D01*
X12735884Y40724412D01*
X12843196Y40669733D01*
X12843198Y40669733D01*
X12843201Y40669731D01*
X12916653Y40645865D01*
X13060339Y40599178D01*
X13285838Y40563462D01*
X13285843Y40563462D01*
X13514162Y40563462D01*
X13739660Y40599178D01*
X13956799Y40669731D01*
X14160228Y40773383D01*
X14344937Y40907583D01*
X14506379Y41069025D01*
X14616319Y41220344D01*
X14671647Y41263007D01*
X14741260Y41268986D01*
X14803055Y41236380D01*
X14837413Y41175541D01*
X14837214Y41118530D01*
X14836447Y41115337D01*
X14799500Y40882060D01*
X14799500Y40645865D01*
X14836446Y40412594D01*
X14909433Y40187966D01*
X15016657Y39977529D01*
X15155483Y39786452D01*
X15322490Y39619445D01*
X15513567Y39480619D01*
X15612991Y39429960D01*
X15724003Y39373396D01*
X15724005Y39373396D01*
X15724008Y39373394D01*
X15844412Y39334273D01*
X15948631Y39300409D01*
X16181903Y39263462D01*
X16181908Y39263462D01*
X16418097Y39263462D01*
X16651368Y39300409D01*
X16875992Y39373394D01*
X17086433Y39480619D01*
X17277510Y39619445D01*
X17444517Y39786452D01*
X17583343Y39977529D01*
X17690568Y40187970D01*
X17763553Y40412594D01*
X17793105Y40599178D01*
X17800500Y40645865D01*
X17800500Y40882060D01*
X17763553Y41115331D01*
X17690566Y41339959D01*
X17630847Y41457163D01*
X17583343Y41550395D01*
X17444517Y41741472D01*
X17277510Y41908479D01*
X17270401Y41913644D01*
X17227735Y41968974D01*
X17221756Y42038587D01*
X17254362Y42100382D01*
X17270401Y42114280D01*
X17270500Y42114353D01*
X17277510Y42119445D01*
X17444517Y42286452D01*
X17583343Y42477529D01*
X17690568Y42687970D01*
X17763553Y42912594D01*
X17770887Y42958901D01*
X17800500Y43145865D01*
X17800500Y43382060D01*
X18299500Y43382060D01*
X18299500Y43145865D01*
X18336446Y42912594D01*
X18409433Y42687966D01*
X18504887Y42500629D01*
X18516657Y42477529D01*
X18655483Y42286452D01*
X18655485Y42286450D01*
X18822490Y42119445D01*
X18829603Y42114277D01*
X18872266Y42058945D01*
X18878242Y41989332D01*
X18845634Y41927538D01*
X18829603Y41913647D01*
X18822490Y41908480D01*
X18655485Y41741475D01*
X18655485Y41741474D01*
X18655483Y41741472D01*
X18606681Y41674302D01*
X18516657Y41550396D01*
X18409433Y41339959D01*
X18336446Y41115331D01*
X18299500Y40882060D01*
X18299500Y40645865D01*
X18336446Y40412594D01*
X18409433Y40187966D01*
X18516657Y39977529D01*
X18655483Y39786452D01*
X18822490Y39619445D01*
X19013567Y39480619D01*
X19112991Y39429960D01*
X19224003Y39373396D01*
X19224005Y39373396D01*
X19224008Y39373394D01*
X19344412Y39334273D01*
X19448631Y39300409D01*
X19681903Y39263462D01*
X19681908Y39263462D01*
X19918097Y39263462D01*
X20151368Y39300409D01*
X20375992Y39373394D01*
X20586433Y39480619D01*
X20777510Y39619445D01*
X20944517Y39786452D01*
X21083343Y39977529D01*
X21190568Y40187970D01*
X21263553Y40412594D01*
X21293105Y40599178D01*
X21300500Y40645865D01*
X21300500Y40882060D01*
X21263553Y41115331D01*
X21190566Y41339959D01*
X21130847Y41457163D01*
X21083343Y41550395D01*
X20944517Y41741472D01*
X20777510Y41908479D01*
X20770401Y41913644D01*
X20758359Y41929260D01*
X20742774Y41941344D01*
X20737461Y41956362D01*
X20727735Y41968974D01*
X20726047Y41988622D01*
X20719470Y42007213D01*
X20723118Y42022718D01*
X20721756Y42038587D01*
X20730958Y42056027D01*
X20735476Y42075224D01*
X20749164Y42090532D01*
X20754362Y42100382D01*
X20757103Y42103116D01*
X20763359Y42109165D01*
X20777510Y42119445D01*
X20786190Y42128125D01*
X44949500Y42128125D01*
X44949500Y41899800D01*
X44985215Y41674302D01*
X45055770Y41457159D01*
X45151650Y41268986D01*
X45159421Y41253734D01*
X45293621Y41069025D01*
X45455063Y40907583D01*
X45639772Y40773383D01*
X45735884Y40724412D01*
X45843196Y40669733D01*
X45843198Y40669733D01*
X45843201Y40669731D01*
X45916653Y40645865D01*
X46060339Y40599178D01*
X46285838Y40563462D01*
X46285843Y40563462D01*
X46514162Y40563462D01*
X46739660Y40599178D01*
X46956799Y40669731D01*
X47160228Y40773383D01*
X47344937Y40907583D01*
X47506379Y41069025D01*
X47616319Y41220344D01*
X47671647Y41263007D01*
X47741260Y41268986D01*
X47803055Y41236380D01*
X47837413Y41175541D01*
X47837214Y41118530D01*
X47836447Y41115337D01*
X47799500Y40882060D01*
X47799500Y40645865D01*
X47836446Y40412594D01*
X47909433Y40187966D01*
X48016657Y39977529D01*
X48155483Y39786452D01*
X48322490Y39619445D01*
X48513567Y39480619D01*
X48612991Y39429960D01*
X48724003Y39373396D01*
X48724005Y39373396D01*
X48724008Y39373394D01*
X48844412Y39334273D01*
X48948631Y39300409D01*
X49181903Y39263462D01*
X49181908Y39263462D01*
X49418097Y39263462D01*
X49651368Y39300409D01*
X49875992Y39373394D01*
X50086433Y39480619D01*
X50277510Y39619445D01*
X50444517Y39786452D01*
X50583343Y39977529D01*
X50690568Y40187970D01*
X50763553Y40412594D01*
X50793105Y40599178D01*
X50800500Y40645865D01*
X50800500Y40882060D01*
X50763553Y41115331D01*
X50690566Y41339959D01*
X50630847Y41457163D01*
X50583343Y41550395D01*
X50444517Y41741472D01*
X50277510Y41908479D01*
X50270401Y41913644D01*
X50227735Y41968974D01*
X50221756Y42038587D01*
X50254362Y42100382D01*
X50270401Y42114280D01*
X50270500Y42114353D01*
X50277510Y42119445D01*
X50444517Y42286452D01*
X50583343Y42477529D01*
X50690568Y42687970D01*
X50763553Y42912594D01*
X50770887Y42958901D01*
X50800500Y43145865D01*
X50800500Y43382060D01*
X51299500Y43382060D01*
X51299500Y43145865D01*
X51336446Y42912594D01*
X51409433Y42687966D01*
X51504887Y42500629D01*
X51516657Y42477529D01*
X51655483Y42286452D01*
X51655485Y42286450D01*
X51822490Y42119445D01*
X51829603Y42114277D01*
X51872266Y42058945D01*
X51878242Y41989332D01*
X51845634Y41927538D01*
X51829603Y41913647D01*
X51822490Y41908480D01*
X51655485Y41741475D01*
X51655485Y41741474D01*
X51655483Y41741472D01*
X51606681Y41674302D01*
X51516657Y41550396D01*
X51409433Y41339959D01*
X51336446Y41115331D01*
X51299500Y40882060D01*
X51299500Y40645865D01*
X51336446Y40412594D01*
X51409433Y40187966D01*
X51516657Y39977529D01*
X51655483Y39786452D01*
X51822490Y39619445D01*
X52013567Y39480619D01*
X52112991Y39429960D01*
X52224003Y39373396D01*
X52224005Y39373396D01*
X52224008Y39373394D01*
X52344412Y39334273D01*
X52448631Y39300409D01*
X52681903Y39263462D01*
X52681908Y39263462D01*
X52918097Y39263462D01*
X53151368Y39300409D01*
X53375992Y39373394D01*
X53586433Y39480619D01*
X53777510Y39619445D01*
X53944517Y39786452D01*
X54083343Y39977529D01*
X54190568Y40187970D01*
X54263553Y40412594D01*
X54293105Y40599178D01*
X54300500Y40645865D01*
X54300500Y40882060D01*
X54263553Y41115331D01*
X54190566Y41339959D01*
X54130847Y41457163D01*
X54083343Y41550395D01*
X53944517Y41741472D01*
X53777510Y41908479D01*
X53770401Y41913644D01*
X53727735Y41968974D01*
X53721756Y42038587D01*
X53754362Y42100382D01*
X53770401Y42114280D01*
X53770500Y42114353D01*
X53777510Y42119445D01*
X53944517Y42286452D01*
X54083343Y42477529D01*
X54190568Y42687970D01*
X54263553Y42912594D01*
X54270887Y42958901D01*
X54300500Y43145865D01*
X54300500Y43382060D01*
X54263553Y43615331D01*
X54190566Y43839959D01*
X54083342Y44050396D01*
X53944517Y44241472D01*
X53777510Y44408479D01*
X53586433Y44547305D01*
X53375996Y44654529D01*
X53151368Y44727516D01*
X52918097Y44764462D01*
X52918092Y44764462D01*
X52681908Y44764462D01*
X52681903Y44764462D01*
X52448631Y44727516D01*
X52224003Y44654529D01*
X52013566Y44547305D01*
X51904550Y44468100D01*
X51822490Y44408479D01*
X51822488Y44408477D01*
X51822487Y44408477D01*
X51655485Y44241475D01*
X51655485Y44241474D01*
X51655483Y44241472D01*
X51595862Y44159412D01*
X51516657Y44050396D01*
X51409433Y43839959D01*
X51336446Y43615331D01*
X51299500Y43382060D01*
X50800500Y43382060D01*
X50763553Y43615331D01*
X50690566Y43839959D01*
X50583342Y44050396D01*
X50444517Y44241472D01*
X50277510Y44408479D01*
X50086433Y44547305D01*
X49875996Y44654529D01*
X49651368Y44727516D01*
X49418097Y44764462D01*
X49418092Y44764462D01*
X49181908Y44764462D01*
X49181903Y44764462D01*
X48948631Y44727516D01*
X48724003Y44654529D01*
X48513566Y44547305D01*
X48404550Y44468100D01*
X48322490Y44408479D01*
X48322488Y44408477D01*
X48322487Y44408477D01*
X48155485Y44241475D01*
X48155485Y44241474D01*
X48155483Y44241472D01*
X48095862Y44159412D01*
X48016657Y44050396D01*
X47909433Y43839959D01*
X47836446Y43615331D01*
X47799500Y43382060D01*
X47799500Y43145865D01*
X47836447Y42912590D01*
X47837213Y42909399D01*
X47837150Y42908152D01*
X47837209Y42907782D01*
X47837131Y42907770D01*
X47833712Y42839617D01*
X47793040Y42782805D01*
X47728110Y42757001D01*
X47659537Y42770397D01*
X47616317Y42807583D01*
X47593043Y42839617D01*
X47506379Y42958899D01*
X47344937Y43120341D01*
X47160228Y43254541D01*
X46956803Y43358192D01*
X46739660Y43428747D01*
X46514162Y43464462D01*
X46514157Y43464462D01*
X46285843Y43464462D01*
X46285838Y43464462D01*
X46060339Y43428747D01*
X45843196Y43358192D01*
X45639771Y43254541D01*
X45455061Y43120340D01*
X45293622Y42958901D01*
X45159421Y42774191D01*
X45055770Y42570766D01*
X44985215Y42353623D01*
X44949500Y42128125D01*
X20786190Y42128125D01*
X20944517Y42286452D01*
X21083343Y42477529D01*
X21190568Y42687970D01*
X21263553Y42912594D01*
X21270887Y42958901D01*
X21300500Y43145865D01*
X21300500Y43382060D01*
X21263553Y43615331D01*
X21190566Y43839959D01*
X21083342Y44050396D01*
X20944517Y44241472D01*
X20777510Y44408479D01*
X20586433Y44547305D01*
X20375996Y44654529D01*
X20151368Y44727516D01*
X19918097Y44764462D01*
X19918092Y44764462D01*
X19681908Y44764462D01*
X19681903Y44764462D01*
X19448631Y44727516D01*
X19224003Y44654529D01*
X19013566Y44547305D01*
X18904550Y44468100D01*
X18822490Y44408479D01*
X18822488Y44408477D01*
X18822487Y44408477D01*
X18655485Y44241475D01*
X18655485Y44241474D01*
X18655483Y44241472D01*
X18595862Y44159412D01*
X18516657Y44050396D01*
X18409433Y43839959D01*
X18336446Y43615331D01*
X18299500Y43382060D01*
X17800500Y43382060D01*
X17763553Y43615331D01*
X17690566Y43839959D01*
X17583342Y44050396D01*
X17444517Y44241472D01*
X17277510Y44408479D01*
X17086433Y44547305D01*
X16875996Y44654529D01*
X16651368Y44727516D01*
X16418097Y44764462D01*
X16418092Y44764462D01*
X16181908Y44764462D01*
X16181903Y44764462D01*
X15948631Y44727516D01*
X15724003Y44654529D01*
X15513566Y44547305D01*
X15404550Y44468100D01*
X15322490Y44408479D01*
X15322488Y44408477D01*
X15322487Y44408477D01*
X15155485Y44241475D01*
X15155485Y44241474D01*
X15155483Y44241472D01*
X15095862Y44159412D01*
X15016657Y44050396D01*
X14909433Y43839959D01*
X14836446Y43615331D01*
X14799500Y43382060D01*
X14799500Y43145865D01*
X14836447Y42912590D01*
X14837213Y42909399D01*
X14837150Y42908152D01*
X14837209Y42907782D01*
X14837131Y42907770D01*
X14833712Y42839617D01*
X14793040Y42782805D01*
X14728110Y42757001D01*
X14659537Y42770397D01*
X14616317Y42807583D01*
X14593043Y42839617D01*
X14506379Y42958899D01*
X14344937Y43120341D01*
X14160228Y43254541D01*
X13956803Y43358192D01*
X13739660Y43428747D01*
X13514162Y43464462D01*
X13514157Y43464462D01*
X13285843Y43464462D01*
X13285838Y43464462D01*
X13060339Y43428747D01*
X12843196Y43358192D01*
X12639771Y43254541D01*
X12455061Y43120340D01*
X12293622Y42958901D01*
X12159421Y42774191D01*
X12055770Y42570766D01*
X11985215Y42353623D01*
X11949500Y42128125D01*
X500500Y42128125D01*
X500500Y55429664D01*
X9249500Y55429664D01*
X9249500Y53098261D01*
X9252401Y53061395D01*
X9252402Y53061389D01*
X9298253Y52903570D01*
X9298255Y52903567D01*
X9381917Y52762101D01*
X9381923Y52762093D01*
X9498130Y52645886D01*
X9498134Y52645883D01*
X9498136Y52645881D01*
X9639603Y52562218D01*
X9639604Y52562218D01*
X9639607Y52562216D01*
X9797426Y52516365D01*
X9797429Y52516365D01*
X9797431Y52516364D01*
X9834306Y52513462D01*
X9834314Y52513462D01*
X12165686Y52513462D01*
X12165694Y52513462D01*
X12202569Y52516364D01*
X12202571Y52516365D01*
X12202573Y52516365D01*
X12360392Y52562216D01*
X12360393Y52562217D01*
X12360397Y52562218D01*
X12501864Y52645881D01*
X12618081Y52762098D01*
X12701744Y52903565D01*
X12701745Y52903569D01*
X12701746Y52903570D01*
X12747597Y53061389D01*
X12747598Y53061395D01*
X12750499Y53098261D01*
X12750500Y53098268D01*
X12750500Y54378704D01*
X13209500Y54378704D01*
X13209500Y54149221D01*
X13234446Y53959747D01*
X13239452Y53921724D01*
X13239453Y53921722D01*
X13298842Y53700075D01*
X13386650Y53488086D01*
X13386657Y53488072D01*
X13501392Y53289345D01*
X13641081Y53107301D01*
X13641089Y53107292D01*
X13803330Y52945051D01*
X13803338Y52945044D01*
X13985382Y52805355D01*
X13985385Y52805354D01*
X13985388Y52805351D01*
X14184112Y52690618D01*
X14184117Y52690616D01*
X14184123Y52690613D01*
X14275480Y52652772D01*
X14396113Y52602804D01*
X14617762Y52543414D01*
X14845266Y52513462D01*
X14845273Y52513462D01*
X15074727Y52513462D01*
X15074734Y52513462D01*
X15302238Y52543414D01*
X15523887Y52602804D01*
X15735888Y52690618D01*
X15934612Y52805351D01*
X16116661Y52945043D01*
X16116665Y52945048D01*
X16116670Y52945051D01*
X16278911Y53107292D01*
X16278914Y53107297D01*
X16278919Y53107301D01*
X16418611Y53289350D01*
X16533344Y53488074D01*
X16621158Y53700075D01*
X16680548Y53921724D01*
X16710500Y54149228D01*
X16710500Y54378696D01*
X16680548Y54606200D01*
X16621158Y54827849D01*
X16533344Y55039850D01*
X16418611Y55238574D01*
X16418608Y55238577D01*
X16418607Y55238580D01*
X16328043Y55356604D01*
X16278918Y55420624D01*
X16278911Y55420632D01*
X16269879Y55429664D01*
X42249500Y55429664D01*
X42249500Y53098261D01*
X42252401Y53061395D01*
X42252402Y53061389D01*
X42298253Y52903570D01*
X42298255Y52903567D01*
X42381917Y52762101D01*
X42381923Y52762093D01*
X42498130Y52645886D01*
X42498134Y52645883D01*
X42498136Y52645881D01*
X42639603Y52562218D01*
X42639604Y52562218D01*
X42639607Y52562216D01*
X42797426Y52516365D01*
X42797429Y52516365D01*
X42797431Y52516364D01*
X42834306Y52513462D01*
X42834314Y52513462D01*
X45165686Y52513462D01*
X45165694Y52513462D01*
X45202569Y52516364D01*
X45202571Y52516365D01*
X45202573Y52516365D01*
X45360392Y52562216D01*
X45360393Y52562217D01*
X45360397Y52562218D01*
X45501864Y52645881D01*
X45618081Y52762098D01*
X45701744Y52903565D01*
X45701745Y52903569D01*
X45701746Y52903570D01*
X45747597Y53061389D01*
X45747598Y53061395D01*
X45750499Y53098261D01*
X45750500Y53098268D01*
X45750500Y54378704D01*
X46209500Y54378704D01*
X46209500Y54149221D01*
X46234446Y53959747D01*
X46239452Y53921724D01*
X46239453Y53921722D01*
X46298842Y53700075D01*
X46386650Y53488086D01*
X46386657Y53488072D01*
X46501392Y53289345D01*
X46641081Y53107301D01*
X46641089Y53107292D01*
X46803330Y52945051D01*
X46803338Y52945044D01*
X46985382Y52805355D01*
X46985385Y52805354D01*
X46985388Y52805351D01*
X47184112Y52690618D01*
X47184117Y52690616D01*
X47184123Y52690613D01*
X47275480Y52652772D01*
X47396113Y52602804D01*
X47617762Y52543414D01*
X47845266Y52513462D01*
X47845273Y52513462D01*
X48074727Y52513462D01*
X48074734Y52513462D01*
X48302238Y52543414D01*
X48523887Y52602804D01*
X48735888Y52690618D01*
X48934612Y52805351D01*
X49116661Y52945043D01*
X49116665Y52945048D01*
X49116670Y52945051D01*
X49278911Y53107292D01*
X49278914Y53107297D01*
X49278919Y53107301D01*
X49418611Y53289350D01*
X49533344Y53488074D01*
X49621158Y53700075D01*
X49680548Y53921724D01*
X49710500Y54149228D01*
X49710500Y54378696D01*
X49680548Y54606200D01*
X49621158Y54827849D01*
X49533344Y55039850D01*
X49418611Y55238574D01*
X49418608Y55238577D01*
X49418607Y55238580D01*
X49278918Y55420624D01*
X49278911Y55420632D01*
X49116670Y55582873D01*
X49116661Y55582881D01*
X48934617Y55722570D01*
X48735890Y55837305D01*
X48735876Y55837312D01*
X48523887Y55925120D01*
X48302238Y55984510D01*
X48264215Y55989516D01*
X48074741Y56014462D01*
X48074734Y56014462D01*
X47845266Y56014462D01*
X47845258Y56014462D01*
X47628715Y55985953D01*
X47617762Y55984510D01*
X47547584Y55965706D01*
X47396112Y55925120D01*
X47184123Y55837312D01*
X47184109Y55837305D01*
X46985382Y55722570D01*
X46803338Y55582881D01*
X46641081Y55420624D01*
X46501392Y55238580D01*
X46386657Y55039853D01*
X46386650Y55039839D01*
X46298842Y54827850D01*
X46239453Y54606203D01*
X46239451Y54606192D01*
X46209500Y54378704D01*
X45750500Y54378704D01*
X45750500Y55429656D01*
X45747598Y55466531D01*
X45747597Y55466536D01*
X45701746Y55624355D01*
X45701744Y55624358D01*
X45701744Y55624359D01*
X45618081Y55765826D01*
X45618079Y55765828D01*
X45618076Y55765832D01*
X45501869Y55882039D01*
X45501861Y55882045D01*
X45360395Y55965707D01*
X45360392Y55965709D01*
X45202573Y56011560D01*
X45202567Y56011561D01*
X45165701Y56014462D01*
X45165694Y56014462D01*
X42834306Y56014462D01*
X42834298Y56014462D01*
X42797432Y56011561D01*
X42797426Y56011560D01*
X42639607Y55965709D01*
X42639604Y55965707D01*
X42498138Y55882045D01*
X42498130Y55882039D01*
X42381923Y55765832D01*
X42381917Y55765824D01*
X42298255Y55624358D01*
X42298253Y55624355D01*
X42252402Y55466536D01*
X42252401Y55466530D01*
X42249500Y55429664D01*
X16269879Y55429664D01*
X16116670Y55582873D01*
X16116661Y55582881D01*
X15934617Y55722570D01*
X15735890Y55837305D01*
X15735876Y55837312D01*
X15523887Y55925120D01*
X15302238Y55984510D01*
X15264215Y55989516D01*
X15074741Y56014462D01*
X15074734Y56014462D01*
X14845266Y56014462D01*
X14845258Y56014462D01*
X14628715Y55985953D01*
X14617762Y55984510D01*
X14547584Y55965706D01*
X14396112Y55925120D01*
X14184123Y55837312D01*
X14184109Y55837305D01*
X13985382Y55722570D01*
X13803338Y55582881D01*
X13641081Y55420624D01*
X13501392Y55238580D01*
X13386657Y55039853D01*
X13386650Y55039839D01*
X13298842Y54827850D01*
X13239453Y54606203D01*
X13239451Y54606192D01*
X13209500Y54378704D01*
X12750500Y54378704D01*
X12750500Y55429656D01*
X12747598Y55466531D01*
X12747597Y55466536D01*
X12701746Y55624355D01*
X12701744Y55624358D01*
X12701744Y55624359D01*
X12618081Y55765826D01*
X12618079Y55765828D01*
X12618076Y55765832D01*
X12501869Y55882039D01*
X12501861Y55882045D01*
X12360395Y55965707D01*
X12360392Y55965709D01*
X12202573Y56011560D01*
X12202567Y56011561D01*
X12165701Y56014462D01*
X12165694Y56014462D01*
X9834306Y56014462D01*
X9834298Y56014462D01*
X9797432Y56011561D01*
X9797426Y56011560D01*
X9639607Y55965709D01*
X9639604Y55965707D01*
X9498138Y55882045D01*
X9498130Y55882039D01*
X9381923Y55765832D01*
X9381917Y55765824D01*
X9298255Y55624358D01*
X9298253Y55624355D01*
X9252402Y55466536D01*
X9252401Y55466530D01*
X9249500Y55429664D01*
X500500Y55429664D01*
X500500Y63128125D01*
X11949500Y63128125D01*
X11949500Y62899800D01*
X11985215Y62674302D01*
X12055770Y62457159D01*
X12151650Y62268986D01*
X12159421Y62253734D01*
X12293621Y62069025D01*
X12455063Y61907583D01*
X12639772Y61773383D01*
X12735884Y61724412D01*
X12843196Y61669733D01*
X12843198Y61669733D01*
X12843201Y61669731D01*
X12916653Y61645865D01*
X13060339Y61599178D01*
X13285838Y61563462D01*
X13285843Y61563462D01*
X13514162Y61563462D01*
X13739660Y61599178D01*
X13956799Y61669731D01*
X14160228Y61773383D01*
X14344937Y61907583D01*
X14506379Y62069025D01*
X14616319Y62220344D01*
X14671647Y62263007D01*
X14741260Y62268986D01*
X14803055Y62236380D01*
X14837413Y62175541D01*
X14837214Y62118530D01*
X14836447Y62115337D01*
X14799500Y61882060D01*
X14799500Y61645865D01*
X14836446Y61412594D01*
X14909433Y61187966D01*
X15016657Y60977529D01*
X15155483Y60786452D01*
X15322490Y60619445D01*
X15513567Y60480619D01*
X15612991Y60429960D01*
X15724003Y60373396D01*
X15724005Y60373396D01*
X15724008Y60373394D01*
X15844412Y60334273D01*
X15948631Y60300409D01*
X16181903Y60263462D01*
X16181908Y60263462D01*
X16418097Y60263462D01*
X16651368Y60300409D01*
X16875992Y60373394D01*
X17086433Y60480619D01*
X17277510Y60619445D01*
X17444517Y60786452D01*
X17583343Y60977529D01*
X17690568Y61187970D01*
X17763553Y61412594D01*
X17793105Y61599178D01*
X17800500Y61645865D01*
X17800500Y61882060D01*
X17763553Y62115331D01*
X17690566Y62339959D01*
X17630847Y62457163D01*
X17583343Y62550395D01*
X17444517Y62741472D01*
X17277510Y62908479D01*
X17270401Y62913644D01*
X17227735Y62968974D01*
X17221756Y63038587D01*
X17254362Y63100382D01*
X17270401Y63114280D01*
X17270500Y63114353D01*
X17277510Y63119445D01*
X17444517Y63286452D01*
X17583343Y63477529D01*
X17690568Y63687970D01*
X17763553Y63912594D01*
X17770887Y63958901D01*
X17800500Y64145865D01*
X17800500Y64382060D01*
X18299500Y64382060D01*
X18299500Y64145865D01*
X18336446Y63912594D01*
X18409433Y63687966D01*
X18504887Y63500629D01*
X18516657Y63477529D01*
X18655483Y63286452D01*
X18655485Y63286450D01*
X18822490Y63119445D01*
X18829603Y63114277D01*
X18872266Y63058945D01*
X18878242Y62989332D01*
X18845634Y62927538D01*
X18829603Y62913647D01*
X18822490Y62908480D01*
X18655485Y62741475D01*
X18655485Y62741474D01*
X18655483Y62741472D01*
X18606681Y62674302D01*
X18516657Y62550396D01*
X18409433Y62339959D01*
X18336446Y62115331D01*
X18299500Y61882060D01*
X18299500Y61645865D01*
X18336446Y61412594D01*
X18409433Y61187966D01*
X18516657Y60977529D01*
X18655483Y60786452D01*
X18822490Y60619445D01*
X19013567Y60480619D01*
X19112991Y60429960D01*
X19224003Y60373396D01*
X19224005Y60373396D01*
X19224008Y60373394D01*
X19344412Y60334273D01*
X19448631Y60300409D01*
X19681903Y60263462D01*
X19681908Y60263462D01*
X19918097Y60263462D01*
X20151368Y60300409D01*
X20375992Y60373394D01*
X20586433Y60480619D01*
X20777510Y60619445D01*
X20944517Y60786452D01*
X21083343Y60977529D01*
X21190568Y61187970D01*
X21263553Y61412594D01*
X21293105Y61599178D01*
X21300500Y61645865D01*
X21300500Y61882060D01*
X21263553Y62115331D01*
X21190566Y62339959D01*
X21130847Y62457163D01*
X21083343Y62550395D01*
X20944517Y62741472D01*
X20777510Y62908479D01*
X20770401Y62913644D01*
X20758359Y62929260D01*
X20742774Y62941344D01*
X20737461Y62956362D01*
X20727735Y62968974D01*
X20726047Y62988622D01*
X20719470Y63007213D01*
X20723118Y63022718D01*
X20721756Y63038587D01*
X20730958Y63056027D01*
X20735476Y63075224D01*
X20749164Y63090532D01*
X20754362Y63100382D01*
X20757103Y63103116D01*
X20763359Y63109165D01*
X20777510Y63119445D01*
X20786190Y63128125D01*
X44949500Y63128125D01*
X44949500Y62899800D01*
X44985215Y62674302D01*
X45055770Y62457159D01*
X45151650Y62268986D01*
X45159421Y62253734D01*
X45293621Y62069025D01*
X45455063Y61907583D01*
X45639772Y61773383D01*
X45735884Y61724412D01*
X45843196Y61669733D01*
X45843198Y61669733D01*
X45843201Y61669731D01*
X45916653Y61645865D01*
X46060339Y61599178D01*
X46285838Y61563462D01*
X46285843Y61563462D01*
X46514162Y61563462D01*
X46739660Y61599178D01*
X46956799Y61669731D01*
X47160228Y61773383D01*
X47344937Y61907583D01*
X47506379Y62069025D01*
X47616319Y62220344D01*
X47671647Y62263007D01*
X47741260Y62268986D01*
X47803055Y62236380D01*
X47837413Y62175541D01*
X47837214Y62118530D01*
X47836447Y62115337D01*
X47799500Y61882060D01*
X47799500Y61645865D01*
X47836446Y61412594D01*
X47909433Y61187966D01*
X48016657Y60977529D01*
X48155483Y60786452D01*
X48322490Y60619445D01*
X48513567Y60480619D01*
X48612991Y60429960D01*
X48724003Y60373396D01*
X48724005Y60373396D01*
X48724008Y60373394D01*
X48844412Y60334273D01*
X48948631Y60300409D01*
X49181903Y60263462D01*
X49181908Y60263462D01*
X49418097Y60263462D01*
X49651368Y60300409D01*
X49875992Y60373394D01*
X50086433Y60480619D01*
X50277510Y60619445D01*
X50444517Y60786452D01*
X50583343Y60977529D01*
X50690568Y61187970D01*
X50763553Y61412594D01*
X50793105Y61599178D01*
X50800500Y61645865D01*
X50800500Y61882060D01*
X50763553Y62115331D01*
X50690566Y62339959D01*
X50630847Y62457163D01*
X50583343Y62550395D01*
X50444517Y62741472D01*
X50277510Y62908479D01*
X50270401Y62913644D01*
X50227735Y62968974D01*
X50221756Y63038587D01*
X50254362Y63100382D01*
X50270401Y63114280D01*
X50270500Y63114353D01*
X50277510Y63119445D01*
X50444517Y63286452D01*
X50583343Y63477529D01*
X50690568Y63687970D01*
X50763553Y63912594D01*
X50770887Y63958901D01*
X50800500Y64145865D01*
X50800500Y64382060D01*
X51299500Y64382060D01*
X51299500Y64145865D01*
X51336446Y63912594D01*
X51409433Y63687966D01*
X51504887Y63500629D01*
X51516657Y63477529D01*
X51655483Y63286452D01*
X51655485Y63286450D01*
X51822490Y63119445D01*
X51829603Y63114277D01*
X51872266Y63058945D01*
X51878242Y62989332D01*
X51845634Y62927538D01*
X51829603Y62913647D01*
X51822490Y62908480D01*
X51655485Y62741475D01*
X51655485Y62741474D01*
X51655483Y62741472D01*
X51606681Y62674302D01*
X51516657Y62550396D01*
X51409433Y62339959D01*
X51336446Y62115331D01*
X51299500Y61882060D01*
X51299500Y61645865D01*
X51336446Y61412594D01*
X51409433Y61187966D01*
X51516657Y60977529D01*
X51655483Y60786452D01*
X51822490Y60619445D01*
X52013567Y60480619D01*
X52112991Y60429960D01*
X52224003Y60373396D01*
X52224005Y60373396D01*
X52224008Y60373394D01*
X52344412Y60334273D01*
X52448631Y60300409D01*
X52681903Y60263462D01*
X52681908Y60263462D01*
X52918097Y60263462D01*
X53151368Y60300409D01*
X53375992Y60373394D01*
X53586433Y60480619D01*
X53777510Y60619445D01*
X53944517Y60786452D01*
X54083343Y60977529D01*
X54190568Y61187970D01*
X54263553Y61412594D01*
X54293105Y61599178D01*
X54300500Y61645865D01*
X54300500Y61882060D01*
X54263553Y62115331D01*
X54190566Y62339959D01*
X54130847Y62457163D01*
X54083343Y62550395D01*
X53944517Y62741472D01*
X53777510Y62908479D01*
X53770401Y62913644D01*
X53727735Y62968974D01*
X53721756Y63038587D01*
X53754362Y63100382D01*
X53770401Y63114280D01*
X53770500Y63114353D01*
X53777510Y63119445D01*
X53944517Y63286452D01*
X54083343Y63477529D01*
X54190568Y63687970D01*
X54263553Y63912594D01*
X54270887Y63958901D01*
X54300500Y64145865D01*
X54300500Y64382060D01*
X54263553Y64615331D01*
X54190566Y64839959D01*
X54083342Y65050396D01*
X53944517Y65241472D01*
X53777510Y65408479D01*
X53586433Y65547305D01*
X53375996Y65654529D01*
X53151368Y65727516D01*
X52918097Y65764462D01*
X52918092Y65764462D01*
X52681908Y65764462D01*
X52681903Y65764462D01*
X52448631Y65727516D01*
X52224003Y65654529D01*
X52013566Y65547305D01*
X51904550Y65468100D01*
X51822490Y65408479D01*
X51822488Y65408477D01*
X51822487Y65408477D01*
X51655485Y65241475D01*
X51655485Y65241474D01*
X51655483Y65241472D01*
X51595862Y65159412D01*
X51516657Y65050396D01*
X51409433Y64839959D01*
X51336446Y64615331D01*
X51299500Y64382060D01*
X50800500Y64382060D01*
X50763553Y64615331D01*
X50690566Y64839959D01*
X50583342Y65050396D01*
X50444517Y65241472D01*
X50277510Y65408479D01*
X50086433Y65547305D01*
X49875996Y65654529D01*
X49651368Y65727516D01*
X49418097Y65764462D01*
X49418092Y65764462D01*
X49181908Y65764462D01*
X49181903Y65764462D01*
X48948631Y65727516D01*
X48724003Y65654529D01*
X48513566Y65547305D01*
X48404550Y65468100D01*
X48322490Y65408479D01*
X48322488Y65408477D01*
X48322487Y65408477D01*
X48155485Y65241475D01*
X48155485Y65241474D01*
X48155483Y65241472D01*
X48095862Y65159412D01*
X48016657Y65050396D01*
X47909433Y64839959D01*
X47836446Y64615331D01*
X47799500Y64382060D01*
X47799500Y64145865D01*
X47836447Y63912590D01*
X47837213Y63909399D01*
X47837150Y63908152D01*
X47837209Y63907782D01*
X47837131Y63907770D01*
X47833712Y63839617D01*
X47793040Y63782805D01*
X47728110Y63757001D01*
X47659537Y63770397D01*
X47616317Y63807583D01*
X47593043Y63839617D01*
X47506379Y63958899D01*
X47344937Y64120341D01*
X47160228Y64254541D01*
X46956803Y64358192D01*
X46739660Y64428747D01*
X46514162Y64464462D01*
X46514157Y64464462D01*
X46285843Y64464462D01*
X46285838Y64464462D01*
X46060339Y64428747D01*
X45843196Y64358192D01*
X45639771Y64254541D01*
X45455061Y64120340D01*
X45293622Y63958901D01*
X45159421Y63774191D01*
X45055770Y63570766D01*
X44985215Y63353623D01*
X44949500Y63128125D01*
X20786190Y63128125D01*
X20944517Y63286452D01*
X21083343Y63477529D01*
X21190568Y63687970D01*
X21263553Y63912594D01*
X21270887Y63958901D01*
X21300500Y64145865D01*
X21300500Y64382060D01*
X21263553Y64615331D01*
X21190566Y64839959D01*
X21083342Y65050396D01*
X20944517Y65241472D01*
X20777510Y65408479D01*
X20586433Y65547305D01*
X20375996Y65654529D01*
X20151368Y65727516D01*
X19918097Y65764462D01*
X19918092Y65764462D01*
X19681908Y65764462D01*
X19681903Y65764462D01*
X19448631Y65727516D01*
X19224003Y65654529D01*
X19013566Y65547305D01*
X18904550Y65468100D01*
X18822490Y65408479D01*
X18822488Y65408477D01*
X18822487Y65408477D01*
X18655485Y65241475D01*
X18655485Y65241474D01*
X18655483Y65241472D01*
X18595862Y65159412D01*
X18516657Y65050396D01*
X18409433Y64839959D01*
X18336446Y64615331D01*
X18299500Y64382060D01*
X17800500Y64382060D01*
X17763553Y64615331D01*
X17690566Y64839959D01*
X17583342Y65050396D01*
X17444517Y65241472D01*
X17277510Y65408479D01*
X17086433Y65547305D01*
X16875996Y65654529D01*
X16651368Y65727516D01*
X16418097Y65764462D01*
X16418092Y65764462D01*
X16181908Y65764462D01*
X16181903Y65764462D01*
X15948631Y65727516D01*
X15724003Y65654529D01*
X15513566Y65547305D01*
X15404550Y65468100D01*
X15322490Y65408479D01*
X15322488Y65408477D01*
X15322487Y65408477D01*
X15155485Y65241475D01*
X15155485Y65241474D01*
X15155483Y65241472D01*
X15095862Y65159412D01*
X15016657Y65050396D01*
X14909433Y64839959D01*
X14836446Y64615331D01*
X14799500Y64382060D01*
X14799500Y64145865D01*
X14836447Y63912590D01*
X14837213Y63909399D01*
X14837150Y63908152D01*
X14837209Y63907782D01*
X14837131Y63907770D01*
X14833712Y63839617D01*
X14793040Y63782805D01*
X14728110Y63757001D01*
X14659537Y63770397D01*
X14616317Y63807583D01*
X14593043Y63839617D01*
X14506379Y63958899D01*
X14344937Y64120341D01*
X14160228Y64254541D01*
X13956803Y64358192D01*
X13739660Y64428747D01*
X13514162Y64464462D01*
X13514157Y64464462D01*
X13285843Y64464462D01*
X13285838Y64464462D01*
X13060339Y64428747D01*
X12843196Y64358192D01*
X12639771Y64254541D01*
X12455061Y64120340D01*
X12293622Y63958901D01*
X12159421Y63774191D01*
X12055770Y63570766D01*
X11985215Y63353623D01*
X11949500Y63128125D01*
X500500Y63128125D01*
X500500Y77275090D01*
X34979500Y77275090D01*
X34979500Y77012835D01*
X35006123Y76810623D01*
X35013730Y76752846D01*
X35075408Y76522660D01*
X35081602Y76499544D01*
X35081605Y76499534D01*
X35181953Y76257272D01*
X35181958Y76257262D01*
X35313075Y76030159D01*
X35472718Y75822111D01*
X35472726Y75822102D01*
X35658140Y75636688D01*
X35658148Y75636681D01*
X35866196Y75477038D01*
X36093299Y75345921D01*
X36093309Y75345916D01*
X36335571Y75245568D01*
X36335581Y75245564D01*
X36588884Y75177692D01*
X36848880Y75143462D01*
X36848887Y75143462D01*
X37111113Y75143462D01*
X37111120Y75143462D01*
X37371116Y75177692D01*
X37624419Y75245564D01*
X37866697Y75345919D01*
X38093803Y75477038D01*
X38301851Y75636680D01*
X38301855Y75636685D01*
X38301860Y75636688D01*
X38487274Y75822102D01*
X38487277Y75822107D01*
X38487282Y75822111D01*
X38646924Y76030159D01*
X38778043Y76257265D01*
X38865439Y76468257D01*
X38909280Y76522660D01*
X38975574Y76544725D01*
X39043273Y76527446D01*
X39090884Y76476309D01*
X39094561Y76468257D01*
X39181954Y76257272D01*
X39181958Y76257262D01*
X39313075Y76030159D01*
X39472718Y75822111D01*
X39472726Y75822102D01*
X39658140Y75636688D01*
X39658148Y75636681D01*
X39866196Y75477038D01*
X40093299Y75345921D01*
X40093309Y75345916D01*
X40335571Y75245568D01*
X40335581Y75245564D01*
X40588884Y75177692D01*
X40848880Y75143462D01*
X40848887Y75143462D01*
X41111113Y75143462D01*
X41111120Y75143462D01*
X41371116Y75177692D01*
X41624419Y75245564D01*
X41866697Y75345919D01*
X42093803Y75477038D01*
X42301851Y75636680D01*
X42301855Y75636685D01*
X42301860Y75636688D01*
X42487274Y75822102D01*
X42487277Y75822107D01*
X42487282Y75822111D01*
X42646924Y76030159D01*
X42778043Y76257265D01*
X42878398Y76499543D01*
X42946270Y76752846D01*
X42980500Y77012842D01*
X42980500Y77275082D01*
X42946270Y77535078D01*
X42878398Y77788381D01*
X42868773Y77811617D01*
X42778046Y78030653D01*
X42778041Y78030663D01*
X42646924Y78257766D01*
X42487281Y78465814D01*
X42487274Y78465822D01*
X42301860Y78651236D01*
X42301851Y78651244D01*
X42093803Y78810887D01*
X41866700Y78942004D01*
X41866690Y78942009D01*
X41624428Y79042357D01*
X41624421Y79042359D01*
X41624419Y79042360D01*
X41371116Y79110232D01*
X41313339Y79117839D01*
X41111127Y79144462D01*
X41111120Y79144462D01*
X40848880Y79144462D01*
X40848872Y79144462D01*
X40617772Y79114036D01*
X40588884Y79110232D01*
X40335581Y79042360D01*
X40335571Y79042357D01*
X40093309Y78942009D01*
X40093299Y78942004D01*
X39866196Y78810887D01*
X39658148Y78651244D01*
X39472718Y78465814D01*
X39313075Y78257766D01*
X39181958Y78030663D01*
X39181953Y78030653D01*
X39094561Y77819668D01*
X39050720Y77765265D01*
X38984426Y77743200D01*
X38916726Y77760479D01*
X38869116Y77811617D01*
X38865439Y77819668D01*
X38778046Y78030653D01*
X38778041Y78030663D01*
X38646924Y78257766D01*
X38487281Y78465814D01*
X38487274Y78465822D01*
X38301860Y78651236D01*
X38301851Y78651244D01*
X38093803Y78810887D01*
X37866700Y78942004D01*
X37866690Y78942009D01*
X37624428Y79042357D01*
X37624421Y79042359D01*
X37624419Y79042360D01*
X37371116Y79110232D01*
X37313339Y79117839D01*
X37111127Y79144462D01*
X37111120Y79144462D01*
X36848880Y79144462D01*
X36848872Y79144462D01*
X36617772Y79114036D01*
X36588884Y79110232D01*
X36335581Y79042360D01*
X36335571Y79042357D01*
X36093309Y78942009D01*
X36093299Y78942004D01*
X35866196Y78810887D01*
X35658148Y78651244D01*
X35472718Y78465814D01*
X35313075Y78257766D01*
X35181958Y78030663D01*
X35181953Y78030653D01*
X35081605Y77788391D01*
X35081602Y77788381D01*
X35013730Y77535077D01*
X34979500Y77275090D01*
X500500Y77275090D01*
X500500Y92404394D01*
X5499500Y92404394D01*
X5499500Y92123531D01*
X5530942Y91844468D01*
X5530945Y91844450D01*
X5593439Y91570645D01*
X5593443Y91570633D01*
X5686200Y91305551D01*
X5808053Y91052520D01*
X5808055Y91052517D01*
X5957477Y90814714D01*
X6132584Y90595137D01*
X6331175Y90396546D01*
X6550752Y90221439D01*
X6788555Y90072017D01*
X7041592Y89950161D01*
X7240680Y89880497D01*
X7306670Y89857406D01*
X7306682Y89857402D01*
X7580491Y89794907D01*
X7580497Y89794907D01*
X7580505Y89794905D01*
X7766547Y89773944D01*
X7859569Y89763463D01*
X7859572Y89763462D01*
X7859575Y89763462D01*
X8140428Y89763462D01*
X8140429Y89763463D01*
X8283055Y89779533D01*
X8419494Y89794905D01*
X8419499Y89794906D01*
X8419509Y89794907D01*
X8693318Y89857402D01*
X8958408Y89950161D01*
X9211445Y90072017D01*
X9449248Y90221439D01*
X9668825Y90396546D01*
X9867416Y90595137D01*
X10042523Y90814714D01*
X10191945Y91052517D01*
X10313801Y91305554D01*
X10406560Y91570644D01*
X10469055Y91844453D01*
X10500500Y92123537D01*
X10500500Y92404387D01*
X10500499Y92404394D01*
X57499500Y92404394D01*
X57499500Y92123531D01*
X57530942Y91844468D01*
X57530945Y91844450D01*
X57593439Y91570645D01*
X57593443Y91570633D01*
X57686200Y91305551D01*
X57808053Y91052520D01*
X57808055Y91052517D01*
X57957477Y90814714D01*
X58132584Y90595137D01*
X58331175Y90396546D01*
X58550752Y90221439D01*
X58788555Y90072017D01*
X59041592Y89950161D01*
X59240680Y89880497D01*
X59306670Y89857406D01*
X59306682Y89857402D01*
X59580491Y89794907D01*
X59580497Y89794907D01*
X59580505Y89794905D01*
X59766547Y89773944D01*
X59859569Y89763463D01*
X59859572Y89763462D01*
X59859575Y89763462D01*
X60140428Y89763462D01*
X60140429Y89763463D01*
X60283055Y89779533D01*
X60419494Y89794905D01*
X60419499Y89794906D01*
X60419509Y89794907D01*
X60693318Y89857402D01*
X60958408Y89950161D01*
X61211445Y90072017D01*
X61449248Y90221439D01*
X61668825Y90396546D01*
X61867416Y90595137D01*
X62042523Y90814714D01*
X62191945Y91052517D01*
X62313801Y91305554D01*
X62406560Y91570644D01*
X62469055Y91844453D01*
X62500500Y92123537D01*
X62500500Y92404387D01*
X62469055Y92683471D01*
X62406560Y92957280D01*
X62313801Y93222370D01*
X62191945Y93475407D01*
X62042523Y93713210D01*
X61867416Y93932787D01*
X61668825Y94131378D01*
X61449248Y94306485D01*
X61211445Y94455907D01*
X61211442Y94455909D01*
X60958411Y94577762D01*
X60693329Y94670519D01*
X60693317Y94670523D01*
X60419512Y94733017D01*
X60419494Y94733020D01*
X60140431Y94764462D01*
X60140425Y94764462D01*
X59859575Y94764462D01*
X59859568Y94764462D01*
X59580505Y94733020D01*
X59580487Y94733017D01*
X59306682Y94670523D01*
X59306670Y94670519D01*
X59041588Y94577762D01*
X58788557Y94455909D01*
X58550753Y94306486D01*
X58331175Y94131379D01*
X58132583Y93932787D01*
X57957476Y93713209D01*
X57808053Y93475405D01*
X57686200Y93222374D01*
X57593443Y92957292D01*
X57593439Y92957280D01*
X57530945Y92683475D01*
X57530942Y92683457D01*
X57499500Y92404394D01*
X10500499Y92404394D01*
X10469055Y92683471D01*
X10406560Y92957280D01*
X10313801Y93222370D01*
X10191945Y93475407D01*
X10042523Y93713210D01*
X9867416Y93932787D01*
X9668825Y94131378D01*
X9449248Y94306485D01*
X9211445Y94455907D01*
X9211442Y94455909D01*
X8958411Y94577762D01*
X8693329Y94670519D01*
X8693317Y94670523D01*
X8419512Y94733017D01*
X8419494Y94733020D01*
X8140431Y94764462D01*
X8140425Y94764462D01*
X7859575Y94764462D01*
X7859568Y94764462D01*
X7580505Y94733020D01*
X7580487Y94733017D01*
X7306682Y94670523D01*
X7306670Y94670519D01*
X7041588Y94577762D01*
X6788557Y94455909D01*
X6550753Y94306486D01*
X6331175Y94131379D01*
X6132583Y93932787D01*
X5957476Y93713209D01*
X5808053Y93475405D01*
X5686200Y93222374D01*
X5593443Y92957292D01*
X5593439Y92957280D01*
X5530945Y92683475D01*
X5530942Y92683457D01*
X5499500Y92404394D01*
X500500Y92404394D01*
X500500Y97260212D01*
X500726Y97267699D01*
X518271Y97557757D01*
X520076Y97572622D01*
X571780Y97854760D01*
X575364Y97869298D01*
X660699Y98143150D01*
X665997Y98157120D01*
X783727Y98418704D01*
X790680Y98431950D01*
X830959Y98498581D01*
X939075Y98677428D01*
X947567Y98689732D01*
X1124481Y98915545D01*
X1134396Y98926736D01*
X1337226Y99129566D01*
X1348417Y99139481D01*
X1574230Y99316395D01*
X1586534Y99324887D01*
X1832012Y99473282D01*
X1845258Y99480235D01*
X2106842Y99597965D01*
X2120812Y99603263D01*
X2394668Y99688600D01*
X2409198Y99692182D01*
X2691344Y99743887D01*
X2706201Y99745691D01*
X2996264Y99763236D01*
X3003751Y99763462D01*
X3065892Y99763462D01*
X64934108Y99763462D01*
X64996249Y99763462D01*
X65003736Y99763236D01*
G37*
%TD.AperFunction*%
%TD*%
M02*
