%TF.GenerationSoftware,KiCad,Pcbnew,10.0.6*%
%TF.CreationDate,2026-09-26T14:49:10+01:00*%
%TF.ProjectId,MAIN_POWER,4d41494e-5f50-44f5-9745-522e6b696361,rev?*%
%TF.SameCoordinates,Original*%
%TF.FileFunction,Copper,L3,Inr*%
%TF.FilePolarity,Positive*%
%FSLAX46Y46*%
G04 Gerber Fmt 4.6, Leading zero omitted, Abs format (unit mm)*
G04 Created by KiCad (PCBNEW 10.0.6) date 2026-09-26 14:49:10*
%MOMM*%
%LPD*%
G01*
G04 APERTURE LIST*
G04 Aperture macros list*
%AMRoundRect*
0 Rectangle with rounded corners*
0 $1 Rounding radius*
0 $2 $3 $4 $5 $6 $7 $8 $9 X,Y pos of 4 corners*
0 Add a 4 corners polygon primitive as box body*
4,1,4,$2,$3,$4,$5,$6,$7,$8,$9,$2,$3,0*
0 Add four circle primitives for the rounded corners*
1,1,$1+$1,$2,$3*
1,1,$1+$1,$4,$5*
1,1,$1+$1,$6,$7*
1,1,$1+$1,$8,$9*
0 Add four rect primitives between the rounded corners*
20,1,$1+$1,$2,$3,$4,$5,0*
20,1,$1+$1,$4,$5,$6,$7,0*
20,1,$1+$1,$6,$7,$8,$9,0*
20,1,$1+$1,$8,$9,$2,$3,0*%
G04 Aperture macros list end*
%TA.AperFunction,ComponentPad*%
%ADD10C,2.200000*%
%TD*%
%TA.AperFunction,ComponentPad*%
%ADD11R,3.200000X3.200000*%
%TD*%
%TA.AperFunction,ComponentPad*%
%ADD12C,3.200000*%
%TD*%
%TA.AperFunction,ComponentPad*%
%ADD13RoundRect,0.250001X-1.099999X-1.099999X1.099999X-1.099999X1.099999X1.099999X-1.099999X1.099999X0*%
%TD*%
%TA.AperFunction,ComponentPad*%
%ADD14C,2.700000*%
%TD*%
G04 APERTURE END LIST*
D10*
%TO.N,12V_IN*%
%TO.C,F4*%
X40000000Y43263962D03*
X40000000Y40763962D03*
X43500000Y43263962D03*
X43500000Y40763962D03*
%TO.N,USB_12V*%
X49300000Y43263962D03*
X49300000Y40763962D03*
X52800000Y43263962D03*
X52800000Y40763962D03*
%TD*%
D11*
%TO.N,12V_IN*%
%TO.C,J1*%
X26820000Y87303962D03*
X30820000Y87303962D03*
D12*
%TO.N,GND*%
X36980000Y77143962D03*
X40980000Y77143962D03*
%TD*%
D13*
%TO.N,FAN_12V*%
%TO.C,J4*%
X11000000Y33263962D03*
D14*
%TO.N,GND*%
X14960000Y33263962D03*
%TD*%
D13*
%TO.N,SG4A_12V*%
%TO.C,J3*%
X44000000Y54263962D03*
D14*
%TO.N,GND*%
X47960000Y54263962D03*
%TD*%
D13*
%TO.N,JETSON_12V*%
%TO.C,J2*%
X11000000Y54263962D03*
D14*
%TO.N,GND*%
X14960000Y54263962D03*
%TD*%
D10*
%TO.N,12V_IN*%
%TO.C,F2*%
X40000000Y64263962D03*
X40000000Y61763962D03*
X43500000Y64263962D03*
X43500000Y61763962D03*
%TO.N,SG4A_12V*%
X49300000Y64263962D03*
X49300000Y61763962D03*
X52800000Y64263962D03*
X52800000Y61763962D03*
%TD*%
%TO.N,12V_IN*%
%TO.C,F3*%
X7000000Y43263962D03*
X7000000Y40763962D03*
X10500000Y43263962D03*
X10500000Y40763962D03*
%TO.N,FAN_12V*%
X16300000Y43263962D03*
X16300000Y40763962D03*
X19800000Y43263962D03*
X19800000Y40763962D03*
%TD*%
%TO.N,12V_IN*%
%TO.C,F5*%
X27600000Y22263962D03*
X27600000Y19763962D03*
X31100000Y22263962D03*
X31100000Y19763962D03*
%TO.N,FUSED_BOOST_12V*%
X36900000Y22263962D03*
X36900000Y19763962D03*
X40400000Y22263962D03*
X40400000Y19763962D03*
%TD*%
%TO.N,12V_IN*%
%TO.C,F1*%
X7000000Y64263962D03*
X7000000Y61763962D03*
X10500000Y64263962D03*
X10500000Y61763962D03*
%TO.N,JETSON_12V*%
X16300000Y64263962D03*
X16300000Y61763962D03*
X19800000Y64263962D03*
X19800000Y61763962D03*
%TD*%
D13*
%TO.N,USB_12V*%
%TO.C,J5*%
X44000000Y33263962D03*
D14*
%TO.N,GND*%
X47960000Y33263962D03*
%TD*%
D13*
%TO.N,FUSED_BOOST_12V*%
%TO.C,J6*%
X32020000Y12263962D03*
D14*
%TO.N,GND*%
X35980000Y12263962D03*
%TD*%
%TA.AperFunction,Conductor*%
%TO.N,GND*%
G36*
X65003736Y99763236D02*
G01*
X65293796Y99745691D01*
X65308659Y99743886D01*
X65590797Y99692182D01*
X65605334Y99688599D01*
X65879182Y99603264D01*
X65893163Y99597962D01*
X66154734Y99480238D01*
X66167987Y99473282D01*
X66413458Y99324891D01*
X66425776Y99316389D01*
X66651573Y99139488D01*
X66662781Y99129558D01*
X66865595Y98926744D01*
X66875525Y98915536D01*
X67052422Y98689745D01*
X67060928Y98677421D01*
X67209319Y98431950D01*
X67216277Y98418693D01*
X67333994Y98157139D01*
X67339304Y98143137D01*
X67424635Y97869298D01*
X67428219Y97854760D01*
X67479923Y97572622D01*
X67481728Y97557757D01*
X67499274Y97267699D01*
X67499500Y97260212D01*
X67499500Y3003751D01*
X67499274Y2996264D01*
X67481728Y2706206D01*
X67479923Y2691341D01*
X67428219Y2409203D01*
X67424635Y2394665D01*
X67339304Y2120826D01*
X67333994Y2106824D01*
X67216277Y1845270D01*
X67209319Y1832013D01*
X67060928Y1586542D01*
X67052422Y1574218D01*
X66875525Y1348427D01*
X66865595Y1337219D01*
X66662781Y1134405D01*
X66651573Y1124475D01*
X66425782Y947578D01*
X66413458Y939072D01*
X66167987Y790681D01*
X66154730Y783723D01*
X65893176Y666006D01*
X65879174Y660696D01*
X65605335Y575365D01*
X65590797Y571781D01*
X65308659Y520077D01*
X65293794Y518272D01*
X65003736Y500726D01*
X64996249Y500500D01*
X3003751Y500500D01*
X2996264Y500726D01*
X2706205Y518272D01*
X2691340Y520077D01*
X2409202Y571781D01*
X2394664Y575365D01*
X2120825Y660696D01*
X2106827Y666005D01*
X1954096Y734744D01*
X1845269Y783723D01*
X1832012Y790681D01*
X1586541Y939072D01*
X1574217Y947578D01*
X1348426Y1124475D01*
X1337218Y1134405D01*
X1134404Y1337219D01*
X1124474Y1348427D01*
X947573Y1574224D01*
X939071Y1586542D01*
X790680Y1832013D01*
X783722Y1845270D01*
X666000Y2106837D01*
X660698Y2120818D01*
X575363Y2394666D01*
X571780Y2409203D01*
X520076Y2691341D01*
X518271Y2706206D01*
X500726Y2996264D01*
X500500Y3003751D01*
X500500Y8140432D01*
X5499500Y8140432D01*
X5499500Y7859569D01*
X5530942Y7580506D01*
X5530945Y7580488D01*
X5593439Y7306683D01*
X5593443Y7306671D01*
X5686200Y7041589D01*
X5808053Y6788558D01*
X5808055Y6788555D01*
X5957477Y6550752D01*
X6132584Y6331175D01*
X6331175Y6132584D01*
X6550752Y5957477D01*
X6788555Y5808055D01*
X7041592Y5686199D01*
X7240680Y5616535D01*
X7306670Y5593444D01*
X7306682Y5593440D01*
X7580491Y5530945D01*
X7580497Y5530945D01*
X7580505Y5530943D01*
X7766547Y5509982D01*
X7859569Y5499501D01*
X7859572Y5499500D01*
X7859575Y5499500D01*
X8140428Y5499500D01*
X8140429Y5499501D01*
X8283055Y5515571D01*
X8419494Y5530943D01*
X8419499Y5530944D01*
X8419509Y5530945D01*
X8693318Y5593440D01*
X8958408Y5686199D01*
X9211445Y5808055D01*
X9449248Y5957477D01*
X9668825Y6132584D01*
X9867416Y6331175D01*
X10042523Y6550752D01*
X10191945Y6788555D01*
X10313801Y7041592D01*
X10406560Y7306682D01*
X10469055Y7580491D01*
X10500500Y7859575D01*
X10500500Y8140425D01*
X10500499Y8140432D01*
X57499500Y8140432D01*
X57499500Y7859569D01*
X57530942Y7580506D01*
X57530945Y7580488D01*
X57593439Y7306683D01*
X57593443Y7306671D01*
X57686200Y7041589D01*
X57808053Y6788558D01*
X57808055Y6788555D01*
X57957477Y6550752D01*
X58132584Y6331175D01*
X58331175Y6132584D01*
X58550752Y5957477D01*
X58788555Y5808055D01*
X59041592Y5686199D01*
X59240680Y5616535D01*
X59306670Y5593444D01*
X59306682Y5593440D01*
X59580491Y5530945D01*
X59580497Y5530945D01*
X59580505Y5530943D01*
X59766547Y5509982D01*
X59859569Y5499501D01*
X59859572Y5499500D01*
X59859575Y5499500D01*
X60140428Y5499500D01*
X60140429Y5499501D01*
X60283055Y5515571D01*
X60419494Y5530943D01*
X60419499Y5530944D01*
X60419509Y5530945D01*
X60693318Y5593440D01*
X60958408Y5686199D01*
X61211445Y5808055D01*
X61449248Y5957477D01*
X61668825Y6132584D01*
X61867416Y6331175D01*
X62042523Y6550752D01*
X62191945Y6788555D01*
X62313801Y7041592D01*
X62406560Y7306682D01*
X62469055Y7580491D01*
X62500500Y7859575D01*
X62500500Y8140425D01*
X62469055Y8419509D01*
X62406560Y8693318D01*
X62313801Y8958408D01*
X62191945Y9211445D01*
X62042523Y9449248D01*
X61867416Y9668825D01*
X61668825Y9867416D01*
X61449248Y10042523D01*
X61211445Y10191945D01*
X61211442Y10191947D01*
X60958411Y10313800D01*
X60693329Y10406557D01*
X60693317Y10406561D01*
X60419512Y10469055D01*
X60419494Y10469058D01*
X60140431Y10500500D01*
X60140425Y10500500D01*
X59859575Y10500500D01*
X59859568Y10500500D01*
X59580505Y10469058D01*
X59580487Y10469055D01*
X59306682Y10406561D01*
X59306670Y10406557D01*
X59041588Y10313800D01*
X58788557Y10191947D01*
X58550753Y10042524D01*
X58331175Y9867417D01*
X58132583Y9668825D01*
X57957476Y9449247D01*
X57808053Y9211443D01*
X57686200Y8958412D01*
X57593443Y8693330D01*
X57593439Y8693318D01*
X57530945Y8419513D01*
X57530942Y8419495D01*
X57499500Y8140432D01*
X10500499Y8140432D01*
X10469055Y8419509D01*
X10406560Y8693318D01*
X10313801Y8958408D01*
X10191945Y9211445D01*
X10042523Y9449248D01*
X9867416Y9668825D01*
X9668825Y9867416D01*
X9449248Y10042523D01*
X9211445Y10191945D01*
X9211442Y10191947D01*
X8958411Y10313800D01*
X8693329Y10406557D01*
X8693317Y10406561D01*
X8419512Y10469055D01*
X8419494Y10469058D01*
X8140431Y10500500D01*
X8140425Y10500500D01*
X7859575Y10500500D01*
X7859568Y10500500D01*
X7580505Y10469058D01*
X7580487Y10469055D01*
X7306682Y10406561D01*
X7306670Y10406557D01*
X7041588Y10313800D01*
X6788557Y10191947D01*
X6550753Y10042524D01*
X6331175Y9867417D01*
X6132583Y9668825D01*
X5957476Y9449247D01*
X5808053Y9211443D01*
X5686200Y8958412D01*
X5593443Y8693330D01*
X5593439Y8693318D01*
X5530945Y8419513D01*
X5530942Y8419495D01*
X5499500Y8140432D01*
X500500Y8140432D01*
X500500Y13429664D01*
X30269500Y13429664D01*
X30269500Y11098261D01*
X30272401Y11061395D01*
X30272402Y11061389D01*
X30318253Y10903570D01*
X30318255Y10903567D01*
X30401917Y10762101D01*
X30401923Y10762093D01*
X30518130Y10645886D01*
X30518134Y10645883D01*
X30518136Y10645881D01*
X30659603Y10562218D01*
X30659604Y10562218D01*
X30659607Y10562216D01*
X30817426Y10516365D01*
X30817429Y10516365D01*
X30817431Y10516364D01*
X30854306Y10513462D01*
X30854314Y10513462D01*
X33185686Y10513462D01*
X33185694Y10513462D01*
X33222569Y10516364D01*
X33222571Y10516365D01*
X33222573Y10516365D01*
X33380392Y10562216D01*
X33380393Y10562217D01*
X33380397Y10562218D01*
X33521864Y10645881D01*
X33638081Y10762098D01*
X33721744Y10903565D01*
X33721745Y10903569D01*
X33721746Y10903570D01*
X33767597Y11061389D01*
X33767598Y11061395D01*
X33770499Y11098261D01*
X33770500Y11098268D01*
X33770500Y13429656D01*
X33767598Y13466531D01*
X33767597Y13466536D01*
X33721746Y13624355D01*
X33721744Y13624358D01*
X33721744Y13624359D01*
X33638081Y13765826D01*
X33638079Y13765828D01*
X33638076Y13765832D01*
X33521869Y13882039D01*
X33521861Y13882045D01*
X33380395Y13965707D01*
X33380392Y13965709D01*
X33222573Y14011560D01*
X33222567Y14011561D01*
X33185701Y14014462D01*
X33185694Y14014462D01*
X30854306Y14014462D01*
X30854298Y14014462D01*
X30817432Y14011561D01*
X30817426Y14011560D01*
X30659607Y13965709D01*
X30659604Y13965707D01*
X30518138Y13882045D01*
X30518130Y13882039D01*
X30401923Y13765832D01*
X30401917Y13765824D01*
X30318255Y13624358D01*
X30318253Y13624355D01*
X30272402Y13466536D01*
X30272401Y13466530D01*
X30269500Y13429664D01*
X500500Y13429664D01*
X500500Y22382060D01*
X26099500Y22382060D01*
X26099500Y22145865D01*
X26136446Y21912594D01*
X26209433Y21687966D01*
X26304887Y21500629D01*
X26316657Y21477529D01*
X26455483Y21286452D01*
X26455485Y21286450D01*
X26622490Y21119445D01*
X26629603Y21114277D01*
X26672266Y21058945D01*
X26678242Y20989332D01*
X26645634Y20927538D01*
X26629603Y20913647D01*
X26622490Y20908480D01*
X26455485Y20741475D01*
X26455485Y20741474D01*
X26455483Y20741472D01*
X26406681Y20674302D01*
X26316657Y20550396D01*
X26209433Y20339959D01*
X26136446Y20115331D01*
X26099500Y19882060D01*
X26099500Y19645865D01*
X26136446Y19412594D01*
X26209433Y19187966D01*
X26316657Y18977529D01*
X26455483Y18786452D01*
X26622490Y18619445D01*
X26813567Y18480619D01*
X26912991Y18429960D01*
X27024003Y18373396D01*
X27024005Y18373396D01*
X27024008Y18373394D01*
X27144412Y18334273D01*
X27248631Y18300409D01*
X27481903Y18263462D01*
X27481908Y18263462D01*
X27718097Y18263462D01*
X27951368Y18300409D01*
X28175992Y18373394D01*
X28386433Y18480619D01*
X28577510Y18619445D01*
X28744517Y18786452D01*
X28883343Y18977529D01*
X28990568Y19187970D01*
X29063553Y19412594D01*
X29093105Y19599178D01*
X29100500Y19645865D01*
X29100500Y19882060D01*
X29063553Y20115331D01*
X29013627Y20268986D01*
X28990568Y20339954D01*
X28990566Y20339957D01*
X28990566Y20339959D01*
X28930847Y20457163D01*
X28883343Y20550395D01*
X28744517Y20741472D01*
X28577510Y20908479D01*
X28570401Y20913644D01*
X28527735Y20968974D01*
X28521756Y21038587D01*
X28554362Y21100382D01*
X28570401Y21114280D01*
X28570500Y21114353D01*
X28577510Y21119445D01*
X28744517Y21286452D01*
X28883343Y21477529D01*
X28990568Y21687970D01*
X29063553Y21912594D01*
X29070887Y21958901D01*
X29100500Y22145865D01*
X29100500Y22382060D01*
X29599500Y22382060D01*
X29599500Y22145865D01*
X29636446Y21912594D01*
X29709433Y21687966D01*
X29804887Y21500629D01*
X29816657Y21477529D01*
X29955483Y21286452D01*
X29955485Y21286450D01*
X30122490Y21119445D01*
X30129603Y21114277D01*
X30172266Y21058945D01*
X30178242Y20989332D01*
X30145634Y20927538D01*
X30129603Y20913647D01*
X30122490Y20908480D01*
X29955485Y20741475D01*
X29955485Y20741474D01*
X29955483Y20741472D01*
X29906681Y20674302D01*
X29816657Y20550396D01*
X29709433Y20339959D01*
X29636446Y20115331D01*
X29599500Y19882060D01*
X29599500Y19645865D01*
X29636446Y19412594D01*
X29709433Y19187966D01*
X29816657Y18977529D01*
X29955483Y18786452D01*
X30122490Y18619445D01*
X30313567Y18480619D01*
X30412991Y18429960D01*
X30524003Y18373396D01*
X30524005Y18373396D01*
X30524008Y18373394D01*
X30644412Y18334273D01*
X30748631Y18300409D01*
X30981903Y18263462D01*
X30981908Y18263462D01*
X31218097Y18263462D01*
X31451368Y18300409D01*
X31675992Y18373394D01*
X31886433Y18480619D01*
X32077510Y18619445D01*
X32244517Y18786452D01*
X32383343Y18977529D01*
X32490568Y19187970D01*
X32563553Y19412594D01*
X32593105Y19599178D01*
X32600500Y19645865D01*
X32600500Y19882060D01*
X32563552Y20115331D01*
X32563551Y20115337D01*
X32562789Y20118515D01*
X32562851Y20119761D01*
X32562791Y20120142D01*
X32562871Y20120155D01*
X32566283Y20188298D01*
X32606950Y20245113D01*
X32671878Y20270923D01*
X32740452Y20257533D01*
X32783681Y20220343D01*
X32893621Y20069025D01*
X33055063Y19907583D01*
X33239772Y19773383D01*
X33335884Y19724412D01*
X33443196Y19669733D01*
X33443198Y19669733D01*
X33443201Y19669731D01*
X33516653Y19645865D01*
X33660339Y19599178D01*
X33885838Y19563462D01*
X33885843Y19563462D01*
X34114162Y19563462D01*
X34339660Y19599178D01*
X34556799Y19669731D01*
X34760228Y19773383D01*
X34944937Y19907583D01*
X35106379Y20069025D01*
X35216319Y20220344D01*
X35271647Y20263007D01*
X35341260Y20268986D01*
X35403055Y20236380D01*
X35437413Y20175541D01*
X35437214Y20118530D01*
X35436447Y20115337D01*
X35399500Y19882060D01*
X35399500Y19645865D01*
X35436446Y19412594D01*
X35509433Y19187966D01*
X35616657Y18977529D01*
X35755483Y18786452D01*
X35922490Y18619445D01*
X36113567Y18480619D01*
X36212991Y18429960D01*
X36324003Y18373396D01*
X36324005Y18373396D01*
X36324008Y18373394D01*
X36444412Y18334273D01*
X36548631Y18300409D01*
X36781903Y18263462D01*
X36781908Y18263462D01*
X37018097Y18263462D01*
X37251368Y18300409D01*
X37475992Y18373394D01*
X37686433Y18480619D01*
X37877510Y18619445D01*
X38044517Y18786452D01*
X38183343Y18977529D01*
X38290568Y19187970D01*
X38363553Y19412594D01*
X38393105Y19599178D01*
X38400500Y19645865D01*
X38400500Y19882060D01*
X38363553Y20115331D01*
X38313627Y20268986D01*
X38290568Y20339954D01*
X38290566Y20339957D01*
X38290566Y20339959D01*
X38230847Y20457163D01*
X38183343Y20550395D01*
X38044517Y20741472D01*
X37877510Y20908479D01*
X37870401Y20913644D01*
X37827735Y20968974D01*
X37821756Y21038587D01*
X37854362Y21100382D01*
X37870401Y21114280D01*
X37870500Y21114353D01*
X37877510Y21119445D01*
X38044517Y21286452D01*
X38183343Y21477529D01*
X38290568Y21687970D01*
X38363553Y21912594D01*
X38370887Y21958901D01*
X38400500Y22145865D01*
X38400500Y22382060D01*
X38899500Y22382060D01*
X38899500Y22145865D01*
X38936446Y21912594D01*
X39009433Y21687966D01*
X39104887Y21500629D01*
X39116657Y21477529D01*
X39255483Y21286452D01*
X39255485Y21286450D01*
X39422490Y21119445D01*
X39429603Y21114277D01*
X39472266Y21058945D01*
X39478242Y20989332D01*
X39445634Y20927538D01*
X39429603Y20913647D01*
X39422490Y20908480D01*
X39255485Y20741475D01*
X39255485Y20741474D01*
X39255483Y20741472D01*
X39206681Y20674302D01*
X39116657Y20550396D01*
X39009433Y20339959D01*
X38936446Y20115331D01*
X38899500Y19882060D01*
X38899500Y19645865D01*
X38936446Y19412594D01*
X39009433Y19187966D01*
X39116657Y18977529D01*
X39255483Y18786452D01*
X39422490Y18619445D01*
X39613567Y18480619D01*
X39712991Y18429960D01*
X39824003Y18373396D01*
X39824005Y18373396D01*
X39824008Y18373394D01*
X39944412Y18334273D01*
X40048631Y18300409D01*
X40281903Y18263462D01*
X40281908Y18263462D01*
X40518097Y18263462D01*
X40751368Y18300409D01*
X40975992Y18373394D01*
X41186433Y18480619D01*
X41377510Y18619445D01*
X41544517Y18786452D01*
X41683343Y18977529D01*
X41790568Y19187970D01*
X41863553Y19412594D01*
X41893105Y19599178D01*
X41900500Y19645865D01*
X41900500Y19882060D01*
X41863553Y20115331D01*
X41813627Y20268986D01*
X41790568Y20339954D01*
X41790566Y20339957D01*
X41790566Y20339959D01*
X41730847Y20457163D01*
X41683343Y20550395D01*
X41544517Y20741472D01*
X41377510Y20908479D01*
X41370401Y20913644D01*
X41327735Y20968974D01*
X41321756Y21038587D01*
X41354362Y21100382D01*
X41370401Y21114280D01*
X41370500Y21114353D01*
X41377510Y21119445D01*
X41544517Y21286452D01*
X41683343Y21477529D01*
X41790568Y21687970D01*
X41863553Y21912594D01*
X41870887Y21958901D01*
X41900500Y22145865D01*
X41900500Y22382060D01*
X41863553Y22615331D01*
X41790566Y22839959D01*
X41683342Y23050396D01*
X41544517Y23241472D01*
X41377510Y23408479D01*
X41186433Y23547305D01*
X40975996Y23654529D01*
X40751368Y23727516D01*
X40518097Y23764462D01*
X40518092Y23764462D01*
X40281908Y23764462D01*
X40281903Y23764462D01*
X40048631Y23727516D01*
X39824003Y23654529D01*
X39613566Y23547305D01*
X39504550Y23468100D01*
X39422490Y23408479D01*
X39422488Y23408477D01*
X39422487Y23408477D01*
X39255485Y23241475D01*
X39255485Y23241474D01*
X39255483Y23241472D01*
X39195862Y23159412D01*
X39116657Y23050396D01*
X39009433Y22839959D01*
X38936446Y22615331D01*
X38899500Y22382060D01*
X38400500Y22382060D01*
X38363553Y22615331D01*
X38290566Y22839959D01*
X38183342Y23050396D01*
X38044517Y23241472D01*
X37877510Y23408479D01*
X37686433Y23547305D01*
X37475996Y23654529D01*
X37251368Y23727516D01*
X37018097Y23764462D01*
X37018092Y23764462D01*
X36781908Y23764462D01*
X36781903Y23764462D01*
X36548631Y23727516D01*
X36324003Y23654529D01*
X36113566Y23547305D01*
X36004550Y23468100D01*
X35922490Y23408479D01*
X35922488Y23408477D01*
X35922487Y23408477D01*
X35755485Y23241475D01*
X35755485Y23241474D01*
X35755483Y23241472D01*
X35695862Y23159412D01*
X35616657Y23050396D01*
X35509433Y22839959D01*
X35436446Y22615331D01*
X35399500Y22382060D01*
X35399500Y22145865D01*
X35436447Y21912590D01*
X35437213Y21909399D01*
X35437150Y21908152D01*
X35437209Y21907782D01*
X35437131Y21907770D01*
X35433712Y21839617D01*
X35393040Y21782805D01*
X35328110Y21757001D01*
X35259537Y21770397D01*
X35216317Y21807583D01*
X35193043Y21839617D01*
X35106379Y21958899D01*
X34944937Y22120341D01*
X34760228Y22254541D01*
X34556803Y22358192D01*
X34339660Y22428747D01*
X34114162Y22464462D01*
X34114157Y22464462D01*
X33885843Y22464462D01*
X33885838Y22464462D01*
X33660339Y22428747D01*
X33443196Y22358192D01*
X33239771Y22254541D01*
X33055061Y22120340D01*
X32893623Y21958902D01*
X32893616Y21958893D01*
X32783681Y21807583D01*
X32728351Y21764917D01*
X32658738Y21758939D01*
X32596943Y21791545D01*
X32562586Y21852385D01*
X32562789Y21909413D01*
X32563550Y21912586D01*
X32563553Y21912594D01*
X32570887Y21958902D01*
X32600500Y22145865D01*
X32600500Y22382060D01*
X32563553Y22615331D01*
X32490566Y22839959D01*
X32383342Y23050396D01*
X32244517Y23241472D01*
X32077510Y23408479D01*
X31886433Y23547305D01*
X31675996Y23654529D01*
X31451368Y23727516D01*
X31218097Y23764462D01*
X31218092Y23764462D01*
X30981908Y23764462D01*
X30981903Y23764462D01*
X30748631Y23727516D01*
X30524003Y23654529D01*
X30313566Y23547305D01*
X30204550Y23468100D01*
X30122490Y23408479D01*
X30122488Y23408477D01*
X30122487Y23408477D01*
X29955485Y23241475D01*
X29955485Y23241474D01*
X29955483Y23241472D01*
X29895862Y23159412D01*
X29816657Y23050396D01*
X29709433Y22839959D01*
X29636446Y22615331D01*
X29599500Y22382060D01*
X29100500Y22382060D01*
X29063553Y22615331D01*
X28990566Y22839959D01*
X28883342Y23050396D01*
X28744517Y23241472D01*
X28577510Y23408479D01*
X28386433Y23547305D01*
X28175996Y23654529D01*
X27951368Y23727516D01*
X27718097Y23764462D01*
X27718092Y23764462D01*
X27481908Y23764462D01*
X27481903Y23764462D01*
X27248631Y23727516D01*
X27024003Y23654529D01*
X26813566Y23547305D01*
X26704550Y23468100D01*
X26622490Y23408479D01*
X26622488Y23408477D01*
X26622487Y23408477D01*
X26455485Y23241475D01*
X26455485Y23241474D01*
X26455483Y23241472D01*
X26395862Y23159412D01*
X26316657Y23050396D01*
X26209433Y22839959D01*
X26136446Y22615331D01*
X26099500Y22382060D01*
X500500Y22382060D01*
X500500Y34429664D01*
X9249500Y34429664D01*
X9249500Y32098261D01*
X9252401Y32061395D01*
X9252402Y32061389D01*
X9298253Y31903570D01*
X9298255Y31903567D01*
X9381917Y31762101D01*
X9381923Y31762093D01*
X9498130Y31645886D01*
X9498134Y31645883D01*
X9498136Y31645881D01*
X9639603Y31562218D01*
X9639604Y31562218D01*
X9639607Y31562216D01*
X9797426Y31516365D01*
X9797429Y31516365D01*
X9797431Y31516364D01*
X9834306Y31513462D01*
X9834314Y31513462D01*
X12165686Y31513462D01*
X12165694Y31513462D01*
X12202569Y31516364D01*
X12202571Y31516365D01*
X12202573Y31516365D01*
X12360392Y31562216D01*
X12360393Y31562217D01*
X12360397Y31562218D01*
X12501864Y31645881D01*
X12618081Y31762098D01*
X12701744Y31903565D01*
X12701745Y31903569D01*
X12701746Y31903570D01*
X12747597Y32061389D01*
X12747598Y32061395D01*
X12750499Y32098261D01*
X12750500Y32098268D01*
X12750500Y34429656D01*
X12750499Y34429664D01*
X42249500Y34429664D01*
X42249500Y32098261D01*
X42252401Y32061395D01*
X42252402Y32061389D01*
X42298253Y31903570D01*
X42298255Y31903567D01*
X42381917Y31762101D01*
X42381923Y31762093D01*
X42498130Y31645886D01*
X42498134Y31645883D01*
X42498136Y31645881D01*
X42639603Y31562218D01*
X42639604Y31562218D01*
X42639607Y31562216D01*
X42797426Y31516365D01*
X42797429Y31516365D01*
X42797431Y31516364D01*
X42834306Y31513462D01*
X42834314Y31513462D01*
X45165686Y31513462D01*
X45165694Y31513462D01*
X45202569Y31516364D01*
X45202571Y31516365D01*
X45202573Y31516365D01*
X45360392Y31562216D01*
X45360393Y31562217D01*
X45360397Y31562218D01*
X45501864Y31645881D01*
X45618081Y31762098D01*
X45701744Y31903565D01*
X45701745Y31903569D01*
X45701746Y31903570D01*
X45747597Y32061389D01*
X45747598Y32061395D01*
X45750499Y32098261D01*
X45750500Y32098268D01*
X45750500Y34429656D01*
X45747598Y34466531D01*
X45747597Y34466536D01*
X45701746Y34624355D01*
X45701744Y34624358D01*
X45701744Y34624359D01*
X45618081Y34765826D01*
X45618079Y34765828D01*
X45618076Y34765832D01*
X45501869Y34882039D01*
X45501861Y34882045D01*
X45360395Y34965707D01*
X45360392Y34965709D01*
X45202573Y35011560D01*
X45202567Y35011561D01*
X45165701Y35014462D01*
X45165694Y35014462D01*
X42834306Y35014462D01*
X42834298Y35014462D01*
X42797432Y35011561D01*
X42797426Y35011560D01*
X42639607Y34965709D01*
X42639604Y34965707D01*
X42498138Y34882045D01*
X42498130Y34882039D01*
X42381923Y34765832D01*
X42381917Y34765824D01*
X42298255Y34624358D01*
X42298253Y34624355D01*
X42252402Y34466536D01*
X42252401Y34466530D01*
X42249500Y34429664D01*
X12750499Y34429664D01*
X12747598Y34466531D01*
X12747597Y34466536D01*
X12701746Y34624355D01*
X12701744Y34624358D01*
X12701744Y34624359D01*
X12618081Y34765826D01*
X12618079Y34765828D01*
X12618076Y34765832D01*
X12501869Y34882039D01*
X12501861Y34882045D01*
X12360395Y34965707D01*
X12360392Y34965709D01*
X12202573Y35011560D01*
X12202567Y35011561D01*
X12165701Y35014462D01*
X12165694Y35014462D01*
X9834306Y35014462D01*
X9834298Y35014462D01*
X9797432Y35011561D01*
X9797426Y35011560D01*
X9639607Y34965709D01*
X9639604Y34965707D01*
X9498138Y34882045D01*
X9498130Y34882039D01*
X9381923Y34765832D01*
X9381917Y34765824D01*
X9298255Y34624358D01*
X9298253Y34624355D01*
X9252402Y34466536D01*
X9252401Y34466530D01*
X9249500Y34429664D01*
X500500Y34429664D01*
X500500Y43382060D01*
X5499500Y43382060D01*
X5499500Y43145865D01*
X5536446Y42912594D01*
X5609433Y42687966D01*
X5704887Y42500629D01*
X5716657Y42477529D01*
X5855483Y42286452D01*
X5855485Y42286450D01*
X6022490Y42119445D01*
X6029603Y42114277D01*
X6072266Y42058945D01*
X6078242Y41989332D01*
X6045634Y41927538D01*
X6029603Y41913647D01*
X6022490Y41908480D01*
X5855485Y41741475D01*
X5855485Y41741474D01*
X5855483Y41741472D01*
X5806681Y41674302D01*
X5716657Y41550396D01*
X5609433Y41339959D01*
X5536446Y41115331D01*
X5499500Y40882060D01*
X5499500Y40645865D01*
X5536446Y40412594D01*
X5609433Y40187966D01*
X5716657Y39977529D01*
X5855483Y39786452D01*
X6022490Y39619445D01*
X6213567Y39480619D01*
X6312991Y39429960D01*
X6424003Y39373396D01*
X6424005Y39373396D01*
X6424008Y39373394D01*
X6544412Y39334273D01*
X6648631Y39300409D01*
X6881903Y39263462D01*
X6881908Y39263462D01*
X7118097Y39263462D01*
X7351368Y39300409D01*
X7575992Y39373394D01*
X7786433Y39480619D01*
X7977510Y39619445D01*
X8144517Y39786452D01*
X8283343Y39977529D01*
X8390568Y40187970D01*
X8463553Y40412594D01*
X8493105Y40599178D01*
X8500500Y40645865D01*
X8500500Y40882060D01*
X8463553Y41115331D01*
X8413627Y41268986D01*
X8390568Y41339954D01*
X8390566Y41339957D01*
X8390566Y41339959D01*
X8330847Y41457163D01*
X8283343Y41550395D01*
X8144517Y41741472D01*
X7977510Y41908479D01*
X7970401Y41913644D01*
X7927735Y41968974D01*
X7921756Y42038587D01*
X7954362Y42100382D01*
X7970401Y42114280D01*
X7970500Y42114353D01*
X7977510Y42119445D01*
X8144517Y42286452D01*
X8283343Y42477529D01*
X8390568Y42687970D01*
X8463553Y42912594D01*
X8470887Y42958901D01*
X8500500Y43145865D01*
X8500500Y43382060D01*
X8999500Y43382060D01*
X8999500Y43145865D01*
X9036446Y42912594D01*
X9109433Y42687966D01*
X9204887Y42500629D01*
X9216657Y42477529D01*
X9355483Y42286452D01*
X9355485Y42286450D01*
X9522490Y42119445D01*
X9529603Y42114277D01*
X9572266Y42058945D01*
X9578242Y41989332D01*
X9545634Y41927538D01*
X9529603Y41913647D01*
X9522490Y41908480D01*
X9355485Y41741475D01*
X9355485Y41741474D01*
X9355483Y41741472D01*
X9306681Y41674302D01*
X9216657Y41550396D01*
X9109433Y41339959D01*
X9036446Y41115331D01*
X8999500Y40882060D01*
X8999500Y40645865D01*
X9036446Y40412594D01*
X9109433Y40187966D01*
X9216657Y39977529D01*
X9355483Y39786452D01*
X9522490Y39619445D01*
X9713567Y39480619D01*
X9812991Y39429960D01*
X9924003Y39373396D01*
X9924005Y39373396D01*
X9924008Y39373394D01*
X10044412Y39334273D01*
X10148631Y39300409D01*
X10381903Y39263462D01*
X10381908Y39263462D01*
X10618097Y39263462D01*
X10851368Y39300409D01*
X11075992Y39373394D01*
X11286433Y39480619D01*
X11477510Y39619445D01*
X11644517Y39786452D01*
X11783343Y39977529D01*
X11890568Y40187970D01*
X11963553Y40412594D01*
X11993105Y40599178D01*
X12000500Y40645865D01*
X12000500Y40882060D01*
X11963552Y41115331D01*
X11963551Y41115337D01*
X11962789Y41118515D01*
X11962851Y41119761D01*
X11962791Y41120142D01*
X11962871Y41120155D01*
X11966283Y41188298D01*
X12006950Y41245113D01*
X12071878Y41270923D01*
X12140452Y41257533D01*
X12183681Y41220343D01*
X12293621Y41069025D01*
X12455063Y40907583D01*
X12639772Y40773383D01*
X12735884Y40724412D01*
X12843196Y40669733D01*
X12843198Y40669733D01*
X12843201Y40669731D01*
X12916653Y40645865D01*
X13060339Y40599178D01*
X13285838Y40563462D01*
X13285843Y40563462D01*
X13514162Y40563462D01*
X13739660Y40599178D01*
X13956799Y40669731D01*
X14160228Y40773383D01*
X14344937Y40907583D01*
X14506379Y41069025D01*
X14616319Y41220344D01*
X14671647Y41263007D01*
X14741260Y41268986D01*
X14803055Y41236380D01*
X14837413Y41175541D01*
X14837214Y41118530D01*
X14836447Y41115337D01*
X14799500Y40882060D01*
X14799500Y40645865D01*
X14836446Y40412594D01*
X14909433Y40187966D01*
X15016657Y39977529D01*
X15155483Y39786452D01*
X15322490Y39619445D01*
X15513567Y39480619D01*
X15612991Y39429960D01*
X15724003Y39373396D01*
X15724005Y39373396D01*
X15724008Y39373394D01*
X15844412Y39334273D01*
X15948631Y39300409D01*
X16181903Y39263462D01*
X16181908Y39263462D01*
X16418097Y39263462D01*
X16651368Y39300409D01*
X16875992Y39373394D01*
X17086433Y39480619D01*
X17277510Y39619445D01*
X17444517Y39786452D01*
X17583343Y39977529D01*
X17690568Y40187970D01*
X17763553Y40412594D01*
X17793105Y40599178D01*
X17800500Y40645865D01*
X17800500Y40882060D01*
X17763553Y41115331D01*
X17713627Y41268986D01*
X17690568Y41339954D01*
X17690566Y41339957D01*
X17690566Y41339959D01*
X17630847Y41457163D01*
X17583343Y41550395D01*
X17444517Y41741472D01*
X17277510Y41908479D01*
X17270401Y41913644D01*
X17227735Y41968974D01*
X17221756Y42038587D01*
X17254362Y42100382D01*
X17270401Y42114280D01*
X17270500Y42114353D01*
X17277510Y42119445D01*
X17444517Y42286452D01*
X17583343Y42477529D01*
X17690568Y42687970D01*
X17763553Y42912594D01*
X17770887Y42958901D01*
X17800500Y43145865D01*
X17800500Y43382060D01*
X18299500Y43382060D01*
X18299500Y43145865D01*
X18336446Y42912594D01*
X18409433Y42687966D01*
X18504887Y42500629D01*
X18516657Y42477529D01*
X18655483Y42286452D01*
X18655485Y42286450D01*
X18822490Y42119445D01*
X18829603Y42114277D01*
X18872266Y42058945D01*
X18878242Y41989332D01*
X18845634Y41927538D01*
X18829603Y41913647D01*
X18822490Y41908480D01*
X18655485Y41741475D01*
X18655485Y41741474D01*
X18655483Y41741472D01*
X18606681Y41674302D01*
X18516657Y41550396D01*
X18409433Y41339959D01*
X18336446Y41115331D01*
X18299500Y40882060D01*
X18299500Y40645865D01*
X18336446Y40412594D01*
X18409433Y40187966D01*
X18516657Y39977529D01*
X18655483Y39786452D01*
X18822490Y39619445D01*
X19013567Y39480619D01*
X19112991Y39429960D01*
X19224003Y39373396D01*
X19224005Y39373396D01*
X19224008Y39373394D01*
X19344412Y39334273D01*
X19448631Y39300409D01*
X19681903Y39263462D01*
X19681908Y39263462D01*
X19918097Y39263462D01*
X20151368Y39300409D01*
X20375992Y39373394D01*
X20586433Y39480619D01*
X20777510Y39619445D01*
X20944517Y39786452D01*
X21083343Y39977529D01*
X21190568Y40187970D01*
X21263553Y40412594D01*
X21293105Y40599178D01*
X21300500Y40645865D01*
X21300500Y40882060D01*
X21263553Y41115331D01*
X21213627Y41268986D01*
X21190568Y41339954D01*
X21190566Y41339957D01*
X21190566Y41339959D01*
X21130847Y41457163D01*
X21083343Y41550395D01*
X20944517Y41741472D01*
X20777510Y41908479D01*
X20770401Y41913644D01*
X20727735Y41968974D01*
X20721756Y42038587D01*
X20754362Y42100382D01*
X20770401Y42114280D01*
X20770500Y42114353D01*
X20777510Y42119445D01*
X20944517Y42286452D01*
X21083343Y42477529D01*
X21190568Y42687970D01*
X21263553Y42912594D01*
X21270887Y42958901D01*
X21300500Y43145865D01*
X21300500Y43382060D01*
X38499500Y43382060D01*
X38499500Y43145865D01*
X38536446Y42912594D01*
X38609433Y42687966D01*
X38704887Y42500629D01*
X38716657Y42477529D01*
X38855483Y42286452D01*
X38855485Y42286450D01*
X39022490Y42119445D01*
X39029603Y42114277D01*
X39072266Y42058945D01*
X39078242Y41989332D01*
X39045634Y41927538D01*
X39029603Y41913647D01*
X39022490Y41908480D01*
X38855485Y41741475D01*
X38855485Y41741474D01*
X38855483Y41741472D01*
X38806681Y41674302D01*
X38716657Y41550396D01*
X38609433Y41339959D01*
X38536446Y41115331D01*
X38499500Y40882060D01*
X38499500Y40645865D01*
X38536446Y40412594D01*
X38609433Y40187966D01*
X38716657Y39977529D01*
X38855483Y39786452D01*
X39022490Y39619445D01*
X39213567Y39480619D01*
X39312991Y39429960D01*
X39424003Y39373396D01*
X39424005Y39373396D01*
X39424008Y39373394D01*
X39544412Y39334273D01*
X39648631Y39300409D01*
X39881903Y39263462D01*
X39881908Y39263462D01*
X40118097Y39263462D01*
X40351368Y39300409D01*
X40575992Y39373394D01*
X40786433Y39480619D01*
X40977510Y39619445D01*
X41144517Y39786452D01*
X41283343Y39977529D01*
X41390568Y40187970D01*
X41463553Y40412594D01*
X41493105Y40599178D01*
X41500500Y40645865D01*
X41500500Y40882060D01*
X41463553Y41115331D01*
X41413627Y41268986D01*
X41390568Y41339954D01*
X41390566Y41339957D01*
X41390566Y41339959D01*
X41330847Y41457163D01*
X41283343Y41550395D01*
X41144517Y41741472D01*
X40977510Y41908479D01*
X40970401Y41913644D01*
X40927735Y41968974D01*
X40921756Y42038587D01*
X40954362Y42100382D01*
X40970401Y42114280D01*
X40970500Y42114353D01*
X40977510Y42119445D01*
X41144517Y42286452D01*
X41283343Y42477529D01*
X41390568Y42687970D01*
X41463553Y42912594D01*
X41470887Y42958901D01*
X41500500Y43145865D01*
X41500500Y43382060D01*
X41999500Y43382060D01*
X41999500Y43145865D01*
X42036446Y42912594D01*
X42109433Y42687966D01*
X42204887Y42500629D01*
X42216657Y42477529D01*
X42355483Y42286452D01*
X42355485Y42286450D01*
X42522490Y42119445D01*
X42529603Y42114277D01*
X42572266Y42058945D01*
X42578242Y41989332D01*
X42545634Y41927538D01*
X42529603Y41913647D01*
X42522490Y41908480D01*
X42355485Y41741475D01*
X42355485Y41741474D01*
X42355483Y41741472D01*
X42306681Y41674302D01*
X42216657Y41550396D01*
X42109433Y41339959D01*
X42036446Y41115331D01*
X41999500Y40882060D01*
X41999500Y40645865D01*
X42036446Y40412594D01*
X42109433Y40187966D01*
X42216657Y39977529D01*
X42355483Y39786452D01*
X42522490Y39619445D01*
X42713567Y39480619D01*
X42812991Y39429960D01*
X42924003Y39373396D01*
X42924005Y39373396D01*
X42924008Y39373394D01*
X43044412Y39334273D01*
X43148631Y39300409D01*
X43381903Y39263462D01*
X43381908Y39263462D01*
X43618097Y39263462D01*
X43851368Y39300409D01*
X44075992Y39373394D01*
X44286433Y39480619D01*
X44477510Y39619445D01*
X44644517Y39786452D01*
X44783343Y39977529D01*
X44890568Y40187970D01*
X44963553Y40412594D01*
X44993105Y40599178D01*
X45000500Y40645865D01*
X45000500Y40882060D01*
X44963552Y41115331D01*
X44963551Y41115337D01*
X44962789Y41118515D01*
X44962851Y41119761D01*
X44962791Y41120142D01*
X44962871Y41120155D01*
X44966283Y41188298D01*
X45006950Y41245113D01*
X45071878Y41270923D01*
X45140452Y41257533D01*
X45183681Y41220343D01*
X45293621Y41069025D01*
X45455063Y40907583D01*
X45639772Y40773383D01*
X45735884Y40724412D01*
X45843196Y40669733D01*
X45843198Y40669733D01*
X45843201Y40669731D01*
X45916653Y40645865D01*
X46060339Y40599178D01*
X46285838Y40563462D01*
X46285843Y40563462D01*
X46514162Y40563462D01*
X46739660Y40599178D01*
X46956799Y40669731D01*
X47160228Y40773383D01*
X47344937Y40907583D01*
X47506379Y41069025D01*
X47616319Y41220344D01*
X47671647Y41263007D01*
X47741260Y41268986D01*
X47803055Y41236380D01*
X47837413Y41175541D01*
X47837214Y41118530D01*
X47836447Y41115337D01*
X47799500Y40882060D01*
X47799500Y40645865D01*
X47836446Y40412594D01*
X47909433Y40187966D01*
X48016657Y39977529D01*
X48155483Y39786452D01*
X48322490Y39619445D01*
X48513567Y39480619D01*
X48612991Y39429960D01*
X48724003Y39373396D01*
X48724005Y39373396D01*
X48724008Y39373394D01*
X48844412Y39334273D01*
X48948631Y39300409D01*
X49181903Y39263462D01*
X49181908Y39263462D01*
X49418097Y39263462D01*
X49651368Y39300409D01*
X49875992Y39373394D01*
X50086433Y39480619D01*
X50277510Y39619445D01*
X50444517Y39786452D01*
X50583343Y39977529D01*
X50690568Y40187970D01*
X50763553Y40412594D01*
X50793105Y40599178D01*
X50800500Y40645865D01*
X50800500Y40882060D01*
X50763553Y41115331D01*
X50713627Y41268986D01*
X50690568Y41339954D01*
X50690566Y41339957D01*
X50690566Y41339959D01*
X50630847Y41457163D01*
X50583343Y41550395D01*
X50444517Y41741472D01*
X50277510Y41908479D01*
X50270401Y41913644D01*
X50227735Y41968974D01*
X50221756Y42038587D01*
X50254362Y42100382D01*
X50270401Y42114280D01*
X50270500Y42114353D01*
X50277510Y42119445D01*
X50444517Y42286452D01*
X50583343Y42477529D01*
X50690568Y42687970D01*
X50763553Y42912594D01*
X50770887Y42958901D01*
X50800500Y43145865D01*
X50800500Y43382060D01*
X51299500Y43382060D01*
X51299500Y43145865D01*
X51336446Y42912594D01*
X51409433Y42687966D01*
X51504887Y42500629D01*
X51516657Y42477529D01*
X51655483Y42286452D01*
X51655485Y42286450D01*
X51822490Y42119445D01*
X51829603Y42114277D01*
X51872266Y42058945D01*
X51878242Y41989332D01*
X51845634Y41927538D01*
X51829603Y41913647D01*
X51822490Y41908480D01*
X51655485Y41741475D01*
X51655485Y41741474D01*
X51655483Y41741472D01*
X51606681Y41674302D01*
X51516657Y41550396D01*
X51409433Y41339959D01*
X51336446Y41115331D01*
X51299500Y40882060D01*
X51299500Y40645865D01*
X51336446Y40412594D01*
X51409433Y40187966D01*
X51516657Y39977529D01*
X51655483Y39786452D01*
X51822490Y39619445D01*
X52013567Y39480619D01*
X52112991Y39429960D01*
X52224003Y39373396D01*
X52224005Y39373396D01*
X52224008Y39373394D01*
X52344412Y39334273D01*
X52448631Y39300409D01*
X52681903Y39263462D01*
X52681908Y39263462D01*
X52918097Y39263462D01*
X53151368Y39300409D01*
X53375992Y39373394D01*
X53586433Y39480619D01*
X53777510Y39619445D01*
X53944517Y39786452D01*
X54083343Y39977529D01*
X54190568Y40187970D01*
X54263553Y40412594D01*
X54293105Y40599178D01*
X54300500Y40645865D01*
X54300500Y40882060D01*
X54263553Y41115331D01*
X54213627Y41268986D01*
X54190568Y41339954D01*
X54190566Y41339957D01*
X54190566Y41339959D01*
X54130847Y41457163D01*
X54083343Y41550395D01*
X53944517Y41741472D01*
X53777510Y41908479D01*
X53770401Y41913644D01*
X53727735Y41968974D01*
X53721756Y42038587D01*
X53754362Y42100382D01*
X53770401Y42114280D01*
X53770500Y42114353D01*
X53777510Y42119445D01*
X53944517Y42286452D01*
X54083343Y42477529D01*
X54190568Y42687970D01*
X54263553Y42912594D01*
X54270887Y42958901D01*
X54300500Y43145865D01*
X54300500Y43382060D01*
X54263553Y43615331D01*
X54190566Y43839959D01*
X54083342Y44050396D01*
X53944517Y44241472D01*
X53777510Y44408479D01*
X53586433Y44547305D01*
X53375996Y44654529D01*
X53151368Y44727516D01*
X52918097Y44764462D01*
X52918092Y44764462D01*
X52681908Y44764462D01*
X52681903Y44764462D01*
X52448631Y44727516D01*
X52224003Y44654529D01*
X52013566Y44547305D01*
X51904550Y44468100D01*
X51822490Y44408479D01*
X51822488Y44408477D01*
X51822487Y44408477D01*
X51655485Y44241475D01*
X51655485Y44241474D01*
X51655483Y44241472D01*
X51595862Y44159412D01*
X51516657Y44050396D01*
X51409433Y43839959D01*
X51336446Y43615331D01*
X51299500Y43382060D01*
X50800500Y43382060D01*
X50763553Y43615331D01*
X50690566Y43839959D01*
X50583342Y44050396D01*
X50444517Y44241472D01*
X50277510Y44408479D01*
X50086433Y44547305D01*
X49875996Y44654529D01*
X49651368Y44727516D01*
X49418097Y44764462D01*
X49418092Y44764462D01*
X49181908Y44764462D01*
X49181903Y44764462D01*
X48948631Y44727516D01*
X48724003Y44654529D01*
X48513566Y44547305D01*
X48404550Y44468100D01*
X48322490Y44408479D01*
X48322488Y44408477D01*
X48322487Y44408477D01*
X48155485Y44241475D01*
X48155485Y44241474D01*
X48155483Y44241472D01*
X48095862Y44159412D01*
X48016657Y44050396D01*
X47909433Y43839959D01*
X47836446Y43615331D01*
X47799500Y43382060D01*
X47799500Y43145865D01*
X47836447Y42912590D01*
X47837213Y42909399D01*
X47837150Y42908152D01*
X47837209Y42907782D01*
X47837131Y42907770D01*
X47833712Y42839617D01*
X47793040Y42782805D01*
X47728110Y42757001D01*
X47659537Y42770397D01*
X47616317Y42807583D01*
X47593043Y42839617D01*
X47506379Y42958899D01*
X47344937Y43120341D01*
X47160228Y43254541D01*
X46956803Y43358192D01*
X46739660Y43428747D01*
X46514162Y43464462D01*
X46514157Y43464462D01*
X46285843Y43464462D01*
X46285838Y43464462D01*
X46060339Y43428747D01*
X45843196Y43358192D01*
X45639771Y43254541D01*
X45455061Y43120340D01*
X45293623Y42958902D01*
X45293616Y42958893D01*
X45183681Y42807583D01*
X45128351Y42764917D01*
X45058738Y42758939D01*
X44996943Y42791545D01*
X44962586Y42852385D01*
X44962789Y42909413D01*
X44963550Y42912586D01*
X44963553Y42912594D01*
X44970887Y42958902D01*
X45000500Y43145865D01*
X45000500Y43382060D01*
X44963553Y43615331D01*
X44890566Y43839959D01*
X44783342Y44050396D01*
X44644517Y44241472D01*
X44477510Y44408479D01*
X44286433Y44547305D01*
X44075996Y44654529D01*
X43851368Y44727516D01*
X43618097Y44764462D01*
X43618092Y44764462D01*
X43381908Y44764462D01*
X43381903Y44764462D01*
X43148631Y44727516D01*
X42924003Y44654529D01*
X42713566Y44547305D01*
X42604550Y44468100D01*
X42522490Y44408479D01*
X42522488Y44408477D01*
X42522487Y44408477D01*
X42355485Y44241475D01*
X42355485Y44241474D01*
X42355483Y44241472D01*
X42295862Y44159412D01*
X42216657Y44050396D01*
X42109433Y43839959D01*
X42036446Y43615331D01*
X41999500Y43382060D01*
X41500500Y43382060D01*
X41463553Y43615331D01*
X41390566Y43839959D01*
X41283342Y44050396D01*
X41144517Y44241472D01*
X40977510Y44408479D01*
X40786433Y44547305D01*
X40575996Y44654529D01*
X40351368Y44727516D01*
X40118097Y44764462D01*
X40118092Y44764462D01*
X39881908Y44764462D01*
X39881903Y44764462D01*
X39648631Y44727516D01*
X39424003Y44654529D01*
X39213566Y44547305D01*
X39104550Y44468100D01*
X39022490Y44408479D01*
X39022488Y44408477D01*
X39022487Y44408477D01*
X38855485Y44241475D01*
X38855485Y44241474D01*
X38855483Y44241472D01*
X38795862Y44159412D01*
X38716657Y44050396D01*
X38609433Y43839959D01*
X38536446Y43615331D01*
X38499500Y43382060D01*
X21300500Y43382060D01*
X21263553Y43615331D01*
X21190566Y43839959D01*
X21083342Y44050396D01*
X20944517Y44241472D01*
X20777510Y44408479D01*
X20586433Y44547305D01*
X20375996Y44654529D01*
X20151368Y44727516D01*
X19918097Y44764462D01*
X19918092Y44764462D01*
X19681908Y44764462D01*
X19681903Y44764462D01*
X19448631Y44727516D01*
X19224003Y44654529D01*
X19013566Y44547305D01*
X18904550Y44468100D01*
X18822490Y44408479D01*
X18822488Y44408477D01*
X18822487Y44408477D01*
X18655485Y44241475D01*
X18655485Y44241474D01*
X18655483Y44241472D01*
X18595862Y44159412D01*
X18516657Y44050396D01*
X18409433Y43839959D01*
X18336446Y43615331D01*
X18299500Y43382060D01*
X17800500Y43382060D01*
X17763553Y43615331D01*
X17690566Y43839959D01*
X17583342Y44050396D01*
X17444517Y44241472D01*
X17277510Y44408479D01*
X17086433Y44547305D01*
X16875996Y44654529D01*
X16651368Y44727516D01*
X16418097Y44764462D01*
X16418092Y44764462D01*
X16181908Y44764462D01*
X16181903Y44764462D01*
X15948631Y44727516D01*
X15724003Y44654529D01*
X15513566Y44547305D01*
X15404550Y44468100D01*
X15322490Y44408479D01*
X15322488Y44408477D01*
X15322487Y44408477D01*
X15155485Y44241475D01*
X15155485Y44241474D01*
X15155483Y44241472D01*
X15095862Y44159412D01*
X15016657Y44050396D01*
X14909433Y43839959D01*
X14836446Y43615331D01*
X14799500Y43382060D01*
X14799500Y43145865D01*
X14836447Y42912590D01*
X14837213Y42909399D01*
X14837150Y42908152D01*
X14837209Y42907782D01*
X14837131Y42907770D01*
X14833712Y42839617D01*
X14793040Y42782805D01*
X14728110Y42757001D01*
X14659537Y42770397D01*
X14616317Y42807583D01*
X14593043Y42839617D01*
X14506379Y42958899D01*
X14344937Y43120341D01*
X14160228Y43254541D01*
X13956803Y43358192D01*
X13739660Y43428747D01*
X13514162Y43464462D01*
X13514157Y43464462D01*
X13285843Y43464462D01*
X13285838Y43464462D01*
X13060339Y43428747D01*
X12843196Y43358192D01*
X12639771Y43254541D01*
X12455061Y43120340D01*
X12293623Y42958902D01*
X12293616Y42958893D01*
X12183681Y42807583D01*
X12128351Y42764917D01*
X12058738Y42758939D01*
X11996943Y42791545D01*
X11962586Y42852385D01*
X11962789Y42909413D01*
X11963550Y42912586D01*
X11963553Y42912594D01*
X11970887Y42958902D01*
X12000500Y43145865D01*
X12000500Y43382060D01*
X11963553Y43615331D01*
X11890566Y43839959D01*
X11783342Y44050396D01*
X11644517Y44241472D01*
X11477510Y44408479D01*
X11286433Y44547305D01*
X11075996Y44654529D01*
X10851368Y44727516D01*
X10618097Y44764462D01*
X10618092Y44764462D01*
X10381908Y44764462D01*
X10381903Y44764462D01*
X10148631Y44727516D01*
X9924003Y44654529D01*
X9713566Y44547305D01*
X9604550Y44468100D01*
X9522490Y44408479D01*
X9522488Y44408477D01*
X9522487Y44408477D01*
X9355485Y44241475D01*
X9355485Y44241474D01*
X9355483Y44241472D01*
X9295862Y44159412D01*
X9216657Y44050396D01*
X9109433Y43839959D01*
X9036446Y43615331D01*
X8999500Y43382060D01*
X8500500Y43382060D01*
X8463553Y43615331D01*
X8390566Y43839959D01*
X8283342Y44050396D01*
X8144517Y44241472D01*
X7977510Y44408479D01*
X7786433Y44547305D01*
X7575996Y44654529D01*
X7351368Y44727516D01*
X7118097Y44764462D01*
X7118092Y44764462D01*
X6881908Y44764462D01*
X6881903Y44764462D01*
X6648631Y44727516D01*
X6424003Y44654529D01*
X6213566Y44547305D01*
X6104550Y44468100D01*
X6022490Y44408479D01*
X6022488Y44408477D01*
X6022487Y44408477D01*
X5855485Y44241475D01*
X5855485Y44241474D01*
X5855483Y44241472D01*
X5795862Y44159412D01*
X5716657Y44050396D01*
X5609433Y43839959D01*
X5536446Y43615331D01*
X5499500Y43382060D01*
X500500Y43382060D01*
X500500Y55429664D01*
X9249500Y55429664D01*
X9249500Y53098261D01*
X9252401Y53061395D01*
X9252402Y53061389D01*
X9298253Y52903570D01*
X9298255Y52903567D01*
X9381917Y52762101D01*
X9381923Y52762093D01*
X9498130Y52645886D01*
X9498134Y52645883D01*
X9498136Y52645881D01*
X9639603Y52562218D01*
X9639604Y52562218D01*
X9639607Y52562216D01*
X9797426Y52516365D01*
X9797429Y52516365D01*
X9797431Y52516364D01*
X9834306Y52513462D01*
X9834314Y52513462D01*
X12165686Y52513462D01*
X12165694Y52513462D01*
X12202569Y52516364D01*
X12202571Y52516365D01*
X12202573Y52516365D01*
X12360392Y52562216D01*
X12360393Y52562217D01*
X12360397Y52562218D01*
X12501864Y52645881D01*
X12618081Y52762098D01*
X12701744Y52903565D01*
X12701745Y52903569D01*
X12701746Y52903570D01*
X12747597Y53061389D01*
X12747598Y53061395D01*
X12750499Y53098261D01*
X12750500Y53098268D01*
X12750500Y55429656D01*
X12750499Y55429664D01*
X42249500Y55429664D01*
X42249500Y53098261D01*
X42252401Y53061395D01*
X42252402Y53061389D01*
X42298253Y52903570D01*
X42298255Y52903567D01*
X42381917Y52762101D01*
X42381923Y52762093D01*
X42498130Y52645886D01*
X42498134Y52645883D01*
X42498136Y52645881D01*
X42639603Y52562218D01*
X42639604Y52562218D01*
X42639607Y52562216D01*
X42797426Y52516365D01*
X42797429Y52516365D01*
X42797431Y52516364D01*
X42834306Y52513462D01*
X42834314Y52513462D01*
X45165686Y52513462D01*
X45165694Y52513462D01*
X45202569Y52516364D01*
X45202571Y52516365D01*
X45202573Y52516365D01*
X45360392Y52562216D01*
X45360393Y52562217D01*
X45360397Y52562218D01*
X45501864Y52645881D01*
X45618081Y52762098D01*
X45701744Y52903565D01*
X45701745Y52903569D01*
X45701746Y52903570D01*
X45747597Y53061389D01*
X45747598Y53061395D01*
X45750499Y53098261D01*
X45750500Y53098268D01*
X45750500Y55429656D01*
X45747598Y55466531D01*
X45747597Y55466536D01*
X45701746Y55624355D01*
X45701744Y55624358D01*
X45701744Y55624359D01*
X45618081Y55765826D01*
X45618079Y55765828D01*
X45618076Y55765832D01*
X45501869Y55882039D01*
X45501861Y55882045D01*
X45360395Y55965707D01*
X45360392Y55965709D01*
X45202573Y56011560D01*
X45202567Y56011561D01*
X45165701Y56014462D01*
X45165694Y56014462D01*
X42834306Y56014462D01*
X42834298Y56014462D01*
X42797432Y56011561D01*
X42797426Y56011560D01*
X42639607Y55965709D01*
X42639604Y55965707D01*
X42498138Y55882045D01*
X42498130Y55882039D01*
X42381923Y55765832D01*
X42381917Y55765824D01*
X42298255Y55624358D01*
X42298253Y55624355D01*
X42252402Y55466536D01*
X42252401Y55466530D01*
X42249500Y55429664D01*
X12750499Y55429664D01*
X12747598Y55466531D01*
X12747597Y55466536D01*
X12701746Y55624355D01*
X12701744Y55624358D01*
X12701744Y55624359D01*
X12618081Y55765826D01*
X12618079Y55765828D01*
X12618076Y55765832D01*
X12501869Y55882039D01*
X12501861Y55882045D01*
X12360395Y55965707D01*
X12360392Y55965709D01*
X12202573Y56011560D01*
X12202567Y56011561D01*
X12165701Y56014462D01*
X12165694Y56014462D01*
X9834306Y56014462D01*
X9834298Y56014462D01*
X9797432Y56011561D01*
X9797426Y56011560D01*
X9639607Y55965709D01*
X9639604Y55965707D01*
X9498138Y55882045D01*
X9498130Y55882039D01*
X9381923Y55765832D01*
X9381917Y55765824D01*
X9298255Y55624358D01*
X9298253Y55624355D01*
X9252402Y55466536D01*
X9252401Y55466530D01*
X9249500Y55429664D01*
X500500Y55429664D01*
X500500Y64382060D01*
X5499500Y64382060D01*
X5499500Y64145865D01*
X5536446Y63912594D01*
X5609433Y63687966D01*
X5704887Y63500629D01*
X5716657Y63477529D01*
X5855483Y63286452D01*
X5855485Y63286450D01*
X6022490Y63119445D01*
X6029603Y63114277D01*
X6072266Y63058945D01*
X6078242Y62989332D01*
X6045634Y62927538D01*
X6029603Y62913647D01*
X6022490Y62908480D01*
X5855485Y62741475D01*
X5855485Y62741474D01*
X5855483Y62741472D01*
X5806681Y62674302D01*
X5716657Y62550396D01*
X5609433Y62339959D01*
X5536446Y62115331D01*
X5499500Y61882060D01*
X5499500Y61645865D01*
X5536446Y61412594D01*
X5609433Y61187966D01*
X5716657Y60977529D01*
X5855483Y60786452D01*
X6022490Y60619445D01*
X6213567Y60480619D01*
X6312991Y60429960D01*
X6424003Y60373396D01*
X6424005Y60373396D01*
X6424008Y60373394D01*
X6544412Y60334273D01*
X6648631Y60300409D01*
X6881903Y60263462D01*
X6881908Y60263462D01*
X7118097Y60263462D01*
X7351368Y60300409D01*
X7575992Y60373394D01*
X7786433Y60480619D01*
X7977510Y60619445D01*
X8144517Y60786452D01*
X8283343Y60977529D01*
X8390568Y61187970D01*
X8463553Y61412594D01*
X8493105Y61599178D01*
X8500500Y61645865D01*
X8500500Y61882060D01*
X8463553Y62115331D01*
X8413627Y62268986D01*
X8390568Y62339954D01*
X8390566Y62339957D01*
X8390566Y62339959D01*
X8330847Y62457163D01*
X8283343Y62550395D01*
X8144517Y62741472D01*
X7977510Y62908479D01*
X7970401Y62913644D01*
X7927735Y62968974D01*
X7921756Y63038587D01*
X7954362Y63100382D01*
X7970401Y63114280D01*
X7970500Y63114353D01*
X7977510Y63119445D01*
X8144517Y63286452D01*
X8283343Y63477529D01*
X8390568Y63687970D01*
X8463553Y63912594D01*
X8470887Y63958901D01*
X8500500Y64145865D01*
X8500500Y64382060D01*
X8999500Y64382060D01*
X8999500Y64145865D01*
X9036446Y63912594D01*
X9109433Y63687966D01*
X9204887Y63500629D01*
X9216657Y63477529D01*
X9355483Y63286452D01*
X9355485Y63286450D01*
X9522490Y63119445D01*
X9529603Y63114277D01*
X9572266Y63058945D01*
X9578242Y62989332D01*
X9545634Y62927538D01*
X9529603Y62913647D01*
X9522490Y62908480D01*
X9355485Y62741475D01*
X9355485Y62741474D01*
X9355483Y62741472D01*
X9306681Y62674302D01*
X9216657Y62550396D01*
X9109433Y62339959D01*
X9036446Y62115331D01*
X8999500Y61882060D01*
X8999500Y61645865D01*
X9036446Y61412594D01*
X9109433Y61187966D01*
X9216657Y60977529D01*
X9355483Y60786452D01*
X9522490Y60619445D01*
X9713567Y60480619D01*
X9812991Y60429960D01*
X9924003Y60373396D01*
X9924005Y60373396D01*
X9924008Y60373394D01*
X10044412Y60334273D01*
X10148631Y60300409D01*
X10381903Y60263462D01*
X10381908Y60263462D01*
X10618097Y60263462D01*
X10851368Y60300409D01*
X11075992Y60373394D01*
X11286433Y60480619D01*
X11477510Y60619445D01*
X11644517Y60786452D01*
X11783343Y60977529D01*
X11890568Y61187970D01*
X11963553Y61412594D01*
X11993105Y61599178D01*
X12000500Y61645865D01*
X12000500Y61882060D01*
X11963552Y62115331D01*
X11963551Y62115337D01*
X11962789Y62118515D01*
X11962851Y62119761D01*
X11962791Y62120142D01*
X11962871Y62120155D01*
X11966283Y62188298D01*
X12006950Y62245113D01*
X12071878Y62270923D01*
X12140452Y62257533D01*
X12183681Y62220343D01*
X12293621Y62069025D01*
X12455063Y61907583D01*
X12639772Y61773383D01*
X12735884Y61724412D01*
X12843196Y61669733D01*
X12843198Y61669733D01*
X12843201Y61669731D01*
X12916653Y61645865D01*
X13060339Y61599178D01*
X13285838Y61563462D01*
X13285843Y61563462D01*
X13514162Y61563462D01*
X13739660Y61599178D01*
X13956799Y61669731D01*
X14160228Y61773383D01*
X14344937Y61907583D01*
X14506379Y62069025D01*
X14616319Y62220344D01*
X14671647Y62263007D01*
X14741260Y62268986D01*
X14803055Y62236380D01*
X14837413Y62175541D01*
X14837214Y62118530D01*
X14836447Y62115337D01*
X14799500Y61882060D01*
X14799500Y61645865D01*
X14836446Y61412594D01*
X14909433Y61187966D01*
X15016657Y60977529D01*
X15155483Y60786452D01*
X15322490Y60619445D01*
X15513567Y60480619D01*
X15612991Y60429960D01*
X15724003Y60373396D01*
X15724005Y60373396D01*
X15724008Y60373394D01*
X15844412Y60334273D01*
X15948631Y60300409D01*
X16181903Y60263462D01*
X16181908Y60263462D01*
X16418097Y60263462D01*
X16651368Y60300409D01*
X16875992Y60373394D01*
X17086433Y60480619D01*
X17277510Y60619445D01*
X17444517Y60786452D01*
X17583343Y60977529D01*
X17690568Y61187970D01*
X17763553Y61412594D01*
X17793105Y61599178D01*
X17800500Y61645865D01*
X17800500Y61882060D01*
X17763553Y62115331D01*
X17713627Y62268986D01*
X17690568Y62339954D01*
X17690566Y62339957D01*
X17690566Y62339959D01*
X17630847Y62457163D01*
X17583343Y62550395D01*
X17444517Y62741472D01*
X17277510Y62908479D01*
X17270401Y62913644D01*
X17227735Y62968974D01*
X17221756Y63038587D01*
X17254362Y63100382D01*
X17270401Y63114280D01*
X17270500Y63114353D01*
X17277510Y63119445D01*
X17444517Y63286452D01*
X17583343Y63477529D01*
X17690568Y63687970D01*
X17763553Y63912594D01*
X17770887Y63958901D01*
X17800500Y64145865D01*
X17800500Y64382060D01*
X18299500Y64382060D01*
X18299500Y64145865D01*
X18336446Y63912594D01*
X18409433Y63687966D01*
X18504887Y63500629D01*
X18516657Y63477529D01*
X18655483Y63286452D01*
X18655485Y63286450D01*
X18822490Y63119445D01*
X18829603Y63114277D01*
X18872266Y63058945D01*
X18878242Y62989332D01*
X18845634Y62927538D01*
X18829603Y62913647D01*
X18822490Y62908480D01*
X18655485Y62741475D01*
X18655485Y62741474D01*
X18655483Y62741472D01*
X18606681Y62674302D01*
X18516657Y62550396D01*
X18409433Y62339959D01*
X18336446Y62115331D01*
X18299500Y61882060D01*
X18299500Y61645865D01*
X18336446Y61412594D01*
X18409433Y61187966D01*
X18516657Y60977529D01*
X18655483Y60786452D01*
X18822490Y60619445D01*
X19013567Y60480619D01*
X19112991Y60429960D01*
X19224003Y60373396D01*
X19224005Y60373396D01*
X19224008Y60373394D01*
X19344412Y60334273D01*
X19448631Y60300409D01*
X19681903Y60263462D01*
X19681908Y60263462D01*
X19918097Y60263462D01*
X20151368Y60300409D01*
X20375992Y60373394D01*
X20586433Y60480619D01*
X20777510Y60619445D01*
X20944517Y60786452D01*
X21083343Y60977529D01*
X21190568Y61187970D01*
X21263553Y61412594D01*
X21293105Y61599178D01*
X21300500Y61645865D01*
X21300500Y61882060D01*
X21263553Y62115331D01*
X21213627Y62268986D01*
X21190568Y62339954D01*
X21190566Y62339957D01*
X21190566Y62339959D01*
X21130847Y62457163D01*
X21083343Y62550395D01*
X20944517Y62741472D01*
X20777510Y62908479D01*
X20770401Y62913644D01*
X20727735Y62968974D01*
X20721756Y63038587D01*
X20754362Y63100382D01*
X20770401Y63114280D01*
X20770500Y63114353D01*
X20777510Y63119445D01*
X20944517Y63286452D01*
X21083343Y63477529D01*
X21190568Y63687970D01*
X21263553Y63912594D01*
X21270887Y63958901D01*
X21300500Y64145865D01*
X21300500Y64382060D01*
X38499500Y64382060D01*
X38499500Y64145865D01*
X38536446Y63912594D01*
X38609433Y63687966D01*
X38704887Y63500629D01*
X38716657Y63477529D01*
X38855483Y63286452D01*
X38855485Y63286450D01*
X39022490Y63119445D01*
X39029603Y63114277D01*
X39072266Y63058945D01*
X39078242Y62989332D01*
X39045634Y62927538D01*
X39029603Y62913647D01*
X39022490Y62908480D01*
X38855485Y62741475D01*
X38855485Y62741474D01*
X38855483Y62741472D01*
X38806681Y62674302D01*
X38716657Y62550396D01*
X38609433Y62339959D01*
X38536446Y62115331D01*
X38499500Y61882060D01*
X38499500Y61645865D01*
X38536446Y61412594D01*
X38609433Y61187966D01*
X38716657Y60977529D01*
X38855483Y60786452D01*
X39022490Y60619445D01*
X39213567Y60480619D01*
X39312991Y60429960D01*
X39424003Y60373396D01*
X39424005Y60373396D01*
X39424008Y60373394D01*
X39544412Y60334273D01*
X39648631Y60300409D01*
X39881903Y60263462D01*
X39881908Y60263462D01*
X40118097Y60263462D01*
X40351368Y60300409D01*
X40575992Y60373394D01*
X40786433Y60480619D01*
X40977510Y60619445D01*
X41144517Y60786452D01*
X41283343Y60977529D01*
X41390568Y61187970D01*
X41463553Y61412594D01*
X41493105Y61599178D01*
X41500500Y61645865D01*
X41500500Y61882060D01*
X41463553Y62115331D01*
X41413627Y62268986D01*
X41390568Y62339954D01*
X41390566Y62339957D01*
X41390566Y62339959D01*
X41330847Y62457163D01*
X41283343Y62550395D01*
X41144517Y62741472D01*
X40977510Y62908479D01*
X40970401Y62913644D01*
X40927735Y62968974D01*
X40921756Y63038587D01*
X40954362Y63100382D01*
X40970401Y63114280D01*
X40970500Y63114353D01*
X40977510Y63119445D01*
X41144517Y63286452D01*
X41283343Y63477529D01*
X41390568Y63687970D01*
X41463553Y63912594D01*
X41470887Y63958901D01*
X41500500Y64145865D01*
X41500500Y64382060D01*
X41999500Y64382060D01*
X41999500Y64145865D01*
X42036446Y63912594D01*
X42109433Y63687966D01*
X42204887Y63500629D01*
X42216657Y63477529D01*
X42355483Y63286452D01*
X42355485Y63286450D01*
X42522490Y63119445D01*
X42529603Y63114277D01*
X42572266Y63058945D01*
X42578242Y62989332D01*
X42545634Y62927538D01*
X42529603Y62913647D01*
X42522490Y62908480D01*
X42355485Y62741475D01*
X42355485Y62741474D01*
X42355483Y62741472D01*
X42306681Y62674302D01*
X42216657Y62550396D01*
X42109433Y62339959D01*
X42036446Y62115331D01*
X41999500Y61882060D01*
X41999500Y61645865D01*
X42036446Y61412594D01*
X42109433Y61187966D01*
X42216657Y60977529D01*
X42355483Y60786452D01*
X42522490Y60619445D01*
X42713567Y60480619D01*
X42812991Y60429960D01*
X42924003Y60373396D01*
X42924005Y60373396D01*
X42924008Y60373394D01*
X43044412Y60334273D01*
X43148631Y60300409D01*
X43381903Y60263462D01*
X43381908Y60263462D01*
X43618097Y60263462D01*
X43851368Y60300409D01*
X44075992Y60373394D01*
X44286433Y60480619D01*
X44477510Y60619445D01*
X44644517Y60786452D01*
X44783343Y60977529D01*
X44890568Y61187970D01*
X44963553Y61412594D01*
X44993105Y61599178D01*
X45000500Y61645865D01*
X45000500Y61882060D01*
X44963552Y62115331D01*
X44963551Y62115337D01*
X44962789Y62118515D01*
X44962851Y62119761D01*
X44962791Y62120142D01*
X44962871Y62120155D01*
X44966283Y62188298D01*
X45006950Y62245113D01*
X45071878Y62270923D01*
X45140452Y62257533D01*
X45183681Y62220343D01*
X45293621Y62069025D01*
X45455063Y61907583D01*
X45639772Y61773383D01*
X45735884Y61724412D01*
X45843196Y61669733D01*
X45843198Y61669733D01*
X45843201Y61669731D01*
X45916653Y61645865D01*
X46060339Y61599178D01*
X46285838Y61563462D01*
X46285843Y61563462D01*
X46514162Y61563462D01*
X46739660Y61599178D01*
X46956799Y61669731D01*
X47160228Y61773383D01*
X47344937Y61907583D01*
X47506379Y62069025D01*
X47616319Y62220344D01*
X47671647Y62263007D01*
X47741260Y62268986D01*
X47803055Y62236380D01*
X47837413Y62175541D01*
X47837214Y62118530D01*
X47836447Y62115337D01*
X47799500Y61882060D01*
X47799500Y61645865D01*
X47836446Y61412594D01*
X47909433Y61187966D01*
X48016657Y60977529D01*
X48155483Y60786452D01*
X48322490Y60619445D01*
X48513567Y60480619D01*
X48612991Y60429960D01*
X48724003Y60373396D01*
X48724005Y60373396D01*
X48724008Y60373394D01*
X48844412Y60334273D01*
X48948631Y60300409D01*
X49181903Y60263462D01*
X49181908Y60263462D01*
X49418097Y60263462D01*
X49651368Y60300409D01*
X49875992Y60373394D01*
X50086433Y60480619D01*
X50277510Y60619445D01*
X50444517Y60786452D01*
X50583343Y60977529D01*
X50690568Y61187970D01*
X50763553Y61412594D01*
X50793105Y61599178D01*
X50800500Y61645865D01*
X50800500Y61882060D01*
X50763553Y62115331D01*
X50713627Y62268986D01*
X50690568Y62339954D01*
X50690566Y62339957D01*
X50690566Y62339959D01*
X50630847Y62457163D01*
X50583343Y62550395D01*
X50444517Y62741472D01*
X50277510Y62908479D01*
X50270401Y62913644D01*
X50227735Y62968974D01*
X50221756Y63038587D01*
X50254362Y63100382D01*
X50270401Y63114280D01*
X50270500Y63114353D01*
X50277510Y63119445D01*
X50444517Y63286452D01*
X50583343Y63477529D01*
X50690568Y63687970D01*
X50763553Y63912594D01*
X50770887Y63958901D01*
X50800500Y64145865D01*
X50800500Y64382060D01*
X51299500Y64382060D01*
X51299500Y64145865D01*
X51336446Y63912594D01*
X51409433Y63687966D01*
X51504887Y63500629D01*
X51516657Y63477529D01*
X51655483Y63286452D01*
X51655485Y63286450D01*
X51822490Y63119445D01*
X51829603Y63114277D01*
X51872266Y63058945D01*
X51878242Y62989332D01*
X51845634Y62927538D01*
X51829603Y62913647D01*
X51822490Y62908480D01*
X51655485Y62741475D01*
X51655485Y62741474D01*
X51655483Y62741472D01*
X51606681Y62674302D01*
X51516657Y62550396D01*
X51409433Y62339959D01*
X51336446Y62115331D01*
X51299500Y61882060D01*
X51299500Y61645865D01*
X51336446Y61412594D01*
X51409433Y61187966D01*
X51516657Y60977529D01*
X51655483Y60786452D01*
X51822490Y60619445D01*
X52013567Y60480619D01*
X52112991Y60429960D01*
X52224003Y60373396D01*
X52224005Y60373396D01*
X52224008Y60373394D01*
X52344412Y60334273D01*
X52448631Y60300409D01*
X52681903Y60263462D01*
X52681908Y60263462D01*
X52918097Y60263462D01*
X53151368Y60300409D01*
X53375992Y60373394D01*
X53586433Y60480619D01*
X53777510Y60619445D01*
X53944517Y60786452D01*
X54083343Y60977529D01*
X54190568Y61187970D01*
X54263553Y61412594D01*
X54293105Y61599178D01*
X54300500Y61645865D01*
X54300500Y61882060D01*
X54263553Y62115331D01*
X54213627Y62268986D01*
X54190568Y62339954D01*
X54190566Y62339957D01*
X54190566Y62339959D01*
X54130847Y62457163D01*
X54083343Y62550395D01*
X53944517Y62741472D01*
X53777510Y62908479D01*
X53770401Y62913644D01*
X53727735Y62968974D01*
X53721756Y63038587D01*
X53754362Y63100382D01*
X53770401Y63114280D01*
X53770500Y63114353D01*
X53777510Y63119445D01*
X53944517Y63286452D01*
X54083343Y63477529D01*
X54190568Y63687970D01*
X54263553Y63912594D01*
X54270887Y63958901D01*
X54300500Y64145865D01*
X54300500Y64382060D01*
X54263553Y64615331D01*
X54190566Y64839959D01*
X54083342Y65050396D01*
X53944517Y65241472D01*
X53777510Y65408479D01*
X53586433Y65547305D01*
X53375996Y65654529D01*
X53151368Y65727516D01*
X52918097Y65764462D01*
X52918092Y65764462D01*
X52681908Y65764462D01*
X52681903Y65764462D01*
X52448631Y65727516D01*
X52224003Y65654529D01*
X52013566Y65547305D01*
X51904550Y65468100D01*
X51822490Y65408479D01*
X51822488Y65408477D01*
X51822487Y65408477D01*
X51655485Y65241475D01*
X51655485Y65241474D01*
X51655483Y65241472D01*
X51595862Y65159412D01*
X51516657Y65050396D01*
X51409433Y64839959D01*
X51336446Y64615331D01*
X51299500Y64382060D01*
X50800500Y64382060D01*
X50763553Y64615331D01*
X50690566Y64839959D01*
X50583342Y65050396D01*
X50444517Y65241472D01*
X50277510Y65408479D01*
X50086433Y65547305D01*
X49875996Y65654529D01*
X49651368Y65727516D01*
X49418097Y65764462D01*
X49418092Y65764462D01*
X49181908Y65764462D01*
X49181903Y65764462D01*
X48948631Y65727516D01*
X48724003Y65654529D01*
X48513566Y65547305D01*
X48404550Y65468100D01*
X48322490Y65408479D01*
X48322488Y65408477D01*
X48322487Y65408477D01*
X48155485Y65241475D01*
X48155485Y65241474D01*
X48155483Y65241472D01*
X48095862Y65159412D01*
X48016657Y65050396D01*
X47909433Y64839959D01*
X47836446Y64615331D01*
X47799500Y64382060D01*
X47799500Y64145865D01*
X47836447Y63912590D01*
X47837213Y63909399D01*
X47837150Y63908152D01*
X47837209Y63907782D01*
X47837131Y63907770D01*
X47833712Y63839617D01*
X47793040Y63782805D01*
X47728110Y63757001D01*
X47659537Y63770397D01*
X47616317Y63807583D01*
X47593043Y63839617D01*
X47506379Y63958899D01*
X47344937Y64120341D01*
X47160228Y64254541D01*
X46956803Y64358192D01*
X46739660Y64428747D01*
X46514162Y64464462D01*
X46514157Y64464462D01*
X46285843Y64464462D01*
X46285838Y64464462D01*
X46060339Y64428747D01*
X45843196Y64358192D01*
X45639771Y64254541D01*
X45455061Y64120340D01*
X45293623Y63958902D01*
X45293616Y63958893D01*
X45183681Y63807583D01*
X45128351Y63764917D01*
X45058738Y63758939D01*
X44996943Y63791545D01*
X44962586Y63852385D01*
X44962789Y63909413D01*
X44963550Y63912586D01*
X44963553Y63912594D01*
X44970887Y63958902D01*
X45000500Y64145865D01*
X45000500Y64382060D01*
X44963553Y64615331D01*
X44890566Y64839959D01*
X44783342Y65050396D01*
X44644517Y65241472D01*
X44477510Y65408479D01*
X44286433Y65547305D01*
X44075996Y65654529D01*
X43851368Y65727516D01*
X43618097Y65764462D01*
X43618092Y65764462D01*
X43381908Y65764462D01*
X43381903Y65764462D01*
X43148631Y65727516D01*
X42924003Y65654529D01*
X42713566Y65547305D01*
X42604550Y65468100D01*
X42522490Y65408479D01*
X42522488Y65408477D01*
X42522487Y65408477D01*
X42355485Y65241475D01*
X42355485Y65241474D01*
X42355483Y65241472D01*
X42295862Y65159412D01*
X42216657Y65050396D01*
X42109433Y64839959D01*
X42036446Y64615331D01*
X41999500Y64382060D01*
X41500500Y64382060D01*
X41463553Y64615331D01*
X41390566Y64839959D01*
X41283342Y65050396D01*
X41144517Y65241472D01*
X40977510Y65408479D01*
X40786433Y65547305D01*
X40575996Y65654529D01*
X40351368Y65727516D01*
X40118097Y65764462D01*
X40118092Y65764462D01*
X39881908Y65764462D01*
X39881903Y65764462D01*
X39648631Y65727516D01*
X39424003Y65654529D01*
X39213566Y65547305D01*
X39104550Y65468100D01*
X39022490Y65408479D01*
X39022488Y65408477D01*
X39022487Y65408477D01*
X38855485Y65241475D01*
X38855485Y65241474D01*
X38855483Y65241472D01*
X38795862Y65159412D01*
X38716657Y65050396D01*
X38609433Y64839959D01*
X38536446Y64615331D01*
X38499500Y64382060D01*
X21300500Y64382060D01*
X21263553Y64615331D01*
X21190566Y64839959D01*
X21083342Y65050396D01*
X20944517Y65241472D01*
X20777510Y65408479D01*
X20586433Y65547305D01*
X20375996Y65654529D01*
X20151368Y65727516D01*
X19918097Y65764462D01*
X19918092Y65764462D01*
X19681908Y65764462D01*
X19681903Y65764462D01*
X19448631Y65727516D01*
X19224003Y65654529D01*
X19013566Y65547305D01*
X18904550Y65468100D01*
X18822490Y65408479D01*
X18822488Y65408477D01*
X18822487Y65408477D01*
X18655485Y65241475D01*
X18655485Y65241474D01*
X18655483Y65241472D01*
X18595862Y65159412D01*
X18516657Y65050396D01*
X18409433Y64839959D01*
X18336446Y64615331D01*
X18299500Y64382060D01*
X17800500Y64382060D01*
X17763553Y64615331D01*
X17690566Y64839959D01*
X17583342Y65050396D01*
X17444517Y65241472D01*
X17277510Y65408479D01*
X17086433Y65547305D01*
X16875996Y65654529D01*
X16651368Y65727516D01*
X16418097Y65764462D01*
X16418092Y65764462D01*
X16181908Y65764462D01*
X16181903Y65764462D01*
X15948631Y65727516D01*
X15724003Y65654529D01*
X15513566Y65547305D01*
X15404550Y65468100D01*
X15322490Y65408479D01*
X15322488Y65408477D01*
X15322487Y65408477D01*
X15155485Y65241475D01*
X15155485Y65241474D01*
X15155483Y65241472D01*
X15095862Y65159412D01*
X15016657Y65050396D01*
X14909433Y64839959D01*
X14836446Y64615331D01*
X14799500Y64382060D01*
X14799500Y64145865D01*
X14836447Y63912590D01*
X14837213Y63909399D01*
X14837150Y63908152D01*
X14837209Y63907782D01*
X14837131Y63907770D01*
X14833712Y63839617D01*
X14793040Y63782805D01*
X14728110Y63757001D01*
X14659537Y63770397D01*
X14616317Y63807583D01*
X14593043Y63839617D01*
X14506379Y63958899D01*
X14344937Y64120341D01*
X14160228Y64254541D01*
X13956803Y64358192D01*
X13739660Y64428747D01*
X13514162Y64464462D01*
X13514157Y64464462D01*
X13285843Y64464462D01*
X13285838Y64464462D01*
X13060339Y64428747D01*
X12843196Y64358192D01*
X12639771Y64254541D01*
X12455061Y64120340D01*
X12293623Y63958902D01*
X12293616Y63958893D01*
X12183681Y63807583D01*
X12128351Y63764917D01*
X12058738Y63758939D01*
X11996943Y63791545D01*
X11962586Y63852385D01*
X11962789Y63909413D01*
X11963550Y63912586D01*
X11963553Y63912594D01*
X11970887Y63958902D01*
X12000500Y64145865D01*
X12000500Y64382060D01*
X11963553Y64615331D01*
X11890566Y64839959D01*
X11783342Y65050396D01*
X11644517Y65241472D01*
X11477510Y65408479D01*
X11286433Y65547305D01*
X11075996Y65654529D01*
X10851368Y65727516D01*
X10618097Y65764462D01*
X10618092Y65764462D01*
X10381908Y65764462D01*
X10381903Y65764462D01*
X10148631Y65727516D01*
X9924003Y65654529D01*
X9713566Y65547305D01*
X9604550Y65468100D01*
X9522490Y65408479D01*
X9522488Y65408477D01*
X9522487Y65408477D01*
X9355485Y65241475D01*
X9355485Y65241474D01*
X9355483Y65241472D01*
X9295862Y65159412D01*
X9216657Y65050396D01*
X9109433Y64839959D01*
X9036446Y64615331D01*
X8999500Y64382060D01*
X8500500Y64382060D01*
X8463553Y64615331D01*
X8390566Y64839959D01*
X8283342Y65050396D01*
X8144517Y65241472D01*
X7977510Y65408479D01*
X7786433Y65547305D01*
X7575996Y65654529D01*
X7351368Y65727516D01*
X7118097Y65764462D01*
X7118092Y65764462D01*
X6881908Y65764462D01*
X6881903Y65764462D01*
X6648631Y65727516D01*
X6424003Y65654529D01*
X6213566Y65547305D01*
X6104550Y65468100D01*
X6022490Y65408479D01*
X6022488Y65408477D01*
X6022487Y65408477D01*
X5855485Y65241475D01*
X5855485Y65241474D01*
X5855483Y65241472D01*
X5795862Y65159412D01*
X5716657Y65050396D01*
X5609433Y64839959D01*
X5536446Y64615331D01*
X5499500Y64382060D01*
X500500Y64382060D01*
X500500Y88935487D01*
X24819500Y88935487D01*
X24819500Y85672445D01*
X24830292Y85604305D01*
X24834354Y85578658D01*
X24891950Y85465620D01*
X24891952Y85465618D01*
X24891954Y85465615D01*
X24981652Y85375917D01*
X24981654Y85375916D01*
X24981658Y85375912D01*
X25094694Y85318317D01*
X25094698Y85318315D01*
X25188475Y85303463D01*
X25188481Y85303462D01*
X28451518Y85303463D01*
X28545304Y85318316D01*
X28658342Y85375912D01*
X28658347Y85375917D01*
X28732319Y85449888D01*
X28793642Y85483373D01*
X28863334Y85478389D01*
X28907681Y85449888D01*
X28981652Y85375917D01*
X28981654Y85375916D01*
X28981658Y85375912D01*
X29094694Y85318317D01*
X29094698Y85318315D01*
X29188475Y85303463D01*
X29188481Y85303462D01*
X32451518Y85303463D01*
X32545304Y85318316D01*
X32658342Y85375912D01*
X32748050Y85465620D01*
X32805646Y85578658D01*
X32805646Y85578660D01*
X32805647Y85578661D01*
X32816282Y85645815D01*
X32820500Y85672443D01*
X32820499Y88935480D01*
X32805646Y89029266D01*
X32748050Y89142304D01*
X32748046Y89142308D01*
X32748045Y89142310D01*
X32658347Y89232008D01*
X32658344Y89232010D01*
X32658342Y89232012D01*
X32581517Y89271157D01*
X32545301Y89289610D01*
X32451524Y89304462D01*
X29188482Y89304462D01*
X29107519Y89291639D01*
X29094696Y89289608D01*
X28981658Y89232012D01*
X28981657Y89232011D01*
X28981652Y89232008D01*
X28907681Y89158036D01*
X28846358Y89124551D01*
X28776666Y89129535D01*
X28732319Y89158036D01*
X28658347Y89232008D01*
X28658344Y89232010D01*
X28658342Y89232012D01*
X28581517Y89271157D01*
X28545301Y89289610D01*
X28451524Y89304462D01*
X25188482Y89304462D01*
X25107519Y89291639D01*
X25094696Y89289608D01*
X24981658Y89232012D01*
X24981657Y89232011D01*
X24981652Y89232008D01*
X24891954Y89142310D01*
X24891951Y89142305D01*
X24891950Y89142304D01*
X24872751Y89104625D01*
X24834352Y89029264D01*
X24819500Y88935487D01*
X500500Y88935487D01*
X500500Y92404394D01*
X5499500Y92404394D01*
X5499500Y92123531D01*
X5530942Y91844468D01*
X5530945Y91844450D01*
X5593439Y91570645D01*
X5593443Y91570633D01*
X5686200Y91305551D01*
X5808053Y91052520D01*
X5808055Y91052517D01*
X5957477Y90814714D01*
X6132584Y90595137D01*
X6331175Y90396546D01*
X6550752Y90221439D01*
X6788555Y90072017D01*
X7041592Y89950161D01*
X7240680Y89880497D01*
X7306670Y89857406D01*
X7306682Y89857402D01*
X7580491Y89794907D01*
X7580497Y89794907D01*
X7580505Y89794905D01*
X7766547Y89773944D01*
X7859569Y89763463D01*
X7859572Y89763462D01*
X7859575Y89763462D01*
X8140428Y89763462D01*
X8140429Y89763463D01*
X8283055Y89779533D01*
X8419494Y89794905D01*
X8419499Y89794906D01*
X8419509Y89794907D01*
X8693318Y89857402D01*
X8958408Y89950161D01*
X9211445Y90072017D01*
X9449248Y90221439D01*
X9668825Y90396546D01*
X9867416Y90595137D01*
X10042523Y90814714D01*
X10191945Y91052517D01*
X10313801Y91305554D01*
X10406560Y91570644D01*
X10469055Y91844453D01*
X10500500Y92123537D01*
X10500500Y92404387D01*
X10500499Y92404394D01*
X57499500Y92404394D01*
X57499500Y92123531D01*
X57530942Y91844468D01*
X57530945Y91844450D01*
X57593439Y91570645D01*
X57593443Y91570633D01*
X57686200Y91305551D01*
X57808053Y91052520D01*
X57808055Y91052517D01*
X57957477Y90814714D01*
X58132584Y90595137D01*
X58331175Y90396546D01*
X58550752Y90221439D01*
X58788555Y90072017D01*
X59041592Y89950161D01*
X59240680Y89880497D01*
X59306670Y89857406D01*
X59306682Y89857402D01*
X59580491Y89794907D01*
X59580497Y89794907D01*
X59580505Y89794905D01*
X59766547Y89773944D01*
X59859569Y89763463D01*
X59859572Y89763462D01*
X59859575Y89763462D01*
X60140428Y89763462D01*
X60140429Y89763463D01*
X60283055Y89779533D01*
X60419494Y89794905D01*
X60419499Y89794906D01*
X60419509Y89794907D01*
X60693318Y89857402D01*
X60958408Y89950161D01*
X61211445Y90072017D01*
X61449248Y90221439D01*
X61668825Y90396546D01*
X61867416Y90595137D01*
X62042523Y90814714D01*
X62191945Y91052517D01*
X62313801Y91305554D01*
X62406560Y91570644D01*
X62469055Y91844453D01*
X62500500Y92123537D01*
X62500500Y92404387D01*
X62469055Y92683471D01*
X62406560Y92957280D01*
X62313801Y93222370D01*
X62191945Y93475407D01*
X62042523Y93713210D01*
X61867416Y93932787D01*
X61668825Y94131378D01*
X61449248Y94306485D01*
X61211445Y94455907D01*
X61211442Y94455909D01*
X60958411Y94577762D01*
X60693329Y94670519D01*
X60693317Y94670523D01*
X60419512Y94733017D01*
X60419494Y94733020D01*
X60140431Y94764462D01*
X60140425Y94764462D01*
X59859575Y94764462D01*
X59859568Y94764462D01*
X59580505Y94733020D01*
X59580487Y94733017D01*
X59306682Y94670523D01*
X59306670Y94670519D01*
X59041588Y94577762D01*
X58788557Y94455909D01*
X58550753Y94306486D01*
X58331175Y94131379D01*
X58132583Y93932787D01*
X57957476Y93713209D01*
X57808053Y93475405D01*
X57686200Y93222374D01*
X57593443Y92957292D01*
X57593439Y92957280D01*
X57530945Y92683475D01*
X57530942Y92683457D01*
X57499500Y92404394D01*
X10500499Y92404394D01*
X10469055Y92683471D01*
X10406560Y92957280D01*
X10313801Y93222370D01*
X10191945Y93475407D01*
X10042523Y93713210D01*
X9867416Y93932787D01*
X9668825Y94131378D01*
X9449248Y94306485D01*
X9211445Y94455907D01*
X9211442Y94455909D01*
X8958411Y94577762D01*
X8693329Y94670519D01*
X8693317Y94670523D01*
X8419512Y94733017D01*
X8419494Y94733020D01*
X8140431Y94764462D01*
X8140425Y94764462D01*
X7859575Y94764462D01*
X7859568Y94764462D01*
X7580505Y94733020D01*
X7580487Y94733017D01*
X7306682Y94670523D01*
X7306670Y94670519D01*
X7041588Y94577762D01*
X6788557Y94455909D01*
X6550753Y94306486D01*
X6331175Y94131379D01*
X6132583Y93932787D01*
X5957476Y93713209D01*
X5808053Y93475405D01*
X5686200Y93222374D01*
X5593443Y92957292D01*
X5593439Y92957280D01*
X5530945Y92683475D01*
X5530942Y92683457D01*
X5499500Y92404394D01*
X500500Y92404394D01*
X500500Y97260212D01*
X500726Y97267699D01*
X518271Y97557757D01*
X520076Y97572622D01*
X571780Y97854760D01*
X575364Y97869298D01*
X660699Y98143150D01*
X665997Y98157120D01*
X783727Y98418704D01*
X790680Y98431950D01*
X830959Y98498581D01*
X939075Y98677428D01*
X947567Y98689732D01*
X1124481Y98915545D01*
X1134396Y98926736D01*
X1337226Y99129566D01*
X1348417Y99139481D01*
X1574230Y99316395D01*
X1586534Y99324887D01*
X1832012Y99473282D01*
X1845258Y99480235D01*
X2106842Y99597965D01*
X2120812Y99603263D01*
X2394668Y99688600D01*
X2409198Y99692182D01*
X2691344Y99743887D01*
X2706201Y99745691D01*
X2996264Y99763236D01*
X3003751Y99763462D01*
X3065892Y99763462D01*
X64934108Y99763462D01*
X64996249Y99763462D01*
X65003736Y99763236D01*
G37*
%TD.AperFunction*%
%TD*%
M02*
