%TF.GenerationSoftware,KiCad,Pcbnew,10.0.6*%
%TF.CreationDate,2026-09-26T14:49:10+01:00*%
%TF.ProjectId,MAIN_POWER,4d41494e-5f50-44f5-9745-522e6b696361,rev?*%
%TF.SameCoordinates,Original*%
%TF.FileFunction,Copper,L4,Bot*%
%TF.FilePolarity,Positive*%
%FSLAX46Y46*%
G04 Gerber Fmt 4.6, Leading zero omitted, Abs format (unit mm)*
G04 Created by KiCad (PCBNEW 10.0.6) date 2026-09-26 14:49:10*
%MOMM*%
%LPD*%
G01*
G04 APERTURE LIST*
G04 Aperture macros list*
%AMRoundRect*
0 Rectangle with rounded corners*
0 $1 Rounding radius*
0 $2 $3 $4 $5 $6 $7 $8 $9 X,Y pos of 4 corners*
0 Add a 4 corners polygon primitive as box body*
4,1,4,$2,$3,$4,$5,$6,$7,$8,$9,$2,$3,0*
0 Add four circle primitives for the rounded corners*
1,1,$1+$1,$2,$3*
1,1,$1+$1,$4,$5*
1,1,$1+$1,$6,$7*
1,1,$1+$1,$8,$9*
0 Add four rect primitives between the rounded corners*
20,1,$1+$1,$2,$3,$4,$5,0*
20,1,$1+$1,$4,$5,$6,$7,0*
20,1,$1+$1,$6,$7,$8,$9,0*
20,1,$1+$1,$8,$9,$2,$3,0*%
G04 Aperture macros list end*
%TA.AperFunction,ComponentPad*%
%ADD10C,2.200000*%
%TD*%
%TA.AperFunction,ComponentPad*%
%ADD11R,3.200000X3.200000*%
%TD*%
%TA.AperFunction,ComponentPad*%
%ADD12C,3.200000*%
%TD*%
%TA.AperFunction,ComponentPad*%
%ADD13RoundRect,0.250001X-1.099999X-1.099999X1.099999X-1.099999X1.099999X1.099999X-1.099999X1.099999X0*%
%TD*%
%TA.AperFunction,ComponentPad*%
%ADD14C,2.700000*%
%TD*%
%TA.AperFunction,Conductor*%
%ADD15C,2.000000*%
%TD*%
%TA.AperFunction,Conductor*%
%ADD16C,3.000000*%
%TD*%
%TA.AperFunction,Conductor*%
%ADD17C,1.000000*%
%TD*%
G04 APERTURE END LIST*
D10*
%TO.P,F4,1*%
%TO.N,12V_IN*%
X40000000Y43263962D03*
X40000000Y40763962D03*
X43500000Y43263962D03*
X43500000Y40763962D03*
%TO.P,F4,2*%
%TO.N,USB_12V*%
X49300000Y43263962D03*
X49300000Y40763962D03*
X52800000Y43263962D03*
X52800000Y40763962D03*
%TD*%
D11*
%TO.P,J1,1*%
%TO.N,12V_IN*%
X26820000Y87303962D03*
X30820000Y87303962D03*
D12*
%TO.P,J1,2*%
%TO.N,GND*%
X36980000Y77143962D03*
X40980000Y77143962D03*
%TD*%
D13*
%TO.P,J4,1*%
%TO.N,FAN_12V*%
X11000000Y33263962D03*
D14*
%TO.P,J4,2*%
%TO.N,GND*%
X14960000Y33263962D03*
%TD*%
D13*
%TO.P,J3,1*%
%TO.N,SG4A_12V*%
X44000000Y54263962D03*
D14*
%TO.P,J3,2*%
%TO.N,GND*%
X47960000Y54263962D03*
%TD*%
D13*
%TO.P,J2,1*%
%TO.N,JETSON_12V*%
X11000000Y54263962D03*
D14*
%TO.P,J2,2*%
%TO.N,GND*%
X14960000Y54263962D03*
%TD*%
D10*
%TO.P,F2,1*%
%TO.N,12V_IN*%
X40000000Y64263962D03*
X40000000Y61763962D03*
X43500000Y64263962D03*
X43500000Y61763962D03*
%TO.P,F2,2*%
%TO.N,SG4A_12V*%
X49300000Y64263962D03*
X49300000Y61763962D03*
X52800000Y64263962D03*
X52800000Y61763962D03*
%TD*%
%TO.P,F3,1*%
%TO.N,12V_IN*%
X7000000Y43263962D03*
X7000000Y40763962D03*
X10500000Y43263962D03*
X10500000Y40763962D03*
%TO.P,F3,2*%
%TO.N,FAN_12V*%
X16300000Y43263962D03*
X16300000Y40763962D03*
X19800000Y43263962D03*
X19800000Y40763962D03*
%TD*%
%TO.P,F5,1*%
%TO.N,12V_IN*%
X27600000Y22263962D03*
X27600000Y19763962D03*
X31100000Y22263962D03*
X31100000Y19763962D03*
%TO.P,F5,2*%
%TO.N,FUSED_BOOST_12V*%
X36900000Y22263962D03*
X36900000Y19763962D03*
X40400000Y22263962D03*
X40400000Y19763962D03*
%TD*%
%TO.P,F1,1*%
%TO.N,12V_IN*%
X7000000Y64263962D03*
X7000000Y61763962D03*
X10500000Y64263962D03*
X10500000Y61763962D03*
%TO.P,F1,2*%
%TO.N,JETSON_12V*%
X16300000Y64263962D03*
X16300000Y61763962D03*
X19800000Y64263962D03*
X19800000Y61763962D03*
%TD*%
D13*
%TO.P,J5,1*%
%TO.N,USB_12V*%
X44000000Y33263962D03*
D14*
%TO.P,J5,2*%
%TO.N,GND*%
X47960000Y33263962D03*
%TD*%
D13*
%TO.P,J6,1*%
%TO.N,FUSED_BOOST_12V*%
X32020000Y12263962D03*
D14*
%TO.P,J6,2*%
%TO.N,GND*%
X35980000Y12263962D03*
%TD*%
%TO.N,12V_IN*%
D15*
X27600000Y19763962D02*
X27600000Y22263962D01*
X40000000Y40763962D02*
X40000000Y43263962D01*
X40000000Y43263962D02*
X43500000Y43263962D01*
X10500000Y43263962D02*
X10500000Y40763962D01*
X27600000Y22263962D02*
X31100000Y22263962D01*
X40000000Y64263962D02*
X43500000Y64263962D01*
X10500000Y64263962D02*
X10500000Y61763962D01*
X7000000Y43263962D02*
X10500000Y43263962D01*
X7000000Y61763962D02*
X7000000Y64263962D01*
X10500000Y61763962D02*
X7000000Y61763962D01*
X7000000Y64263962D02*
X10500000Y64263962D01*
X10500000Y40763962D02*
X7000000Y40763962D01*
X43500000Y43263962D02*
X43500000Y40763962D01*
X7000000Y40763962D02*
X7000000Y43263962D01*
X43500000Y40763962D02*
X40000000Y40763962D01*
X31100000Y19763962D02*
X27600000Y19763962D01*
X43500000Y61763962D02*
X40000000Y61763962D01*
X43500000Y64263962D02*
X43500000Y61763962D01*
X31100000Y22263962D02*
X31100000Y19763962D01*
X40000000Y61763962D02*
X40000000Y64263962D01*
%TO.N,USB_12V*%
D16*
X49300000Y40163962D02*
X44000000Y34863962D01*
D15*
X52800000Y40763962D02*
X49300000Y40763962D01*
X49300000Y40763962D02*
X49300000Y43263962D01*
X52800000Y43263962D02*
X52800000Y40763962D01*
X49300000Y43263962D02*
X52800000Y43263962D01*
D16*
X44000000Y34863962D02*
X44000000Y33263962D01*
X49300000Y40763962D02*
X49300000Y40163962D01*
%TO.N,FAN_12V*%
D15*
X16300000Y43263962D02*
X19800000Y43263962D01*
D17*
X16300000Y40763962D02*
X16300000Y40163962D01*
X16300000Y40163962D02*
X11000000Y34863962D01*
D15*
X16300000Y40763962D02*
X16300000Y43263962D01*
D17*
X11000000Y34863962D02*
X11000000Y33263962D01*
D15*
X19800000Y40763962D02*
X16300000Y40763962D01*
X19800000Y43263962D02*
X19800000Y40763962D01*
%TO.N,SG4A_12V*%
X49300000Y61763962D02*
X49300000Y64263962D01*
X52800000Y64263962D02*
X52800000Y61763962D01*
D16*
X49300000Y61763962D02*
X49300000Y61163962D01*
D15*
X49300000Y64263962D02*
X52800000Y64263962D01*
X52800000Y61763962D02*
X49300000Y61763962D01*
D16*
X49300000Y61163962D02*
X44000000Y55863962D01*
X44000000Y55863962D02*
X44000000Y54263962D01*
%TO.N,JETSON_12V*%
D15*
X19800000Y61763962D02*
X16300000Y61763962D01*
D16*
X16300000Y61763962D02*
X16300000Y61163962D01*
D15*
X16300000Y61763962D02*
X16300000Y64263962D01*
X19800000Y64263962D02*
X19800000Y61763962D01*
X16300000Y64263962D02*
X19800000Y64263962D01*
D16*
X11000000Y55863962D02*
X11000000Y54263962D01*
X16300000Y61163962D02*
X11000000Y55863962D01*
%TO.N,FUSED_BOOST_12V*%
X36900000Y19763962D02*
X36900000Y19163962D01*
X36900000Y19163962D02*
X32020000Y14283962D01*
D15*
X40400000Y22263962D02*
X40400000Y19763962D01*
X40400000Y19763962D02*
X36900000Y19763962D01*
X36900000Y22263962D02*
X40400000Y22263962D01*
X36900000Y19763962D02*
X36900000Y22263962D01*
D16*
X32020000Y14283962D02*
X32020000Y12263962D01*
%TD*%
%TA.AperFunction,Conductor*%
%TO.N,GND*%
G36*
X65003736Y99763236D02*
G01*
X65293796Y99745691D01*
X65308659Y99743886D01*
X65590797Y99692182D01*
X65605334Y99688599D01*
X65879182Y99603264D01*
X65893163Y99597962D01*
X66154734Y99480238D01*
X66167987Y99473282D01*
X66413458Y99324891D01*
X66425776Y99316389D01*
X66651573Y99139488D01*
X66662781Y99129558D01*
X66865595Y98926744D01*
X66875525Y98915536D01*
X67052422Y98689745D01*
X67060928Y98677421D01*
X67209319Y98431950D01*
X67216277Y98418693D01*
X67333994Y98157139D01*
X67339304Y98143137D01*
X67424635Y97869298D01*
X67428219Y97854760D01*
X67479923Y97572622D01*
X67481728Y97557757D01*
X67499274Y97267699D01*
X67499500Y97260212D01*
X67499500Y3003751D01*
X67499274Y2996264D01*
X67481728Y2706206D01*
X67479923Y2691341D01*
X67428219Y2409203D01*
X67424635Y2394665D01*
X67339304Y2120826D01*
X67333994Y2106824D01*
X67216277Y1845270D01*
X67209319Y1832013D01*
X67060928Y1586542D01*
X67052422Y1574218D01*
X66875525Y1348427D01*
X66865595Y1337219D01*
X66662781Y1134405D01*
X66651573Y1124475D01*
X66425782Y947578D01*
X66413458Y939072D01*
X66167987Y790681D01*
X66154730Y783723D01*
X65893176Y666006D01*
X65879174Y660696D01*
X65605335Y575365D01*
X65590797Y571781D01*
X65308659Y520077D01*
X65293794Y518272D01*
X65003736Y500726D01*
X64996249Y500500D01*
X3003751Y500500D01*
X2996264Y500726D01*
X2706205Y518272D01*
X2691340Y520077D01*
X2409202Y571781D01*
X2394664Y575365D01*
X2120825Y660696D01*
X2106827Y666005D01*
X1954096Y734744D01*
X1845269Y783723D01*
X1832012Y790681D01*
X1586541Y939072D01*
X1574217Y947578D01*
X1348426Y1124475D01*
X1337218Y1134405D01*
X1134404Y1337219D01*
X1124474Y1348427D01*
X947573Y1574224D01*
X939071Y1586542D01*
X790680Y1832013D01*
X783722Y1845270D01*
X666000Y2106837D01*
X660698Y2120818D01*
X575363Y2394666D01*
X571780Y2409203D01*
X520076Y2691341D01*
X518271Y2706206D01*
X500726Y2996264D01*
X500500Y3003751D01*
X500500Y8140432D01*
X5499500Y8140432D01*
X5499500Y7859569D01*
X5530942Y7580506D01*
X5530945Y7580488D01*
X5593439Y7306683D01*
X5593443Y7306671D01*
X5686200Y7041589D01*
X5808053Y6788558D01*
X5808055Y6788555D01*
X5957477Y6550752D01*
X6132584Y6331175D01*
X6331175Y6132584D01*
X6550752Y5957477D01*
X6788555Y5808055D01*
X7041592Y5686199D01*
X7240680Y5616535D01*
X7306670Y5593444D01*
X7306682Y5593440D01*
X7580491Y5530945D01*
X7580497Y5530945D01*
X7580505Y5530943D01*
X7766547Y5509982D01*
X7859569Y5499501D01*
X7859572Y5499500D01*
X7859575Y5499500D01*
X8140428Y5499500D01*
X8140429Y5499501D01*
X8283055Y5515571D01*
X8419494Y5530943D01*
X8419499Y5530944D01*
X8419509Y5530945D01*
X8693318Y5593440D01*
X8958408Y5686199D01*
X9211445Y5808055D01*
X9449248Y5957477D01*
X9668825Y6132584D01*
X9867416Y6331175D01*
X10042523Y6550752D01*
X10191945Y6788555D01*
X10313801Y7041592D01*
X10406560Y7306682D01*
X10469055Y7580491D01*
X10500500Y7859575D01*
X10500500Y8140425D01*
X10500499Y8140432D01*
X57499500Y8140432D01*
X57499500Y7859569D01*
X57530942Y7580506D01*
X57530945Y7580488D01*
X57593439Y7306683D01*
X57593443Y7306671D01*
X57686200Y7041589D01*
X57808053Y6788558D01*
X57808055Y6788555D01*
X57957477Y6550752D01*
X58132584Y6331175D01*
X58331175Y6132584D01*
X58550752Y5957477D01*
X58788555Y5808055D01*
X59041592Y5686199D01*
X59240680Y5616535D01*
X59306670Y5593444D01*
X59306682Y5593440D01*
X59580491Y5530945D01*
X59580497Y5530945D01*
X59580505Y5530943D01*
X59766547Y5509982D01*
X59859569Y5499501D01*
X59859572Y5499500D01*
X59859575Y5499500D01*
X60140428Y5499500D01*
X60140429Y5499501D01*
X60283055Y5515571D01*
X60419494Y5530943D01*
X60419499Y5530944D01*
X60419509Y5530945D01*
X60693318Y5593440D01*
X60958408Y5686199D01*
X61211445Y5808055D01*
X61449248Y5957477D01*
X61668825Y6132584D01*
X61867416Y6331175D01*
X62042523Y6550752D01*
X62191945Y6788555D01*
X62313801Y7041592D01*
X62406560Y7306682D01*
X62469055Y7580491D01*
X62500500Y7859575D01*
X62500500Y8140425D01*
X62469055Y8419509D01*
X62406560Y8693318D01*
X62313801Y8958408D01*
X62191945Y9211445D01*
X62042523Y9449248D01*
X61867416Y9668825D01*
X61668825Y9867416D01*
X61449248Y10042523D01*
X61211445Y10191945D01*
X61211442Y10191947D01*
X60958411Y10313800D01*
X60693329Y10406557D01*
X60693317Y10406561D01*
X60419512Y10469055D01*
X60419494Y10469058D01*
X60140431Y10500500D01*
X60140425Y10500500D01*
X59859575Y10500500D01*
X59859568Y10500500D01*
X59580505Y10469058D01*
X59580487Y10469055D01*
X59306682Y10406561D01*
X59306670Y10406557D01*
X59041588Y10313800D01*
X58788557Y10191947D01*
X58550753Y10042524D01*
X58331175Y9867417D01*
X58132583Y9668825D01*
X57957476Y9449247D01*
X57808053Y9211443D01*
X57686200Y8958412D01*
X57593443Y8693330D01*
X57593439Y8693318D01*
X57530945Y8419513D01*
X57530942Y8419495D01*
X57499500Y8140432D01*
X10500499Y8140432D01*
X10469055Y8419509D01*
X10406560Y8693318D01*
X10313801Y8958408D01*
X10191945Y9211445D01*
X10042523Y9449248D01*
X9867416Y9668825D01*
X9668825Y9867416D01*
X9449248Y10042523D01*
X9211445Y10191945D01*
X9211442Y10191947D01*
X8958411Y10313800D01*
X8693329Y10406557D01*
X8693317Y10406561D01*
X8419512Y10469055D01*
X8419494Y10469058D01*
X8140431Y10500500D01*
X8140425Y10500500D01*
X7859575Y10500500D01*
X7859568Y10500500D01*
X7580505Y10469058D01*
X7580487Y10469055D01*
X7306682Y10406561D01*
X7306670Y10406557D01*
X7041588Y10313800D01*
X6788557Y10191947D01*
X6550753Y10042524D01*
X6331175Y9867417D01*
X6132583Y9668825D01*
X5957476Y9449247D01*
X5808053Y9211443D01*
X5686200Y8958412D01*
X5593443Y8693330D01*
X5593439Y8693318D01*
X5530945Y8419513D01*
X5530942Y8419495D01*
X5499500Y8140432D01*
X500500Y8140432D01*
X500500Y22382060D01*
X26099500Y22382060D01*
X26099500Y22145865D01*
X26129113Y21958899D01*
X26136447Y21912594D01*
X26187003Y21757001D01*
X26193431Y21737217D01*
X26199500Y21698899D01*
X26199500Y20329027D01*
X26193431Y20290709D01*
X26136447Y20115335D01*
X26136447Y20115332D01*
X26099500Y19882060D01*
X26099500Y19645865D01*
X26136446Y19412594D01*
X26209433Y19187966D01*
X26316657Y18977529D01*
X26455483Y18786452D01*
X26622490Y18619445D01*
X26813567Y18480619D01*
X26912991Y18429960D01*
X27024003Y18373396D01*
X27024005Y18373396D01*
X27024008Y18373394D01*
X27144412Y18334273D01*
X27248631Y18300409D01*
X27481903Y18263462D01*
X27481908Y18263462D01*
X27718097Y18263462D01*
X27831184Y18281374D01*
X27951368Y18300409D01*
X27951371Y18300410D01*
X27951372Y18300410D01*
X28126747Y18357393D01*
X28165065Y18363462D01*
X30534935Y18363462D01*
X30573253Y18357393D01*
X30683447Y18321589D01*
X30748632Y18300409D01*
X30841609Y18285683D01*
X30981903Y18263462D01*
X30981908Y18263462D01*
X31218097Y18263462D01*
X31451368Y18300409D01*
X31454609Y18301462D01*
X31675992Y18373394D01*
X31886433Y18480619D01*
X32077510Y18619445D01*
X32244517Y18786452D01*
X32383343Y18977529D01*
X32490568Y19187970D01*
X32563553Y19412594D01*
X32573708Y19476709D01*
X32600500Y19645865D01*
X32600500Y19882060D01*
X32563552Y20115334D01*
X32562789Y20118515D01*
X32562851Y20119761D01*
X32562791Y20120142D01*
X32562871Y20120155D01*
X32566283Y20188298D01*
X32606950Y20245113D01*
X32671878Y20270923D01*
X32740452Y20257533D01*
X32783681Y20220343D01*
X32893621Y20069025D01*
X33055063Y19907583D01*
X33239772Y19773383D01*
X33335884Y19724412D01*
X33443196Y19669733D01*
X33443198Y19669733D01*
X33443201Y19669731D01*
X33516653Y19645865D01*
X33660339Y19599178D01*
X33885838Y19563462D01*
X33885843Y19563462D01*
X34114162Y19563462D01*
X34256125Y19585948D01*
X34328502Y19597411D01*
X34397794Y19588457D01*
X34451246Y19543461D01*
X34471886Y19476709D01*
X34453161Y19409395D01*
X34435580Y19387257D01*
X30764228Y15715904D01*
X30764224Y15715900D01*
X30588065Y15539743D01*
X30588060Y15539737D01*
X30436400Y15342089D01*
X30311837Y15126339D01*
X30311830Y15126324D01*
X30216498Y14896170D01*
X30152017Y14655524D01*
X30119499Y14408535D01*
X30119499Y14155011D01*
X30119500Y14154982D01*
X30119500Y12139404D01*
X30119501Y12139387D01*
X30152017Y11892401D01*
X30216498Y11651755D01*
X30260061Y11546586D01*
X30269500Y11499133D01*
X30269500Y11098261D01*
X30272401Y11061395D01*
X30272402Y11061389D01*
X30318253Y10903570D01*
X30318255Y10903567D01*
X30401917Y10762101D01*
X30401923Y10762093D01*
X30518130Y10645886D01*
X30518134Y10645883D01*
X30518136Y10645881D01*
X30659603Y10562218D01*
X30659604Y10562218D01*
X30659607Y10562216D01*
X30817426Y10516365D01*
X30817429Y10516365D01*
X30817431Y10516364D01*
X30854306Y10513462D01*
X31255170Y10513462D01*
X31302622Y10504023D01*
X31338607Y10489118D01*
X31407793Y10460460D01*
X31648435Y10395980D01*
X31895435Y10363462D01*
X31895442Y10363462D01*
X32144558Y10363462D01*
X32144565Y10363462D01*
X32391565Y10395980D01*
X32632207Y10460460D01*
X32728872Y10500500D01*
X32737378Y10504023D01*
X32784830Y10513462D01*
X33185686Y10513462D01*
X33185694Y10513462D01*
X33222569Y10516364D01*
X33222571Y10516365D01*
X33222573Y10516365D01*
X33380392Y10562216D01*
X33380393Y10562217D01*
X33380397Y10562218D01*
X33521864Y10645881D01*
X33638081Y10762098D01*
X33721744Y10903565D01*
X33721745Y10903569D01*
X33721746Y10903570D01*
X33767597Y11061389D01*
X33767598Y11061395D01*
X33770499Y11098261D01*
X33770500Y11098268D01*
X33770500Y11499133D01*
X33779939Y11546586D01*
X33823502Y11651755D01*
X33887982Y11892397D01*
X33920500Y12139397D01*
X33920500Y13445388D01*
X33940185Y13512427D01*
X33956814Y13533064D01*
X38150394Y17726645D01*
X38150412Y17726660D01*
X38331933Y17908181D01*
X38331938Y17908186D01*
X38483599Y18105835D01*
X38595936Y18300409D01*
X38596544Y18301462D01*
X38647111Y18349677D01*
X38703931Y18363462D01*
X39834935Y18363462D01*
X39873253Y18357393D01*
X39983447Y18321589D01*
X40048632Y18300409D01*
X40141609Y18285683D01*
X40281903Y18263462D01*
X40281908Y18263462D01*
X40518097Y18263462D01*
X40751368Y18300409D01*
X40754609Y18301462D01*
X40975992Y18373394D01*
X41186433Y18480619D01*
X41377510Y18619445D01*
X41544517Y18786452D01*
X41683343Y18977529D01*
X41790568Y19187970D01*
X41863553Y19412594D01*
X41873708Y19476709D01*
X41900500Y19645865D01*
X41900500Y19882060D01*
X41870887Y20069025D01*
X41863553Y20115330D01*
X41863552Y20115334D01*
X41863552Y20115335D01*
X41806569Y20290709D01*
X41800500Y20329027D01*
X41800500Y21698899D01*
X41806569Y21737217D01*
X41812997Y21757001D01*
X41863553Y21912594D01*
X41879973Y22016273D01*
X41900500Y22145865D01*
X41900500Y22382060D01*
X41863553Y22615331D01*
X41790566Y22839959D01*
X41683342Y23050396D01*
X41544517Y23241472D01*
X41377510Y23408479D01*
X41186433Y23547305D01*
X40975996Y23654529D01*
X40751368Y23727516D01*
X40518097Y23764462D01*
X40518092Y23764462D01*
X40281908Y23764462D01*
X40281903Y23764462D01*
X40048630Y23727515D01*
X40048627Y23727515D01*
X39873253Y23670531D01*
X39834935Y23664462D01*
X37465065Y23664462D01*
X37426747Y23670531D01*
X37251370Y23727515D01*
X37018097Y23764462D01*
X37018092Y23764462D01*
X36781908Y23764462D01*
X36781903Y23764462D01*
X36548631Y23727516D01*
X36324003Y23654529D01*
X36113566Y23547305D01*
X36004550Y23468100D01*
X35922490Y23408479D01*
X35922488Y23408477D01*
X35922487Y23408477D01*
X35755485Y23241475D01*
X35755485Y23241474D01*
X35755483Y23241472D01*
X35695862Y23159412D01*
X35616657Y23050396D01*
X35509433Y22839959D01*
X35436446Y22615331D01*
X35399500Y22382060D01*
X35399500Y22145865D01*
X35436445Y21912601D01*
X35437210Y21909418D01*
X35437147Y21908170D01*
X35437209Y21907782D01*
X35437127Y21907770D01*
X35433722Y21839636D01*
X35393060Y21782817D01*
X35328135Y21757001D01*
X35259559Y21770385D01*
X35216319Y21807581D01*
X35183768Y21852383D01*
X35106379Y21958899D01*
X34944937Y22120341D01*
X34760228Y22254541D01*
X34556803Y22358192D01*
X34339660Y22428747D01*
X34114162Y22464462D01*
X34114157Y22464462D01*
X33885843Y22464462D01*
X33885838Y22464462D01*
X33660339Y22428747D01*
X33443196Y22358192D01*
X33239771Y22254541D01*
X33055061Y22120340D01*
X32893620Y21958899D01*
X32783679Y21807580D01*
X32728349Y21764915D01*
X32658735Y21758937D01*
X32596941Y21791544D01*
X32562584Y21852383D01*
X32562793Y21909433D01*
X32563547Y21912578D01*
X32563553Y21912594D01*
X32579232Y22011594D01*
X32600500Y22145865D01*
X32600500Y22382060D01*
X32563553Y22615331D01*
X32490566Y22839959D01*
X32383342Y23050396D01*
X32244517Y23241472D01*
X32077510Y23408479D01*
X31886433Y23547305D01*
X31675996Y23654529D01*
X31451368Y23727516D01*
X31218097Y23764462D01*
X31218092Y23764462D01*
X30981908Y23764462D01*
X30981903Y23764462D01*
X30748630Y23727515D01*
X30748627Y23727515D01*
X30573253Y23670531D01*
X30534935Y23664462D01*
X28165065Y23664462D01*
X28126747Y23670531D01*
X27951370Y23727515D01*
X27718097Y23764462D01*
X27718092Y23764462D01*
X27481908Y23764462D01*
X27481903Y23764462D01*
X27248631Y23727516D01*
X27024003Y23654529D01*
X26813566Y23547305D01*
X26704550Y23468100D01*
X26622490Y23408479D01*
X26622488Y23408477D01*
X26622487Y23408477D01*
X26455485Y23241475D01*
X26455485Y23241474D01*
X26455483Y23241472D01*
X26395862Y23159412D01*
X26316657Y23050396D01*
X26209433Y22839959D01*
X26136446Y22615331D01*
X26099500Y22382060D01*
X500500Y22382060D01*
X500500Y43382060D01*
X5499500Y43382060D01*
X5499500Y43145865D01*
X5529113Y42958899D01*
X5536447Y42912594D01*
X5587003Y42757001D01*
X5593431Y42737217D01*
X5599500Y42698899D01*
X5599500Y41329027D01*
X5593431Y41290709D01*
X5536447Y41115335D01*
X5536447Y41115332D01*
X5499500Y40882060D01*
X5499500Y40645865D01*
X5536446Y40412594D01*
X5609433Y40187966D01*
X5684125Y40041376D01*
X5716657Y39977529D01*
X5855483Y39786452D01*
X6022490Y39619445D01*
X6213567Y39480619D01*
X6312991Y39429960D01*
X6424003Y39373396D01*
X6424005Y39373396D01*
X6424008Y39373394D01*
X6533539Y39337805D01*
X6648631Y39300409D01*
X6881903Y39263462D01*
X6881908Y39263462D01*
X7118097Y39263462D01*
X7231184Y39281374D01*
X7351368Y39300409D01*
X7351371Y39300410D01*
X7351372Y39300410D01*
X7526747Y39357393D01*
X7565065Y39363462D01*
X9934935Y39363462D01*
X9973253Y39357393D01*
X10033539Y39337805D01*
X10148632Y39300409D01*
X10241609Y39285683D01*
X10381903Y39263462D01*
X10381908Y39263462D01*
X10618097Y39263462D01*
X10851368Y39300409D01*
X10873358Y39307554D01*
X11075992Y39373394D01*
X11286433Y39480619D01*
X11477510Y39619445D01*
X11644517Y39786452D01*
X11783343Y39977529D01*
X11890568Y40187970D01*
X11963553Y40412594D01*
X11973708Y40476709D01*
X12000500Y40645865D01*
X12000500Y40882060D01*
X11963552Y41115334D01*
X11962789Y41118515D01*
X11962851Y41119761D01*
X11962791Y41120142D01*
X11962871Y41120155D01*
X11966283Y41188298D01*
X12006950Y41245113D01*
X12071878Y41270923D01*
X12140452Y41257533D01*
X12183681Y41220343D01*
X12293621Y41069025D01*
X12455063Y40907583D01*
X12639772Y40773383D01*
X12735884Y40724412D01*
X12843196Y40669733D01*
X12843198Y40669733D01*
X12843201Y40669731D01*
X12916653Y40645865D01*
X13060339Y40599178D01*
X13285838Y40563462D01*
X13285843Y40563462D01*
X13514162Y40563462D01*
X13739660Y40599178D01*
X13956799Y40669731D01*
X14160228Y40773383D01*
X14344937Y40907583D01*
X14506379Y41069025D01*
X14616319Y41220344D01*
X14671647Y41263007D01*
X14741260Y41268986D01*
X14803055Y41236380D01*
X14837413Y41175541D01*
X14837214Y41118530D01*
X14836447Y41115337D01*
X14799500Y40882060D01*
X14799500Y40645865D01*
X14836447Y40412593D01*
X14836447Y40412590D01*
X14909429Y40187976D01*
X14909431Y40187971D01*
X14909432Y40187970D01*
X14916150Y40174785D01*
X14929046Y40106117D01*
X14902770Y40041376D01*
X14893346Y40030810D01*
X10300537Y35438001D01*
X10261064Y35378923D01*
X10261063Y35378922D01*
X10201988Y35290513D01*
X10179213Y35235527D01*
X10134105Y35126629D01*
X10134104Y35126627D01*
X10131648Y35114274D01*
X10099264Y35052362D01*
X10038550Y35017786D01*
X10010030Y35014462D01*
X9834298Y35014462D01*
X9797432Y35011561D01*
X9797426Y35011560D01*
X9639607Y34965709D01*
X9639604Y34965707D01*
X9498138Y34882045D01*
X9498130Y34882039D01*
X9381923Y34765832D01*
X9381917Y34765824D01*
X9298255Y34624358D01*
X9298253Y34624355D01*
X9252402Y34466536D01*
X9252401Y34466530D01*
X9249500Y34429664D01*
X9249500Y32098261D01*
X9252401Y32061395D01*
X9252402Y32061389D01*
X9298253Y31903570D01*
X9298255Y31903567D01*
X9381917Y31762101D01*
X9381923Y31762093D01*
X9498130Y31645886D01*
X9498134Y31645883D01*
X9498136Y31645881D01*
X9639603Y31562218D01*
X9639604Y31562218D01*
X9639607Y31562216D01*
X9797426Y31516365D01*
X9797429Y31516365D01*
X9797431Y31516364D01*
X9834306Y31513462D01*
X9834314Y31513462D01*
X12165686Y31513462D01*
X12165694Y31513462D01*
X12202569Y31516364D01*
X12202571Y31516365D01*
X12202573Y31516365D01*
X12360392Y31562216D01*
X12360393Y31562217D01*
X12360397Y31562218D01*
X12501864Y31645881D01*
X12618081Y31762098D01*
X12701744Y31903565D01*
X12701745Y31903569D01*
X12701746Y31903570D01*
X12747597Y32061389D01*
X12747598Y32061395D01*
X12750499Y32098261D01*
X12750500Y32098268D01*
X12750500Y34429656D01*
X12747598Y34466531D01*
X12747597Y34466536D01*
X12701746Y34624355D01*
X12701744Y34624358D01*
X12701744Y34624359D01*
X12618081Y34765826D01*
X12618079Y34765828D01*
X12618076Y34765832D01*
X12501869Y34882039D01*
X12495701Y34886823D01*
X12497576Y34889241D01*
X12459614Y34929936D01*
X12447143Y34998684D01*
X12473819Y35063261D01*
X12482755Y35073219D01*
X16717092Y39307556D01*
X16766450Y39337803D01*
X16826751Y39357395D01*
X16865063Y39363462D01*
X19234935Y39363462D01*
X19273253Y39357393D01*
X19333539Y39337805D01*
X19448632Y39300409D01*
X19541609Y39285683D01*
X19681903Y39263462D01*
X19681908Y39263462D01*
X19918097Y39263462D01*
X20151368Y39300409D01*
X20173358Y39307554D01*
X20375992Y39373394D01*
X20586433Y39480619D01*
X20777510Y39619445D01*
X20944517Y39786452D01*
X21083343Y39977529D01*
X21190568Y40187970D01*
X21263553Y40412594D01*
X21273708Y40476709D01*
X21300500Y40645865D01*
X21300500Y40882060D01*
X21270887Y41069025D01*
X21263553Y41115330D01*
X21263552Y41115334D01*
X21263552Y41115335D01*
X21206569Y41290709D01*
X21200500Y41329027D01*
X21200500Y42698899D01*
X21206569Y42737217D01*
X21212997Y42757001D01*
X21263553Y42912594D01*
X21279973Y43016273D01*
X21300500Y43145865D01*
X21300500Y43382060D01*
X38499500Y43382060D01*
X38499500Y43145865D01*
X38529113Y42958899D01*
X38536447Y42912594D01*
X38587003Y42757001D01*
X38593431Y42737217D01*
X38599500Y42698899D01*
X38599500Y41329027D01*
X38593431Y41290709D01*
X38536447Y41115335D01*
X38536447Y41115332D01*
X38499500Y40882060D01*
X38499500Y40645865D01*
X38536446Y40412594D01*
X38609433Y40187966D01*
X38684125Y40041376D01*
X38716657Y39977529D01*
X38855483Y39786452D01*
X39022490Y39619445D01*
X39213567Y39480619D01*
X39312991Y39429960D01*
X39424003Y39373396D01*
X39424005Y39373396D01*
X39424008Y39373394D01*
X39533539Y39337805D01*
X39648631Y39300409D01*
X39881903Y39263462D01*
X39881908Y39263462D01*
X40118097Y39263462D01*
X40231184Y39281374D01*
X40351368Y39300409D01*
X40351371Y39300410D01*
X40351372Y39300410D01*
X40526747Y39357393D01*
X40565065Y39363462D01*
X42934935Y39363462D01*
X42973253Y39357393D01*
X43033539Y39337805D01*
X43148632Y39300409D01*
X43241609Y39285683D01*
X43381903Y39263462D01*
X43381908Y39263462D01*
X43618097Y39263462D01*
X43851368Y39300409D01*
X43873358Y39307554D01*
X44075992Y39373394D01*
X44286433Y39480619D01*
X44477510Y39619445D01*
X44644517Y39786452D01*
X44783343Y39977529D01*
X44890568Y40187970D01*
X44963553Y40412594D01*
X44973708Y40476709D01*
X45000500Y40645865D01*
X45000500Y40882060D01*
X44963552Y41115334D01*
X44962789Y41118515D01*
X44962851Y41119761D01*
X44962791Y41120142D01*
X44962871Y41120155D01*
X44966283Y41188298D01*
X45006950Y41245113D01*
X45071878Y41270923D01*
X45140452Y41257533D01*
X45183681Y41220343D01*
X45293621Y41069025D01*
X45455063Y40907583D01*
X45639772Y40773383D01*
X45735884Y40724412D01*
X45843196Y40669733D01*
X45843198Y40669733D01*
X45843201Y40669731D01*
X45916653Y40645865D01*
X46060339Y40599178D01*
X46285838Y40563462D01*
X46285843Y40563462D01*
X46514162Y40563462D01*
X46656125Y40585948D01*
X46728502Y40597411D01*
X46797794Y40588457D01*
X46851246Y40543461D01*
X46871886Y40476709D01*
X46853161Y40409395D01*
X46835580Y40387257D01*
X42744228Y36295904D01*
X42744224Y36295900D01*
X42568065Y36119743D01*
X42568060Y36119737D01*
X42416400Y35922089D01*
X42291837Y35706339D01*
X42291830Y35706324D01*
X42196498Y35476170D01*
X42132017Y35235524D01*
X42099499Y34988535D01*
X42099499Y34735011D01*
X42099500Y34734982D01*
X42099500Y33139404D01*
X42099501Y33139387D01*
X42132017Y32892401D01*
X42196498Y32651755D01*
X42240061Y32546586D01*
X42249500Y32499133D01*
X42249500Y32098261D01*
X42252401Y32061395D01*
X42252402Y32061389D01*
X42298253Y31903570D01*
X42298255Y31903567D01*
X42381917Y31762101D01*
X42381923Y31762093D01*
X42498130Y31645886D01*
X42498134Y31645883D01*
X42498136Y31645881D01*
X42639603Y31562218D01*
X42639604Y31562218D01*
X42639607Y31562216D01*
X42797426Y31516365D01*
X42797429Y31516365D01*
X42797431Y31516364D01*
X42834306Y31513462D01*
X43235170Y31513462D01*
X43282622Y31504023D01*
X43318607Y31489118D01*
X43387793Y31460460D01*
X43628435Y31395980D01*
X43875435Y31363462D01*
X43875442Y31363462D01*
X44124558Y31363462D01*
X44124565Y31363462D01*
X44371565Y31395980D01*
X44612207Y31460460D01*
X44692816Y31493850D01*
X44717378Y31504023D01*
X44764830Y31513462D01*
X45165686Y31513462D01*
X45165694Y31513462D01*
X45202569Y31516364D01*
X45202571Y31516365D01*
X45202573Y31516365D01*
X45360392Y31562216D01*
X45360393Y31562217D01*
X45360397Y31562218D01*
X45501864Y31645881D01*
X45618081Y31762098D01*
X45701744Y31903565D01*
X45701745Y31903569D01*
X45701746Y31903570D01*
X45747597Y32061389D01*
X45747598Y32061395D01*
X45750499Y32098261D01*
X45750500Y32098268D01*
X45750500Y32499133D01*
X45759939Y32546586D01*
X45803502Y32651755D01*
X45867982Y32892397D01*
X45900500Y33139397D01*
X45900500Y34025388D01*
X45920185Y34092427D01*
X45936814Y34113064D01*
X50550394Y38726645D01*
X50550412Y38726660D01*
X50731933Y38908181D01*
X50731938Y38908186D01*
X50883599Y39105835D01*
X50995936Y39300409D01*
X50996544Y39301462D01*
X51047111Y39349677D01*
X51103931Y39363462D01*
X52234935Y39363462D01*
X52273253Y39357393D01*
X52333539Y39337805D01*
X52448632Y39300409D01*
X52541609Y39285683D01*
X52681903Y39263462D01*
X52681908Y39263462D01*
X52918097Y39263462D01*
X53151368Y39300409D01*
X53173358Y39307554D01*
X53375992Y39373394D01*
X53586433Y39480619D01*
X53777510Y39619445D01*
X53944517Y39786452D01*
X54083343Y39977529D01*
X54190568Y40187970D01*
X54263553Y40412594D01*
X54273708Y40476709D01*
X54300500Y40645865D01*
X54300500Y40882060D01*
X54270887Y41069025D01*
X54263553Y41115330D01*
X54263552Y41115334D01*
X54263552Y41115335D01*
X54206569Y41290709D01*
X54200500Y41329027D01*
X54200500Y42698899D01*
X54206569Y42737217D01*
X54212997Y42757001D01*
X54263553Y42912594D01*
X54279973Y43016273D01*
X54300500Y43145865D01*
X54300500Y43382060D01*
X54263553Y43615331D01*
X54190566Y43839959D01*
X54083342Y44050396D01*
X53944517Y44241472D01*
X53777510Y44408479D01*
X53586433Y44547305D01*
X53375996Y44654529D01*
X53151368Y44727516D01*
X52918097Y44764462D01*
X52918092Y44764462D01*
X52681908Y44764462D01*
X52681903Y44764462D01*
X52448630Y44727515D01*
X52448627Y44727515D01*
X52273253Y44670531D01*
X52234935Y44664462D01*
X49865065Y44664462D01*
X49826747Y44670531D01*
X49651370Y44727515D01*
X49418097Y44764462D01*
X49418092Y44764462D01*
X49181908Y44764462D01*
X49181903Y44764462D01*
X48948631Y44727516D01*
X48724003Y44654529D01*
X48513566Y44547305D01*
X48404550Y44468100D01*
X48322490Y44408479D01*
X48322488Y44408477D01*
X48322487Y44408477D01*
X48155485Y44241475D01*
X48155485Y44241474D01*
X48155483Y44241472D01*
X48095862Y44159412D01*
X48016657Y44050396D01*
X47909433Y43839959D01*
X47836446Y43615331D01*
X47799500Y43382060D01*
X47799500Y43145865D01*
X47836445Y42912601D01*
X47837210Y42909418D01*
X47837147Y42908170D01*
X47837209Y42907782D01*
X47837127Y42907770D01*
X47833722Y42839636D01*
X47793060Y42782817D01*
X47728135Y42757001D01*
X47659559Y42770385D01*
X47616319Y42807581D01*
X47583768Y42852383D01*
X47506379Y42958899D01*
X47344937Y43120341D01*
X47160228Y43254541D01*
X46956803Y43358192D01*
X46739660Y43428747D01*
X46514162Y43464462D01*
X46514157Y43464462D01*
X46285843Y43464462D01*
X46285838Y43464462D01*
X46060339Y43428747D01*
X45843196Y43358192D01*
X45639771Y43254541D01*
X45455061Y43120340D01*
X45293620Y42958899D01*
X45183679Y42807580D01*
X45128349Y42764915D01*
X45058735Y42758937D01*
X44996941Y42791544D01*
X44962584Y42852383D01*
X44962793Y42909433D01*
X44963547Y42912578D01*
X44963553Y42912594D01*
X44979232Y43011594D01*
X45000500Y43145865D01*
X45000500Y43382060D01*
X44963553Y43615331D01*
X44890566Y43839959D01*
X44783342Y44050396D01*
X44644517Y44241472D01*
X44477510Y44408479D01*
X44286433Y44547305D01*
X44075996Y44654529D01*
X43851368Y44727516D01*
X43618097Y44764462D01*
X43618092Y44764462D01*
X43381908Y44764462D01*
X43381903Y44764462D01*
X43148630Y44727515D01*
X43148627Y44727515D01*
X42973253Y44670531D01*
X42934935Y44664462D01*
X40565065Y44664462D01*
X40526747Y44670531D01*
X40351370Y44727515D01*
X40118097Y44764462D01*
X40118092Y44764462D01*
X39881908Y44764462D01*
X39881903Y44764462D01*
X39648631Y44727516D01*
X39424003Y44654529D01*
X39213566Y44547305D01*
X39104550Y44468100D01*
X39022490Y44408479D01*
X39022488Y44408477D01*
X39022487Y44408477D01*
X38855485Y44241475D01*
X38855485Y44241474D01*
X38855483Y44241472D01*
X38795862Y44159412D01*
X38716657Y44050396D01*
X38609433Y43839959D01*
X38536446Y43615331D01*
X38499500Y43382060D01*
X21300500Y43382060D01*
X21263553Y43615331D01*
X21190566Y43839959D01*
X21083342Y44050396D01*
X20944517Y44241472D01*
X20777510Y44408479D01*
X20586433Y44547305D01*
X20375996Y44654529D01*
X20151368Y44727516D01*
X19918097Y44764462D01*
X19918092Y44764462D01*
X19681908Y44764462D01*
X19681903Y44764462D01*
X19448630Y44727515D01*
X19448627Y44727515D01*
X19273253Y44670531D01*
X19234935Y44664462D01*
X16865065Y44664462D01*
X16826747Y44670531D01*
X16651370Y44727515D01*
X16418097Y44764462D01*
X16418092Y44764462D01*
X16181908Y44764462D01*
X16181903Y44764462D01*
X15948631Y44727516D01*
X15724003Y44654529D01*
X15513566Y44547305D01*
X15404550Y44468100D01*
X15322490Y44408479D01*
X15322488Y44408477D01*
X15322487Y44408477D01*
X15155485Y44241475D01*
X15155485Y44241474D01*
X15155483Y44241472D01*
X15095862Y44159412D01*
X15016657Y44050396D01*
X14909433Y43839959D01*
X14836446Y43615331D01*
X14799500Y43382060D01*
X14799500Y43145865D01*
X14836445Y42912601D01*
X14837210Y42909418D01*
X14837147Y42908170D01*
X14837209Y42907782D01*
X14837127Y42907770D01*
X14833722Y42839636D01*
X14793060Y42782817D01*
X14728135Y42757001D01*
X14659559Y42770385D01*
X14616319Y42807581D01*
X14583768Y42852383D01*
X14506379Y42958899D01*
X14344937Y43120341D01*
X14160228Y43254541D01*
X13956803Y43358192D01*
X13739660Y43428747D01*
X13514162Y43464462D01*
X13514157Y43464462D01*
X13285843Y43464462D01*
X13285838Y43464462D01*
X13060339Y43428747D01*
X12843196Y43358192D01*
X12639771Y43254541D01*
X12455061Y43120340D01*
X12293620Y42958899D01*
X12183679Y42807580D01*
X12128349Y42764915D01*
X12058735Y42758937D01*
X11996941Y42791544D01*
X11962584Y42852383D01*
X11962793Y42909433D01*
X11963547Y42912578D01*
X11963553Y42912594D01*
X11979232Y43011594D01*
X12000500Y43145865D01*
X12000500Y43382060D01*
X11963553Y43615331D01*
X11890566Y43839959D01*
X11783342Y44050396D01*
X11644517Y44241472D01*
X11477510Y44408479D01*
X11286433Y44547305D01*
X11075996Y44654529D01*
X10851368Y44727516D01*
X10618097Y44764462D01*
X10618092Y44764462D01*
X10381908Y44764462D01*
X10381903Y44764462D01*
X10148630Y44727515D01*
X10148627Y44727515D01*
X9973253Y44670531D01*
X9934935Y44664462D01*
X7565065Y44664462D01*
X7526747Y44670531D01*
X7351370Y44727515D01*
X7118097Y44764462D01*
X7118092Y44764462D01*
X6881908Y44764462D01*
X6881903Y44764462D01*
X6648631Y44727516D01*
X6424003Y44654529D01*
X6213566Y44547305D01*
X6104550Y44468100D01*
X6022490Y44408479D01*
X6022488Y44408477D01*
X6022487Y44408477D01*
X5855485Y44241475D01*
X5855485Y44241474D01*
X5855483Y44241472D01*
X5795862Y44159412D01*
X5716657Y44050396D01*
X5609433Y43839959D01*
X5536446Y43615331D01*
X5499500Y43382060D01*
X500500Y43382060D01*
X500500Y64382060D01*
X5499500Y64382060D01*
X5499500Y64145865D01*
X5529113Y63958899D01*
X5536447Y63912594D01*
X5587003Y63757001D01*
X5593431Y63737217D01*
X5599500Y63698899D01*
X5599500Y62329027D01*
X5593431Y62290709D01*
X5536447Y62115335D01*
X5536447Y62115332D01*
X5499500Y61882060D01*
X5499500Y61645865D01*
X5536446Y61412594D01*
X5609433Y61187966D01*
X5716657Y60977529D01*
X5855483Y60786452D01*
X6022490Y60619445D01*
X6213567Y60480619D01*
X6312991Y60429960D01*
X6424003Y60373396D01*
X6424005Y60373396D01*
X6424008Y60373394D01*
X6544412Y60334273D01*
X6648631Y60300409D01*
X6881903Y60263462D01*
X6881908Y60263462D01*
X7118097Y60263462D01*
X7231184Y60281374D01*
X7351368Y60300409D01*
X7351371Y60300410D01*
X7351372Y60300410D01*
X7526747Y60357393D01*
X7565065Y60363462D01*
X9934935Y60363462D01*
X9973253Y60357393D01*
X10083447Y60321589D01*
X10148632Y60300409D01*
X10241609Y60285683D01*
X10381903Y60263462D01*
X10381908Y60263462D01*
X10618097Y60263462D01*
X10851368Y60300409D01*
X10854609Y60301462D01*
X11075992Y60373394D01*
X11286433Y60480619D01*
X11477510Y60619445D01*
X11644517Y60786452D01*
X11783343Y60977529D01*
X11890568Y61187970D01*
X11963553Y61412594D01*
X11973708Y61476709D01*
X12000500Y61645865D01*
X12000500Y61882060D01*
X11963552Y62115334D01*
X11962789Y62118515D01*
X11962851Y62119761D01*
X11962791Y62120142D01*
X11962871Y62120155D01*
X11966283Y62188298D01*
X12006950Y62245113D01*
X12071878Y62270923D01*
X12140452Y62257533D01*
X12183681Y62220343D01*
X12293621Y62069025D01*
X12455063Y61907583D01*
X12639772Y61773383D01*
X12735884Y61724412D01*
X12843196Y61669733D01*
X12843198Y61669733D01*
X12843201Y61669731D01*
X12916653Y61645865D01*
X13060339Y61599178D01*
X13285838Y61563462D01*
X13285843Y61563462D01*
X13514162Y61563462D01*
X13656125Y61585948D01*
X13728502Y61597411D01*
X13797794Y61588457D01*
X13851246Y61543461D01*
X13871886Y61476709D01*
X13853161Y61409395D01*
X13835580Y61387257D01*
X9744228Y57295904D01*
X9744224Y57295900D01*
X9568065Y57119743D01*
X9568060Y57119737D01*
X9416400Y56922089D01*
X9291837Y56706339D01*
X9291830Y56706324D01*
X9196498Y56476170D01*
X9132017Y56235524D01*
X9099499Y55988535D01*
X9099499Y55735011D01*
X9099500Y55734982D01*
X9099500Y54139404D01*
X9099501Y54139387D01*
X9132017Y53892401D01*
X9196498Y53651755D01*
X9240061Y53546586D01*
X9249500Y53499133D01*
X9249500Y53098261D01*
X9252401Y53061395D01*
X9252402Y53061389D01*
X9298253Y52903570D01*
X9298255Y52903567D01*
X9381917Y52762101D01*
X9381923Y52762093D01*
X9498130Y52645886D01*
X9498134Y52645883D01*
X9498136Y52645881D01*
X9639603Y52562218D01*
X9639604Y52562218D01*
X9639607Y52562216D01*
X9797426Y52516365D01*
X9797429Y52516365D01*
X9797431Y52516364D01*
X9834306Y52513462D01*
X10235170Y52513462D01*
X10282622Y52504023D01*
X10318607Y52489118D01*
X10387793Y52460460D01*
X10628435Y52395980D01*
X10875435Y52363462D01*
X10875442Y52363462D01*
X11124558Y52363462D01*
X11124565Y52363462D01*
X11371565Y52395980D01*
X11612207Y52460460D01*
X11692816Y52493850D01*
X11717378Y52504023D01*
X11764830Y52513462D01*
X12165686Y52513462D01*
X12165694Y52513462D01*
X12202569Y52516364D01*
X12202571Y52516365D01*
X12202573Y52516365D01*
X12360392Y52562216D01*
X12360393Y52562217D01*
X12360397Y52562218D01*
X12501864Y52645881D01*
X12618081Y52762098D01*
X12701744Y52903565D01*
X12701745Y52903569D01*
X12701746Y52903570D01*
X12747597Y53061389D01*
X12747598Y53061395D01*
X12750499Y53098261D01*
X12750500Y53098268D01*
X12750500Y53499133D01*
X12759939Y53546586D01*
X12803502Y53651755D01*
X12867982Y53892397D01*
X12900500Y54139397D01*
X12900500Y55025388D01*
X12920185Y55092427D01*
X12936814Y55113064D01*
X17550394Y59726645D01*
X17550412Y59726660D01*
X17731933Y59908181D01*
X17731938Y59908186D01*
X17883599Y60105835D01*
X17995936Y60300409D01*
X17996544Y60301462D01*
X18047111Y60349677D01*
X18103931Y60363462D01*
X19234935Y60363462D01*
X19273253Y60357393D01*
X19383447Y60321589D01*
X19448632Y60300409D01*
X19541609Y60285683D01*
X19681903Y60263462D01*
X19681908Y60263462D01*
X19918097Y60263462D01*
X20151368Y60300409D01*
X20154609Y60301462D01*
X20375992Y60373394D01*
X20586433Y60480619D01*
X20777510Y60619445D01*
X20944517Y60786452D01*
X21083343Y60977529D01*
X21190568Y61187970D01*
X21263553Y61412594D01*
X21273708Y61476709D01*
X21300500Y61645865D01*
X21300500Y61882060D01*
X21270887Y62069025D01*
X21263553Y62115330D01*
X21263552Y62115334D01*
X21263552Y62115335D01*
X21206569Y62290709D01*
X21200500Y62329027D01*
X21200500Y63698899D01*
X21206569Y63737217D01*
X21212997Y63757001D01*
X21263553Y63912594D01*
X21279973Y64016273D01*
X21300500Y64145865D01*
X21300500Y64382060D01*
X38499500Y64382060D01*
X38499500Y64145865D01*
X38529113Y63958899D01*
X38536447Y63912594D01*
X38587003Y63757001D01*
X38593431Y63737217D01*
X38599500Y63698899D01*
X38599500Y62329027D01*
X38593431Y62290709D01*
X38536447Y62115335D01*
X38536447Y62115332D01*
X38499500Y61882060D01*
X38499500Y61645865D01*
X38536446Y61412594D01*
X38609433Y61187966D01*
X38716657Y60977529D01*
X38855483Y60786452D01*
X39022490Y60619445D01*
X39213567Y60480619D01*
X39312991Y60429960D01*
X39424003Y60373396D01*
X39424005Y60373396D01*
X39424008Y60373394D01*
X39544412Y60334273D01*
X39648631Y60300409D01*
X39881903Y60263462D01*
X39881908Y60263462D01*
X40118097Y60263462D01*
X40231184Y60281374D01*
X40351368Y60300409D01*
X40351371Y60300410D01*
X40351372Y60300410D01*
X40526747Y60357393D01*
X40565065Y60363462D01*
X42934935Y60363462D01*
X42973253Y60357393D01*
X43083447Y60321589D01*
X43148632Y60300409D01*
X43241609Y60285683D01*
X43381903Y60263462D01*
X43381908Y60263462D01*
X43618097Y60263462D01*
X43851368Y60300409D01*
X43854609Y60301462D01*
X44075992Y60373394D01*
X44286433Y60480619D01*
X44477510Y60619445D01*
X44644517Y60786452D01*
X44783343Y60977529D01*
X44890568Y61187970D01*
X44963553Y61412594D01*
X44973708Y61476709D01*
X45000500Y61645865D01*
X45000500Y61882060D01*
X44963552Y62115334D01*
X44962789Y62118515D01*
X44962851Y62119761D01*
X44962791Y62120142D01*
X44962871Y62120155D01*
X44966283Y62188298D01*
X45006950Y62245113D01*
X45071878Y62270923D01*
X45140452Y62257533D01*
X45183681Y62220343D01*
X45293621Y62069025D01*
X45455063Y61907583D01*
X45639772Y61773383D01*
X45735884Y61724412D01*
X45843196Y61669733D01*
X45843198Y61669733D01*
X45843201Y61669731D01*
X45916653Y61645865D01*
X46060339Y61599178D01*
X46285838Y61563462D01*
X46285843Y61563462D01*
X46514162Y61563462D01*
X46656125Y61585948D01*
X46728502Y61597411D01*
X46797794Y61588457D01*
X46851246Y61543461D01*
X46871886Y61476709D01*
X46853161Y61409395D01*
X46835580Y61387257D01*
X42744228Y57295904D01*
X42744224Y57295900D01*
X42568065Y57119743D01*
X42568060Y57119737D01*
X42416400Y56922089D01*
X42291837Y56706339D01*
X42291830Y56706324D01*
X42196498Y56476170D01*
X42132017Y56235524D01*
X42099499Y55988535D01*
X42099499Y55735011D01*
X42099500Y55734982D01*
X42099500Y54139404D01*
X42099501Y54139387D01*
X42132017Y53892401D01*
X42196498Y53651755D01*
X42240061Y53546586D01*
X42249500Y53499133D01*
X42249500Y53098261D01*
X42252401Y53061395D01*
X42252402Y53061389D01*
X42298253Y52903570D01*
X42298255Y52903567D01*
X42381917Y52762101D01*
X42381923Y52762093D01*
X42498130Y52645886D01*
X42498134Y52645883D01*
X42498136Y52645881D01*
X42639603Y52562218D01*
X42639604Y52562218D01*
X42639607Y52562216D01*
X42797426Y52516365D01*
X42797429Y52516365D01*
X42797431Y52516364D01*
X42834306Y52513462D01*
X43235170Y52513462D01*
X43282622Y52504023D01*
X43318607Y52489118D01*
X43387793Y52460460D01*
X43628435Y52395980D01*
X43875435Y52363462D01*
X43875442Y52363462D01*
X44124558Y52363462D01*
X44124565Y52363462D01*
X44371565Y52395980D01*
X44612207Y52460460D01*
X44692816Y52493850D01*
X44717378Y52504023D01*
X44764830Y52513462D01*
X45165686Y52513462D01*
X45165694Y52513462D01*
X45202569Y52516364D01*
X45202571Y52516365D01*
X45202573Y52516365D01*
X45360392Y52562216D01*
X45360393Y52562217D01*
X45360397Y52562218D01*
X45501864Y52645881D01*
X45618081Y52762098D01*
X45701744Y52903565D01*
X45701745Y52903569D01*
X45701746Y52903570D01*
X45747597Y53061389D01*
X45747598Y53061395D01*
X45750499Y53098261D01*
X45750500Y53098268D01*
X45750500Y53499133D01*
X45759939Y53546586D01*
X45803502Y53651755D01*
X45867982Y53892397D01*
X45900500Y54139397D01*
X45900500Y55025388D01*
X45920185Y55092427D01*
X45936814Y55113064D01*
X50550394Y59726645D01*
X50550412Y59726660D01*
X50731933Y59908181D01*
X50731938Y59908186D01*
X50883599Y60105835D01*
X50995936Y60300409D01*
X50996544Y60301462D01*
X51047111Y60349677D01*
X51103931Y60363462D01*
X52234935Y60363462D01*
X52273253Y60357393D01*
X52383447Y60321589D01*
X52448632Y60300409D01*
X52541609Y60285683D01*
X52681903Y60263462D01*
X52681908Y60263462D01*
X52918097Y60263462D01*
X53151368Y60300409D01*
X53154609Y60301462D01*
X53375992Y60373394D01*
X53586433Y60480619D01*
X53777510Y60619445D01*
X53944517Y60786452D01*
X54083343Y60977529D01*
X54190568Y61187970D01*
X54263553Y61412594D01*
X54273708Y61476709D01*
X54300500Y61645865D01*
X54300500Y61882060D01*
X54270887Y62069025D01*
X54263553Y62115330D01*
X54263552Y62115334D01*
X54263552Y62115335D01*
X54206569Y62290709D01*
X54200500Y62329027D01*
X54200500Y63698899D01*
X54206569Y63737217D01*
X54212997Y63757001D01*
X54263553Y63912594D01*
X54279973Y64016273D01*
X54300500Y64145865D01*
X54300500Y64382060D01*
X54263553Y64615331D01*
X54190566Y64839959D01*
X54083342Y65050396D01*
X53944517Y65241472D01*
X53777510Y65408479D01*
X53586433Y65547305D01*
X53375996Y65654529D01*
X53151368Y65727516D01*
X52918097Y65764462D01*
X52918092Y65764462D01*
X52681908Y65764462D01*
X52681903Y65764462D01*
X52448630Y65727515D01*
X52448627Y65727515D01*
X52273253Y65670531D01*
X52234935Y65664462D01*
X49865065Y65664462D01*
X49826747Y65670531D01*
X49651370Y65727515D01*
X49418097Y65764462D01*
X49418092Y65764462D01*
X49181908Y65764462D01*
X49181903Y65764462D01*
X48948631Y65727516D01*
X48724003Y65654529D01*
X48513566Y65547305D01*
X48404550Y65468100D01*
X48322490Y65408479D01*
X48322488Y65408477D01*
X48322487Y65408477D01*
X48155485Y65241475D01*
X48155485Y65241474D01*
X48155483Y65241472D01*
X48095862Y65159412D01*
X48016657Y65050396D01*
X47909433Y64839959D01*
X47836446Y64615331D01*
X47799500Y64382060D01*
X47799500Y64145865D01*
X47836445Y63912601D01*
X47837210Y63909418D01*
X47837147Y63908170D01*
X47837209Y63907782D01*
X47837127Y63907770D01*
X47833722Y63839636D01*
X47793060Y63782817D01*
X47728135Y63757001D01*
X47659559Y63770385D01*
X47616319Y63807581D01*
X47583768Y63852383D01*
X47506379Y63958899D01*
X47344937Y64120341D01*
X47160228Y64254541D01*
X46956803Y64358192D01*
X46739660Y64428747D01*
X46514162Y64464462D01*
X46514157Y64464462D01*
X46285843Y64464462D01*
X46285838Y64464462D01*
X46060339Y64428747D01*
X45843196Y64358192D01*
X45639771Y64254541D01*
X45455061Y64120340D01*
X45293620Y63958899D01*
X45183679Y63807580D01*
X45128349Y63764915D01*
X45058735Y63758937D01*
X44996941Y63791544D01*
X44962584Y63852383D01*
X44962793Y63909433D01*
X44963547Y63912578D01*
X44963553Y63912594D01*
X44979232Y64011594D01*
X45000500Y64145865D01*
X45000500Y64382060D01*
X44963553Y64615331D01*
X44890566Y64839959D01*
X44783342Y65050396D01*
X44644517Y65241472D01*
X44477510Y65408479D01*
X44286433Y65547305D01*
X44075996Y65654529D01*
X43851368Y65727516D01*
X43618097Y65764462D01*
X43618092Y65764462D01*
X43381908Y65764462D01*
X43381903Y65764462D01*
X43148630Y65727515D01*
X43148627Y65727515D01*
X42973253Y65670531D01*
X42934935Y65664462D01*
X40565065Y65664462D01*
X40526747Y65670531D01*
X40351370Y65727515D01*
X40118097Y65764462D01*
X40118092Y65764462D01*
X39881908Y65764462D01*
X39881903Y65764462D01*
X39648631Y65727516D01*
X39424003Y65654529D01*
X39213566Y65547305D01*
X39104550Y65468100D01*
X39022490Y65408479D01*
X39022488Y65408477D01*
X39022487Y65408477D01*
X38855485Y65241475D01*
X38855485Y65241474D01*
X38855483Y65241472D01*
X38795862Y65159412D01*
X38716657Y65050396D01*
X38609433Y64839959D01*
X38536446Y64615331D01*
X38499500Y64382060D01*
X21300500Y64382060D01*
X21263553Y64615331D01*
X21190566Y64839959D01*
X21083342Y65050396D01*
X20944517Y65241472D01*
X20777510Y65408479D01*
X20586433Y65547305D01*
X20375996Y65654529D01*
X20151368Y65727516D01*
X19918097Y65764462D01*
X19918092Y65764462D01*
X19681908Y65764462D01*
X19681903Y65764462D01*
X19448630Y65727515D01*
X19448627Y65727515D01*
X19273253Y65670531D01*
X19234935Y65664462D01*
X16865065Y65664462D01*
X16826747Y65670531D01*
X16651370Y65727515D01*
X16418097Y65764462D01*
X16418092Y65764462D01*
X16181908Y65764462D01*
X16181903Y65764462D01*
X15948631Y65727516D01*
X15724003Y65654529D01*
X15513566Y65547305D01*
X15404550Y65468100D01*
X15322490Y65408479D01*
X15322488Y65408477D01*
X15322487Y65408477D01*
X15155485Y65241475D01*
X15155485Y65241474D01*
X15155483Y65241472D01*
X15095862Y65159412D01*
X15016657Y65050396D01*
X14909433Y64839959D01*
X14836446Y64615331D01*
X14799500Y64382060D01*
X14799500Y64145865D01*
X14836445Y63912601D01*
X14837210Y63909418D01*
X14837147Y63908170D01*
X14837209Y63907782D01*
X14837127Y63907770D01*
X14833722Y63839636D01*
X14793060Y63782817D01*
X14728135Y63757001D01*
X14659559Y63770385D01*
X14616319Y63807581D01*
X14583768Y63852383D01*
X14506379Y63958899D01*
X14344937Y64120341D01*
X14160228Y64254541D01*
X13956803Y64358192D01*
X13739660Y64428747D01*
X13514162Y64464462D01*
X13514157Y64464462D01*
X13285843Y64464462D01*
X13285838Y64464462D01*
X13060339Y64428747D01*
X12843196Y64358192D01*
X12639771Y64254541D01*
X12455061Y64120340D01*
X12293620Y63958899D01*
X12183679Y63807580D01*
X12128349Y63764915D01*
X12058735Y63758937D01*
X11996941Y63791544D01*
X11962584Y63852383D01*
X11962793Y63909433D01*
X11963547Y63912578D01*
X11963553Y63912594D01*
X11979232Y64011594D01*
X12000500Y64145865D01*
X12000500Y64382060D01*
X11963553Y64615331D01*
X11890566Y64839959D01*
X11783342Y65050396D01*
X11644517Y65241472D01*
X11477510Y65408479D01*
X11286433Y65547305D01*
X11075996Y65654529D01*
X10851368Y65727516D01*
X10618097Y65764462D01*
X10618092Y65764462D01*
X10381908Y65764462D01*
X10381903Y65764462D01*
X10148630Y65727515D01*
X10148627Y65727515D01*
X9973253Y65670531D01*
X9934935Y65664462D01*
X7565065Y65664462D01*
X7526747Y65670531D01*
X7351370Y65727515D01*
X7118097Y65764462D01*
X7118092Y65764462D01*
X6881908Y65764462D01*
X6881903Y65764462D01*
X6648631Y65727516D01*
X6424003Y65654529D01*
X6213566Y65547305D01*
X6104550Y65468100D01*
X6022490Y65408479D01*
X6022488Y65408477D01*
X6022487Y65408477D01*
X5855485Y65241475D01*
X5855485Y65241474D01*
X5855483Y65241472D01*
X5795862Y65159412D01*
X5716657Y65050396D01*
X5609433Y64839959D01*
X5536446Y64615331D01*
X5499500Y64382060D01*
X500500Y64382060D01*
X500500Y88935487D01*
X24819500Y88935487D01*
X24819500Y85672445D01*
X24830292Y85604305D01*
X24834354Y85578658D01*
X24891950Y85465620D01*
X24891952Y85465618D01*
X24891954Y85465615D01*
X24981652Y85375917D01*
X24981654Y85375916D01*
X24981658Y85375912D01*
X25094694Y85318317D01*
X25094698Y85318315D01*
X25188475Y85303463D01*
X25188481Y85303462D01*
X28451518Y85303463D01*
X28545304Y85318316D01*
X28658342Y85375912D01*
X28658347Y85375917D01*
X28732319Y85449888D01*
X28793642Y85483373D01*
X28863334Y85478389D01*
X28907681Y85449888D01*
X28981652Y85375917D01*
X28981654Y85375916D01*
X28981658Y85375912D01*
X29094694Y85318317D01*
X29094698Y85318315D01*
X29188475Y85303463D01*
X29188481Y85303462D01*
X32451518Y85303463D01*
X32545304Y85318316D01*
X32658342Y85375912D01*
X32748050Y85465620D01*
X32805646Y85578658D01*
X32805646Y85578660D01*
X32805647Y85578661D01*
X32816282Y85645815D01*
X32820500Y85672443D01*
X32820499Y88935480D01*
X32805646Y89029266D01*
X32748050Y89142304D01*
X32748046Y89142308D01*
X32748045Y89142310D01*
X32658347Y89232008D01*
X32658344Y89232010D01*
X32658342Y89232012D01*
X32581517Y89271157D01*
X32545301Y89289610D01*
X32451524Y89304462D01*
X29188482Y89304462D01*
X29107519Y89291639D01*
X29094696Y89289608D01*
X28981658Y89232012D01*
X28981657Y89232011D01*
X28981652Y89232008D01*
X28907681Y89158036D01*
X28846358Y89124551D01*
X28776666Y89129535D01*
X28732319Y89158036D01*
X28658347Y89232008D01*
X28658344Y89232010D01*
X28658342Y89232012D01*
X28581517Y89271157D01*
X28545301Y89289610D01*
X28451524Y89304462D01*
X25188482Y89304462D01*
X25107519Y89291639D01*
X25094696Y89289608D01*
X24981658Y89232012D01*
X24981657Y89232011D01*
X24981652Y89232008D01*
X24891954Y89142310D01*
X24891951Y89142305D01*
X24891950Y89142304D01*
X24872751Y89104625D01*
X24834352Y89029264D01*
X24819500Y88935487D01*
X500500Y88935487D01*
X500500Y92404394D01*
X5499500Y92404394D01*
X5499500Y92123531D01*
X5530942Y91844468D01*
X5530945Y91844450D01*
X5593439Y91570645D01*
X5593443Y91570633D01*
X5686200Y91305551D01*
X5808053Y91052520D01*
X5808055Y91052517D01*
X5957477Y90814714D01*
X6132584Y90595137D01*
X6331175Y90396546D01*
X6550752Y90221439D01*
X6788555Y90072017D01*
X7041592Y89950161D01*
X7240680Y89880497D01*
X7306670Y89857406D01*
X7306682Y89857402D01*
X7580491Y89794907D01*
X7580497Y89794907D01*
X7580505Y89794905D01*
X7766547Y89773944D01*
X7859569Y89763463D01*
X7859572Y89763462D01*
X7859575Y89763462D01*
X8140428Y89763462D01*
X8140429Y89763463D01*
X8283055Y89779533D01*
X8419494Y89794905D01*
X8419499Y89794906D01*
X8419509Y89794907D01*
X8693318Y89857402D01*
X8958408Y89950161D01*
X9211445Y90072017D01*
X9449248Y90221439D01*
X9668825Y90396546D01*
X9867416Y90595137D01*
X10042523Y90814714D01*
X10191945Y91052517D01*
X10313801Y91305554D01*
X10406560Y91570644D01*
X10469055Y91844453D01*
X10500500Y92123537D01*
X10500500Y92404387D01*
X10500499Y92404394D01*
X57499500Y92404394D01*
X57499500Y92123531D01*
X57530942Y91844468D01*
X57530945Y91844450D01*
X57593439Y91570645D01*
X57593443Y91570633D01*
X57686200Y91305551D01*
X57808053Y91052520D01*
X57808055Y91052517D01*
X57957477Y90814714D01*
X58132584Y90595137D01*
X58331175Y90396546D01*
X58550752Y90221439D01*
X58788555Y90072017D01*
X59041592Y89950161D01*
X59240680Y89880497D01*
X59306670Y89857406D01*
X59306682Y89857402D01*
X59580491Y89794907D01*
X59580497Y89794907D01*
X59580505Y89794905D01*
X59766547Y89773944D01*
X59859569Y89763463D01*
X59859572Y89763462D01*
X59859575Y89763462D01*
X60140428Y89763462D01*
X60140429Y89763463D01*
X60283055Y89779533D01*
X60419494Y89794905D01*
X60419499Y89794906D01*
X60419509Y89794907D01*
X60693318Y89857402D01*
X60958408Y89950161D01*
X61211445Y90072017D01*
X61449248Y90221439D01*
X61668825Y90396546D01*
X61867416Y90595137D01*
X62042523Y90814714D01*
X62191945Y91052517D01*
X62313801Y91305554D01*
X62406560Y91570644D01*
X62469055Y91844453D01*
X62500500Y92123537D01*
X62500500Y92404387D01*
X62469055Y92683471D01*
X62406560Y92957280D01*
X62313801Y93222370D01*
X62191945Y93475407D01*
X62042523Y93713210D01*
X61867416Y93932787D01*
X61668825Y94131378D01*
X61449248Y94306485D01*
X61211445Y94455907D01*
X61211442Y94455909D01*
X60958411Y94577762D01*
X60693329Y94670519D01*
X60693317Y94670523D01*
X60419512Y94733017D01*
X60419494Y94733020D01*
X60140431Y94764462D01*
X60140425Y94764462D01*
X59859575Y94764462D01*
X59859568Y94764462D01*
X59580505Y94733020D01*
X59580487Y94733017D01*
X59306682Y94670523D01*
X59306670Y94670519D01*
X59041588Y94577762D01*
X58788557Y94455909D01*
X58550753Y94306486D01*
X58331175Y94131379D01*
X58132583Y93932787D01*
X57957476Y93713209D01*
X57808053Y93475405D01*
X57686200Y93222374D01*
X57593443Y92957292D01*
X57593439Y92957280D01*
X57530945Y92683475D01*
X57530942Y92683457D01*
X57499500Y92404394D01*
X10500499Y92404394D01*
X10469055Y92683471D01*
X10406560Y92957280D01*
X10313801Y93222370D01*
X10191945Y93475407D01*
X10042523Y93713210D01*
X9867416Y93932787D01*
X9668825Y94131378D01*
X9449248Y94306485D01*
X9211445Y94455907D01*
X9211442Y94455909D01*
X8958411Y94577762D01*
X8693329Y94670519D01*
X8693317Y94670523D01*
X8419512Y94733017D01*
X8419494Y94733020D01*
X8140431Y94764462D01*
X8140425Y94764462D01*
X7859575Y94764462D01*
X7859568Y94764462D01*
X7580505Y94733020D01*
X7580487Y94733017D01*
X7306682Y94670523D01*
X7306670Y94670519D01*
X7041588Y94577762D01*
X6788557Y94455909D01*
X6550753Y94306486D01*
X6331175Y94131379D01*
X6132583Y93932787D01*
X5957476Y93713209D01*
X5808053Y93475405D01*
X5686200Y93222374D01*
X5593443Y92957292D01*
X5593439Y92957280D01*
X5530945Y92683475D01*
X5530942Y92683457D01*
X5499500Y92404394D01*
X500500Y92404394D01*
X500500Y97260212D01*
X500726Y97267699D01*
X518271Y97557757D01*
X520076Y97572622D01*
X571780Y97854760D01*
X575364Y97869298D01*
X660699Y98143150D01*
X665997Y98157120D01*
X783727Y98418704D01*
X790680Y98431950D01*
X830959Y98498581D01*
X939075Y98677428D01*
X947567Y98689732D01*
X1124481Y98915545D01*
X1134396Y98926736D01*
X1337226Y99129566D01*
X1348417Y99139481D01*
X1574230Y99316395D01*
X1586534Y99324887D01*
X1832012Y99473282D01*
X1845258Y99480235D01*
X2106842Y99597965D01*
X2120812Y99603263D01*
X2394668Y99688600D01*
X2409198Y99692182D01*
X2691344Y99743887D01*
X2706201Y99745691D01*
X2996264Y99763236D01*
X3003751Y99763462D01*
X3065892Y99763462D01*
X64934108Y99763462D01*
X64996249Y99763462D01*
X65003736Y99763236D01*
G37*
%TD.AperFunction*%
%TD*%
M02*
