M48
; DRILL file KiCad 10.0.6 date 2026-09-26T14:49:11
; FORMAT={-:-/ absolute / metric / decimal}
; #@! TF.CreationDate,2026-09-26T14:49:11+01:00
; #@! TF.GenerationSoftware,Kicad,Pcbnew,10.0.6
; #@! TF.FileFunction,Plated,1,4,PTH
FMAT,2
METRIC
; #@! TA.AperFunction,Plated,PTH,ComponentDrill
T1C1.400
; #@! TA.AperFunction,Plated,PTH,ComponentDrill
T2C1.500
; #@! TA.AperFunction,Plated,PTH,ComponentDrill
T3C1.700
%
G90
G05
T1
X7.0Y64.264
X7.0Y61.764
X7.0Y43.264
X7.0Y40.764
X10.5Y64.264
X10.5Y61.764
X10.5Y43.264
X10.5Y40.764
X16.3Y64.264
X16.3Y61.764
X16.3Y43.264
X16.3Y40.764
X19.8Y64.264
X19.8Y61.764
X19.8Y43.264
X19.8Y40.764
X27.6Y22.264
X27.6Y19.764
X31.1Y22.264
X31.1Y19.764
X36.9Y22.264
X36.9Y19.764
X40.0Y64.264
X40.0Y61.764
X40.0Y43.264
X40.0Y40.764
X40.4Y22.264
X40.4Y19.764
X43.5Y64.264
X43.5Y61.764
X43.5Y43.264
X43.5Y40.764
X49.3Y64.264
X49.3Y61.764
X49.3Y43.264
X49.3Y40.764
X52.8Y64.264
X52.8Y61.764
X52.8Y43.264
X52.8Y40.764
T2
X26.82Y87.304
X30.82Y87.304
X36.98Y77.144
X40.98Y77.144
T3
X11.0Y54.264
X11.0Y33.264
X14.96Y54.264
X14.96Y33.264
X32.02Y12.264
X35.98Y12.264
X44.0Y54.264
X44.0Y33.264
X47.96Y54.264
X47.96Y33.264
M30
