M48
; DRILL file KiCad 10.0.6 date 2026-09-26T14:49:11
; FORMAT={-:-/ absolute / metric / decimal}
; #@! TF.CreationDate,2026-09-26T14:49:11+01:00
; #@! TF.GenerationSoftware,Kicad,Pcbnew,10.0.6
; #@! TF.FileFunction,Plated,1,4,PTH
FMAT,2
METRIC
; #@! TA.AperFunction,Plated,PTH,ViaDrill
T1C0.250
; #@! TA.AperFunction,Plated,PTH,ViaDrill
T2C0.300
; #@! TA.AperFunction,Plated,PTH,ComponentDrill
T3C0.920
; #@! TA.AperFunction,Plated,PTH,ComponentDrill
T4C1.700
; #@! TA.AperFunction,Plated,PTH,ComponentDrill
T5C2.300
%
G90
G05
T1
X35.9Y35.0
X35.9Y34.35
X35.9Y33.7
X36.9Y37.25
X36.9Y35.75
X36.9Y34.25
X36.9Y32.75
X38.0Y37.25
X38.0Y35.75
X38.0Y34.25
X38.0Y32.75
X39.1Y37.25
X39.1Y35.75
X39.1Y34.25
X39.1Y32.75
X40.1Y35.0
X40.1Y33.05
T2
X14.6Y29.8
X14.6Y29.1
X15.15Y16.5
X15.3Y29.8
X15.3Y29.1
X16.55Y26.375
X17.1Y44.3
X17.1Y43.6
X17.35Y17.45
X17.35Y15.55
X17.8Y44.3
X17.8Y43.6
X18.0Y23.0
X18.675Y19.1
X19.375Y19.1
X19.475Y28.0
X19.855Y37.495
X20.5Y25.2
X20.5Y24.55
X21.15Y25.2
X21.15Y24.55
X22.675Y16.5
X22.875Y28.0
X24.525Y24.0
X26.4Y44.3
X26.4Y43.6
X27.1Y44.3
X27.1Y43.6
X28.525Y37.0
X28.92Y29.005
X30.675Y29.5
X30.825Y38.25
X32.2Y24.8
X32.2Y24.1
X32.375Y35.0
X32.375Y32.5
X32.425Y28.5
X32.8Y40.0
X32.8Y39.3
X32.85Y24.8
X32.85Y24.1
X33.5Y40.0
X33.5Y39.3
X34.5Y26.8
X34.5Y26.1
X34.7Y16.95
X34.7Y15.05
X35.15Y21.4
X35.15Y20.7
X35.2Y26.8
X35.2Y26.1
X35.8Y21.4
X35.8Y20.7
X36.562Y16.0
X36.72Y11.505
X38.2Y24.8
X38.2Y24.1
X38.475Y12.0
X38.838Y16.0
X38.85Y24.8
X38.85Y24.1
X39.3Y16.95
X39.3Y15.05
X40.175Y28.5
X41.0Y26.8
X41.0Y26.1
X41.15Y21.4
X41.15Y20.7
X41.7Y26.8
X41.7Y26.1
X41.8Y21.4
X41.8Y20.7
X41.85Y35.65
X42.4Y40.0
X42.4Y39.3
X43.1Y40.0
X43.1Y39.3
X43.875Y31.2
X44.975Y28.5
X45.32Y33.005
X46.575Y38.25
X57.6Y29.8
X57.6Y29.1
X58.15Y16.5
X58.3Y29.8
X58.3Y29.1
X59.55Y26.375
X60.0Y43.0
X60.35Y17.45
X60.35Y15.55
X61.0Y23.0
X61.675Y19.1
X62.375Y19.1
X62.475Y28.0
X63.5Y25.2
X63.5Y24.55
X64.15Y25.2
X64.15Y24.55
X65.4Y43.0
X65.675Y16.5
X65.875Y28.0
X67.525Y24.0
T3
X12.0Y13.0
X14.5Y13.0
X16.5Y13.0
X19.0Y13.0
X55.0Y13.0
X57.5Y13.0
X59.5Y13.0
X62.0Y13.0
T4
X10.0Y42.0
X13.96Y42.0
T5
X8.93Y10.29
X22.07Y10.29
X51.93Y10.29
X65.07Y10.29
M30
