%TF.GenerationSoftware,KiCad,Pcbnew,10.0.6*%
%TF.CreationDate,2026-09-29T21:35:46+01:00*%
%TF.ProjectId,MAIN_POWER,4d41494e-5f50-44f5-9745-522e6b696361,rev?*%
%TF.SameCoordinates,Original*%
%TF.FileFunction,Legend,Top*%
%TF.FilePolarity,Positive*%
%FSLAX46Y46*%
G04 Gerber Fmt 4.6, Leading zero omitted, Abs format (unit mm)*
G04 Created by KiCad (PCBNEW 10.0.6) date 2026-09-29 21:35:46*
%MOMM*%
%LPD*%
G01*
G04 APERTURE LIST*
%ADD10C,0.150000*%
%ADD11C,0.120000*%
G04 APERTURE END LIST*
D10*
X107699048Y37240096D02*
X108460953Y37240096D01*
X108080000Y36859143D02*
X108080000Y37621048D01*
X107699048Y10322365D02*
X108460953Y10322365D01*
X108080000Y9941412D02*
X108080000Y10703317D01*
X108119048Y-14809904D02*
X108880953Y-14809904D01*
X108500000Y-15190857D02*
X108500000Y-14428952D01*
X112165714Y49382953D02*
X111832381Y49382953D01*
X111832381Y48859143D02*
X111832381Y49859143D01*
X111832381Y49859143D02*
X112308571Y49859143D01*
X113213333Y48859143D02*
X112641905Y48859143D01*
X112927619Y48859143D02*
X112927619Y49859143D01*
X112927619Y49859143D02*
X112832381Y49716286D01*
X112832381Y49716286D02*
X112737143Y49621048D01*
X112737143Y49621048D02*
X112641905Y49573429D01*
X115070477Y49859143D02*
X115737143Y49859143D01*
X115737143Y49859143D02*
X115308572Y48859143D01*
X116118096Y48954382D02*
X116165715Y48906762D01*
X116165715Y48906762D02*
X116118096Y48859143D01*
X116118096Y48859143D02*
X116070477Y48906762D01*
X116070477Y48906762D02*
X116118096Y48954382D01*
X116118096Y48954382D02*
X116118096Y48859143D01*
X117070476Y49859143D02*
X116594286Y49859143D01*
X116594286Y49859143D02*
X116546667Y49382953D01*
X116546667Y49382953D02*
X116594286Y49430572D01*
X116594286Y49430572D02*
X116689524Y49478191D01*
X116689524Y49478191D02*
X116927619Y49478191D01*
X116927619Y49478191D02*
X117022857Y49430572D01*
X117022857Y49430572D02*
X117070476Y49382953D01*
X117070476Y49382953D02*
X117118095Y49287715D01*
X117118095Y49287715D02*
X117118095Y49049620D01*
X117118095Y49049620D02*
X117070476Y48954382D01*
X117070476Y48954382D02*
X117022857Y48906762D01*
X117022857Y48906762D02*
X116927619Y48859143D01*
X116927619Y48859143D02*
X116689524Y48859143D01*
X116689524Y48859143D02*
X116594286Y48906762D01*
X116594286Y48906762D02*
X116546667Y48954382D01*
X117499048Y49144858D02*
X117975238Y49144858D01*
X117403810Y48859143D02*
X117737143Y49859143D01*
X117737143Y49859143D02*
X118070476Y48859143D01*
X111046666Y30959143D02*
X111046666Y30244858D01*
X111046666Y30244858D02*
X110999047Y30102001D01*
X110999047Y30102001D02*
X110903809Y30006762D01*
X110903809Y30006762D02*
X110760952Y29959143D01*
X110760952Y29959143D02*
X110665714Y29959143D01*
X111475238Y30863905D02*
X111522857Y30911524D01*
X111522857Y30911524D02*
X111618095Y30959143D01*
X111618095Y30959143D02*
X111856190Y30959143D01*
X111856190Y30959143D02*
X111951428Y30911524D01*
X111951428Y30911524D02*
X111999047Y30863905D01*
X111999047Y30863905D02*
X112046666Y30768667D01*
X112046666Y30768667D02*
X112046666Y30673429D01*
X112046666Y30673429D02*
X111999047Y30530572D01*
X111999047Y30530572D02*
X111427619Y29959143D01*
X111427619Y29959143D02*
X112046666Y29959143D01*
X114284762Y30959143D02*
X114284762Y30244858D01*
X114284762Y30244858D02*
X114237143Y30102001D01*
X114237143Y30102001D02*
X114141905Y30006762D01*
X114141905Y30006762D02*
X113999048Y29959143D01*
X113999048Y29959143D02*
X113903810Y29959143D01*
X114760953Y30482953D02*
X115094286Y30482953D01*
X115237143Y29959143D02*
X114760953Y29959143D01*
X114760953Y29959143D02*
X114760953Y30959143D01*
X114760953Y30959143D02*
X115237143Y30959143D01*
X115522858Y30959143D02*
X116094286Y30959143D01*
X115808572Y29959143D02*
X115808572Y30959143D01*
X116380001Y30006762D02*
X116522858Y29959143D01*
X116522858Y29959143D02*
X116760953Y29959143D01*
X116760953Y29959143D02*
X116856191Y30006762D01*
X116856191Y30006762D02*
X116903810Y30054382D01*
X116903810Y30054382D02*
X116951429Y30149620D01*
X116951429Y30149620D02*
X116951429Y30244858D01*
X116951429Y30244858D02*
X116903810Y30340096D01*
X116903810Y30340096D02*
X116856191Y30387715D01*
X116856191Y30387715D02*
X116760953Y30435334D01*
X116760953Y30435334D02*
X116570477Y30482953D01*
X116570477Y30482953D02*
X116475239Y30530572D01*
X116475239Y30530572D02*
X116427620Y30578191D01*
X116427620Y30578191D02*
X116380001Y30673429D01*
X116380001Y30673429D02*
X116380001Y30768667D01*
X116380001Y30768667D02*
X116427620Y30863905D01*
X116427620Y30863905D02*
X116475239Y30911524D01*
X116475239Y30911524D02*
X116570477Y30959143D01*
X116570477Y30959143D02*
X116808572Y30959143D01*
X116808572Y30959143D02*
X116951429Y30911524D01*
X117570477Y30959143D02*
X117760953Y30959143D01*
X117760953Y30959143D02*
X117856191Y30911524D01*
X117856191Y30911524D02*
X117951429Y30816286D01*
X117951429Y30816286D02*
X117999048Y30625810D01*
X117999048Y30625810D02*
X117999048Y30292477D01*
X117999048Y30292477D02*
X117951429Y30102001D01*
X117951429Y30102001D02*
X117856191Y30006762D01*
X117856191Y30006762D02*
X117760953Y29959143D01*
X117760953Y29959143D02*
X117570477Y29959143D01*
X117570477Y29959143D02*
X117475239Y30006762D01*
X117475239Y30006762D02*
X117380001Y30102001D01*
X117380001Y30102001D02*
X117332382Y30292477D01*
X117332382Y30292477D02*
X117332382Y30625810D01*
X117332382Y30625810D02*
X117380001Y30816286D01*
X117380001Y30816286D02*
X117475239Y30911524D01*
X117475239Y30911524D02*
X117570477Y30959143D01*
X118427620Y29959143D02*
X118427620Y30959143D01*
X118427620Y30959143D02*
X118999048Y29959143D01*
X118999048Y29959143D02*
X118999048Y30959143D01*
X112879999Y22465222D02*
X112546666Y22465222D01*
X112546666Y21941412D02*
X112546666Y22941412D01*
X112546666Y22941412D02*
X113022856Y22941412D01*
X113308571Y22941412D02*
X113927618Y22941412D01*
X113927618Y22941412D02*
X113594285Y22560460D01*
X113594285Y22560460D02*
X113737142Y22560460D01*
X113737142Y22560460D02*
X113832380Y22512841D01*
X113832380Y22512841D02*
X113879999Y22465222D01*
X113879999Y22465222D02*
X113927618Y22369984D01*
X113927618Y22369984D02*
X113927618Y22131889D01*
X113927618Y22131889D02*
X113879999Y22036651D01*
X113879999Y22036651D02*
X113832380Y21989031D01*
X113832380Y21989031D02*
X113737142Y21941412D01*
X113737142Y21941412D02*
X113451428Y21941412D01*
X113451428Y21941412D02*
X113356190Y21989031D01*
X113356190Y21989031D02*
X113308571Y22036651D01*
X116403809Y21941412D02*
X115832381Y21941412D01*
X116118095Y21941412D02*
X116118095Y22941412D01*
X116118095Y22941412D02*
X116022857Y22798555D01*
X116022857Y22798555D02*
X115927619Y22703317D01*
X115927619Y22703317D02*
X115832381Y22655698D01*
X116784762Y22227127D02*
X117260952Y22227127D01*
X116689524Y21941412D02*
X117022857Y22941412D01*
X117022857Y22941412D02*
X117356190Y21941412D01*
X112403809Y4041412D02*
X112403809Y3327127D01*
X112403809Y3327127D02*
X112356190Y3184270D01*
X112356190Y3184270D02*
X112260952Y3089031D01*
X112260952Y3089031D02*
X112118095Y3041412D01*
X112118095Y3041412D02*
X112022857Y3041412D01*
X113308571Y3708079D02*
X113308571Y3041412D01*
X113070476Y4089031D02*
X112832381Y3374746D01*
X112832381Y3374746D02*
X113451428Y3374746D01*
X115689524Y3565222D02*
X115356191Y3565222D01*
X115356191Y3041412D02*
X115356191Y4041412D01*
X115356191Y4041412D02*
X115832381Y4041412D01*
X116165715Y3327127D02*
X116641905Y3327127D01*
X116070477Y3041412D02*
X116403810Y4041412D01*
X116403810Y4041412D02*
X116737143Y3041412D01*
X117070477Y3041412D02*
X117070477Y4041412D01*
X117070477Y4041412D02*
X117641905Y3041412D01*
X117641905Y3041412D02*
X117641905Y4041412D01*
X112403809Y-2667047D02*
X112070476Y-2667047D01*
X112070476Y-3190857D02*
X112070476Y-2190857D01*
X112070476Y-2190857D02*
X112546666Y-2190857D01*
X113403809Y-2190857D02*
X112927619Y-2190857D01*
X112927619Y-2190857D02*
X112880000Y-2667047D01*
X112880000Y-2667047D02*
X112927619Y-2619428D01*
X112927619Y-2619428D02*
X113022857Y-2571809D01*
X113022857Y-2571809D02*
X113260952Y-2571809D01*
X113260952Y-2571809D02*
X113356190Y-2619428D01*
X113356190Y-2619428D02*
X113403809Y-2667047D01*
X113403809Y-2667047D02*
X113451428Y-2762285D01*
X113451428Y-2762285D02*
X113451428Y-3000380D01*
X113451428Y-3000380D02*
X113403809Y-3095618D01*
X113403809Y-3095618D02*
X113356190Y-3143238D01*
X113356190Y-3143238D02*
X113260952Y-3190857D01*
X113260952Y-3190857D02*
X113022857Y-3190857D01*
X113022857Y-3190857D02*
X112927619Y-3143238D01*
X112927619Y-3143238D02*
X112880000Y-3095618D01*
X115927619Y-3190857D02*
X115356191Y-3190857D01*
X115641905Y-3190857D02*
X115641905Y-2190857D01*
X115641905Y-2190857D02*
X115546667Y-2333714D01*
X115546667Y-2333714D02*
X115451429Y-2428952D01*
X115451429Y-2428952D02*
X115356191Y-2476571D01*
X116546667Y-2190857D02*
X116641905Y-2190857D01*
X116641905Y-2190857D02*
X116737143Y-2238476D01*
X116737143Y-2238476D02*
X116784762Y-2286095D01*
X116784762Y-2286095D02*
X116832381Y-2381333D01*
X116832381Y-2381333D02*
X116880000Y-2571809D01*
X116880000Y-2571809D02*
X116880000Y-2809904D01*
X116880000Y-2809904D02*
X116832381Y-3000380D01*
X116832381Y-3000380D02*
X116784762Y-3095618D01*
X116784762Y-3095618D02*
X116737143Y-3143238D01*
X116737143Y-3143238D02*
X116641905Y-3190857D01*
X116641905Y-3190857D02*
X116546667Y-3190857D01*
X116546667Y-3190857D02*
X116451429Y-3143238D01*
X116451429Y-3143238D02*
X116403810Y-3095618D01*
X116403810Y-3095618D02*
X116356191Y-3000380D01*
X116356191Y-3000380D02*
X116308572Y-2809904D01*
X116308572Y-2809904D02*
X116308572Y-2571809D01*
X116308572Y-2571809D02*
X116356191Y-2381333D01*
X116356191Y-2381333D02*
X116403810Y-2286095D01*
X116403810Y-2286095D02*
X116451429Y-2238476D01*
X116451429Y-2238476D02*
X116546667Y-2190857D01*
X117260953Y-2905142D02*
X117737143Y-2905142D01*
X117165715Y-3190857D02*
X117499048Y-2190857D01*
X117499048Y-2190857D02*
X117832381Y-3190857D01*
X109475237Y-21090857D02*
X109475237Y-21805142D01*
X109475237Y-21805142D02*
X109427618Y-21947999D01*
X109427618Y-21947999D02*
X109332380Y-22043238D01*
X109332380Y-22043238D02*
X109189523Y-22090857D01*
X109189523Y-22090857D02*
X109094285Y-22090857D01*
X110379999Y-21090857D02*
X110189523Y-21090857D01*
X110189523Y-21090857D02*
X110094285Y-21138476D01*
X110094285Y-21138476D02*
X110046666Y-21186095D01*
X110046666Y-21186095D02*
X109951428Y-21328952D01*
X109951428Y-21328952D02*
X109903809Y-21519428D01*
X109903809Y-21519428D02*
X109903809Y-21900380D01*
X109903809Y-21900380D02*
X109951428Y-21995618D01*
X109951428Y-21995618D02*
X109999047Y-22043238D01*
X109999047Y-22043238D02*
X110094285Y-22090857D01*
X110094285Y-22090857D02*
X110284761Y-22090857D01*
X110284761Y-22090857D02*
X110379999Y-22043238D01*
X110379999Y-22043238D02*
X110427618Y-21995618D01*
X110427618Y-21995618D02*
X110475237Y-21900380D01*
X110475237Y-21900380D02*
X110475237Y-21662285D01*
X110475237Y-21662285D02*
X110427618Y-21567047D01*
X110427618Y-21567047D02*
X110379999Y-21519428D01*
X110379999Y-21519428D02*
X110284761Y-21471809D01*
X110284761Y-21471809D02*
X110094285Y-21471809D01*
X110094285Y-21471809D02*
X109999047Y-21519428D01*
X109999047Y-21519428D02*
X109951428Y-21567047D01*
X109951428Y-21567047D02*
X109903809Y-21662285D01*
X112427619Y-22090857D02*
X112427619Y-21090857D01*
X112427619Y-21090857D02*
X112808571Y-21090857D01*
X112808571Y-21090857D02*
X112903809Y-21138476D01*
X112903809Y-21138476D02*
X112951428Y-21186095D01*
X112951428Y-21186095D02*
X112999047Y-21281333D01*
X112999047Y-21281333D02*
X112999047Y-21424190D01*
X112999047Y-21424190D02*
X112951428Y-21519428D01*
X112951428Y-21519428D02*
X112903809Y-21567047D01*
X112903809Y-21567047D02*
X112808571Y-21614666D01*
X112808571Y-21614666D02*
X112427619Y-21614666D01*
X113618095Y-21090857D02*
X113808571Y-21090857D01*
X113808571Y-21090857D02*
X113903809Y-21138476D01*
X113903809Y-21138476D02*
X113999047Y-21233714D01*
X113999047Y-21233714D02*
X114046666Y-21424190D01*
X114046666Y-21424190D02*
X114046666Y-21757523D01*
X114046666Y-21757523D02*
X113999047Y-21947999D01*
X113999047Y-21947999D02*
X113903809Y-22043238D01*
X113903809Y-22043238D02*
X113808571Y-22090857D01*
X113808571Y-22090857D02*
X113618095Y-22090857D01*
X113618095Y-22090857D02*
X113522857Y-22043238D01*
X113522857Y-22043238D02*
X113427619Y-21947999D01*
X113427619Y-21947999D02*
X113380000Y-21757523D01*
X113380000Y-21757523D02*
X113380000Y-21424190D01*
X113380000Y-21424190D02*
X113427619Y-21233714D01*
X113427619Y-21233714D02*
X113522857Y-21138476D01*
X113522857Y-21138476D02*
X113618095Y-21090857D01*
X114475238Y-21567047D02*
X114808571Y-21567047D01*
X114951428Y-22090857D02*
X114475238Y-22090857D01*
X114475238Y-22090857D02*
X114475238Y-21090857D01*
X114475238Y-21090857D02*
X114951428Y-21090857D01*
X116475238Y-21567047D02*
X116618095Y-21614666D01*
X116618095Y-21614666D02*
X116665714Y-21662285D01*
X116665714Y-21662285D02*
X116713333Y-21757523D01*
X116713333Y-21757523D02*
X116713333Y-21900380D01*
X116713333Y-21900380D02*
X116665714Y-21995618D01*
X116665714Y-21995618D02*
X116618095Y-22043238D01*
X116618095Y-22043238D02*
X116522857Y-22090857D01*
X116522857Y-22090857D02*
X116141905Y-22090857D01*
X116141905Y-22090857D02*
X116141905Y-21090857D01*
X116141905Y-21090857D02*
X116475238Y-21090857D01*
X116475238Y-21090857D02*
X116570476Y-21138476D01*
X116570476Y-21138476D02*
X116618095Y-21186095D01*
X116618095Y-21186095D02*
X116665714Y-21281333D01*
X116665714Y-21281333D02*
X116665714Y-21376571D01*
X116665714Y-21376571D02*
X116618095Y-21471809D01*
X116618095Y-21471809D02*
X116570476Y-21519428D01*
X116570476Y-21519428D02*
X116475238Y-21567047D01*
X116475238Y-21567047D02*
X116141905Y-21567047D01*
X117332381Y-21090857D02*
X117522857Y-21090857D01*
X117522857Y-21090857D02*
X117618095Y-21138476D01*
X117618095Y-21138476D02*
X117713333Y-21233714D01*
X117713333Y-21233714D02*
X117760952Y-21424190D01*
X117760952Y-21424190D02*
X117760952Y-21757523D01*
X117760952Y-21757523D02*
X117713333Y-21947999D01*
X117713333Y-21947999D02*
X117618095Y-22043238D01*
X117618095Y-22043238D02*
X117522857Y-22090857D01*
X117522857Y-22090857D02*
X117332381Y-22090857D01*
X117332381Y-22090857D02*
X117237143Y-22043238D01*
X117237143Y-22043238D02*
X117141905Y-21947999D01*
X117141905Y-21947999D02*
X117094286Y-21757523D01*
X117094286Y-21757523D02*
X117094286Y-21424190D01*
X117094286Y-21424190D02*
X117141905Y-21233714D01*
X117141905Y-21233714D02*
X117237143Y-21138476D01*
X117237143Y-21138476D02*
X117332381Y-21090857D01*
X118141905Y-21805142D02*
X118618095Y-21805142D01*
X118046667Y-22090857D02*
X118380000Y-21090857D01*
X118380000Y-21090857D02*
X118713333Y-22090857D01*
X119618095Y-22090857D02*
X119284762Y-21614666D01*
X119046667Y-22090857D02*
X119046667Y-21090857D01*
X119046667Y-21090857D02*
X119427619Y-21090857D01*
X119427619Y-21090857D02*
X119522857Y-21138476D01*
X119522857Y-21138476D02*
X119570476Y-21186095D01*
X119570476Y-21186095D02*
X119618095Y-21281333D01*
X119618095Y-21281333D02*
X119618095Y-21424190D01*
X119618095Y-21424190D02*
X119570476Y-21519428D01*
X119570476Y-21519428D02*
X119522857Y-21567047D01*
X119522857Y-21567047D02*
X119427619Y-21614666D01*
X119427619Y-21614666D02*
X119046667Y-21614666D01*
X120046667Y-22090857D02*
X120046667Y-21090857D01*
X120046667Y-21090857D02*
X120284762Y-21090857D01*
X120284762Y-21090857D02*
X120427619Y-21138476D01*
X120427619Y-21138476D02*
X120522857Y-21233714D01*
X120522857Y-21233714D02*
X120570476Y-21328952D01*
X120570476Y-21328952D02*
X120618095Y-21519428D01*
X120618095Y-21519428D02*
X120618095Y-21662285D01*
X120618095Y-21662285D02*
X120570476Y-21852761D01*
X120570476Y-21852761D02*
X120522857Y-21947999D01*
X120522857Y-21947999D02*
X120427619Y-22043238D01*
X120427619Y-22043238D02*
X120284762Y-22090857D01*
X120284762Y-22090857D02*
X120046667Y-22090857D01*
X120099048Y37240096D02*
X120860953Y37240096D01*
X120099048Y10322365D02*
X120860953Y10322365D01*
X120519048Y-14809904D02*
X121280953Y-14809904D01*
X116838094Y54809143D02*
X116838094Y55809143D01*
X116838094Y55809143D02*
X117076189Y55809143D01*
X117076189Y55809143D02*
X117219046Y55761524D01*
X117219046Y55761524D02*
X117314284Y55666286D01*
X117314284Y55666286D02*
X117361903Y55571048D01*
X117361903Y55571048D02*
X117409522Y55380572D01*
X117409522Y55380572D02*
X117409522Y55237715D01*
X117409522Y55237715D02*
X117361903Y55047239D01*
X117361903Y55047239D02*
X117314284Y54952001D01*
X117314284Y54952001D02*
X117219046Y54856762D01*
X117219046Y54856762D02*
X117076189Y54809143D01*
X117076189Y54809143D02*
X116838094Y54809143D01*
X117742856Y55809143D02*
X118409522Y55809143D01*
X118409522Y55809143D02*
X117980951Y54809143D01*
X118790475Y55190096D02*
X119552380Y55190096D01*
X119980951Y55713905D02*
X120028570Y55761524D01*
X120028570Y55761524D02*
X120123808Y55809143D01*
X120123808Y55809143D02*
X120361903Y55809143D01*
X120361903Y55809143D02*
X120457141Y55761524D01*
X120457141Y55761524D02*
X120504760Y55713905D01*
X120504760Y55713905D02*
X120552379Y55618667D01*
X120552379Y55618667D02*
X120552379Y55523429D01*
X120552379Y55523429D02*
X120504760Y55380572D01*
X120504760Y55380572D02*
X119933332Y54809143D01*
X119933332Y54809143D02*
X120552379Y54809143D01*
X121457141Y54809143D02*
X120980951Y54809143D01*
X120980951Y54809143D02*
X120980951Y55809143D01*
X122790475Y54475810D02*
X122790475Y55904382D01*
X124219047Y55713905D02*
X124266666Y55761524D01*
X124266666Y55761524D02*
X124361904Y55809143D01*
X124361904Y55809143D02*
X124599999Y55809143D01*
X124599999Y55809143D02*
X124695237Y55761524D01*
X124695237Y55761524D02*
X124742856Y55713905D01*
X124742856Y55713905D02*
X124790475Y55618667D01*
X124790475Y55618667D02*
X124790475Y55523429D01*
X124790475Y55523429D02*
X124742856Y55380572D01*
X124742856Y55380572D02*
X124171428Y54809143D01*
X124171428Y54809143D02*
X124790475Y54809143D01*
X125361904Y54809143D02*
X125266666Y54856762D01*
X125266666Y54856762D02*
X125219047Y54904382D01*
X125219047Y54904382D02*
X125171428Y54999620D01*
X125171428Y54999620D02*
X125171428Y55285334D01*
X125171428Y55285334D02*
X125219047Y55380572D01*
X125219047Y55380572D02*
X125266666Y55428191D01*
X125266666Y55428191D02*
X125361904Y55475810D01*
X125361904Y55475810D02*
X125504761Y55475810D01*
X125504761Y55475810D02*
X125599999Y55428191D01*
X125599999Y55428191D02*
X125647618Y55380572D01*
X125647618Y55380572D02*
X125695237Y55285334D01*
X125695237Y55285334D02*
X125695237Y54999620D01*
X125695237Y54999620D02*
X125647618Y54904382D01*
X125647618Y54904382D02*
X125599999Y54856762D01*
X125599999Y54856762D02*
X125504761Y54809143D01*
X125504761Y54809143D02*
X125361904Y54809143D01*
X126028571Y55475810D02*
X126552380Y55475810D01*
X126552380Y55475810D02*
X126028571Y54809143D01*
X126028571Y54809143D02*
X126552380Y54809143D01*
X127933333Y54475810D02*
X127933333Y55904382D01*
X129314286Y55809143D02*
X129933333Y55809143D01*
X129933333Y55809143D02*
X129600000Y55428191D01*
X129600000Y55428191D02*
X129742857Y55428191D01*
X129742857Y55428191D02*
X129838095Y55380572D01*
X129838095Y55380572D02*
X129885714Y55332953D01*
X129885714Y55332953D02*
X129933333Y55237715D01*
X129933333Y55237715D02*
X129933333Y54999620D01*
X129933333Y54999620D02*
X129885714Y54904382D01*
X129885714Y54904382D02*
X129838095Y54856762D01*
X129838095Y54856762D02*
X129742857Y54809143D01*
X129742857Y54809143D02*
X129457143Y54809143D01*
X129457143Y54809143D02*
X129361905Y54856762D01*
X129361905Y54856762D02*
X129314286Y54904382D01*
X130361905Y55190096D02*
X131123810Y55190096D01*
X131933333Y55332953D02*
X132076190Y55285334D01*
X132076190Y55285334D02*
X132123809Y55237715D01*
X132123809Y55237715D02*
X132171428Y55142477D01*
X132171428Y55142477D02*
X132171428Y54999620D01*
X132171428Y54999620D02*
X132123809Y54904382D01*
X132123809Y54904382D02*
X132076190Y54856762D01*
X132076190Y54856762D02*
X131980952Y54809143D01*
X131980952Y54809143D02*
X131600000Y54809143D01*
X131600000Y54809143D02*
X131600000Y55809143D01*
X131600000Y55809143D02*
X131933333Y55809143D01*
X131933333Y55809143D02*
X132028571Y55761524D01*
X132028571Y55761524D02*
X132076190Y55713905D01*
X132076190Y55713905D02*
X132123809Y55618667D01*
X132123809Y55618667D02*
X132123809Y55523429D01*
X132123809Y55523429D02*
X132076190Y55428191D01*
X132076190Y55428191D02*
X132028571Y55380572D01*
X132028571Y55380572D02*
X131933333Y55332953D01*
X131933333Y55332953D02*
X131600000Y55332953D01*
X132790476Y55809143D02*
X132980952Y55809143D01*
X132980952Y55809143D02*
X133076190Y55761524D01*
X133076190Y55761524D02*
X133171428Y55666286D01*
X133171428Y55666286D02*
X133219047Y55475810D01*
X133219047Y55475810D02*
X133219047Y55142477D01*
X133219047Y55142477D02*
X133171428Y54952001D01*
X133171428Y54952001D02*
X133076190Y54856762D01*
X133076190Y54856762D02*
X132980952Y54809143D01*
X132980952Y54809143D02*
X132790476Y54809143D01*
X132790476Y54809143D02*
X132695238Y54856762D01*
X132695238Y54856762D02*
X132600000Y54952001D01*
X132600000Y54952001D02*
X132552381Y55142477D01*
X132552381Y55142477D02*
X132552381Y55475810D01*
X132552381Y55475810D02*
X132600000Y55666286D01*
X132600000Y55666286D02*
X132695238Y55761524D01*
X132695238Y55761524D02*
X132790476Y55809143D01*
X133600000Y55094858D02*
X134076190Y55094858D01*
X133504762Y54809143D02*
X133838095Y55809143D01*
X133838095Y55809143D02*
X134171428Y54809143D01*
X135076190Y54809143D02*
X134742857Y55285334D01*
X134504762Y54809143D02*
X134504762Y55809143D01*
X134504762Y55809143D02*
X134885714Y55809143D01*
X134885714Y55809143D02*
X134980952Y55761524D01*
X134980952Y55761524D02*
X135028571Y55713905D01*
X135028571Y55713905D02*
X135076190Y55618667D01*
X135076190Y55618667D02*
X135076190Y55475810D01*
X135076190Y55475810D02*
X135028571Y55380572D01*
X135028571Y55380572D02*
X134980952Y55332953D01*
X134980952Y55332953D02*
X134885714Y55285334D01*
X134885714Y55285334D02*
X134504762Y55285334D01*
X135504762Y54809143D02*
X135504762Y55809143D01*
X135504762Y55809143D02*
X135742857Y55809143D01*
X135742857Y55809143D02*
X135885714Y55761524D01*
X135885714Y55761524D02*
X135980952Y55666286D01*
X135980952Y55666286D02*
X136028571Y55571048D01*
X136028571Y55571048D02*
X136076190Y55380572D01*
X136076190Y55380572D02*
X136076190Y55237715D01*
X136076190Y55237715D02*
X136028571Y55047239D01*
X136028571Y55047239D02*
X135980952Y54952001D01*
X135980952Y54952001D02*
X135885714Y54856762D01*
X135885714Y54856762D02*
X135742857Y54809143D01*
X135742857Y54809143D02*
X135504762Y54809143D01*
X137219048Y54856762D02*
X137361905Y54809143D01*
X137361905Y54809143D02*
X137600000Y54809143D01*
X137600000Y54809143D02*
X137695238Y54856762D01*
X137695238Y54856762D02*
X137742857Y54904382D01*
X137742857Y54904382D02*
X137790476Y54999620D01*
X137790476Y54999620D02*
X137790476Y55094858D01*
X137790476Y55094858D02*
X137742857Y55190096D01*
X137742857Y55190096D02*
X137695238Y55237715D01*
X137695238Y55237715D02*
X137600000Y55285334D01*
X137600000Y55285334D02*
X137409524Y55332953D01*
X137409524Y55332953D02*
X137314286Y55380572D01*
X137314286Y55380572D02*
X137266667Y55428191D01*
X137266667Y55428191D02*
X137219048Y55523429D01*
X137219048Y55523429D02*
X137219048Y55618667D01*
X137219048Y55618667D02*
X137266667Y55713905D01*
X137266667Y55713905D02*
X137314286Y55761524D01*
X137314286Y55761524D02*
X137409524Y55809143D01*
X137409524Y55809143D02*
X137647619Y55809143D01*
X137647619Y55809143D02*
X137790476Y55761524D01*
X138409524Y55285334D02*
X138409524Y54809143D01*
X138076191Y55809143D02*
X138409524Y55285334D01*
X138409524Y55285334D02*
X138742857Y55809143D01*
X139028572Y54856762D02*
X139171429Y54809143D01*
X139171429Y54809143D02*
X139409524Y54809143D01*
X139409524Y54809143D02*
X139504762Y54856762D01*
X139504762Y54856762D02*
X139552381Y54904382D01*
X139552381Y54904382D02*
X139600000Y54999620D01*
X139600000Y54999620D02*
X139600000Y55094858D01*
X139600000Y55094858D02*
X139552381Y55190096D01*
X139552381Y55190096D02*
X139504762Y55237715D01*
X139504762Y55237715D02*
X139409524Y55285334D01*
X139409524Y55285334D02*
X139219048Y55332953D01*
X139219048Y55332953D02*
X139123810Y55380572D01*
X139123810Y55380572D02*
X139076191Y55428191D01*
X139076191Y55428191D02*
X139028572Y55523429D01*
X139028572Y55523429D02*
X139028572Y55618667D01*
X139028572Y55618667D02*
X139076191Y55713905D01*
X139076191Y55713905D02*
X139123810Y55761524D01*
X139123810Y55761524D02*
X139219048Y55809143D01*
X139219048Y55809143D02*
X139457143Y55809143D01*
X139457143Y55809143D02*
X139600000Y55761524D01*
X139885715Y55809143D02*
X140457143Y55809143D01*
X140171429Y54809143D02*
X140171429Y55809143D01*
X140790477Y55332953D02*
X141123810Y55332953D01*
X141266667Y54809143D02*
X140790477Y54809143D01*
X140790477Y54809143D02*
X140790477Y55809143D01*
X140790477Y55809143D02*
X141266667Y55809143D01*
X141695239Y54809143D02*
X141695239Y55809143D01*
X141695239Y55809143D02*
X142028572Y55094858D01*
X142028572Y55094858D02*
X142361905Y55809143D01*
X142361905Y55809143D02*
X142361905Y54809143D01*
X119099999Y-23738476D02*
X119004761Y-23690857D01*
X119004761Y-23690857D02*
X118861904Y-23690857D01*
X118861904Y-23690857D02*
X118719047Y-23738476D01*
X118719047Y-23738476D02*
X118623809Y-23833714D01*
X118623809Y-23833714D02*
X118576190Y-23928952D01*
X118576190Y-23928952D02*
X118528571Y-24119428D01*
X118528571Y-24119428D02*
X118528571Y-24262285D01*
X118528571Y-24262285D02*
X118576190Y-24452761D01*
X118576190Y-24452761D02*
X118623809Y-24547999D01*
X118623809Y-24547999D02*
X118719047Y-24643238D01*
X118719047Y-24643238D02*
X118861904Y-24690857D01*
X118861904Y-24690857D02*
X118957142Y-24690857D01*
X118957142Y-24690857D02*
X119099999Y-24643238D01*
X119099999Y-24643238D02*
X119147618Y-24595618D01*
X119147618Y-24595618D02*
X119147618Y-24262285D01*
X119147618Y-24262285D02*
X118957142Y-24262285D01*
X119576190Y-24690857D02*
X119576190Y-23690857D01*
X119576190Y-23690857D02*
X119909523Y-24405142D01*
X119909523Y-24405142D02*
X120242856Y-23690857D01*
X120242856Y-23690857D02*
X120242856Y-24690857D01*
X120671428Y-24643238D02*
X120814285Y-24690857D01*
X120814285Y-24690857D02*
X121052380Y-24690857D01*
X121052380Y-24690857D02*
X121147618Y-24643238D01*
X121147618Y-24643238D02*
X121195237Y-24595618D01*
X121195237Y-24595618D02*
X121242856Y-24500380D01*
X121242856Y-24500380D02*
X121242856Y-24405142D01*
X121242856Y-24405142D02*
X121195237Y-24309904D01*
X121195237Y-24309904D02*
X121147618Y-24262285D01*
X121147618Y-24262285D02*
X121052380Y-24214666D01*
X121052380Y-24214666D02*
X120861904Y-24167047D01*
X120861904Y-24167047D02*
X120766666Y-24119428D01*
X120766666Y-24119428D02*
X120719047Y-24071809D01*
X120719047Y-24071809D02*
X120671428Y-23976571D01*
X120671428Y-23976571D02*
X120671428Y-23881333D01*
X120671428Y-23881333D02*
X120719047Y-23786095D01*
X120719047Y-23786095D02*
X120766666Y-23738476D01*
X120766666Y-23738476D02*
X120861904Y-23690857D01*
X120861904Y-23690857D02*
X121099999Y-23690857D01*
X121099999Y-23690857D02*
X121242856Y-23738476D01*
X122147618Y-24690857D02*
X121671428Y-24690857D01*
X121671428Y-24690857D02*
X121671428Y-23690857D01*
X123433333Y-23690857D02*
X123623809Y-23690857D01*
X123623809Y-23690857D02*
X123719047Y-23738476D01*
X123719047Y-23738476D02*
X123814285Y-23833714D01*
X123814285Y-23833714D02*
X123861904Y-24024190D01*
X123861904Y-24024190D02*
X123861904Y-24357523D01*
X123861904Y-24357523D02*
X123814285Y-24547999D01*
X123814285Y-24547999D02*
X123719047Y-24643238D01*
X123719047Y-24643238D02*
X123623809Y-24690857D01*
X123623809Y-24690857D02*
X123433333Y-24690857D01*
X123433333Y-24690857D02*
X123338095Y-24643238D01*
X123338095Y-24643238D02*
X123242857Y-24547999D01*
X123242857Y-24547999D02*
X123195238Y-24357523D01*
X123195238Y-24357523D02*
X123195238Y-24024190D01*
X123195238Y-24024190D02*
X123242857Y-23833714D01*
X123242857Y-23833714D02*
X123338095Y-23738476D01*
X123338095Y-23738476D02*
X123433333Y-23690857D01*
X124861904Y-24690857D02*
X124528571Y-24214666D01*
X124290476Y-24690857D02*
X124290476Y-23690857D01*
X124290476Y-23690857D02*
X124671428Y-23690857D01*
X124671428Y-23690857D02*
X124766666Y-23738476D01*
X124766666Y-23738476D02*
X124814285Y-23786095D01*
X124814285Y-23786095D02*
X124861904Y-23881333D01*
X124861904Y-23881333D02*
X124861904Y-24024190D01*
X124861904Y-24024190D02*
X124814285Y-24119428D01*
X124814285Y-24119428D02*
X124766666Y-24167047D01*
X124766666Y-24167047D02*
X124671428Y-24214666D01*
X124671428Y-24214666D02*
X124290476Y-24214666D01*
X126052381Y-24690857D02*
X126052381Y-23690857D01*
X126052381Y-23690857D02*
X126433333Y-23690857D01*
X126433333Y-23690857D02*
X126528571Y-23738476D01*
X126528571Y-23738476D02*
X126576190Y-23786095D01*
X126576190Y-23786095D02*
X126623809Y-23881333D01*
X126623809Y-23881333D02*
X126623809Y-24024190D01*
X126623809Y-24024190D02*
X126576190Y-24119428D01*
X126576190Y-24119428D02*
X126528571Y-24167047D01*
X126528571Y-24167047D02*
X126433333Y-24214666D01*
X126433333Y-24214666D02*
X126052381Y-24214666D01*
X127242857Y-23690857D02*
X127433333Y-23690857D01*
X127433333Y-23690857D02*
X127528571Y-23738476D01*
X127528571Y-23738476D02*
X127623809Y-23833714D01*
X127623809Y-23833714D02*
X127671428Y-24024190D01*
X127671428Y-24024190D02*
X127671428Y-24357523D01*
X127671428Y-24357523D02*
X127623809Y-24547999D01*
X127623809Y-24547999D02*
X127528571Y-24643238D01*
X127528571Y-24643238D02*
X127433333Y-24690857D01*
X127433333Y-24690857D02*
X127242857Y-24690857D01*
X127242857Y-24690857D02*
X127147619Y-24643238D01*
X127147619Y-24643238D02*
X127052381Y-24547999D01*
X127052381Y-24547999D02*
X127004762Y-24357523D01*
X127004762Y-24357523D02*
X127004762Y-24024190D01*
X127004762Y-24024190D02*
X127052381Y-23833714D01*
X127052381Y-23833714D02*
X127147619Y-23738476D01*
X127147619Y-23738476D02*
X127242857Y-23690857D01*
X128100000Y-24167047D02*
X128433333Y-24167047D01*
X128576190Y-24690857D02*
X128100000Y-24690857D01*
X128100000Y-24690857D02*
X128100000Y-23690857D01*
X128100000Y-23690857D02*
X128576190Y-23690857D01*
X129766667Y-24309904D02*
X130528572Y-24309904D01*
X131766667Y-24690857D02*
X131766667Y-23690857D01*
X131766667Y-23690857D02*
X132338095Y-24690857D01*
X132338095Y-24690857D02*
X132338095Y-23690857D01*
X132814286Y-24167047D02*
X133147619Y-24167047D01*
X133290476Y-24690857D02*
X132814286Y-24690857D01*
X132814286Y-24690857D02*
X132814286Y-23690857D01*
X132814286Y-23690857D02*
X133290476Y-23690857D01*
X133576191Y-23690857D02*
X133909524Y-24690857D01*
X133909524Y-24690857D02*
X134242857Y-23690857D01*
X134576191Y-24167047D02*
X134909524Y-24167047D01*
X135052381Y-24690857D02*
X134576191Y-24690857D01*
X134576191Y-24690857D02*
X134576191Y-23690857D01*
X134576191Y-23690857D02*
X135052381Y-23690857D01*
X136052381Y-24690857D02*
X135719048Y-24214666D01*
X135480953Y-24690857D02*
X135480953Y-23690857D01*
X135480953Y-23690857D02*
X135861905Y-23690857D01*
X135861905Y-23690857D02*
X135957143Y-23738476D01*
X135957143Y-23738476D02*
X136004762Y-23786095D01*
X136004762Y-23786095D02*
X136052381Y-23881333D01*
X136052381Y-23881333D02*
X136052381Y-24024190D01*
X136052381Y-24024190D02*
X136004762Y-24119428D01*
X136004762Y-24119428D02*
X135957143Y-24167047D01*
X135957143Y-24167047D02*
X135861905Y-24214666D01*
X135861905Y-24214666D02*
X135480953Y-24214666D01*
X137576191Y-24167047D02*
X137719048Y-24214666D01*
X137719048Y-24214666D02*
X137766667Y-24262285D01*
X137766667Y-24262285D02*
X137814286Y-24357523D01*
X137814286Y-24357523D02*
X137814286Y-24500380D01*
X137814286Y-24500380D02*
X137766667Y-24595618D01*
X137766667Y-24595618D02*
X137719048Y-24643238D01*
X137719048Y-24643238D02*
X137623810Y-24690857D01*
X137623810Y-24690857D02*
X137242858Y-24690857D01*
X137242858Y-24690857D02*
X137242858Y-23690857D01*
X137242858Y-23690857D02*
X137576191Y-23690857D01*
X137576191Y-23690857D02*
X137671429Y-23738476D01*
X137671429Y-23738476D02*
X137719048Y-23786095D01*
X137719048Y-23786095D02*
X137766667Y-23881333D01*
X137766667Y-23881333D02*
X137766667Y-23976571D01*
X137766667Y-23976571D02*
X137719048Y-24071809D01*
X137719048Y-24071809D02*
X137671429Y-24119428D01*
X137671429Y-24119428D02*
X137576191Y-24167047D01*
X137576191Y-24167047D02*
X137242858Y-24167047D01*
X138433334Y-23690857D02*
X138623810Y-23690857D01*
X138623810Y-23690857D02*
X138719048Y-23738476D01*
X138719048Y-23738476D02*
X138814286Y-23833714D01*
X138814286Y-23833714D02*
X138861905Y-24024190D01*
X138861905Y-24024190D02*
X138861905Y-24357523D01*
X138861905Y-24357523D02*
X138814286Y-24547999D01*
X138814286Y-24547999D02*
X138719048Y-24643238D01*
X138719048Y-24643238D02*
X138623810Y-24690857D01*
X138623810Y-24690857D02*
X138433334Y-24690857D01*
X138433334Y-24690857D02*
X138338096Y-24643238D01*
X138338096Y-24643238D02*
X138242858Y-24547999D01*
X138242858Y-24547999D02*
X138195239Y-24357523D01*
X138195239Y-24357523D02*
X138195239Y-24024190D01*
X138195239Y-24024190D02*
X138242858Y-23833714D01*
X138242858Y-23833714D02*
X138338096Y-23738476D01*
X138338096Y-23738476D02*
X138433334Y-23690857D01*
X139147620Y-23690857D02*
X139719048Y-23690857D01*
X139433334Y-24690857D02*
X139433334Y-23690857D01*
X140052382Y-24690857D02*
X140052382Y-23690857D01*
X140052382Y-24167047D02*
X140623810Y-24167047D01*
X140623810Y-24690857D02*
X140623810Y-23690857D01*
X117528570Y-26395618D02*
X117480951Y-26443238D01*
X117480951Y-26443238D02*
X117338094Y-26490857D01*
X117338094Y-26490857D02*
X117242856Y-26490857D01*
X117242856Y-26490857D02*
X117099999Y-26443238D01*
X117099999Y-26443238D02*
X117004761Y-26347999D01*
X117004761Y-26347999D02*
X116957142Y-26252761D01*
X116957142Y-26252761D02*
X116909523Y-26062285D01*
X116909523Y-26062285D02*
X116909523Y-25919428D01*
X116909523Y-25919428D02*
X116957142Y-25728952D01*
X116957142Y-25728952D02*
X117004761Y-25633714D01*
X117004761Y-25633714D02*
X117099999Y-25538476D01*
X117099999Y-25538476D02*
X117242856Y-25490857D01*
X117242856Y-25490857D02*
X117338094Y-25490857D01*
X117338094Y-25490857D02*
X117480951Y-25538476D01*
X117480951Y-25538476D02*
X117528570Y-25586095D01*
X118147618Y-25490857D02*
X118338094Y-25490857D01*
X118338094Y-25490857D02*
X118433332Y-25538476D01*
X118433332Y-25538476D02*
X118528570Y-25633714D01*
X118528570Y-25633714D02*
X118576189Y-25824190D01*
X118576189Y-25824190D02*
X118576189Y-26157523D01*
X118576189Y-26157523D02*
X118528570Y-26347999D01*
X118528570Y-26347999D02*
X118433332Y-26443238D01*
X118433332Y-26443238D02*
X118338094Y-26490857D01*
X118338094Y-26490857D02*
X118147618Y-26490857D01*
X118147618Y-26490857D02*
X118052380Y-26443238D01*
X118052380Y-26443238D02*
X117957142Y-26347999D01*
X117957142Y-26347999D02*
X117909523Y-26157523D01*
X117909523Y-26157523D02*
X117909523Y-25824190D01*
X117909523Y-25824190D02*
X117957142Y-25633714D01*
X117957142Y-25633714D02*
X118052380Y-25538476D01*
X118052380Y-25538476D02*
X118147618Y-25490857D01*
X119004761Y-26490857D02*
X119004761Y-25490857D01*
X119004761Y-25490857D02*
X119576189Y-26490857D01*
X119576189Y-26490857D02*
X119576189Y-25490857D01*
X120052380Y-26490857D02*
X120052380Y-25490857D01*
X120052380Y-25490857D02*
X120623808Y-26490857D01*
X120623808Y-26490857D02*
X120623808Y-25490857D01*
X121099999Y-25967047D02*
X121433332Y-25967047D01*
X121576189Y-26490857D02*
X121099999Y-26490857D01*
X121099999Y-26490857D02*
X121099999Y-25490857D01*
X121099999Y-25490857D02*
X121576189Y-25490857D01*
X122576189Y-26395618D02*
X122528570Y-26443238D01*
X122528570Y-26443238D02*
X122385713Y-26490857D01*
X122385713Y-26490857D02*
X122290475Y-26490857D01*
X122290475Y-26490857D02*
X122147618Y-26443238D01*
X122147618Y-26443238D02*
X122052380Y-26347999D01*
X122052380Y-26347999D02*
X122004761Y-26252761D01*
X122004761Y-26252761D02*
X121957142Y-26062285D01*
X121957142Y-26062285D02*
X121957142Y-25919428D01*
X121957142Y-25919428D02*
X122004761Y-25728952D01*
X122004761Y-25728952D02*
X122052380Y-25633714D01*
X122052380Y-25633714D02*
X122147618Y-25538476D01*
X122147618Y-25538476D02*
X122290475Y-25490857D01*
X122290475Y-25490857D02*
X122385713Y-25490857D01*
X122385713Y-25490857D02*
X122528570Y-25538476D01*
X122528570Y-25538476D02*
X122576189Y-25586095D01*
X122861904Y-25490857D02*
X123433332Y-25490857D01*
X123147618Y-26490857D02*
X123147618Y-25490857D01*
X124528571Y-26490857D02*
X124528571Y-25490857D01*
X124528571Y-25490857D02*
X124909523Y-25490857D01*
X124909523Y-25490857D02*
X125004761Y-25538476D01*
X125004761Y-25538476D02*
X125052380Y-25586095D01*
X125052380Y-25586095D02*
X125099999Y-25681333D01*
X125099999Y-25681333D02*
X125099999Y-25824190D01*
X125099999Y-25824190D02*
X125052380Y-25919428D01*
X125052380Y-25919428D02*
X125004761Y-25967047D01*
X125004761Y-25967047D02*
X124909523Y-26014666D01*
X124909523Y-26014666D02*
X124528571Y-26014666D01*
X125719047Y-25490857D02*
X125909523Y-25490857D01*
X125909523Y-25490857D02*
X126004761Y-25538476D01*
X126004761Y-25538476D02*
X126099999Y-25633714D01*
X126099999Y-25633714D02*
X126147618Y-25824190D01*
X126147618Y-25824190D02*
X126147618Y-26157523D01*
X126147618Y-26157523D02*
X126099999Y-26347999D01*
X126099999Y-26347999D02*
X126004761Y-26443238D01*
X126004761Y-26443238D02*
X125909523Y-26490857D01*
X125909523Y-26490857D02*
X125719047Y-26490857D01*
X125719047Y-26490857D02*
X125623809Y-26443238D01*
X125623809Y-26443238D02*
X125528571Y-26347999D01*
X125528571Y-26347999D02*
X125480952Y-26157523D01*
X125480952Y-26157523D02*
X125480952Y-25824190D01*
X125480952Y-25824190D02*
X125528571Y-25633714D01*
X125528571Y-25633714D02*
X125623809Y-25538476D01*
X125623809Y-25538476D02*
X125719047Y-25490857D01*
X126576190Y-25967047D02*
X126909523Y-25967047D01*
X127052380Y-26490857D02*
X126576190Y-26490857D01*
X126576190Y-26490857D02*
X126576190Y-25490857D01*
X126576190Y-25490857D02*
X127052380Y-25490857D01*
X128576190Y-25967047D02*
X128719047Y-26014666D01*
X128719047Y-26014666D02*
X128766666Y-26062285D01*
X128766666Y-26062285D02*
X128814285Y-26157523D01*
X128814285Y-26157523D02*
X128814285Y-26300380D01*
X128814285Y-26300380D02*
X128766666Y-26395618D01*
X128766666Y-26395618D02*
X128719047Y-26443238D01*
X128719047Y-26443238D02*
X128623809Y-26490857D01*
X128623809Y-26490857D02*
X128242857Y-26490857D01*
X128242857Y-26490857D02*
X128242857Y-25490857D01*
X128242857Y-25490857D02*
X128576190Y-25490857D01*
X128576190Y-25490857D02*
X128671428Y-25538476D01*
X128671428Y-25538476D02*
X128719047Y-25586095D01*
X128719047Y-25586095D02*
X128766666Y-25681333D01*
X128766666Y-25681333D02*
X128766666Y-25776571D01*
X128766666Y-25776571D02*
X128719047Y-25871809D01*
X128719047Y-25871809D02*
X128671428Y-25919428D01*
X128671428Y-25919428D02*
X128576190Y-25967047D01*
X128576190Y-25967047D02*
X128242857Y-25967047D01*
X129433333Y-25490857D02*
X129623809Y-25490857D01*
X129623809Y-25490857D02*
X129719047Y-25538476D01*
X129719047Y-25538476D02*
X129814285Y-25633714D01*
X129814285Y-25633714D02*
X129861904Y-25824190D01*
X129861904Y-25824190D02*
X129861904Y-26157523D01*
X129861904Y-26157523D02*
X129814285Y-26347999D01*
X129814285Y-26347999D02*
X129719047Y-26443238D01*
X129719047Y-26443238D02*
X129623809Y-26490857D01*
X129623809Y-26490857D02*
X129433333Y-26490857D01*
X129433333Y-26490857D02*
X129338095Y-26443238D01*
X129338095Y-26443238D02*
X129242857Y-26347999D01*
X129242857Y-26347999D02*
X129195238Y-26157523D01*
X129195238Y-26157523D02*
X129195238Y-25824190D01*
X129195238Y-25824190D02*
X129242857Y-25633714D01*
X129242857Y-25633714D02*
X129338095Y-25538476D01*
X129338095Y-25538476D02*
X129433333Y-25490857D01*
X130242857Y-26205142D02*
X130719047Y-26205142D01*
X130147619Y-26490857D02*
X130480952Y-25490857D01*
X130480952Y-25490857D02*
X130814285Y-26490857D01*
X131719047Y-26490857D02*
X131385714Y-26014666D01*
X131147619Y-26490857D02*
X131147619Y-25490857D01*
X131147619Y-25490857D02*
X131528571Y-25490857D01*
X131528571Y-25490857D02*
X131623809Y-25538476D01*
X131623809Y-25538476D02*
X131671428Y-25586095D01*
X131671428Y-25586095D02*
X131719047Y-25681333D01*
X131719047Y-25681333D02*
X131719047Y-25824190D01*
X131719047Y-25824190D02*
X131671428Y-25919428D01*
X131671428Y-25919428D02*
X131623809Y-25967047D01*
X131623809Y-25967047D02*
X131528571Y-26014666D01*
X131528571Y-26014666D02*
X131147619Y-26014666D01*
X132147619Y-26490857D02*
X132147619Y-25490857D01*
X132147619Y-25490857D02*
X132385714Y-25490857D01*
X132385714Y-25490857D02*
X132528571Y-25538476D01*
X132528571Y-25538476D02*
X132623809Y-25633714D01*
X132623809Y-25633714D02*
X132671428Y-25728952D01*
X132671428Y-25728952D02*
X132719047Y-25919428D01*
X132719047Y-25919428D02*
X132719047Y-26062285D01*
X132719047Y-26062285D02*
X132671428Y-26252761D01*
X132671428Y-26252761D02*
X132623809Y-26347999D01*
X132623809Y-26347999D02*
X132528571Y-26443238D01*
X132528571Y-26443238D02*
X132385714Y-26490857D01*
X132385714Y-26490857D02*
X132147619Y-26490857D01*
X133766667Y-25490857D02*
X134338095Y-25490857D01*
X134052381Y-26490857D02*
X134052381Y-25490857D01*
X134861905Y-25490857D02*
X135052381Y-25490857D01*
X135052381Y-25490857D02*
X135147619Y-25538476D01*
X135147619Y-25538476D02*
X135242857Y-25633714D01*
X135242857Y-25633714D02*
X135290476Y-25824190D01*
X135290476Y-25824190D02*
X135290476Y-26157523D01*
X135290476Y-26157523D02*
X135242857Y-26347999D01*
X135242857Y-26347999D02*
X135147619Y-26443238D01*
X135147619Y-26443238D02*
X135052381Y-26490857D01*
X135052381Y-26490857D02*
X134861905Y-26490857D01*
X134861905Y-26490857D02*
X134766667Y-26443238D01*
X134766667Y-26443238D02*
X134671429Y-26347999D01*
X134671429Y-26347999D02*
X134623810Y-26157523D01*
X134623810Y-26157523D02*
X134623810Y-25824190D01*
X134623810Y-25824190D02*
X134671429Y-25633714D01*
X134671429Y-25633714D02*
X134766667Y-25538476D01*
X134766667Y-25538476D02*
X134861905Y-25490857D01*
X136766667Y-25490857D02*
X136766667Y-26205142D01*
X136766667Y-26205142D02*
X136719048Y-26347999D01*
X136719048Y-26347999D02*
X136623810Y-26443238D01*
X136623810Y-26443238D02*
X136480953Y-26490857D01*
X136480953Y-26490857D02*
X136385715Y-26490857D01*
X137671429Y-25490857D02*
X137480953Y-25490857D01*
X137480953Y-25490857D02*
X137385715Y-25538476D01*
X137385715Y-25538476D02*
X137338096Y-25586095D01*
X137338096Y-25586095D02*
X137242858Y-25728952D01*
X137242858Y-25728952D02*
X137195239Y-25919428D01*
X137195239Y-25919428D02*
X137195239Y-26300380D01*
X137195239Y-26300380D02*
X137242858Y-26395618D01*
X137242858Y-26395618D02*
X137290477Y-26443238D01*
X137290477Y-26443238D02*
X137385715Y-26490857D01*
X137385715Y-26490857D02*
X137576191Y-26490857D01*
X137576191Y-26490857D02*
X137671429Y-26443238D01*
X137671429Y-26443238D02*
X137719048Y-26395618D01*
X137719048Y-26395618D02*
X137766667Y-26300380D01*
X137766667Y-26300380D02*
X137766667Y-26062285D01*
X137766667Y-26062285D02*
X137719048Y-25967047D01*
X137719048Y-25967047D02*
X137671429Y-25919428D01*
X137671429Y-25919428D02*
X137576191Y-25871809D01*
X137576191Y-25871809D02*
X137385715Y-25871809D01*
X137385715Y-25871809D02*
X137290477Y-25919428D01*
X137290477Y-25919428D02*
X137242858Y-25967047D01*
X137242858Y-25967047D02*
X137195239Y-26062285D01*
X139147620Y-25490857D02*
X139338096Y-25490857D01*
X139338096Y-25490857D02*
X139433334Y-25538476D01*
X139433334Y-25538476D02*
X139528572Y-25633714D01*
X139528572Y-25633714D02*
X139576191Y-25824190D01*
X139576191Y-25824190D02*
X139576191Y-26157523D01*
X139576191Y-26157523D02*
X139528572Y-26347999D01*
X139528572Y-26347999D02*
X139433334Y-26443238D01*
X139433334Y-26443238D02*
X139338096Y-26490857D01*
X139338096Y-26490857D02*
X139147620Y-26490857D01*
X139147620Y-26490857D02*
X139052382Y-26443238D01*
X139052382Y-26443238D02*
X138957144Y-26347999D01*
X138957144Y-26347999D02*
X138909525Y-26157523D01*
X138909525Y-26157523D02*
X138909525Y-25824190D01*
X138909525Y-25824190D02*
X138957144Y-25633714D01*
X138957144Y-25633714D02*
X139052382Y-25538476D01*
X139052382Y-25538476D02*
X139147620Y-25490857D01*
X140004763Y-26490857D02*
X140004763Y-25490857D01*
X140004763Y-25490857D02*
X140576191Y-26490857D01*
X140576191Y-26490857D02*
X140576191Y-25490857D01*
X141528572Y-26490857D02*
X141052382Y-26490857D01*
X141052382Y-26490857D02*
X141052382Y-25490857D01*
X142052382Y-26014666D02*
X142052382Y-26490857D01*
X141719049Y-25490857D02*
X142052382Y-26014666D01*
X142052382Y-26014666D02*
X142385715Y-25490857D01*
X113147617Y-27290857D02*
X113147617Y-28005142D01*
X113147617Y-28005142D02*
X113099998Y-28147999D01*
X113099998Y-28147999D02*
X113004760Y-28243238D01*
X113004760Y-28243238D02*
X112861903Y-28290857D01*
X112861903Y-28290857D02*
X112766665Y-28290857D01*
X113623808Y-27767047D02*
X113957141Y-27767047D01*
X114099998Y-28290857D02*
X113623808Y-28290857D01*
X113623808Y-28290857D02*
X113623808Y-27290857D01*
X113623808Y-27290857D02*
X114099998Y-27290857D01*
X114385713Y-27290857D02*
X114957141Y-27290857D01*
X114671427Y-28290857D02*
X114671427Y-27290857D01*
X115242856Y-28243238D02*
X115385713Y-28290857D01*
X115385713Y-28290857D02*
X115623808Y-28290857D01*
X115623808Y-28290857D02*
X115719046Y-28243238D01*
X115719046Y-28243238D02*
X115766665Y-28195618D01*
X115766665Y-28195618D02*
X115814284Y-28100380D01*
X115814284Y-28100380D02*
X115814284Y-28005142D01*
X115814284Y-28005142D02*
X115766665Y-27909904D01*
X115766665Y-27909904D02*
X115719046Y-27862285D01*
X115719046Y-27862285D02*
X115623808Y-27814666D01*
X115623808Y-27814666D02*
X115433332Y-27767047D01*
X115433332Y-27767047D02*
X115338094Y-27719428D01*
X115338094Y-27719428D02*
X115290475Y-27671809D01*
X115290475Y-27671809D02*
X115242856Y-27576571D01*
X115242856Y-27576571D02*
X115242856Y-27481333D01*
X115242856Y-27481333D02*
X115290475Y-27386095D01*
X115290475Y-27386095D02*
X115338094Y-27338476D01*
X115338094Y-27338476D02*
X115433332Y-27290857D01*
X115433332Y-27290857D02*
X115671427Y-27290857D01*
X115671427Y-27290857D02*
X115814284Y-27338476D01*
X116433332Y-27290857D02*
X116623808Y-27290857D01*
X116623808Y-27290857D02*
X116719046Y-27338476D01*
X116719046Y-27338476D02*
X116814284Y-27433714D01*
X116814284Y-27433714D02*
X116861903Y-27624190D01*
X116861903Y-27624190D02*
X116861903Y-27957523D01*
X116861903Y-27957523D02*
X116814284Y-28147999D01*
X116814284Y-28147999D02*
X116719046Y-28243238D01*
X116719046Y-28243238D02*
X116623808Y-28290857D01*
X116623808Y-28290857D02*
X116433332Y-28290857D01*
X116433332Y-28290857D02*
X116338094Y-28243238D01*
X116338094Y-28243238D02*
X116242856Y-28147999D01*
X116242856Y-28147999D02*
X116195237Y-27957523D01*
X116195237Y-27957523D02*
X116195237Y-27624190D01*
X116195237Y-27624190D02*
X116242856Y-27433714D01*
X116242856Y-27433714D02*
X116338094Y-27338476D01*
X116338094Y-27338476D02*
X116433332Y-27290857D01*
X117290475Y-28290857D02*
X117290475Y-27290857D01*
X117290475Y-27290857D02*
X117861903Y-28290857D01*
X117861903Y-28290857D02*
X117861903Y-27290857D01*
X119576189Y-27290857D02*
X119099999Y-27290857D01*
X119099999Y-27290857D02*
X119052380Y-27767047D01*
X119052380Y-27767047D02*
X119099999Y-27719428D01*
X119099999Y-27719428D02*
X119195237Y-27671809D01*
X119195237Y-27671809D02*
X119433332Y-27671809D01*
X119433332Y-27671809D02*
X119528570Y-27719428D01*
X119528570Y-27719428D02*
X119576189Y-27767047D01*
X119576189Y-27767047D02*
X119623808Y-27862285D01*
X119623808Y-27862285D02*
X119623808Y-28100380D01*
X119623808Y-28100380D02*
X119576189Y-28195618D01*
X119576189Y-28195618D02*
X119528570Y-28243238D01*
X119528570Y-28243238D02*
X119433332Y-28290857D01*
X119433332Y-28290857D02*
X119195237Y-28290857D01*
X119195237Y-28290857D02*
X119099999Y-28243238D01*
X119099999Y-28243238D02*
X119052380Y-28195618D01*
X120004761Y-28005142D02*
X120480951Y-28005142D01*
X119909523Y-28290857D02*
X120242856Y-27290857D01*
X120242856Y-27290857D02*
X120576189Y-28290857D01*
X123147618Y-27243238D02*
X122290476Y-28528952D01*
X125338095Y-27767047D02*
X125004762Y-27767047D01*
X125004762Y-28290857D02*
X125004762Y-27290857D01*
X125004762Y-27290857D02*
X125480952Y-27290857D01*
X125814286Y-28005142D02*
X126290476Y-28005142D01*
X125719048Y-28290857D02*
X126052381Y-27290857D01*
X126052381Y-27290857D02*
X126385714Y-28290857D01*
X126719048Y-28290857D02*
X126719048Y-27290857D01*
X126719048Y-27290857D02*
X127290476Y-28290857D01*
X127290476Y-28290857D02*
X127290476Y-27290857D01*
X128719048Y-27290857D02*
X128814286Y-27290857D01*
X128814286Y-27290857D02*
X128909524Y-27338476D01*
X128909524Y-27338476D02*
X128957143Y-27386095D01*
X128957143Y-27386095D02*
X129004762Y-27481333D01*
X129004762Y-27481333D02*
X129052381Y-27671809D01*
X129052381Y-27671809D02*
X129052381Y-27909904D01*
X129052381Y-27909904D02*
X129004762Y-28100380D01*
X129004762Y-28100380D02*
X128957143Y-28195618D01*
X128957143Y-28195618D02*
X128909524Y-28243238D01*
X128909524Y-28243238D02*
X128814286Y-28290857D01*
X128814286Y-28290857D02*
X128719048Y-28290857D01*
X128719048Y-28290857D02*
X128623810Y-28243238D01*
X128623810Y-28243238D02*
X128576191Y-28195618D01*
X128576191Y-28195618D02*
X128528572Y-28100380D01*
X128528572Y-28100380D02*
X128480953Y-27909904D01*
X128480953Y-27909904D02*
X128480953Y-27671809D01*
X128480953Y-27671809D02*
X128528572Y-27481333D01*
X128528572Y-27481333D02*
X128576191Y-27386095D01*
X128576191Y-27386095D02*
X128623810Y-27338476D01*
X128623810Y-27338476D02*
X128719048Y-27290857D01*
X129480953Y-28195618D02*
X129528572Y-28243238D01*
X129528572Y-28243238D02*
X129480953Y-28290857D01*
X129480953Y-28290857D02*
X129433334Y-28243238D01*
X129433334Y-28243238D02*
X129480953Y-28195618D01*
X129480953Y-28195618D02*
X129480953Y-28290857D01*
X130480952Y-28290857D02*
X129909524Y-28290857D01*
X130195238Y-28290857D02*
X130195238Y-27290857D01*
X130195238Y-27290857D02*
X130100000Y-27433714D01*
X130100000Y-27433714D02*
X130004762Y-27528952D01*
X130004762Y-27528952D02*
X129909524Y-27576571D01*
X131338095Y-27624190D02*
X131338095Y-28290857D01*
X131100000Y-27243238D02*
X130861905Y-27957523D01*
X130861905Y-27957523D02*
X131480952Y-27957523D01*
X131814286Y-28005142D02*
X132290476Y-28005142D01*
X131719048Y-28290857D02*
X132052381Y-27290857D01*
X132052381Y-27290857D02*
X132385714Y-28290857D01*
X134957143Y-27243238D02*
X134100001Y-28528952D01*
X136814287Y-27290857D02*
X136814287Y-28100380D01*
X136814287Y-28100380D02*
X136861906Y-28195618D01*
X136861906Y-28195618D02*
X136909525Y-28243238D01*
X136909525Y-28243238D02*
X137004763Y-28290857D01*
X137004763Y-28290857D02*
X137195239Y-28290857D01*
X137195239Y-28290857D02*
X137290477Y-28243238D01*
X137290477Y-28243238D02*
X137338096Y-28195618D01*
X137338096Y-28195618D02*
X137385715Y-28100380D01*
X137385715Y-28100380D02*
X137385715Y-27290857D01*
X137814287Y-28243238D02*
X137957144Y-28290857D01*
X137957144Y-28290857D02*
X138195239Y-28290857D01*
X138195239Y-28290857D02*
X138290477Y-28243238D01*
X138290477Y-28243238D02*
X138338096Y-28195618D01*
X138338096Y-28195618D02*
X138385715Y-28100380D01*
X138385715Y-28100380D02*
X138385715Y-28005142D01*
X138385715Y-28005142D02*
X138338096Y-27909904D01*
X138338096Y-27909904D02*
X138290477Y-27862285D01*
X138290477Y-27862285D02*
X138195239Y-27814666D01*
X138195239Y-27814666D02*
X138004763Y-27767047D01*
X138004763Y-27767047D02*
X137909525Y-27719428D01*
X137909525Y-27719428D02*
X137861906Y-27671809D01*
X137861906Y-27671809D02*
X137814287Y-27576571D01*
X137814287Y-27576571D02*
X137814287Y-27481333D01*
X137814287Y-27481333D02*
X137861906Y-27386095D01*
X137861906Y-27386095D02*
X137909525Y-27338476D01*
X137909525Y-27338476D02*
X138004763Y-27290857D01*
X138004763Y-27290857D02*
X138242858Y-27290857D01*
X138242858Y-27290857D02*
X138385715Y-27338476D01*
X139147620Y-27767047D02*
X139290477Y-27814666D01*
X139290477Y-27814666D02*
X139338096Y-27862285D01*
X139338096Y-27862285D02*
X139385715Y-27957523D01*
X139385715Y-27957523D02*
X139385715Y-28100380D01*
X139385715Y-28100380D02*
X139338096Y-28195618D01*
X139338096Y-28195618D02*
X139290477Y-28243238D01*
X139290477Y-28243238D02*
X139195239Y-28290857D01*
X139195239Y-28290857D02*
X138814287Y-28290857D01*
X138814287Y-28290857D02*
X138814287Y-27290857D01*
X138814287Y-27290857D02*
X139147620Y-27290857D01*
X139147620Y-27290857D02*
X139242858Y-27338476D01*
X139242858Y-27338476D02*
X139290477Y-27386095D01*
X139290477Y-27386095D02*
X139338096Y-27481333D01*
X139338096Y-27481333D02*
X139338096Y-27576571D01*
X139338096Y-27576571D02*
X139290477Y-27671809D01*
X139290477Y-27671809D02*
X139242858Y-27719428D01*
X139242858Y-27719428D02*
X139147620Y-27767047D01*
X139147620Y-27767047D02*
X138814287Y-27767047D01*
X140909525Y-27767047D02*
X140576192Y-27767047D01*
X140576192Y-28290857D02*
X140576192Y-27290857D01*
X140576192Y-27290857D02*
X141052382Y-27290857D01*
X141433335Y-27767047D02*
X141766668Y-27767047D01*
X141909525Y-28290857D02*
X141433335Y-28290857D01*
X141433335Y-28290857D02*
X141433335Y-27290857D01*
X141433335Y-27290857D02*
X141909525Y-27290857D01*
X142338097Y-27767047D02*
X142671430Y-27767047D01*
X142814287Y-28290857D02*
X142338097Y-28290857D01*
X142338097Y-28290857D02*
X142338097Y-27290857D01*
X142338097Y-27290857D02*
X142814287Y-27290857D01*
X143242859Y-28290857D02*
X143242859Y-27290857D01*
X143242859Y-27290857D02*
X143480954Y-27290857D01*
X143480954Y-27290857D02*
X143623811Y-27338476D01*
X143623811Y-27338476D02*
X143719049Y-27433714D01*
X143719049Y-27433714D02*
X143766668Y-27528952D01*
X143766668Y-27528952D02*
X143814287Y-27719428D01*
X143814287Y-27719428D02*
X143814287Y-27862285D01*
X143814287Y-27862285D02*
X143766668Y-28052761D01*
X143766668Y-28052761D02*
X143719049Y-28147999D01*
X143719049Y-28147999D02*
X143623811Y-28243238D01*
X143623811Y-28243238D02*
X143480954Y-28290857D01*
X143480954Y-28290857D02*
X143242859Y-28290857D01*
X144909526Y-27290857D02*
X145528573Y-27290857D01*
X145528573Y-27290857D02*
X145195240Y-27671809D01*
X145195240Y-27671809D02*
X145338097Y-27671809D01*
X145338097Y-27671809D02*
X145433335Y-27719428D01*
X145433335Y-27719428D02*
X145480954Y-27767047D01*
X145480954Y-27767047D02*
X145528573Y-27862285D01*
X145528573Y-27862285D02*
X145528573Y-28100380D01*
X145528573Y-28100380D02*
X145480954Y-28195618D01*
X145480954Y-28195618D02*
X145433335Y-28243238D01*
X145433335Y-28243238D02*
X145338097Y-28290857D01*
X145338097Y-28290857D02*
X145052383Y-28290857D01*
X145052383Y-28290857D02*
X144957145Y-28243238D01*
X144957145Y-28243238D02*
X144909526Y-28195618D01*
X145909526Y-28005142D02*
X146385716Y-28005142D01*
X145814288Y-28290857D02*
X146147621Y-27290857D01*
X146147621Y-27290857D02*
X146480954Y-28290857D01*
X118504761Y-29090857D02*
X118742856Y-30090857D01*
X118742856Y-30090857D02*
X118933332Y-29376571D01*
X118933332Y-29376571D02*
X119123808Y-30090857D01*
X119123808Y-30090857D02*
X119361904Y-29090857D01*
X119933332Y-29090857D02*
X120123808Y-29090857D01*
X120123808Y-29090857D02*
X120219046Y-29138476D01*
X120219046Y-29138476D02*
X120314284Y-29233714D01*
X120314284Y-29233714D02*
X120361903Y-29424190D01*
X120361903Y-29424190D02*
X120361903Y-29757523D01*
X120361903Y-29757523D02*
X120314284Y-29947999D01*
X120314284Y-29947999D02*
X120219046Y-30043238D01*
X120219046Y-30043238D02*
X120123808Y-30090857D01*
X120123808Y-30090857D02*
X119933332Y-30090857D01*
X119933332Y-30090857D02*
X119838094Y-30043238D01*
X119838094Y-30043238D02*
X119742856Y-29947999D01*
X119742856Y-29947999D02*
X119695237Y-29757523D01*
X119695237Y-29757523D02*
X119695237Y-29424190D01*
X119695237Y-29424190D02*
X119742856Y-29233714D01*
X119742856Y-29233714D02*
X119838094Y-29138476D01*
X119838094Y-29138476D02*
X119933332Y-29090857D01*
X121361903Y-30090857D02*
X121028570Y-29614666D01*
X120790475Y-30090857D02*
X120790475Y-29090857D01*
X120790475Y-29090857D02*
X121171427Y-29090857D01*
X121171427Y-29090857D02*
X121266665Y-29138476D01*
X121266665Y-29138476D02*
X121314284Y-29186095D01*
X121314284Y-29186095D02*
X121361903Y-29281333D01*
X121361903Y-29281333D02*
X121361903Y-29424190D01*
X121361903Y-29424190D02*
X121314284Y-29519428D01*
X121314284Y-29519428D02*
X121266665Y-29567047D01*
X121266665Y-29567047D02*
X121171427Y-29614666D01*
X121171427Y-29614666D02*
X120790475Y-29614666D01*
X121742856Y-30043238D02*
X121885713Y-30090857D01*
X121885713Y-30090857D02*
X122123808Y-30090857D01*
X122123808Y-30090857D02*
X122219046Y-30043238D01*
X122219046Y-30043238D02*
X122266665Y-29995618D01*
X122266665Y-29995618D02*
X122314284Y-29900380D01*
X122314284Y-29900380D02*
X122314284Y-29805142D01*
X122314284Y-29805142D02*
X122266665Y-29709904D01*
X122266665Y-29709904D02*
X122219046Y-29662285D01*
X122219046Y-29662285D02*
X122123808Y-29614666D01*
X122123808Y-29614666D02*
X121933332Y-29567047D01*
X121933332Y-29567047D02*
X121838094Y-29519428D01*
X121838094Y-29519428D02*
X121790475Y-29471809D01*
X121790475Y-29471809D02*
X121742856Y-29376571D01*
X121742856Y-29376571D02*
X121742856Y-29281333D01*
X121742856Y-29281333D02*
X121790475Y-29186095D01*
X121790475Y-29186095D02*
X121838094Y-29138476D01*
X121838094Y-29138476D02*
X121933332Y-29090857D01*
X121933332Y-29090857D02*
X122171427Y-29090857D01*
X122171427Y-29090857D02*
X122314284Y-29138476D01*
X122599999Y-29090857D02*
X123171427Y-29090857D01*
X122885713Y-30090857D02*
X122885713Y-29090857D01*
X124838094Y-29995618D02*
X124790475Y-30043238D01*
X124790475Y-30043238D02*
X124647618Y-30090857D01*
X124647618Y-30090857D02*
X124552380Y-30090857D01*
X124552380Y-30090857D02*
X124409523Y-30043238D01*
X124409523Y-30043238D02*
X124314285Y-29947999D01*
X124314285Y-29947999D02*
X124266666Y-29852761D01*
X124266666Y-29852761D02*
X124219047Y-29662285D01*
X124219047Y-29662285D02*
X124219047Y-29519428D01*
X124219047Y-29519428D02*
X124266666Y-29328952D01*
X124266666Y-29328952D02*
X124314285Y-29233714D01*
X124314285Y-29233714D02*
X124409523Y-29138476D01*
X124409523Y-29138476D02*
X124552380Y-29090857D01*
X124552380Y-29090857D02*
X124647618Y-29090857D01*
X124647618Y-29090857D02*
X124790475Y-29138476D01*
X124790475Y-29138476D02*
X124838094Y-29186095D01*
X125457142Y-29090857D02*
X125647618Y-29090857D01*
X125647618Y-29090857D02*
X125742856Y-29138476D01*
X125742856Y-29138476D02*
X125838094Y-29233714D01*
X125838094Y-29233714D02*
X125885713Y-29424190D01*
X125885713Y-29424190D02*
X125885713Y-29757523D01*
X125885713Y-29757523D02*
X125838094Y-29947999D01*
X125838094Y-29947999D02*
X125742856Y-30043238D01*
X125742856Y-30043238D02*
X125647618Y-30090857D01*
X125647618Y-30090857D02*
X125457142Y-30090857D01*
X125457142Y-30090857D02*
X125361904Y-30043238D01*
X125361904Y-30043238D02*
X125266666Y-29947999D01*
X125266666Y-29947999D02*
X125219047Y-29757523D01*
X125219047Y-29757523D02*
X125219047Y-29424190D01*
X125219047Y-29424190D02*
X125266666Y-29233714D01*
X125266666Y-29233714D02*
X125361904Y-29138476D01*
X125361904Y-29138476D02*
X125457142Y-29090857D01*
X126314285Y-30090857D02*
X126314285Y-29090857D01*
X126314285Y-29090857D02*
X126885713Y-30090857D01*
X126885713Y-30090857D02*
X126885713Y-29090857D01*
X127695237Y-29567047D02*
X127361904Y-29567047D01*
X127361904Y-30090857D02*
X127361904Y-29090857D01*
X127361904Y-29090857D02*
X127838094Y-29090857D01*
X128219047Y-30090857D02*
X128219047Y-29090857D01*
X129219046Y-29138476D02*
X129123808Y-29090857D01*
X129123808Y-29090857D02*
X128980951Y-29090857D01*
X128980951Y-29090857D02*
X128838094Y-29138476D01*
X128838094Y-29138476D02*
X128742856Y-29233714D01*
X128742856Y-29233714D02*
X128695237Y-29328952D01*
X128695237Y-29328952D02*
X128647618Y-29519428D01*
X128647618Y-29519428D02*
X128647618Y-29662285D01*
X128647618Y-29662285D02*
X128695237Y-29852761D01*
X128695237Y-29852761D02*
X128742856Y-29947999D01*
X128742856Y-29947999D02*
X128838094Y-30043238D01*
X128838094Y-30043238D02*
X128980951Y-30090857D01*
X128980951Y-30090857D02*
X129076189Y-30090857D01*
X129076189Y-30090857D02*
X129219046Y-30043238D01*
X129219046Y-30043238D02*
X129266665Y-29995618D01*
X129266665Y-29995618D02*
X129266665Y-29662285D01*
X129266665Y-29662285D02*
X129076189Y-29662285D01*
X130314285Y-29709904D02*
X130361904Y-29662285D01*
X130361904Y-29662285D02*
X130457142Y-29614666D01*
X130457142Y-29614666D02*
X130647618Y-29709904D01*
X130647618Y-29709904D02*
X130742856Y-29662285D01*
X130742856Y-29662285D02*
X130790475Y-29614666D01*
X131695237Y-30090857D02*
X131123809Y-30090857D01*
X131409523Y-30090857D02*
X131409523Y-29090857D01*
X131409523Y-29090857D02*
X131314285Y-29233714D01*
X131314285Y-29233714D02*
X131219047Y-29328952D01*
X131219047Y-29328952D02*
X131123809Y-29376571D01*
X132028571Y-29090857D02*
X132695237Y-29090857D01*
X132695237Y-29090857D02*
X132266666Y-30090857D01*
X133504761Y-29424190D02*
X133504761Y-30090857D01*
X133266666Y-29043238D02*
X133028571Y-29757523D01*
X133028571Y-29757523D02*
X133647618Y-29757523D01*
X133933333Y-29090857D02*
X134171428Y-30090857D01*
X134171428Y-30090857D02*
X134361904Y-29376571D01*
X134361904Y-29376571D02*
X134552380Y-30090857D01*
X134552380Y-30090857D02*
X134790476Y-29090857D01*
X135885714Y-29805142D02*
X136361904Y-29805142D01*
X135790476Y-30090857D02*
X136123809Y-29090857D01*
X136123809Y-29090857D02*
X136457142Y-30090857D01*
X136647619Y-29090857D02*
X137219047Y-29090857D01*
X136933333Y-30090857D02*
X136933333Y-29090857D01*
X138838095Y-30090857D02*
X138266667Y-30090857D01*
X138552381Y-30090857D02*
X138552381Y-29090857D01*
X138552381Y-29090857D02*
X138457143Y-29233714D01*
X138457143Y-29233714D02*
X138361905Y-29328952D01*
X138361905Y-29328952D02*
X138266667Y-29376571D01*
X139219048Y-29186095D02*
X139266667Y-29138476D01*
X139266667Y-29138476D02*
X139361905Y-29090857D01*
X139361905Y-29090857D02*
X139600000Y-29090857D01*
X139600000Y-29090857D02*
X139695238Y-29138476D01*
X139695238Y-29138476D02*
X139742857Y-29186095D01*
X139742857Y-29186095D02*
X139790476Y-29281333D01*
X139790476Y-29281333D02*
X139790476Y-29376571D01*
X139790476Y-29376571D02*
X139742857Y-29519428D01*
X139742857Y-29519428D02*
X139171429Y-30090857D01*
X139171429Y-30090857D02*
X139790476Y-30090857D01*
X140076191Y-29090857D02*
X140409524Y-30090857D01*
X140409524Y-30090857D02*
X140742857Y-29090857D01*
X115576190Y-31890857D02*
X115576190Y-30890857D01*
X115576190Y-30890857D02*
X115814285Y-30890857D01*
X115814285Y-30890857D02*
X115957142Y-30938476D01*
X115957142Y-30938476D02*
X116052380Y-31033714D01*
X116052380Y-31033714D02*
X116099999Y-31128952D01*
X116099999Y-31128952D02*
X116147618Y-31319428D01*
X116147618Y-31319428D02*
X116147618Y-31462285D01*
X116147618Y-31462285D02*
X116099999Y-31652761D01*
X116099999Y-31652761D02*
X116052380Y-31747999D01*
X116052380Y-31747999D02*
X115957142Y-31843238D01*
X115957142Y-31843238D02*
X115814285Y-31890857D01*
X115814285Y-31890857D02*
X115576190Y-31890857D01*
X116480952Y-30890857D02*
X117147618Y-30890857D01*
X117147618Y-30890857D02*
X116719047Y-31890857D01*
X117528571Y-31509904D02*
X118290476Y-31509904D01*
X118719047Y-30986095D02*
X118766666Y-30938476D01*
X118766666Y-30938476D02*
X118861904Y-30890857D01*
X118861904Y-30890857D02*
X119099999Y-30890857D01*
X119099999Y-30890857D02*
X119195237Y-30938476D01*
X119195237Y-30938476D02*
X119242856Y-30986095D01*
X119242856Y-30986095D02*
X119290475Y-31081333D01*
X119290475Y-31081333D02*
X119290475Y-31176571D01*
X119290475Y-31176571D02*
X119242856Y-31319428D01*
X119242856Y-31319428D02*
X118671428Y-31890857D01*
X118671428Y-31890857D02*
X119290475Y-31890857D01*
X120195237Y-31890857D02*
X119719047Y-31890857D01*
X119719047Y-31890857D02*
X119719047Y-30890857D01*
X122004761Y-30843238D02*
X121147619Y-32128952D01*
X123528571Y-31224190D02*
X123528571Y-31890857D01*
X123290476Y-30843238D02*
X123052381Y-31557523D01*
X123052381Y-31557523D02*
X123671428Y-31557523D01*
X124242857Y-30890857D02*
X124338095Y-30890857D01*
X124338095Y-30890857D02*
X124433333Y-30938476D01*
X124433333Y-30938476D02*
X124480952Y-30986095D01*
X124480952Y-30986095D02*
X124528571Y-31081333D01*
X124528571Y-31081333D02*
X124576190Y-31271809D01*
X124576190Y-31271809D02*
X124576190Y-31509904D01*
X124576190Y-31509904D02*
X124528571Y-31700380D01*
X124528571Y-31700380D02*
X124480952Y-31795618D01*
X124480952Y-31795618D02*
X124433333Y-31843238D01*
X124433333Y-31843238D02*
X124338095Y-31890857D01*
X124338095Y-31890857D02*
X124242857Y-31890857D01*
X124242857Y-31890857D02*
X124147619Y-31843238D01*
X124147619Y-31843238D02*
X124100000Y-31795618D01*
X124100000Y-31795618D02*
X124052381Y-31700380D01*
X124052381Y-31700380D02*
X124004762Y-31509904D01*
X124004762Y-31509904D02*
X124004762Y-31271809D01*
X124004762Y-31271809D02*
X124052381Y-31081333D01*
X124052381Y-31081333D02*
X124100000Y-30986095D01*
X124100000Y-30986095D02*
X124147619Y-30938476D01*
X124147619Y-30938476D02*
X124242857Y-30890857D01*
X125576190Y-31795618D02*
X125528571Y-31843238D01*
X125528571Y-31843238D02*
X125385714Y-31890857D01*
X125385714Y-31890857D02*
X125290476Y-31890857D01*
X125290476Y-31890857D02*
X125147619Y-31843238D01*
X125147619Y-31843238D02*
X125052381Y-31747999D01*
X125052381Y-31747999D02*
X125004762Y-31652761D01*
X125004762Y-31652761D02*
X124957143Y-31462285D01*
X124957143Y-31462285D02*
X124957143Y-31319428D01*
X124957143Y-31319428D02*
X125004762Y-31128952D01*
X125004762Y-31128952D02*
X125052381Y-31033714D01*
X125052381Y-31033714D02*
X125147619Y-30938476D01*
X125147619Y-30938476D02*
X125290476Y-30890857D01*
X125290476Y-30890857D02*
X125385714Y-30890857D01*
X125385714Y-30890857D02*
X125528571Y-30938476D01*
X125528571Y-30938476D02*
X125576190Y-30986095D01*
X126719048Y-31605142D02*
X127195238Y-31605142D01*
X126623810Y-31890857D02*
X126957143Y-30890857D01*
X126957143Y-30890857D02*
X127290476Y-31890857D01*
X127623810Y-31890857D02*
X127623810Y-30890857D01*
X127623810Y-30890857D02*
X127957143Y-31605142D01*
X127957143Y-31605142D02*
X128290476Y-30890857D01*
X128290476Y-30890857D02*
X128290476Y-31890857D01*
X129100000Y-31367047D02*
X129242857Y-31414666D01*
X129242857Y-31414666D02*
X129290476Y-31462285D01*
X129290476Y-31462285D02*
X129338095Y-31557523D01*
X129338095Y-31557523D02*
X129338095Y-31700380D01*
X129338095Y-31700380D02*
X129290476Y-31795618D01*
X129290476Y-31795618D02*
X129242857Y-31843238D01*
X129242857Y-31843238D02*
X129147619Y-31890857D01*
X129147619Y-31890857D02*
X128766667Y-31890857D01*
X128766667Y-31890857D02*
X128766667Y-30890857D01*
X128766667Y-30890857D02*
X129100000Y-30890857D01*
X129100000Y-30890857D02*
X129195238Y-30938476D01*
X129195238Y-30938476D02*
X129242857Y-30986095D01*
X129242857Y-30986095D02*
X129290476Y-31081333D01*
X129290476Y-31081333D02*
X129290476Y-31176571D01*
X129290476Y-31176571D02*
X129242857Y-31271809D01*
X129242857Y-31271809D02*
X129195238Y-31319428D01*
X129195238Y-31319428D02*
X129100000Y-31367047D01*
X129100000Y-31367047D02*
X128766667Y-31367047D01*
X129766667Y-31890857D02*
X129766667Y-30890857D01*
X130242857Y-31367047D02*
X130576190Y-31367047D01*
X130719047Y-31890857D02*
X130242857Y-31890857D01*
X130242857Y-31890857D02*
X130242857Y-30890857D01*
X130242857Y-30890857D02*
X130719047Y-30890857D01*
X131147619Y-31890857D02*
X131147619Y-30890857D01*
X131147619Y-30890857D02*
X131719047Y-31890857D01*
X131719047Y-31890857D02*
X131719047Y-30890857D01*
X132052381Y-30890857D02*
X132623809Y-30890857D01*
X132338095Y-31890857D02*
X132338095Y-30890857D01*
X133719048Y-31890857D02*
X133719048Y-30890857D01*
X133719048Y-30890857D02*
X133957143Y-30890857D01*
X133957143Y-30890857D02*
X134100000Y-30938476D01*
X134100000Y-30938476D02*
X134195238Y-31033714D01*
X134195238Y-31033714D02*
X134242857Y-31128952D01*
X134242857Y-31128952D02*
X134290476Y-31319428D01*
X134290476Y-31319428D02*
X134290476Y-31462285D01*
X134290476Y-31462285D02*
X134242857Y-31652761D01*
X134242857Y-31652761D02*
X134195238Y-31747999D01*
X134195238Y-31747999D02*
X134100000Y-31843238D01*
X134100000Y-31843238D02*
X133957143Y-31890857D01*
X133957143Y-31890857D02*
X133719048Y-31890857D01*
X134719048Y-31367047D02*
X135052381Y-31367047D01*
X135195238Y-31890857D02*
X134719048Y-31890857D01*
X134719048Y-31890857D02*
X134719048Y-30890857D01*
X134719048Y-30890857D02*
X135195238Y-30890857D01*
X135576191Y-31843238D02*
X135719048Y-31890857D01*
X135719048Y-31890857D02*
X135957143Y-31890857D01*
X135957143Y-31890857D02*
X136052381Y-31843238D01*
X136052381Y-31843238D02*
X136100000Y-31795618D01*
X136100000Y-31795618D02*
X136147619Y-31700380D01*
X136147619Y-31700380D02*
X136147619Y-31605142D01*
X136147619Y-31605142D02*
X136100000Y-31509904D01*
X136100000Y-31509904D02*
X136052381Y-31462285D01*
X136052381Y-31462285D02*
X135957143Y-31414666D01*
X135957143Y-31414666D02*
X135766667Y-31367047D01*
X135766667Y-31367047D02*
X135671429Y-31319428D01*
X135671429Y-31319428D02*
X135623810Y-31271809D01*
X135623810Y-31271809D02*
X135576191Y-31176571D01*
X135576191Y-31176571D02*
X135576191Y-31081333D01*
X135576191Y-31081333D02*
X135623810Y-30986095D01*
X135623810Y-30986095D02*
X135671429Y-30938476D01*
X135671429Y-30938476D02*
X135766667Y-30890857D01*
X135766667Y-30890857D02*
X136004762Y-30890857D01*
X136004762Y-30890857D02*
X136147619Y-30938476D01*
X136576191Y-31890857D02*
X136576191Y-30890857D01*
X137576190Y-30938476D02*
X137480952Y-30890857D01*
X137480952Y-30890857D02*
X137338095Y-30890857D01*
X137338095Y-30890857D02*
X137195238Y-30938476D01*
X137195238Y-30938476D02*
X137100000Y-31033714D01*
X137100000Y-31033714D02*
X137052381Y-31128952D01*
X137052381Y-31128952D02*
X137004762Y-31319428D01*
X137004762Y-31319428D02*
X137004762Y-31462285D01*
X137004762Y-31462285D02*
X137052381Y-31652761D01*
X137052381Y-31652761D02*
X137100000Y-31747999D01*
X137100000Y-31747999D02*
X137195238Y-31843238D01*
X137195238Y-31843238D02*
X137338095Y-31890857D01*
X137338095Y-31890857D02*
X137433333Y-31890857D01*
X137433333Y-31890857D02*
X137576190Y-31843238D01*
X137576190Y-31843238D02*
X137623809Y-31795618D01*
X137623809Y-31795618D02*
X137623809Y-31462285D01*
X137623809Y-31462285D02*
X137433333Y-31462285D01*
X138052381Y-31890857D02*
X138052381Y-30890857D01*
X138052381Y-30890857D02*
X138623809Y-31890857D01*
X138623809Y-31890857D02*
X138623809Y-30890857D01*
X140195238Y-31367047D02*
X140338095Y-31414666D01*
X140338095Y-31414666D02*
X140385714Y-31462285D01*
X140385714Y-31462285D02*
X140433333Y-31557523D01*
X140433333Y-31557523D02*
X140433333Y-31700380D01*
X140433333Y-31700380D02*
X140385714Y-31795618D01*
X140385714Y-31795618D02*
X140338095Y-31843238D01*
X140338095Y-31843238D02*
X140242857Y-31890857D01*
X140242857Y-31890857D02*
X139861905Y-31890857D01*
X139861905Y-31890857D02*
X139861905Y-30890857D01*
X139861905Y-30890857D02*
X140195238Y-30890857D01*
X140195238Y-30890857D02*
X140290476Y-30938476D01*
X140290476Y-30938476D02*
X140338095Y-30986095D01*
X140338095Y-30986095D02*
X140385714Y-31081333D01*
X140385714Y-31081333D02*
X140385714Y-31176571D01*
X140385714Y-31176571D02*
X140338095Y-31271809D01*
X140338095Y-31271809D02*
X140290476Y-31319428D01*
X140290476Y-31319428D02*
X140195238Y-31367047D01*
X140195238Y-31367047D02*
X139861905Y-31367047D01*
X140814286Y-31605142D02*
X141290476Y-31605142D01*
X140719048Y-31890857D02*
X141052381Y-30890857D01*
X141052381Y-30890857D02*
X141385714Y-31890857D01*
X141671429Y-31843238D02*
X141814286Y-31890857D01*
X141814286Y-31890857D02*
X142052381Y-31890857D01*
X142052381Y-31890857D02*
X142147619Y-31843238D01*
X142147619Y-31843238D02*
X142195238Y-31795618D01*
X142195238Y-31795618D02*
X142242857Y-31700380D01*
X142242857Y-31700380D02*
X142242857Y-31605142D01*
X142242857Y-31605142D02*
X142195238Y-31509904D01*
X142195238Y-31509904D02*
X142147619Y-31462285D01*
X142147619Y-31462285D02*
X142052381Y-31414666D01*
X142052381Y-31414666D02*
X141861905Y-31367047D01*
X141861905Y-31367047D02*
X141766667Y-31319428D01*
X141766667Y-31319428D02*
X141719048Y-31271809D01*
X141719048Y-31271809D02*
X141671429Y-31176571D01*
X141671429Y-31176571D02*
X141671429Y-31081333D01*
X141671429Y-31081333D02*
X141719048Y-30986095D01*
X141719048Y-30986095D02*
X141766667Y-30938476D01*
X141766667Y-30938476D02*
X141861905Y-30890857D01*
X141861905Y-30890857D02*
X142100000Y-30890857D01*
X142100000Y-30890857D02*
X142242857Y-30938476D01*
X142671429Y-31890857D02*
X142671429Y-30890857D01*
X143100000Y-31843238D02*
X143242857Y-31890857D01*
X143242857Y-31890857D02*
X143480952Y-31890857D01*
X143480952Y-31890857D02*
X143576190Y-31843238D01*
X143576190Y-31843238D02*
X143623809Y-31795618D01*
X143623809Y-31795618D02*
X143671428Y-31700380D01*
X143671428Y-31700380D02*
X143671428Y-31605142D01*
X143671428Y-31605142D02*
X143623809Y-31509904D01*
X143623809Y-31509904D02*
X143576190Y-31462285D01*
X143576190Y-31462285D02*
X143480952Y-31414666D01*
X143480952Y-31414666D02*
X143290476Y-31367047D01*
X143290476Y-31367047D02*
X143195238Y-31319428D01*
X143195238Y-31319428D02*
X143147619Y-31271809D01*
X143147619Y-31271809D02*
X143100000Y-31176571D01*
X143100000Y-31176571D02*
X143100000Y-31081333D01*
X143100000Y-31081333D02*
X143147619Y-30986095D01*
X143147619Y-30986095D02*
X143195238Y-30938476D01*
X143195238Y-30938476D02*
X143290476Y-30890857D01*
X143290476Y-30890857D02*
X143528571Y-30890857D01*
X143528571Y-30890857D02*
X143671428Y-30938476D01*
X112480952Y-32690857D02*
X112480952Y-33500380D01*
X112480952Y-33500380D02*
X112528571Y-33595618D01*
X112528571Y-33595618D02*
X112576190Y-33643238D01*
X112576190Y-33643238D02*
X112671428Y-33690857D01*
X112671428Y-33690857D02*
X112861904Y-33690857D01*
X112861904Y-33690857D02*
X112957142Y-33643238D01*
X112957142Y-33643238D02*
X113004761Y-33595618D01*
X113004761Y-33595618D02*
X113052380Y-33500380D01*
X113052380Y-33500380D02*
X113052380Y-32690857D01*
X113528571Y-33690857D02*
X113528571Y-32690857D01*
X113528571Y-32690857D02*
X113909523Y-32690857D01*
X113909523Y-32690857D02*
X114004761Y-32738476D01*
X114004761Y-32738476D02*
X114052380Y-32786095D01*
X114052380Y-32786095D02*
X114099999Y-32881333D01*
X114099999Y-32881333D02*
X114099999Y-33024190D01*
X114099999Y-33024190D02*
X114052380Y-33119428D01*
X114052380Y-33119428D02*
X114004761Y-33167047D01*
X114004761Y-33167047D02*
X113909523Y-33214666D01*
X113909523Y-33214666D02*
X113528571Y-33214666D01*
X114480952Y-33643238D02*
X114623809Y-33690857D01*
X114623809Y-33690857D02*
X114861904Y-33690857D01*
X114861904Y-33690857D02*
X114957142Y-33643238D01*
X114957142Y-33643238D02*
X115004761Y-33595618D01*
X115004761Y-33595618D02*
X115052380Y-33500380D01*
X115052380Y-33500380D02*
X115052380Y-33405142D01*
X115052380Y-33405142D02*
X115004761Y-33309904D01*
X115004761Y-33309904D02*
X114957142Y-33262285D01*
X114957142Y-33262285D02*
X114861904Y-33214666D01*
X114861904Y-33214666D02*
X114671428Y-33167047D01*
X114671428Y-33167047D02*
X114576190Y-33119428D01*
X114576190Y-33119428D02*
X114528571Y-33071809D01*
X114528571Y-33071809D02*
X114480952Y-32976571D01*
X114480952Y-32976571D02*
X114480952Y-32881333D01*
X114480952Y-32881333D02*
X114528571Y-32786095D01*
X114528571Y-32786095D02*
X114576190Y-32738476D01*
X114576190Y-32738476D02*
X114671428Y-32690857D01*
X114671428Y-32690857D02*
X114909523Y-32690857D01*
X114909523Y-32690857D02*
X115052380Y-32738476D01*
X115338095Y-32690857D02*
X115909523Y-32690857D01*
X115623809Y-33690857D02*
X115623809Y-32690857D01*
X116814285Y-33690857D02*
X116480952Y-33214666D01*
X116242857Y-33690857D02*
X116242857Y-32690857D01*
X116242857Y-32690857D02*
X116623809Y-32690857D01*
X116623809Y-32690857D02*
X116719047Y-32738476D01*
X116719047Y-32738476D02*
X116766666Y-32786095D01*
X116766666Y-32786095D02*
X116814285Y-32881333D01*
X116814285Y-32881333D02*
X116814285Y-33024190D01*
X116814285Y-33024190D02*
X116766666Y-33119428D01*
X116766666Y-33119428D02*
X116719047Y-33167047D01*
X116719047Y-33167047D02*
X116623809Y-33214666D01*
X116623809Y-33214666D02*
X116242857Y-33214666D01*
X117242857Y-33167047D02*
X117576190Y-33167047D01*
X117719047Y-33690857D02*
X117242857Y-33690857D01*
X117242857Y-33690857D02*
X117242857Y-32690857D01*
X117242857Y-32690857D02*
X117719047Y-32690857D01*
X118100000Y-33405142D02*
X118576190Y-33405142D01*
X118004762Y-33690857D02*
X118338095Y-32690857D01*
X118338095Y-32690857D02*
X118671428Y-33690857D01*
X119004762Y-33690857D02*
X119004762Y-32690857D01*
X119004762Y-32690857D02*
X119338095Y-33405142D01*
X119338095Y-33405142D02*
X119671428Y-32690857D01*
X119671428Y-32690857D02*
X119671428Y-33690857D01*
X120909524Y-33690857D02*
X120909524Y-32690857D01*
X120909524Y-32690857D02*
X121290476Y-32690857D01*
X121290476Y-32690857D02*
X121385714Y-32738476D01*
X121385714Y-32738476D02*
X121433333Y-32786095D01*
X121433333Y-32786095D02*
X121480952Y-32881333D01*
X121480952Y-32881333D02*
X121480952Y-33024190D01*
X121480952Y-33024190D02*
X121433333Y-33119428D01*
X121433333Y-33119428D02*
X121385714Y-33167047D01*
X121385714Y-33167047D02*
X121290476Y-33214666D01*
X121290476Y-33214666D02*
X120909524Y-33214666D01*
X121861905Y-33643238D02*
X122004762Y-33690857D01*
X122004762Y-33690857D02*
X122242857Y-33690857D01*
X122242857Y-33690857D02*
X122338095Y-33643238D01*
X122338095Y-33643238D02*
X122385714Y-33595618D01*
X122385714Y-33595618D02*
X122433333Y-33500380D01*
X122433333Y-33500380D02*
X122433333Y-33405142D01*
X122433333Y-33405142D02*
X122385714Y-33309904D01*
X122385714Y-33309904D02*
X122338095Y-33262285D01*
X122338095Y-33262285D02*
X122242857Y-33214666D01*
X122242857Y-33214666D02*
X122052381Y-33167047D01*
X122052381Y-33167047D02*
X121957143Y-33119428D01*
X121957143Y-33119428D02*
X121909524Y-33071809D01*
X121909524Y-33071809D02*
X121861905Y-32976571D01*
X121861905Y-32976571D02*
X121861905Y-32881333D01*
X121861905Y-32881333D02*
X121909524Y-32786095D01*
X121909524Y-32786095D02*
X121957143Y-32738476D01*
X121957143Y-32738476D02*
X122052381Y-32690857D01*
X122052381Y-32690857D02*
X122290476Y-32690857D01*
X122290476Y-32690857D02*
X122433333Y-32738476D01*
X122861905Y-32690857D02*
X122861905Y-33500380D01*
X122861905Y-33500380D02*
X122909524Y-33595618D01*
X122909524Y-33595618D02*
X122957143Y-33643238D01*
X122957143Y-33643238D02*
X123052381Y-33690857D01*
X123052381Y-33690857D02*
X123242857Y-33690857D01*
X123242857Y-33690857D02*
X123338095Y-33643238D01*
X123338095Y-33643238D02*
X123385714Y-33595618D01*
X123385714Y-33595618D02*
X123433333Y-33500380D01*
X123433333Y-33500380D02*
X123433333Y-32690857D01*
X125242857Y-33595618D02*
X125195238Y-33643238D01*
X125195238Y-33643238D02*
X125052381Y-33690857D01*
X125052381Y-33690857D02*
X124957143Y-33690857D01*
X124957143Y-33690857D02*
X124814286Y-33643238D01*
X124814286Y-33643238D02*
X124719048Y-33547999D01*
X124719048Y-33547999D02*
X124671429Y-33452761D01*
X124671429Y-33452761D02*
X124623810Y-33262285D01*
X124623810Y-33262285D02*
X124623810Y-33119428D01*
X124623810Y-33119428D02*
X124671429Y-32928952D01*
X124671429Y-32928952D02*
X124719048Y-32833714D01*
X124719048Y-32833714D02*
X124814286Y-32738476D01*
X124814286Y-32738476D02*
X124957143Y-32690857D01*
X124957143Y-32690857D02*
X125052381Y-32690857D01*
X125052381Y-32690857D02*
X125195238Y-32738476D01*
X125195238Y-32738476D02*
X125242857Y-32786095D01*
X125623810Y-33405142D02*
X126100000Y-33405142D01*
X125528572Y-33690857D02*
X125861905Y-32690857D01*
X125861905Y-32690857D02*
X126195238Y-33690857D01*
X126861905Y-33167047D02*
X127004762Y-33214666D01*
X127004762Y-33214666D02*
X127052381Y-33262285D01*
X127052381Y-33262285D02*
X127100000Y-33357523D01*
X127100000Y-33357523D02*
X127100000Y-33500380D01*
X127100000Y-33500380D02*
X127052381Y-33595618D01*
X127052381Y-33595618D02*
X127004762Y-33643238D01*
X127004762Y-33643238D02*
X126909524Y-33690857D01*
X126909524Y-33690857D02*
X126528572Y-33690857D01*
X126528572Y-33690857D02*
X126528572Y-32690857D01*
X126528572Y-32690857D02*
X126861905Y-32690857D01*
X126861905Y-32690857D02*
X126957143Y-32738476D01*
X126957143Y-32738476D02*
X127004762Y-32786095D01*
X127004762Y-32786095D02*
X127052381Y-32881333D01*
X127052381Y-32881333D02*
X127052381Y-32976571D01*
X127052381Y-32976571D02*
X127004762Y-33071809D01*
X127004762Y-33071809D02*
X126957143Y-33119428D01*
X126957143Y-33119428D02*
X126861905Y-33167047D01*
X126861905Y-33167047D02*
X126528572Y-33167047D01*
X128004762Y-33690857D02*
X127528572Y-33690857D01*
X127528572Y-33690857D02*
X127528572Y-32690857D01*
X128338096Y-33167047D02*
X128671429Y-33167047D01*
X128814286Y-33690857D02*
X128338096Y-33690857D01*
X128338096Y-33690857D02*
X128338096Y-32690857D01*
X128338096Y-32690857D02*
X128814286Y-32690857D01*
X130004763Y-33690857D02*
X130004763Y-32690857D01*
X130004763Y-32690857D02*
X130385715Y-32690857D01*
X130385715Y-32690857D02*
X130480953Y-32738476D01*
X130480953Y-32738476D02*
X130528572Y-32786095D01*
X130528572Y-32786095D02*
X130576191Y-32881333D01*
X130576191Y-32881333D02*
X130576191Y-33024190D01*
X130576191Y-33024190D02*
X130528572Y-33119428D01*
X130528572Y-33119428D02*
X130480953Y-33167047D01*
X130480953Y-33167047D02*
X130385715Y-33214666D01*
X130385715Y-33214666D02*
X130004763Y-33214666D01*
X131576191Y-33690857D02*
X131242858Y-33214666D01*
X131004763Y-33690857D02*
X131004763Y-32690857D01*
X131004763Y-32690857D02*
X131385715Y-32690857D01*
X131385715Y-32690857D02*
X131480953Y-32738476D01*
X131480953Y-32738476D02*
X131528572Y-32786095D01*
X131528572Y-32786095D02*
X131576191Y-32881333D01*
X131576191Y-32881333D02*
X131576191Y-33024190D01*
X131576191Y-33024190D02*
X131528572Y-33119428D01*
X131528572Y-33119428D02*
X131480953Y-33167047D01*
X131480953Y-33167047D02*
X131385715Y-33214666D01*
X131385715Y-33214666D02*
X131004763Y-33214666D01*
X132195239Y-32690857D02*
X132385715Y-32690857D01*
X132385715Y-32690857D02*
X132480953Y-32738476D01*
X132480953Y-32738476D02*
X132576191Y-32833714D01*
X132576191Y-32833714D02*
X132623810Y-33024190D01*
X132623810Y-33024190D02*
X132623810Y-33357523D01*
X132623810Y-33357523D02*
X132576191Y-33547999D01*
X132576191Y-33547999D02*
X132480953Y-33643238D01*
X132480953Y-33643238D02*
X132385715Y-33690857D01*
X132385715Y-33690857D02*
X132195239Y-33690857D01*
X132195239Y-33690857D02*
X132100001Y-33643238D01*
X132100001Y-33643238D02*
X132004763Y-33547999D01*
X132004763Y-33547999D02*
X131957144Y-33357523D01*
X131957144Y-33357523D02*
X131957144Y-33024190D01*
X131957144Y-33024190D02*
X132004763Y-32833714D01*
X132004763Y-32833714D02*
X132100001Y-32738476D01*
X132100001Y-32738476D02*
X132195239Y-32690857D01*
X132909525Y-32690857D02*
X133480953Y-32690857D01*
X133195239Y-33690857D02*
X133195239Y-32690857D01*
X133814287Y-33167047D02*
X134147620Y-33167047D01*
X134290477Y-33690857D02*
X133814287Y-33690857D01*
X133814287Y-33690857D02*
X133814287Y-32690857D01*
X133814287Y-32690857D02*
X134290477Y-32690857D01*
X135290477Y-33595618D02*
X135242858Y-33643238D01*
X135242858Y-33643238D02*
X135100001Y-33690857D01*
X135100001Y-33690857D02*
X135004763Y-33690857D01*
X135004763Y-33690857D02*
X134861906Y-33643238D01*
X134861906Y-33643238D02*
X134766668Y-33547999D01*
X134766668Y-33547999D02*
X134719049Y-33452761D01*
X134719049Y-33452761D02*
X134671430Y-33262285D01*
X134671430Y-33262285D02*
X134671430Y-33119428D01*
X134671430Y-33119428D02*
X134719049Y-32928952D01*
X134719049Y-32928952D02*
X134766668Y-32833714D01*
X134766668Y-32833714D02*
X134861906Y-32738476D01*
X134861906Y-32738476D02*
X135004763Y-32690857D01*
X135004763Y-32690857D02*
X135100001Y-32690857D01*
X135100001Y-32690857D02*
X135242858Y-32738476D01*
X135242858Y-32738476D02*
X135290477Y-32786095D01*
X135576192Y-32690857D02*
X136147620Y-32690857D01*
X135861906Y-33690857D02*
X135861906Y-32690857D01*
X136480954Y-33690857D02*
X136480954Y-32690857D01*
X137147620Y-32690857D02*
X137338096Y-32690857D01*
X137338096Y-32690857D02*
X137433334Y-32738476D01*
X137433334Y-32738476D02*
X137528572Y-32833714D01*
X137528572Y-32833714D02*
X137576191Y-33024190D01*
X137576191Y-33024190D02*
X137576191Y-33357523D01*
X137576191Y-33357523D02*
X137528572Y-33547999D01*
X137528572Y-33547999D02*
X137433334Y-33643238D01*
X137433334Y-33643238D02*
X137338096Y-33690857D01*
X137338096Y-33690857D02*
X137147620Y-33690857D01*
X137147620Y-33690857D02*
X137052382Y-33643238D01*
X137052382Y-33643238D02*
X136957144Y-33547999D01*
X136957144Y-33547999D02*
X136909525Y-33357523D01*
X136909525Y-33357523D02*
X136909525Y-33024190D01*
X136909525Y-33024190D02*
X136957144Y-32833714D01*
X136957144Y-32833714D02*
X137052382Y-32738476D01*
X137052382Y-32738476D02*
X137147620Y-32690857D01*
X138004763Y-33690857D02*
X138004763Y-32690857D01*
X138004763Y-32690857D02*
X138576191Y-33690857D01*
X138576191Y-33690857D02*
X138576191Y-32690857D01*
X140385715Y-33690857D02*
X140052382Y-33214666D01*
X139814287Y-33690857D02*
X139814287Y-32690857D01*
X139814287Y-32690857D02*
X140195239Y-32690857D01*
X140195239Y-32690857D02*
X140290477Y-32738476D01*
X140290477Y-32738476D02*
X140338096Y-32786095D01*
X140338096Y-32786095D02*
X140385715Y-32881333D01*
X140385715Y-32881333D02*
X140385715Y-33024190D01*
X140385715Y-33024190D02*
X140338096Y-33119428D01*
X140338096Y-33119428D02*
X140290477Y-33167047D01*
X140290477Y-33167047D02*
X140195239Y-33214666D01*
X140195239Y-33214666D02*
X139814287Y-33214666D01*
X140814287Y-33167047D02*
X141147620Y-33167047D01*
X141290477Y-33690857D02*
X140814287Y-33690857D01*
X140814287Y-33690857D02*
X140814287Y-32690857D01*
X140814287Y-32690857D02*
X141290477Y-32690857D01*
X142385715Y-33786095D02*
X142290477Y-33738476D01*
X142290477Y-33738476D02*
X142195239Y-33643238D01*
X142195239Y-33643238D02*
X142052382Y-33500380D01*
X142052382Y-33500380D02*
X141957144Y-33452761D01*
X141957144Y-33452761D02*
X141861906Y-33452761D01*
X141909525Y-33690857D02*
X141814287Y-33643238D01*
X141814287Y-33643238D02*
X141719049Y-33547999D01*
X141719049Y-33547999D02*
X141671430Y-33357523D01*
X141671430Y-33357523D02*
X141671430Y-33024190D01*
X141671430Y-33024190D02*
X141719049Y-32833714D01*
X141719049Y-32833714D02*
X141814287Y-32738476D01*
X141814287Y-32738476D02*
X141909525Y-32690857D01*
X141909525Y-32690857D02*
X142100001Y-32690857D01*
X142100001Y-32690857D02*
X142195239Y-32738476D01*
X142195239Y-32738476D02*
X142290477Y-32833714D01*
X142290477Y-32833714D02*
X142338096Y-33024190D01*
X142338096Y-33024190D02*
X142338096Y-33357523D01*
X142338096Y-33357523D02*
X142290477Y-33547999D01*
X142290477Y-33547999D02*
X142195239Y-33643238D01*
X142195239Y-33643238D02*
X142100001Y-33690857D01*
X142100001Y-33690857D02*
X141909525Y-33690857D01*
X142766668Y-32690857D02*
X142766668Y-33500380D01*
X142766668Y-33500380D02*
X142814287Y-33595618D01*
X142814287Y-33595618D02*
X142861906Y-33643238D01*
X142861906Y-33643238D02*
X142957144Y-33690857D01*
X142957144Y-33690857D02*
X143147620Y-33690857D01*
X143147620Y-33690857D02*
X143242858Y-33643238D01*
X143242858Y-33643238D02*
X143290477Y-33595618D01*
X143290477Y-33595618D02*
X143338096Y-33500380D01*
X143338096Y-33500380D02*
X143338096Y-32690857D01*
X143814287Y-33690857D02*
X143814287Y-32690857D01*
X144861905Y-33690857D02*
X144528572Y-33214666D01*
X144290477Y-33690857D02*
X144290477Y-32690857D01*
X144290477Y-32690857D02*
X144671429Y-32690857D01*
X144671429Y-32690857D02*
X144766667Y-32738476D01*
X144766667Y-32738476D02*
X144814286Y-32786095D01*
X144814286Y-32786095D02*
X144861905Y-32881333D01*
X144861905Y-32881333D02*
X144861905Y-33024190D01*
X144861905Y-33024190D02*
X144814286Y-33119428D01*
X144814286Y-33119428D02*
X144766667Y-33167047D01*
X144766667Y-33167047D02*
X144671429Y-33214666D01*
X144671429Y-33214666D02*
X144290477Y-33214666D01*
X145290477Y-33167047D02*
X145623810Y-33167047D01*
X145766667Y-33690857D02*
X145290477Y-33690857D01*
X145290477Y-33690857D02*
X145290477Y-32690857D01*
X145290477Y-32690857D02*
X145766667Y-32690857D01*
X146195239Y-33690857D02*
X146195239Y-32690857D01*
X146195239Y-32690857D02*
X146433334Y-32690857D01*
X146433334Y-32690857D02*
X146576191Y-32738476D01*
X146576191Y-32738476D02*
X146671429Y-32833714D01*
X146671429Y-32833714D02*
X146719048Y-32928952D01*
X146719048Y-32928952D02*
X146766667Y-33119428D01*
X146766667Y-33119428D02*
X146766667Y-33262285D01*
X146766667Y-33262285D02*
X146719048Y-33452761D01*
X146719048Y-33452761D02*
X146671429Y-33547999D01*
X146671429Y-33547999D02*
X146576191Y-33643238D01*
X146576191Y-33643238D02*
X146433334Y-33690857D01*
X146433334Y-33690857D02*
X146195239Y-33690857D01*
X113123807Y-35190857D02*
X112552379Y-35190857D01*
X112838093Y-35190857D02*
X112838093Y-34190857D01*
X112838093Y-34190857D02*
X112742855Y-34333714D01*
X112742855Y-34333714D02*
X112647617Y-34428952D01*
X112647617Y-34428952D02*
X112552379Y-34476571D01*
X113504760Y-34286095D02*
X113552379Y-34238476D01*
X113552379Y-34238476D02*
X113647617Y-34190857D01*
X113647617Y-34190857D02*
X113885712Y-34190857D01*
X113885712Y-34190857D02*
X113980950Y-34238476D01*
X113980950Y-34238476D02*
X114028569Y-34286095D01*
X114028569Y-34286095D02*
X114076188Y-34381333D01*
X114076188Y-34381333D02*
X114076188Y-34476571D01*
X114076188Y-34476571D02*
X114028569Y-34619428D01*
X114028569Y-34619428D02*
X113457141Y-35190857D01*
X113457141Y-35190857D02*
X114076188Y-35190857D01*
X114361903Y-34190857D02*
X114695236Y-35190857D01*
X114695236Y-35190857D02*
X115028569Y-34190857D01*
X116314284Y-34190857D02*
X116504760Y-34190857D01*
X116504760Y-34190857D02*
X116599998Y-34238476D01*
X116599998Y-34238476D02*
X116695236Y-34333714D01*
X116695236Y-34333714D02*
X116742855Y-34524190D01*
X116742855Y-34524190D02*
X116742855Y-34857523D01*
X116742855Y-34857523D02*
X116695236Y-35047999D01*
X116695236Y-35047999D02*
X116599998Y-35143238D01*
X116599998Y-35143238D02*
X116504760Y-35190857D01*
X116504760Y-35190857D02*
X116314284Y-35190857D01*
X116314284Y-35190857D02*
X116219046Y-35143238D01*
X116219046Y-35143238D02*
X116123808Y-35047999D01*
X116123808Y-35047999D02*
X116076189Y-34857523D01*
X116076189Y-34857523D02*
X116076189Y-34524190D01*
X116076189Y-34524190D02*
X116123808Y-34333714D01*
X116123808Y-34333714D02*
X116219046Y-34238476D01*
X116219046Y-34238476D02*
X116314284Y-34190857D01*
X117171427Y-35190857D02*
X117171427Y-34190857D01*
X117171427Y-34190857D02*
X117742855Y-35190857D01*
X117742855Y-35190857D02*
X117742855Y-34190857D01*
X118695236Y-35190857D02*
X118219046Y-35190857D01*
X118219046Y-35190857D02*
X118219046Y-34190857D01*
X119219046Y-34714666D02*
X119219046Y-35190857D01*
X118885713Y-34190857D02*
X119219046Y-34714666D01*
X119219046Y-34714666D02*
X119552379Y-34190857D01*
X121647618Y-35524190D02*
X121647618Y-34095618D01*
X124219047Y-34667047D02*
X123885714Y-34667047D01*
X123885714Y-35190857D02*
X123885714Y-34190857D01*
X123885714Y-34190857D02*
X124361904Y-34190857D01*
X124742857Y-34190857D02*
X124742857Y-35000380D01*
X124742857Y-35000380D02*
X124790476Y-35095618D01*
X124790476Y-35095618D02*
X124838095Y-35143238D01*
X124838095Y-35143238D02*
X124933333Y-35190857D01*
X124933333Y-35190857D02*
X125123809Y-35190857D01*
X125123809Y-35190857D02*
X125219047Y-35143238D01*
X125219047Y-35143238D02*
X125266666Y-35095618D01*
X125266666Y-35095618D02*
X125314285Y-35000380D01*
X125314285Y-35000380D02*
X125314285Y-34190857D01*
X125742857Y-35143238D02*
X125885714Y-35190857D01*
X125885714Y-35190857D02*
X126123809Y-35190857D01*
X126123809Y-35190857D02*
X126219047Y-35143238D01*
X126219047Y-35143238D02*
X126266666Y-35095618D01*
X126266666Y-35095618D02*
X126314285Y-35000380D01*
X126314285Y-35000380D02*
X126314285Y-34905142D01*
X126314285Y-34905142D02*
X126266666Y-34809904D01*
X126266666Y-34809904D02*
X126219047Y-34762285D01*
X126219047Y-34762285D02*
X126123809Y-34714666D01*
X126123809Y-34714666D02*
X125933333Y-34667047D01*
X125933333Y-34667047D02*
X125838095Y-34619428D01*
X125838095Y-34619428D02*
X125790476Y-34571809D01*
X125790476Y-34571809D02*
X125742857Y-34476571D01*
X125742857Y-34476571D02*
X125742857Y-34381333D01*
X125742857Y-34381333D02*
X125790476Y-34286095D01*
X125790476Y-34286095D02*
X125838095Y-34238476D01*
X125838095Y-34238476D02*
X125933333Y-34190857D01*
X125933333Y-34190857D02*
X126171428Y-34190857D01*
X126171428Y-34190857D02*
X126314285Y-34238476D01*
X126742857Y-34667047D02*
X127076190Y-34667047D01*
X127219047Y-35190857D02*
X126742857Y-35190857D01*
X126742857Y-35190857D02*
X126742857Y-34190857D01*
X126742857Y-34190857D02*
X127219047Y-34190857D01*
X127600000Y-35143238D02*
X127742857Y-35190857D01*
X127742857Y-35190857D02*
X127980952Y-35190857D01*
X127980952Y-35190857D02*
X128076190Y-35143238D01*
X128076190Y-35143238D02*
X128123809Y-35095618D01*
X128123809Y-35095618D02*
X128171428Y-35000380D01*
X128171428Y-35000380D02*
X128171428Y-34905142D01*
X128171428Y-34905142D02*
X128123809Y-34809904D01*
X128123809Y-34809904D02*
X128076190Y-34762285D01*
X128076190Y-34762285D02*
X127980952Y-34714666D01*
X127980952Y-34714666D02*
X127790476Y-34667047D01*
X127790476Y-34667047D02*
X127695238Y-34619428D01*
X127695238Y-34619428D02*
X127647619Y-34571809D01*
X127647619Y-34571809D02*
X127600000Y-34476571D01*
X127600000Y-34476571D02*
X127600000Y-34381333D01*
X127600000Y-34381333D02*
X127647619Y-34286095D01*
X127647619Y-34286095D02*
X127695238Y-34238476D01*
X127695238Y-34238476D02*
X127790476Y-34190857D01*
X127790476Y-34190857D02*
X128028571Y-34190857D01*
X128028571Y-34190857D02*
X128171428Y-34238476D01*
X129314286Y-34905142D02*
X129790476Y-34905142D01*
X129219048Y-35190857D02*
X129552381Y-34190857D01*
X129552381Y-34190857D02*
X129885714Y-35190857D01*
X130790476Y-35190857D02*
X130457143Y-34714666D01*
X130219048Y-35190857D02*
X130219048Y-34190857D01*
X130219048Y-34190857D02*
X130600000Y-34190857D01*
X130600000Y-34190857D02*
X130695238Y-34238476D01*
X130695238Y-34238476D02*
X130742857Y-34286095D01*
X130742857Y-34286095D02*
X130790476Y-34381333D01*
X130790476Y-34381333D02*
X130790476Y-34524190D01*
X130790476Y-34524190D02*
X130742857Y-34619428D01*
X130742857Y-34619428D02*
X130695238Y-34667047D01*
X130695238Y-34667047D02*
X130600000Y-34714666D01*
X130600000Y-34714666D02*
X130219048Y-34714666D01*
X131219048Y-34667047D02*
X131552381Y-34667047D01*
X131695238Y-35190857D02*
X131219048Y-35190857D01*
X131219048Y-35190857D02*
X131219048Y-34190857D01*
X131219048Y-34190857D02*
X131695238Y-34190857D01*
X132885715Y-35190857D02*
X132885715Y-34190857D01*
X132885715Y-34190857D02*
X133457143Y-35190857D01*
X133457143Y-35190857D02*
X133457143Y-34190857D01*
X134123810Y-34190857D02*
X134314286Y-34190857D01*
X134314286Y-34190857D02*
X134409524Y-34238476D01*
X134409524Y-34238476D02*
X134504762Y-34333714D01*
X134504762Y-34333714D02*
X134552381Y-34524190D01*
X134552381Y-34524190D02*
X134552381Y-34857523D01*
X134552381Y-34857523D02*
X134504762Y-35047999D01*
X134504762Y-35047999D02*
X134409524Y-35143238D01*
X134409524Y-35143238D02*
X134314286Y-35190857D01*
X134314286Y-35190857D02*
X134123810Y-35190857D01*
X134123810Y-35190857D02*
X134028572Y-35143238D01*
X134028572Y-35143238D02*
X133933334Y-35047999D01*
X133933334Y-35047999D02*
X133885715Y-34857523D01*
X133885715Y-34857523D02*
X133885715Y-34524190D01*
X133885715Y-34524190D02*
X133933334Y-34333714D01*
X133933334Y-34333714D02*
X134028572Y-34238476D01*
X134028572Y-34238476D02*
X134123810Y-34190857D01*
X134838096Y-34190857D02*
X135409524Y-34190857D01*
X135123810Y-35190857D02*
X135123810Y-34190857D01*
X136980953Y-35190857D02*
X136504763Y-35190857D01*
X136504763Y-35190857D02*
X136504763Y-34190857D01*
X137504763Y-34190857D02*
X137695239Y-34190857D01*
X137695239Y-34190857D02*
X137790477Y-34238476D01*
X137790477Y-34238476D02*
X137885715Y-34333714D01*
X137885715Y-34333714D02*
X137933334Y-34524190D01*
X137933334Y-34524190D02*
X137933334Y-34857523D01*
X137933334Y-34857523D02*
X137885715Y-35047999D01*
X137885715Y-35047999D02*
X137790477Y-35143238D01*
X137790477Y-35143238D02*
X137695239Y-35190857D01*
X137695239Y-35190857D02*
X137504763Y-35190857D01*
X137504763Y-35190857D02*
X137409525Y-35143238D01*
X137409525Y-35143238D02*
X137314287Y-35047999D01*
X137314287Y-35047999D02*
X137266668Y-34857523D01*
X137266668Y-34857523D02*
X137266668Y-34524190D01*
X137266668Y-34524190D02*
X137314287Y-34333714D01*
X137314287Y-34333714D02*
X137409525Y-34238476D01*
X137409525Y-34238476D02*
X137504763Y-34190857D01*
X138314287Y-34905142D02*
X138790477Y-34905142D01*
X138219049Y-35190857D02*
X138552382Y-34190857D01*
X138552382Y-34190857D02*
X138885715Y-35190857D01*
X139219049Y-35190857D02*
X139219049Y-34190857D01*
X139219049Y-34190857D02*
X139457144Y-34190857D01*
X139457144Y-34190857D02*
X139600001Y-34238476D01*
X139600001Y-34238476D02*
X139695239Y-34333714D01*
X139695239Y-34333714D02*
X139742858Y-34428952D01*
X139742858Y-34428952D02*
X139790477Y-34619428D01*
X139790477Y-34619428D02*
X139790477Y-34762285D01*
X139790477Y-34762285D02*
X139742858Y-34952761D01*
X139742858Y-34952761D02*
X139695239Y-35047999D01*
X139695239Y-35047999D02*
X139600001Y-35143238D01*
X139600001Y-35143238D02*
X139457144Y-35190857D01*
X139457144Y-35190857D02*
X139219049Y-35190857D01*
X141552382Y-35190857D02*
X141219049Y-34714666D01*
X140980954Y-35190857D02*
X140980954Y-34190857D01*
X140980954Y-34190857D02*
X141361906Y-34190857D01*
X141361906Y-34190857D02*
X141457144Y-34238476D01*
X141457144Y-34238476D02*
X141504763Y-34286095D01*
X141504763Y-34286095D02*
X141552382Y-34381333D01*
X141552382Y-34381333D02*
X141552382Y-34524190D01*
X141552382Y-34524190D02*
X141504763Y-34619428D01*
X141504763Y-34619428D02*
X141457144Y-34667047D01*
X141457144Y-34667047D02*
X141361906Y-34714666D01*
X141361906Y-34714666D02*
X140980954Y-34714666D01*
X141933335Y-34905142D02*
X142409525Y-34905142D01*
X141838097Y-35190857D02*
X142171430Y-34190857D01*
X142171430Y-34190857D02*
X142504763Y-35190857D01*
X142695240Y-34190857D02*
X143266668Y-34190857D01*
X142980954Y-35190857D02*
X142980954Y-34190857D01*
X143600002Y-35190857D02*
X143600002Y-34190857D01*
X144076192Y-35190857D02*
X144076192Y-34190857D01*
X144076192Y-34190857D02*
X144647620Y-35190857D01*
X144647620Y-35190857D02*
X144647620Y-34190857D01*
X145647620Y-34238476D02*
X145552382Y-34190857D01*
X145552382Y-34190857D02*
X145409525Y-34190857D01*
X145409525Y-34190857D02*
X145266668Y-34238476D01*
X145266668Y-34238476D02*
X145171430Y-34333714D01*
X145171430Y-34333714D02*
X145123811Y-34428952D01*
X145123811Y-34428952D02*
X145076192Y-34619428D01*
X145076192Y-34619428D02*
X145076192Y-34762285D01*
X145076192Y-34762285D02*
X145123811Y-34952761D01*
X145123811Y-34952761D02*
X145171430Y-35047999D01*
X145171430Y-35047999D02*
X145266668Y-35143238D01*
X145266668Y-35143238D02*
X145409525Y-35190857D01*
X145409525Y-35190857D02*
X145504763Y-35190857D01*
X145504763Y-35190857D02*
X145647620Y-35143238D01*
X145647620Y-35143238D02*
X145695239Y-35095618D01*
X145695239Y-35095618D02*
X145695239Y-34762285D01*
X145695239Y-34762285D02*
X145504763Y-34762285D01*
X146076192Y-35143238D02*
X146219049Y-35190857D01*
X146219049Y-35190857D02*
X146457144Y-35190857D01*
X146457144Y-35190857D02*
X146552382Y-35143238D01*
X146552382Y-35143238D02*
X146600001Y-35095618D01*
X146600001Y-35095618D02*
X146647620Y-35000380D01*
X146647620Y-35000380D02*
X146647620Y-34905142D01*
X146647620Y-34905142D02*
X146600001Y-34809904D01*
X146600001Y-34809904D02*
X146552382Y-34762285D01*
X146552382Y-34762285D02*
X146457144Y-34714666D01*
X146457144Y-34714666D02*
X146266668Y-34667047D01*
X146266668Y-34667047D02*
X146171430Y-34619428D01*
X146171430Y-34619428D02*
X146123811Y-34571809D01*
X146123811Y-34571809D02*
X146076192Y-34476571D01*
X146076192Y-34476571D02*
X146076192Y-34381333D01*
X146076192Y-34381333D02*
X146123811Y-34286095D01*
X146123811Y-34286095D02*
X146171430Y-34238476D01*
X146171430Y-34238476D02*
X146266668Y-34190857D01*
X146266668Y-34190857D02*
X146504763Y-34190857D01*
X146504763Y-34190857D02*
X146647620Y-34238476D01*
X135319048Y37240096D02*
X136080953Y37240096D01*
X135700000Y36859143D02*
X135700000Y37621048D01*
X135319048Y-14809904D02*
X136080953Y-14809904D01*
X135700000Y-15190857D02*
X135700000Y-14428952D01*
X139785714Y49382953D02*
X139452381Y49382953D01*
X139452381Y48859143D02*
X139452381Y49859143D01*
X139452381Y49859143D02*
X139928571Y49859143D01*
X140261905Y49763905D02*
X140309524Y49811524D01*
X140309524Y49811524D02*
X140404762Y49859143D01*
X140404762Y49859143D02*
X140642857Y49859143D01*
X140642857Y49859143D02*
X140738095Y49811524D01*
X140738095Y49811524D02*
X140785714Y49763905D01*
X140785714Y49763905D02*
X140833333Y49668667D01*
X140833333Y49668667D02*
X140833333Y49573429D01*
X140833333Y49573429D02*
X140785714Y49430572D01*
X140785714Y49430572D02*
X140214286Y48859143D01*
X140214286Y48859143D02*
X140833333Y48859143D01*
X142690477Y49859143D02*
X143357143Y49859143D01*
X143357143Y49859143D02*
X142928572Y48859143D01*
X143738096Y48954382D02*
X143785715Y48906762D01*
X143785715Y48906762D02*
X143738096Y48859143D01*
X143738096Y48859143D02*
X143690477Y48906762D01*
X143690477Y48906762D02*
X143738096Y48954382D01*
X143738096Y48954382D02*
X143738096Y48859143D01*
X144690476Y49859143D02*
X144214286Y49859143D01*
X144214286Y49859143D02*
X144166667Y49382953D01*
X144166667Y49382953D02*
X144214286Y49430572D01*
X144214286Y49430572D02*
X144309524Y49478191D01*
X144309524Y49478191D02*
X144547619Y49478191D01*
X144547619Y49478191D02*
X144642857Y49430572D01*
X144642857Y49430572D02*
X144690476Y49382953D01*
X144690476Y49382953D02*
X144738095Y49287715D01*
X144738095Y49287715D02*
X144738095Y49049620D01*
X144738095Y49049620D02*
X144690476Y48954382D01*
X144690476Y48954382D02*
X144642857Y48906762D01*
X144642857Y48906762D02*
X144547619Y48859143D01*
X144547619Y48859143D02*
X144309524Y48859143D01*
X144309524Y48859143D02*
X144214286Y48906762D01*
X144214286Y48906762D02*
X144166667Y48954382D01*
X145119048Y49144858D02*
X145595238Y49144858D01*
X145023810Y48859143D02*
X145357143Y49859143D01*
X145357143Y49859143D02*
X145690476Y48859143D01*
X139452380Y30959143D02*
X139452380Y30244858D01*
X139452380Y30244858D02*
X139404761Y30102001D01*
X139404761Y30102001D02*
X139309523Y30006762D01*
X139309523Y30006762D02*
X139166666Y29959143D01*
X139166666Y29959143D02*
X139071428Y29959143D01*
X139833333Y30959143D02*
X140452380Y30959143D01*
X140452380Y30959143D02*
X140119047Y30578191D01*
X140119047Y30578191D02*
X140261904Y30578191D01*
X140261904Y30578191D02*
X140357142Y30530572D01*
X140357142Y30530572D02*
X140404761Y30482953D01*
X140404761Y30482953D02*
X140452380Y30387715D01*
X140452380Y30387715D02*
X140452380Y30149620D01*
X140452380Y30149620D02*
X140404761Y30054382D01*
X140404761Y30054382D02*
X140357142Y30006762D01*
X140357142Y30006762D02*
X140261904Y29959143D01*
X140261904Y29959143D02*
X139976190Y29959143D01*
X139976190Y29959143D02*
X139880952Y30006762D01*
X139880952Y30006762D02*
X139833333Y30054382D01*
X142928571Y30911524D02*
X142833333Y30959143D01*
X142833333Y30959143D02*
X142690476Y30959143D01*
X142690476Y30959143D02*
X142547619Y30911524D01*
X142547619Y30911524D02*
X142452381Y30816286D01*
X142452381Y30816286D02*
X142404762Y30721048D01*
X142404762Y30721048D02*
X142357143Y30530572D01*
X142357143Y30530572D02*
X142357143Y30387715D01*
X142357143Y30387715D02*
X142404762Y30197239D01*
X142404762Y30197239D02*
X142452381Y30102001D01*
X142452381Y30102001D02*
X142547619Y30006762D01*
X142547619Y30006762D02*
X142690476Y29959143D01*
X142690476Y29959143D02*
X142785714Y29959143D01*
X142785714Y29959143D02*
X142928571Y30006762D01*
X142928571Y30006762D02*
X142976190Y30054382D01*
X142976190Y30054382D02*
X142976190Y30387715D01*
X142976190Y30387715D02*
X142785714Y30387715D01*
X143404762Y29959143D02*
X143404762Y30959143D01*
X143404762Y30959143D02*
X143738095Y30244858D01*
X143738095Y30244858D02*
X144071428Y30959143D01*
X144071428Y30959143D02*
X144071428Y29959143D01*
X144500000Y30006762D02*
X144642857Y29959143D01*
X144642857Y29959143D02*
X144880952Y29959143D01*
X144880952Y29959143D02*
X144976190Y30006762D01*
X144976190Y30006762D02*
X145023809Y30054382D01*
X145023809Y30054382D02*
X145071428Y30149620D01*
X145071428Y30149620D02*
X145071428Y30244858D01*
X145071428Y30244858D02*
X145023809Y30340096D01*
X145023809Y30340096D02*
X144976190Y30387715D01*
X144976190Y30387715D02*
X144880952Y30435334D01*
X144880952Y30435334D02*
X144690476Y30482953D01*
X144690476Y30482953D02*
X144595238Y30530572D01*
X144595238Y30530572D02*
X144547619Y30578191D01*
X144547619Y30578191D02*
X144500000Y30673429D01*
X144500000Y30673429D02*
X144500000Y30768667D01*
X144500000Y30768667D02*
X144547619Y30863905D01*
X144547619Y30863905D02*
X144595238Y30911524D01*
X144595238Y30911524D02*
X144690476Y30959143D01*
X144690476Y30959143D02*
X144928571Y30959143D01*
X144928571Y30959143D02*
X145071428Y30911524D01*
X145976190Y29959143D02*
X145500000Y29959143D01*
X145500000Y29959143D02*
X145500000Y30959143D01*
X140499999Y-2667047D02*
X140166666Y-2667047D01*
X140166666Y-3190857D02*
X140166666Y-2190857D01*
X140166666Y-2190857D02*
X140642856Y-2190857D01*
X141452380Y-2524190D02*
X141452380Y-3190857D01*
X141214285Y-2143238D02*
X140976190Y-2857523D01*
X140976190Y-2857523D02*
X141595237Y-2857523D01*
X143976190Y-2190857D02*
X143500000Y-2190857D01*
X143500000Y-2190857D02*
X143452381Y-2667047D01*
X143452381Y-2667047D02*
X143500000Y-2619428D01*
X143500000Y-2619428D02*
X143595238Y-2571809D01*
X143595238Y-2571809D02*
X143833333Y-2571809D01*
X143833333Y-2571809D02*
X143928571Y-2619428D01*
X143928571Y-2619428D02*
X143976190Y-2667047D01*
X143976190Y-2667047D02*
X144023809Y-2762285D01*
X144023809Y-2762285D02*
X144023809Y-3000380D01*
X144023809Y-3000380D02*
X143976190Y-3095618D01*
X143976190Y-3095618D02*
X143928571Y-3143238D01*
X143928571Y-3143238D02*
X143833333Y-3190857D01*
X143833333Y-3190857D02*
X143595238Y-3190857D01*
X143595238Y-3190857D02*
X143500000Y-3143238D01*
X143500000Y-3143238D02*
X143452381Y-3095618D01*
X144404762Y-2905142D02*
X144880952Y-2905142D01*
X144309524Y-3190857D02*
X144642857Y-2190857D01*
X144642857Y-2190857D02*
X144976190Y-3190857D01*
X137071428Y-21090857D02*
X137071428Y-21805142D01*
X137071428Y-21805142D02*
X137023809Y-21947999D01*
X137023809Y-21947999D02*
X136928571Y-22043238D01*
X136928571Y-22043238D02*
X136785714Y-22090857D01*
X136785714Y-22090857D02*
X136690476Y-22090857D01*
X138023809Y-21090857D02*
X137547619Y-21090857D01*
X137547619Y-21090857D02*
X137500000Y-21567047D01*
X137500000Y-21567047D02*
X137547619Y-21519428D01*
X137547619Y-21519428D02*
X137642857Y-21471809D01*
X137642857Y-21471809D02*
X137880952Y-21471809D01*
X137880952Y-21471809D02*
X137976190Y-21519428D01*
X137976190Y-21519428D02*
X138023809Y-21567047D01*
X138023809Y-21567047D02*
X138071428Y-21662285D01*
X138071428Y-21662285D02*
X138071428Y-21900380D01*
X138071428Y-21900380D02*
X138023809Y-21995618D01*
X138023809Y-21995618D02*
X137976190Y-22043238D01*
X137976190Y-22043238D02*
X137880952Y-22090857D01*
X137880952Y-22090857D02*
X137642857Y-22090857D01*
X137642857Y-22090857D02*
X137547619Y-22043238D01*
X137547619Y-22043238D02*
X137500000Y-21995618D01*
X140023810Y-21090857D02*
X140023810Y-21900380D01*
X140023810Y-21900380D02*
X140071429Y-21995618D01*
X140071429Y-21995618D02*
X140119048Y-22043238D01*
X140119048Y-22043238D02*
X140214286Y-22090857D01*
X140214286Y-22090857D02*
X140404762Y-22090857D01*
X140404762Y-22090857D02*
X140500000Y-22043238D01*
X140500000Y-22043238D02*
X140547619Y-21995618D01*
X140547619Y-21995618D02*
X140595238Y-21900380D01*
X140595238Y-21900380D02*
X140595238Y-21090857D01*
X141023810Y-22043238D02*
X141166667Y-22090857D01*
X141166667Y-22090857D02*
X141404762Y-22090857D01*
X141404762Y-22090857D02*
X141500000Y-22043238D01*
X141500000Y-22043238D02*
X141547619Y-21995618D01*
X141547619Y-21995618D02*
X141595238Y-21900380D01*
X141595238Y-21900380D02*
X141595238Y-21805142D01*
X141595238Y-21805142D02*
X141547619Y-21709904D01*
X141547619Y-21709904D02*
X141500000Y-21662285D01*
X141500000Y-21662285D02*
X141404762Y-21614666D01*
X141404762Y-21614666D02*
X141214286Y-21567047D01*
X141214286Y-21567047D02*
X141119048Y-21519428D01*
X141119048Y-21519428D02*
X141071429Y-21471809D01*
X141071429Y-21471809D02*
X141023810Y-21376571D01*
X141023810Y-21376571D02*
X141023810Y-21281333D01*
X141023810Y-21281333D02*
X141071429Y-21186095D01*
X141071429Y-21186095D02*
X141119048Y-21138476D01*
X141119048Y-21138476D02*
X141214286Y-21090857D01*
X141214286Y-21090857D02*
X141452381Y-21090857D01*
X141452381Y-21090857D02*
X141595238Y-21138476D01*
X142357143Y-21567047D02*
X142500000Y-21614666D01*
X142500000Y-21614666D02*
X142547619Y-21662285D01*
X142547619Y-21662285D02*
X142595238Y-21757523D01*
X142595238Y-21757523D02*
X142595238Y-21900380D01*
X142595238Y-21900380D02*
X142547619Y-21995618D01*
X142547619Y-21995618D02*
X142500000Y-22043238D01*
X142500000Y-22043238D02*
X142404762Y-22090857D01*
X142404762Y-22090857D02*
X142023810Y-22090857D01*
X142023810Y-22090857D02*
X142023810Y-21090857D01*
X142023810Y-21090857D02*
X142357143Y-21090857D01*
X142357143Y-21090857D02*
X142452381Y-21138476D01*
X142452381Y-21138476D02*
X142500000Y-21186095D01*
X142500000Y-21186095D02*
X142547619Y-21281333D01*
X142547619Y-21281333D02*
X142547619Y-21376571D01*
X142547619Y-21376571D02*
X142500000Y-21471809D01*
X142500000Y-21471809D02*
X142452381Y-21519428D01*
X142452381Y-21519428D02*
X142357143Y-21567047D01*
X142357143Y-21567047D02*
X142023810Y-21567047D01*
X144119048Y-21567047D02*
X144261905Y-21614666D01*
X144261905Y-21614666D02*
X144309524Y-21662285D01*
X144309524Y-21662285D02*
X144357143Y-21757523D01*
X144357143Y-21757523D02*
X144357143Y-21900380D01*
X144357143Y-21900380D02*
X144309524Y-21995618D01*
X144309524Y-21995618D02*
X144261905Y-22043238D01*
X144261905Y-22043238D02*
X144166667Y-22090857D01*
X144166667Y-22090857D02*
X143785715Y-22090857D01*
X143785715Y-22090857D02*
X143785715Y-21090857D01*
X143785715Y-21090857D02*
X144119048Y-21090857D01*
X144119048Y-21090857D02*
X144214286Y-21138476D01*
X144214286Y-21138476D02*
X144261905Y-21186095D01*
X144261905Y-21186095D02*
X144309524Y-21281333D01*
X144309524Y-21281333D02*
X144309524Y-21376571D01*
X144309524Y-21376571D02*
X144261905Y-21471809D01*
X144261905Y-21471809D02*
X144214286Y-21519428D01*
X144214286Y-21519428D02*
X144119048Y-21567047D01*
X144119048Y-21567047D02*
X143785715Y-21567047D01*
X144976191Y-21090857D02*
X145166667Y-21090857D01*
X145166667Y-21090857D02*
X145261905Y-21138476D01*
X145261905Y-21138476D02*
X145357143Y-21233714D01*
X145357143Y-21233714D02*
X145404762Y-21424190D01*
X145404762Y-21424190D02*
X145404762Y-21757523D01*
X145404762Y-21757523D02*
X145357143Y-21947999D01*
X145357143Y-21947999D02*
X145261905Y-22043238D01*
X145261905Y-22043238D02*
X145166667Y-22090857D01*
X145166667Y-22090857D02*
X144976191Y-22090857D01*
X144976191Y-22090857D02*
X144880953Y-22043238D01*
X144880953Y-22043238D02*
X144785715Y-21947999D01*
X144785715Y-21947999D02*
X144738096Y-21757523D01*
X144738096Y-21757523D02*
X144738096Y-21424190D01*
X144738096Y-21424190D02*
X144785715Y-21233714D01*
X144785715Y-21233714D02*
X144880953Y-21138476D01*
X144880953Y-21138476D02*
X144976191Y-21090857D01*
X145785715Y-21805142D02*
X146261905Y-21805142D01*
X145690477Y-22090857D02*
X146023810Y-21090857D01*
X146023810Y-21090857D02*
X146357143Y-22090857D01*
X147261905Y-22090857D02*
X146928572Y-21614666D01*
X146690477Y-22090857D02*
X146690477Y-21090857D01*
X146690477Y-21090857D02*
X147071429Y-21090857D01*
X147071429Y-21090857D02*
X147166667Y-21138476D01*
X147166667Y-21138476D02*
X147214286Y-21186095D01*
X147214286Y-21186095D02*
X147261905Y-21281333D01*
X147261905Y-21281333D02*
X147261905Y-21424190D01*
X147261905Y-21424190D02*
X147214286Y-21519428D01*
X147214286Y-21519428D02*
X147166667Y-21567047D01*
X147166667Y-21567047D02*
X147071429Y-21614666D01*
X147071429Y-21614666D02*
X146690477Y-21614666D01*
X147690477Y-22090857D02*
X147690477Y-21090857D01*
X147690477Y-21090857D02*
X147928572Y-21090857D01*
X147928572Y-21090857D02*
X148071429Y-21138476D01*
X148071429Y-21138476D02*
X148166667Y-21233714D01*
X148166667Y-21233714D02*
X148214286Y-21328952D01*
X148214286Y-21328952D02*
X148261905Y-21519428D01*
X148261905Y-21519428D02*
X148261905Y-21662285D01*
X148261905Y-21662285D02*
X148214286Y-21852761D01*
X148214286Y-21852761D02*
X148166667Y-21947999D01*
X148166667Y-21947999D02*
X148071429Y-22043238D01*
X148071429Y-22043238D02*
X147928572Y-22090857D01*
X147928572Y-22090857D02*
X147690477Y-22090857D01*
X147719048Y37240096D02*
X148480953Y37240096D01*
X147719048Y-14809904D02*
X148480953Y-14809904D01*
X136223866Y-2327578D02*
X136223866Y-1565674D01*
X136604819Y-1946626D02*
X135842914Y-1946626D01*
X136604819Y-565674D02*
X136604819Y-1137102D01*
X136604819Y-851388D02*
X135604819Y-851388D01*
X135604819Y-851388D02*
X135747676Y-946626D01*
X135747676Y-946626D02*
X135842914Y-1041864D01*
X135842914Y-1041864D02*
X135890533Y-1137102D01*
X135700057Y-184721D02*
X135652438Y-137102D01*
X135652438Y-137102D02*
X135604819Y-41864D01*
X135604819Y-41864D02*
X135604819Y196231D01*
X135604819Y196231D02*
X135652438Y291469D01*
X135652438Y291469D02*
X135700057Y339088D01*
X135700057Y339088D02*
X135795295Y386707D01*
X135795295Y386707D02*
X135890533Y386707D01*
X135890533Y386707D02*
X136033390Y339088D01*
X136033390Y339088D02*
X136604819Y-232340D01*
X136604819Y-232340D02*
X136604819Y386707D01*
X135604819Y672422D02*
X136604819Y1005755D01*
X136604819Y1005755D02*
X135604819Y1339088D01*
X145152438Y26172422D02*
X145104819Y26077184D01*
X145104819Y26077184D02*
X145104819Y25934327D01*
X145104819Y25934327D02*
X145152438Y25791470D01*
X145152438Y25791470D02*
X145247676Y25696232D01*
X145247676Y25696232D02*
X145342914Y25648613D01*
X145342914Y25648613D02*
X145533390Y25600994D01*
X145533390Y25600994D02*
X145676247Y25600994D01*
X145676247Y25600994D02*
X145866723Y25648613D01*
X145866723Y25648613D02*
X145961961Y25696232D01*
X145961961Y25696232D02*
X146057200Y25791470D01*
X146057200Y25791470D02*
X146104819Y25934327D01*
X146104819Y25934327D02*
X146104819Y26029565D01*
X146104819Y26029565D02*
X146057200Y26172422D01*
X146057200Y26172422D02*
X146009580Y26220041D01*
X146009580Y26220041D02*
X145676247Y26220041D01*
X145676247Y26220041D02*
X145676247Y26029565D01*
X146104819Y26648613D02*
X145104819Y26648613D01*
X145104819Y26648613D02*
X146104819Y27220041D01*
X146104819Y27220041D02*
X145104819Y27220041D01*
X146104819Y27696232D02*
X145104819Y27696232D01*
X145104819Y27696232D02*
X145104819Y27934327D01*
X145104819Y27934327D02*
X145152438Y28077184D01*
X145152438Y28077184D02*
X145247676Y28172422D01*
X145247676Y28172422D02*
X145342914Y28220041D01*
X145342914Y28220041D02*
X145533390Y28267660D01*
X145533390Y28267660D02*
X145676247Y28267660D01*
X145676247Y28267660D02*
X145866723Y28220041D01*
X145866723Y28220041D02*
X145961961Y28172422D01*
X145961961Y28172422D02*
X146057200Y28077184D01*
X146057200Y28077184D02*
X146104819Y27934327D01*
X146104819Y27934327D02*
X146104819Y27696232D01*
X153551080Y7389089D02*
X154336795Y7389089D01*
X154336795Y7389089D02*
X154493938Y7336708D01*
X154493938Y7336708D02*
X154598700Y7231946D01*
X154598700Y7231946D02*
X154651080Y7074803D01*
X154651080Y7074803D02*
X154651080Y6970041D01*
X154651080Y8489089D02*
X154651080Y7860517D01*
X154651080Y8174803D02*
X153551080Y8174803D01*
X153551080Y8174803D02*
X153708223Y8070041D01*
X153708223Y8070041D02*
X153812985Y7965279D01*
X153812985Y7965279D02*
X153865366Y7860517D01*
X154651080Y10636707D02*
X153551080Y10636707D01*
X154651080Y11160517D02*
X153551080Y11160517D01*
X153551080Y11160517D02*
X154651080Y11789089D01*
X154651080Y11789089D02*
X153551080Y11789089D01*
X154651080Y12312898D02*
X153551080Y12312898D01*
X153551080Y12312898D02*
X153551080Y12731946D01*
X153551080Y12731946D02*
X153603461Y12836708D01*
X153603461Y12836708D02*
X153655842Y12889089D01*
X153655842Y12889089D02*
X153760604Y12941470D01*
X153760604Y12941470D02*
X153917747Y12941470D01*
X153917747Y12941470D02*
X154022509Y12889089D01*
X154022509Y12889089D02*
X154074890Y12836708D01*
X154074890Y12836708D02*
X154127271Y12731946D01*
X154127271Y12731946D02*
X154127271Y12312898D01*
X153551080Y13412898D02*
X154441557Y13412898D01*
X154441557Y13412898D02*
X154546319Y13465279D01*
X154546319Y13465279D02*
X154598700Y13517660D01*
X154598700Y13517660D02*
X154651080Y13622422D01*
X154651080Y13622422D02*
X154651080Y13831946D01*
X154651080Y13831946D02*
X154598700Y13936708D01*
X154598700Y13936708D02*
X154546319Y13989089D01*
X154546319Y13989089D02*
X154441557Y14041470D01*
X154441557Y14041470D02*
X153551080Y14041470D01*
X153551080Y14408136D02*
X153551080Y15036708D01*
X154651080Y14722422D02*
X153551080Y14722422D01*
X154651080Y16817660D02*
X154651080Y16189088D01*
X154651080Y16503374D02*
X153551080Y16503374D01*
X153551080Y16503374D02*
X153708223Y16398612D01*
X153708223Y16398612D02*
X153812985Y16293850D01*
X153812985Y16293850D02*
X153865366Y16189088D01*
X153655842Y17236707D02*
X153603461Y17289088D01*
X153603461Y17289088D02*
X153551080Y17393850D01*
X153551080Y17393850D02*
X153551080Y17655755D01*
X153551080Y17655755D02*
X153603461Y17760517D01*
X153603461Y17760517D02*
X153655842Y17812898D01*
X153655842Y17812898D02*
X153760604Y17865279D01*
X153760604Y17865279D02*
X153865366Y17865279D01*
X153865366Y17865279D02*
X154022509Y17812898D01*
X154022509Y17812898D02*
X154651080Y17184326D01*
X154651080Y17184326D02*
X154651080Y17865279D01*
X153551080Y18179564D02*
X154651080Y18546231D01*
X154651080Y18546231D02*
X153551080Y18912898D01*
X154651080Y20117659D02*
X153551080Y20117659D01*
X153551080Y20117659D02*
X153551080Y20379564D01*
X153551080Y20379564D02*
X153603461Y20536707D01*
X153603461Y20536707D02*
X153708223Y20641469D01*
X153708223Y20641469D02*
X153812985Y20693850D01*
X153812985Y20693850D02*
X154022509Y20746231D01*
X154022509Y20746231D02*
X154179652Y20746231D01*
X154179652Y20746231D02*
X154389176Y20693850D01*
X154389176Y20693850D02*
X154493938Y20641469D01*
X154493938Y20641469D02*
X154598700Y20536707D01*
X154598700Y20536707D02*
X154651080Y20379564D01*
X154651080Y20379564D02*
X154651080Y20117659D01*
X154546319Y21846231D02*
X154598700Y21793850D01*
X154598700Y21793850D02*
X154651080Y21636707D01*
X154651080Y21636707D02*
X154651080Y21531945D01*
X154651080Y21531945D02*
X154598700Y21374802D01*
X154598700Y21374802D02*
X154493938Y21270040D01*
X154493938Y21270040D02*
X154389176Y21217659D01*
X154389176Y21217659D02*
X154179652Y21165278D01*
X154179652Y21165278D02*
X154022509Y21165278D01*
X154022509Y21165278D02*
X153812985Y21217659D01*
X153812985Y21217659D02*
X153708223Y21270040D01*
X153708223Y21270040D02*
X153603461Y21374802D01*
X153603461Y21374802D02*
X153551080Y21531945D01*
X153551080Y21531945D02*
X153551080Y21636707D01*
X153551080Y21636707D02*
X153603461Y21793850D01*
X153603461Y21793850D02*
X153655842Y21846231D01*
X116794048Y60104703D02*
X116794048Y58849941D01*
X116794048Y58849941D02*
X116867858Y58702322D01*
X116867858Y58702322D02*
X116941667Y58628512D01*
X116941667Y58628512D02*
X117089286Y58554703D01*
X117089286Y58554703D02*
X117384524Y58554703D01*
X117384524Y58554703D02*
X117532143Y58628512D01*
X117532143Y58628512D02*
X117605953Y58702322D01*
X117605953Y58702322D02*
X117679762Y58849941D01*
X117679762Y58849941D02*
X117679762Y60104703D01*
X118417858Y58554703D02*
X118417858Y60104703D01*
X118417858Y60104703D02*
X118934525Y58997560D01*
X118934525Y58997560D02*
X119451191Y60104703D01*
X119451191Y60104703D02*
X119451191Y58554703D01*
X120189287Y58554703D02*
X120189287Y60104703D01*
X122920239Y58554703D02*
X122034525Y58554703D01*
X122477382Y58554703D02*
X122477382Y60104703D01*
X122477382Y60104703D02*
X122329763Y59883274D01*
X122329763Y59883274D02*
X122182144Y59735655D01*
X122182144Y59735655D02*
X122034525Y59661846D01*
X123510715Y59957084D02*
X123584524Y60030893D01*
X123584524Y60030893D02*
X123732143Y60104703D01*
X123732143Y60104703D02*
X124101191Y60104703D01*
X124101191Y60104703D02*
X124248810Y60030893D01*
X124248810Y60030893D02*
X124322619Y59957084D01*
X124322619Y59957084D02*
X124396429Y59809465D01*
X124396429Y59809465D02*
X124396429Y59661846D01*
X124396429Y59661846D02*
X124322619Y59440417D01*
X124322619Y59440417D02*
X123436905Y58554703D01*
X123436905Y58554703D02*
X124396429Y58554703D01*
X124839286Y60104703D02*
X125355952Y58554703D01*
X125355952Y58554703D02*
X125872619Y60104703D01*
X127570237Y58554703D02*
X127570237Y60104703D01*
X127570237Y60104703D02*
X127939285Y60104703D01*
X127939285Y60104703D02*
X128160713Y60030893D01*
X128160713Y60030893D02*
X128308332Y59883274D01*
X128308332Y59883274D02*
X128382142Y59735655D01*
X128382142Y59735655D02*
X128455951Y59440417D01*
X128455951Y59440417D02*
X128455951Y59218989D01*
X128455951Y59218989D02*
X128382142Y58923751D01*
X128382142Y58923751D02*
X128308332Y58776132D01*
X128308332Y58776132D02*
X128160713Y58628512D01*
X128160713Y58628512D02*
X127939285Y58554703D01*
X127939285Y58554703D02*
X127570237Y58554703D01*
X129120237Y58554703D02*
X129120237Y60104703D01*
X129784523Y58628512D02*
X130005951Y58554703D01*
X130005951Y58554703D02*
X130374999Y58554703D01*
X130374999Y58554703D02*
X130522618Y58628512D01*
X130522618Y58628512D02*
X130596427Y58702322D01*
X130596427Y58702322D02*
X130670237Y58849941D01*
X130670237Y58849941D02*
X130670237Y58997560D01*
X130670237Y58997560D02*
X130596427Y59145179D01*
X130596427Y59145179D02*
X130522618Y59218989D01*
X130522618Y59218989D02*
X130374999Y59292798D01*
X130374999Y59292798D02*
X130079761Y59366608D01*
X130079761Y59366608D02*
X129932142Y59440417D01*
X129932142Y59440417D02*
X129858332Y59514227D01*
X129858332Y59514227D02*
X129784523Y59661846D01*
X129784523Y59661846D02*
X129784523Y59809465D01*
X129784523Y59809465D02*
X129858332Y59957084D01*
X129858332Y59957084D02*
X129932142Y60030893D01*
X129932142Y60030893D02*
X130079761Y60104703D01*
X130079761Y60104703D02*
X130448808Y60104703D01*
X130448808Y60104703D02*
X130670237Y60030893D01*
X131113094Y60104703D02*
X131998808Y60104703D01*
X131555951Y58554703D02*
X131555951Y60104703D01*
X133401188Y58554703D02*
X132884522Y59292798D01*
X132515474Y58554703D02*
X132515474Y60104703D01*
X132515474Y60104703D02*
X133105950Y60104703D01*
X133105950Y60104703D02*
X133253569Y60030893D01*
X133253569Y60030893D02*
X133327379Y59957084D01*
X133327379Y59957084D02*
X133401188Y59809465D01*
X133401188Y59809465D02*
X133401188Y59588036D01*
X133401188Y59588036D02*
X133327379Y59440417D01*
X133327379Y59440417D02*
X133253569Y59366608D01*
X133253569Y59366608D02*
X133105950Y59292798D01*
X133105950Y59292798D02*
X132515474Y59292798D01*
X134065474Y58554703D02*
X134065474Y60104703D01*
X135320236Y59366608D02*
X135541664Y59292798D01*
X135541664Y59292798D02*
X135615474Y59218989D01*
X135615474Y59218989D02*
X135689283Y59071370D01*
X135689283Y59071370D02*
X135689283Y58849941D01*
X135689283Y58849941D02*
X135615474Y58702322D01*
X135615474Y58702322D02*
X135541664Y58628512D01*
X135541664Y58628512D02*
X135394045Y58554703D01*
X135394045Y58554703D02*
X134803569Y58554703D01*
X134803569Y58554703D02*
X134803569Y60104703D01*
X134803569Y60104703D02*
X135320236Y60104703D01*
X135320236Y60104703D02*
X135467855Y60030893D01*
X135467855Y60030893D02*
X135541664Y59957084D01*
X135541664Y59957084D02*
X135615474Y59809465D01*
X135615474Y59809465D02*
X135615474Y59661846D01*
X135615474Y59661846D02*
X135541664Y59514227D01*
X135541664Y59514227D02*
X135467855Y59440417D01*
X135467855Y59440417D02*
X135320236Y59366608D01*
X135320236Y59366608D02*
X134803569Y59366608D01*
X136353569Y60104703D02*
X136353569Y58849941D01*
X136353569Y58849941D02*
X136427379Y58702322D01*
X136427379Y58702322D02*
X136501188Y58628512D01*
X136501188Y58628512D02*
X136648807Y58554703D01*
X136648807Y58554703D02*
X136944045Y58554703D01*
X136944045Y58554703D02*
X137091664Y58628512D01*
X137091664Y58628512D02*
X137165474Y58702322D01*
X137165474Y58702322D02*
X137239283Y58849941D01*
X137239283Y58849941D02*
X137239283Y60104703D01*
X137755951Y60104703D02*
X138641665Y60104703D01*
X138198808Y58554703D02*
X138198808Y60104703D01*
X139158331Y58554703D02*
X139158331Y60104703D01*
X140191664Y60104703D02*
X140486902Y60104703D01*
X140486902Y60104703D02*
X140634521Y60030893D01*
X140634521Y60030893D02*
X140782140Y59883274D01*
X140782140Y59883274D02*
X140855950Y59588036D01*
X140855950Y59588036D02*
X140855950Y59071370D01*
X140855950Y59071370D02*
X140782140Y58776132D01*
X140782140Y58776132D02*
X140634521Y58628512D01*
X140634521Y58628512D02*
X140486902Y58554703D01*
X140486902Y58554703D02*
X140191664Y58554703D01*
X140191664Y58554703D02*
X140044045Y58628512D01*
X140044045Y58628512D02*
X139896426Y58776132D01*
X139896426Y58776132D02*
X139822617Y59071370D01*
X139822617Y59071370D02*
X139822617Y59588036D01*
X139822617Y59588036D02*
X139896426Y59883274D01*
X139896426Y59883274D02*
X140044045Y60030893D01*
X140044045Y60030893D02*
X140191664Y60104703D01*
X141520236Y58554703D02*
X141520236Y60104703D01*
X141520236Y60104703D02*
X142405950Y58554703D01*
X142405950Y58554703D02*
X142405950Y60104703D01*
%TO.C,F4*%
D11*
X132190000Y-3676038D02*
X152810000Y-3676038D01*
X132190000Y-10296038D02*
X132190000Y-3676038D01*
X152810000Y-3676038D02*
X152810000Y-10296038D01*
X152810000Y-10296038D02*
X132190000Y-10296038D01*
%TO.C,J4*%
X109620000Y9696231D02*
X110220000Y9396231D01*
X109620000Y9096231D02*
X109620000Y9696231D01*
X110220000Y9396231D02*
X109620000Y9096231D01*
X110420000Y11506231D02*
X111620000Y11506231D01*
X110420000Y4486231D02*
X110420000Y11506231D01*
X111620000Y13206231D02*
X117300000Y13206231D01*
X111620000Y11506231D02*
X111620000Y13206231D01*
X117300000Y13206231D02*
X117300000Y11506231D01*
X117300000Y11506231D02*
X118500000Y11506231D01*
X118500000Y11506231D02*
X118500000Y4486231D01*
X118500000Y4486231D02*
X110420000Y4486231D01*
%TO.C,J3*%
X137240000Y36613962D02*
X137840000Y36313962D01*
X137240000Y36013962D02*
X137240000Y36613962D01*
X137840000Y36313962D02*
X137240000Y36013962D01*
X138040000Y38423962D02*
X139240000Y38423962D01*
X138040000Y31403962D02*
X138040000Y38423962D01*
X139240000Y40123962D02*
X144920000Y40123962D01*
X139240000Y38423962D02*
X139240000Y40123962D01*
X144920000Y40123962D02*
X144920000Y38423962D01*
X144920000Y38423962D02*
X146120000Y38423962D01*
X146120000Y38423962D02*
X146120000Y31403962D01*
X146120000Y31403962D02*
X138040000Y31403962D01*
%TO.C,J2*%
X109620000Y36613962D02*
X110220000Y36313962D01*
X109620000Y36013962D02*
X109620000Y36613962D01*
X110220000Y36313962D02*
X109620000Y36013962D01*
X110420000Y38423962D02*
X111620000Y38423962D01*
X110420000Y31403962D02*
X110420000Y38423962D01*
X111620000Y40123962D02*
X117300000Y40123962D01*
X111620000Y38423962D02*
X111620000Y40123962D01*
X117300000Y40123962D02*
X117300000Y38423962D01*
X117300000Y38423962D02*
X118500000Y38423962D01*
X118500000Y38423962D02*
X118500000Y31403962D01*
X118500000Y31403962D02*
X110420000Y31403962D01*
%TO.C,F2*%
X132190000Y48373962D02*
X152810000Y48373962D01*
X132190000Y41753962D02*
X132190000Y48373962D01*
X152810000Y48373962D02*
X152810000Y41753962D01*
X152810000Y41753962D02*
X132190000Y41753962D01*
%TO.C,F3*%
X104570000Y21456231D02*
X125190000Y21456231D01*
X104570000Y14836231D02*
X104570000Y21456231D01*
X125190000Y21456231D02*
X125190000Y14836231D01*
X125190000Y14836231D02*
X104570000Y14836231D01*
%TO.C,F5*%
X104570000Y-3676038D02*
X125190000Y-3676038D01*
X104570000Y-10296038D02*
X104570000Y-3676038D01*
X125190000Y-3676038D02*
X125190000Y-10296038D01*
X125190000Y-10296038D02*
X104570000Y-10296038D01*
%TO.C,F1*%
X104570000Y48373962D02*
X125190000Y48373962D01*
X104570000Y41753962D02*
X104570000Y48373962D01*
X125190000Y48373962D02*
X125190000Y41753962D01*
X125190000Y41753962D02*
X104570000Y41753962D01*
%TO.C,J5*%
X137240000Y-15436038D02*
X137840000Y-15736038D01*
X137240000Y-16036038D02*
X137240000Y-15436038D01*
X137840000Y-15736038D02*
X137240000Y-16036038D01*
X138040000Y-13626038D02*
X139240000Y-13626038D01*
X138040000Y-20646038D02*
X138040000Y-13626038D01*
X139240000Y-11926038D02*
X144920000Y-11926038D01*
X139240000Y-13626038D02*
X139240000Y-11926038D01*
X144920000Y-11926038D02*
X144920000Y-13626038D01*
X144920000Y-13626038D02*
X146120000Y-13626038D01*
X146120000Y-13626038D02*
X146120000Y-20646038D01*
X146120000Y-20646038D02*
X138040000Y-20646038D01*
%TO.C,J6*%
X110040000Y-15436038D02*
X110640000Y-15736038D01*
X110040000Y-16036038D02*
X110040000Y-15436038D01*
X110640000Y-15736038D02*
X110040000Y-16036038D01*
X110840000Y-13626038D02*
X112040000Y-13626038D01*
X110840000Y-20646038D02*
X110840000Y-13626038D01*
X112040000Y-11926038D02*
X117720000Y-11926038D01*
X112040000Y-13626038D02*
X112040000Y-11926038D01*
X117720000Y-11926038D02*
X117720000Y-13626038D01*
X117720000Y-13626038D02*
X118920000Y-13626038D01*
X118920000Y-13626038D02*
X118920000Y-20646038D01*
X118920000Y-20646038D02*
X110840000Y-20646038D01*
%TD*%
M02*
