M48
; DRILL file KiCad 10.0.6 date 2026-09-29T21:35:46
; FORMAT={-:-/ absolute / metric / decimal}
; #@! TF.CreationDate,2026-09-29T21:35:46+01:00
; #@! TF.GenerationSoftware,Kicad,Pcbnew,10.0.6
; #@! TF.FileFunction,Plated,1,2,PTH
FMAT,2
METRIC
; #@! TA.AperFunction,Plated,PTH,ComponentDrill
T1C1.400
; #@! TA.AperFunction,Plated,PTH,ComponentDrill
T2C1.500
; #@! TA.AperFunction,Plated,PTH,ComponentDrill
T3C1.700
%
G90
G05
T1
X108.48Y46.314
X108.48Y43.814
X108.48Y19.396
X108.48Y16.896
X108.48Y-5.736
X108.48Y-8.236
X111.98Y46.314
X111.98Y43.814
X111.98Y19.396
X111.98Y16.896
X111.98Y-5.736
X111.98Y-8.236
X117.78Y46.314
X117.78Y43.814
X117.78Y19.396
X117.78Y16.896
X117.78Y-5.736
X117.78Y-8.236
X121.28Y46.314
X121.28Y43.814
X121.28Y19.396
X121.28Y16.896
X121.28Y-5.736
X121.28Y-8.236
X136.1Y46.314
X136.1Y43.814
X136.1Y-5.736
X136.1Y-8.236
X139.6Y46.314
X139.6Y43.814
X139.6Y-5.736
X139.6Y-8.236
X145.4Y46.314
X145.4Y43.814
X145.4Y-5.736
X145.4Y-8.236
X148.9Y46.314
X148.9Y43.814
X148.9Y-5.736
X148.9Y-8.236
T2
X136.11Y11.254
X136.11Y7.254
X146.27Y21.414
X146.27Y17.414
T3
X112.48Y36.314
X112.48Y9.396
X112.9Y-15.736
X116.44Y36.314
X116.44Y9.396
X116.86Y-15.736
X140.1Y36.314
X140.1Y-15.736
X144.06Y36.314
X144.06Y-15.736
M30
