%TF.GenerationSoftware,KiCad,Pcbnew,10.0.6*%
%TF.CreationDate,2026-09-29T21:41:40+01:00*%
%TF.ProjectId,MAIN_POWER,4d41494e-5f50-44f5-9745-522e6b696361,rev?*%
%TF.SameCoordinates,Original*%
%TF.FileFunction,Soldermask,Bot*%
%TF.FilePolarity,Negative*%
%FSLAX46Y46*%
G04 Gerber Fmt 4.6, Leading zero omitted, Abs format (unit mm)*
G04 Created by KiCad (PCBNEW 10.0.6) date 2026-09-29 21:41:40*
%MOMM*%
%LPD*%
G01*
G04 APERTURE LIST*
G04 Aperture macros list*
%AMRoundRect*
0 Rectangle with rounded corners*
0 $1 Rounding radius*
0 $2 $3 $4 $5 $6 $7 $8 $9 X,Y pos of 4 corners*
0 Add a 4 corners polygon primitive as box body*
4,1,4,$2,$3,$4,$5,$6,$7,$8,$9,$2,$3,0*
0 Add four circle primitives for the rounded corners*
1,1,$1+$1,$2,$3*
1,1,$1+$1,$4,$5*
1,1,$1+$1,$6,$7*
1,1,$1+$1,$8,$9*
0 Add four rect primitives between the rounded corners*
20,1,$1+$1,$2,$3,$4,$5,0*
20,1,$1+$1,$4,$5,$6,$7,0*
20,1,$1+$1,$6,$7,$8,$9,0*
20,1,$1+$1,$8,$9,$2,$3,0*%
G04 Aperture macros list end*
%ADD10C,2.400000*%
%ADD11C,2.200000*%
%ADD12C,4.500000*%
%ADD13R,3.200000X3.200000*%
%ADD14C,3.200000*%
%ADD15RoundRect,0.250001X-1.099999X-1.099999X1.099999X-1.099999X1.099999X1.099999X-1.099999X1.099999X0*%
%ADD16C,2.700000*%
G04 APERTURE END LIST*
D10*
%TO.C,F4*%
X142500000Y-6986038D03*
D11*
X136100000Y-5736038D03*
X136100000Y-8236038D03*
X139600000Y-5736038D03*
X139600000Y-8236038D03*
X145400000Y-5736038D03*
X145400000Y-8236038D03*
X148900000Y-5736038D03*
X148900000Y-8236038D03*
%TD*%
D12*
%TO.C,H2*%
X103600000Y55263962D03*
%TD*%
%TO.C,H3*%
X155600000Y-29000000D03*
%TD*%
%TO.C,H4*%
X155600000Y55263962D03*
%TD*%
D13*
%TO.C,J1*%
X136110000Y7254326D03*
X136110000Y11254326D03*
D14*
X146270000Y17414326D03*
X146270000Y21414326D03*
%TD*%
D15*
%TO.C,J4*%
X112480000Y9396231D03*
D16*
X116440000Y9396231D03*
%TD*%
D15*
%TO.C,J3*%
X140100000Y36313962D03*
D16*
X144060000Y36313962D03*
%TD*%
D15*
%TO.C,J2*%
X112480000Y36313962D03*
D16*
X116440000Y36313962D03*
%TD*%
D10*
%TO.C,F2*%
X142500000Y45063962D03*
D11*
X136100000Y46313962D03*
X136100000Y43813962D03*
X139600000Y46313962D03*
X139600000Y43813962D03*
X145400000Y46313962D03*
X145400000Y43813962D03*
X148900000Y46313962D03*
X148900000Y43813962D03*
%TD*%
D10*
%TO.C,F3*%
X114880000Y18146231D03*
D11*
X108480000Y19396231D03*
X108480000Y16896231D03*
X111980000Y19396231D03*
X111980000Y16896231D03*
X117780000Y19396231D03*
X117780000Y16896231D03*
X121280000Y19396231D03*
X121280000Y16896231D03*
%TD*%
D10*
%TO.C,F5*%
X114880000Y-6986038D03*
D11*
X108480000Y-5736038D03*
X108480000Y-8236038D03*
X111980000Y-5736038D03*
X111980000Y-8236038D03*
X117780000Y-5736038D03*
X117780000Y-8236038D03*
X121280000Y-5736038D03*
X121280000Y-8236038D03*
%TD*%
D10*
%TO.C,F1*%
X114880000Y45063962D03*
D11*
X108480000Y46313962D03*
X108480000Y43813962D03*
X111980000Y46313962D03*
X111980000Y43813962D03*
X117780000Y46313962D03*
X117780000Y43813962D03*
X121280000Y46313962D03*
X121280000Y43813962D03*
%TD*%
D15*
%TO.C,J5*%
X140100000Y-15736038D03*
D16*
X144060000Y-15736038D03*
%TD*%
D12*
%TO.C,H1*%
X103600000Y-29000000D03*
%TD*%
D15*
%TO.C,J6*%
X112900000Y-15736038D03*
D16*
X116860000Y-15736038D03*
%TD*%
M02*
